<?xml version="1.0" encoding="UTF-8"?>
<svg width="69px" height="71px" viewBox="0 0 69 71" version="1.1" xmlns="http://www.w3.org/2000/svg" xmlns:xlink="http://www.w3.org/1999/xlink">
    <!-- Generator: sketchtool 54.1 (76490) - https://sketchapp.com -->
    <title>09497A81-88AF-4A30-8289-2258AE49373D</title>
    <desc>Created with sketchtool.</desc>
    <g id="Mobile-1" stroke="none" stroke-width="1" fill="none" fill-rule="evenodd">
        <g id="home---mobile1" transform="translate(-273.000000, -704.000000)">
            <g id="cruelty-free" transform="translate(275.000000, 706.000000)">
                <path d="M64.7317816,12.5973124 C64.7317816,5.63975096 59.1225622,1.70530257e-13 52.2029754,1.70530257e-13 C47.3854076,1.70530257e-13 43.2085252,2.73808668 41.1120294,6.74757559 C38.1373527,5.77851622 34.9656837,5.248727 31.670204,5.248727 C28.8110532,5.248727 26.0471767,5.65123815 23.4218393,6.38779679 C21.2678107,2.57634704 17.2004708,1.70530257e-13 12.5288062,1.70530257e-13 C5.60921938,1.70530257e-13 -1.84741111e-13,5.63975096 -1.84741111e-13,12.5973124 C-1.84741111e-13,16.4092216 1.69100451,19.8181602 4.3513219,22.1280044 C2.24101823,26.3084227 1.0438754,31.0333339 1.0438754,36.0422083 C1.0438754,53.0487638 14.7555563,66.8356897 31.670204,66.8356897 C48.5843915,66.8356897 62.2956121,53.0487638 62.2956121,36.0422083 C62.2956121,31.3467044 61.2457533,26.8988643 59.3766271,22.9164852 C62.6113522,20.6383456 64.7317816,16.8696282 64.7317816,12.5973124" id="Fill-22" stroke="#FFFFFF" stroke-width="4"></path>
                <polygon id="Rectangle" fill="#FFFFFF" fill-rule="nonzero" transform="translate(53.712991, 10.852021) rotate(-315.000000) translate(-53.712991, -10.852021) " points="52.5923012 0.852020814 54.8336805 0.852020814 54.8336805 20.8520208 52.5923012 20.8520208"></polygon>
                <polygon id="Rectangle" fill="#FFFFFF" fill-rule="nonzero" transform="translate(12.546372, 52.018640) rotate(-315.000000) translate(-12.546372, -52.018640) " points="11.4256823 47.0186397 13.6670616 47.0186397 13.6670616 57.0186397 11.4256823 57.0186397"></polygon>
                <path d="M40.5231036,33.7333333 L42.5882353,34.4565315 C41.3108343,39.271509 38.6070021,42.8684685 34.6470588,45 C34.6470588,41.4791667 36.6483205,37.6538288 40.5231036,33.7333333 Z M43.0459559,45 C41.2591912,41.9203018 41.2591912,38.3305898 43.0459559,35.4666667 C44.7886029,38.3305898 44.7886029,41.9203018 43.0459559,45 Z M40.9118825,34.4572996 L37.2870494,31.6416577 C34.5233645,33.250596 32.7009346,34.1508352 29.8170895,34.1508352 C23.7489987,34.1508352 21.0053405,30.1859517 21.0053405,25.7805255 C21.0053405,24.5929758 21.3457944,23.4245802 22.0667557,22.1029523 C20.5447263,24.1715872 17,23.290502 17,20.3216279 C17,19.9193933 17.0600801,19.4788507 17.200267,19 L35.4846462,19.019154 C35.4846462,21.0494809 33.7623498,20.9728648 29.1161549,20.9728648 C30.9586115,21.892258 32.4806409,24.2865114 32.740988,27.56185 C33.1815754,26.2785302 33.2216288,24.1332792 32.8611482,22.7350352 C37.2069426,22.1029523 38.8291055,19.6512369 39.3698264,19.1723862 C39.4699599,19.0766161 39.5901202,19.019154 39.7102804,19.019154 L41.6128171,19.019154 C42.6341789,19.019154 42.5941255,19.1340782 42.1134846,19.9960094 L40.1108144,23.6544285 L42.9345794,28.5770134 C44.8371162,28.5770134 47,28.8068617 47,30.2242597 C47,32.5035889 43.4953271,35.2617688 40.9118825,34.4572996 Z" id="Shape" fill="#FFFFFF" fill-rule="nonzero" transform="translate(32.000000, 32.000000) scale(-1, 1) rotate(-180.000000) translate(-32.000000, -32.000000) "></path>
            </g>
        </g>
    </g>
</svg>