<?xml version="1.0" encoding="UTF-8"?>
<svg width="69px" height="71px" viewBox="0 0 69 71" version="1.1" xmlns="http://www.w3.org/2000/svg" xmlns:xlink="http://www.w3.org/1999/xlink">
    <!-- Generator: sketchtool 53.2 (72643) - https://sketchapp.com -->
    <title>800E5BF4-0901-4B9F-B348-64C51CA8BFF1</title>
    <desc>Created with sketchtool.</desc>
    <defs>
        <polygon id="path-1" points="0 0.279157895 31.80177 0.279157895 31.80177 32.2194947 0 32.2194947"></polygon>
        <polygon id="path-3" points="0.9254 0.1944 12.9325 0.1944 12.9325 11.9544 0.9254 11.9544"></polygon>
    </defs>
    <g id="Desktop-1" stroke="none" stroke-width="1" fill="none" fill-rule="evenodd">
        <g id="product---sonic-facial-brush---desktop1" transform="translate(-452.000000, -742.000000)">
            <g id="Group-10" transform="translate(454.000000, 744.000000)">
                <path d="M65,12.6282819 C65,5.65361585 59.3675386,0 52.4192803,0 C47.5817507,0 43.3875612,2.74481806 41.2823785,6.76416398 C38.2953762,5.79272225 35.1105652,5.26163058 31.8014306,5.26163058 C28.9304328,5.26163058 26.1551041,5.66513128 23.5188885,6.40350069 C21.3559346,2.58268079 17.2717415,0 12.5807197,0 C5.63246137,0 0,5.65361585 0,12.6282819 C0,16.4495624 1.69801125,19.8668816 4.36935175,22.1824044 C2.25030397,26.3731 1.04820074,31.1096269 1.04820074,36.1308153 C1.04820074,53.1791801 14.8166964,67 31.8014306,67 C48.7857026,67 62.5537361,53.1791801 62.5537361,36.1308153 C62.5537361,31.4237678 61.4995272,26.9649931 59.6226563,22.9728236 C62.8707845,20.6890834 65,16.9111009 65,12.6282819" id="Fill-22" stroke="#FFFFFF" stroke-width="4"></path>
                <g id="Group-9" transform="translate(11.000000, 15.000000)">
                    <g id="Group-3">
                        <mask id="mask-2" fill="white">
                            <use xlink:href="#path-1"></use>
                        </mask>
                        <g id="Clip-2"></g>
                        <path d="M18.12327,20.8131789 C15.91557,21.9040737 11.97207,27.8128105 10.47717,32.2194947 C11.92917,27.9255474 12.79707,21.4431789 11.49357,18.7872316 C10.23627,16.2075474 4.50087,12.3413368 -0.00033,10.8028105 C4.39197,12.3048632 11.32197,12.8420211 13.66497,11.6881263 C15.90237,10.5839684 19.81947,4.68517895 21.31767,0.278494737 C19.81947,4.68517895 19.50597,12.0959684 20.43987,14.0058632 C21.39357,15.9588632 27.40947,20.1964421 31.80177,21.7018105 C27.40947,20.1964421 20.36727,19.7057053 18.12327,20.8131789" id="Fill-1" fill="#FEFEFE" mask="url(#mask-2)"></path>
                    </g>
                    <path d="M33.1260504,32.2878756 C32.010084,32.8325278 30.0201681,35.7911326 29.2672269,38 C30.0033613,35.8482875 30.4302521,32.6005463 29.7882353,31.2691742 C29.1462185,29.9848708 26.2655462,28.0382433 24,27.2716957 C26.205042,28.0247951 29.6941176,28.3004833 30.8806723,27.7188485 C32,27.1674722 33.9731092,24.2088674 34.7260504,22 C33.9731092,24.2088674 33.8151261,27.9205715 34.2890756,28.878756 C34.7596639,29.8571128 37.7915966,31.9718428 40,32.7283043 C37.7915966,31.9718428 34.2521008,31.7297752 33.1260504,32.2878756" id="Fill-4" fill="#FEFEFE"></path>
                    <g id="Group-8" transform="translate(28.000000, 4.000000)">
                        <mask id="mask-4" fill="white">
                            <use xlink:href="#path-3"></use>
                        </mask>
                        <g id="Clip-7"></g>
                        <path d="M7.7644,7.7544 C6.9349,8.15554286 5.4404,10.3326857 4.8769,11.9544 C5.4299,10.3738286 5.7554,7.98068571 5.2584,7.00697143 C4.7859,6.06068571 2.6159,4.6344 0.9254,4.06525714 C2.5844,4.62068571 5.1989,4.82297143 6.0879,4.39782857 C6.9314,3.9864 8.4084,1.82297143 8.9719,0.1944 C8.4084,1.82297143 8.2859,4.54525714 8.6394,5.25154286 C9.0034,5.96468571 11.2679,7.52468571 12.9339,8.07668571 C11.2679,7.52468571 8.6079,7.3464 7.7644,7.7544" id="Fill-6" fill="#FEFEFE" mask="url(#mask-4)"></path>
                    </g>
                </g>
            </g>
        </g>
    </g>
</svg>