<?xml version="1.0" encoding="UTF-8"?>
<svg width="69px" height="71px" viewBox="0 0 69 71" version="1.1" xmlns="http://www.w3.org/2000/svg" xmlns:xlink="http://www.w3.org/1999/xlink">
    <!-- Generator: sketchtool 53.2 (72643) - https://sketchapp.com -->
    <title>097FDD2E-7AFC-4B22-9444-FB335464B9C2</title>
    <desc>Created with sketchtool.</desc>
    <defs>
        <polygon id="path-1" points="0 0 28 0 28 34 0 34"></polygon>
    </defs>
    <g id="Desktop-1" stroke="none" stroke-width="1" fill="none" fill-rule="evenodd">
        <g id="product---sonic-facial-brush---desktop1" transform="translate(-751.000000, -742.000000)">
            <g id="Group-12" transform="translate(753.000000, 744.000000)">
                <path d="M65,12.6282819 C65,5.65361585 59.3675386,0 52.4192803,0 C47.5817507,0 43.3875612,2.74481806 41.2823785,6.76416398 C38.2953762,5.79272225 35.1105652,5.26163058 31.8014306,5.26163058 C28.9304328,5.26163058 26.1551041,5.66513128 23.5188885,6.40350069 C21.3559346,2.58268079 17.2717415,0 12.5807197,0 C5.63246137,0 0,5.65361585 0,12.6282819 C0,16.4495624 1.69801125,19.8668816 4.36935175,22.1824044 C2.25030397,26.3731 1.04820074,31.1096269 1.04820074,36.1308153 C1.04820074,53.1791801 14.8166964,67 31.8014306,67 C48.7857026,67 62.5537361,53.1791801 62.5537361,36.1308153 C62.5537361,31.4237678 61.4995272,26.9649931 59.6226563,22.9728236 C62.8707845,20.6890834 65,16.9111009 65,12.6282819" id="Fill-22" stroke="#FFFFFF" stroke-width="4"></path>
                <g id="Group-3" transform="translate(18.000000, 18.000000)">
                    <mask id="mask-2" fill="white">
                        <use xlink:href="#path-1"></use>
                    </mask>
                    <g id="Clip-2"></g>
                    <path d="M24.3389321,13.5475799 C23.0181744,13.5933803 21.6422808,13.5882913 20.2488438,13.5603022 C21.3239957,13.8656382 22.3816043,14.1582518 23.4342006,14.443232 C21.3290081,16.3566707 18.705036,17.8375501 16.3216574,18.9952822 C14.9181957,19.6695658 13.3844126,20.0537802 11.8330863,20.1224808 C9.82563486,20.2115371 7.92845544,20.4252723 6.224252,20.827298 C7.71292383,21.0562999 9.26926256,21.3540025 10.8782311,21.7025944 C7.1740948,23.6007662 5.14158157,25.9722088 3.57521812,26.4251238 C3.56018103,27.2749756 3.61030466,27.9645259 3.69300865,28.3919963 C3.69300865,28.3919963 4.42731984,33.9974555 4.42731984,34 C3.14415489,32.0407609 2.52262187,30.4759142 1.99381757,28.7151435 C1.78831069,28.1655388 1.49508745,26.9314726 1.43243291,25.3768037 C-0.204103632,22.9061269 -1.06873626,16.7917744 2.38728807,13.0895759 C2.58778259,14.5704553 2.84591929,16.107313 3.16921671,17.7128712 C3.37973596,16.0284345 3.73310755,14.4941213 4.2017635,13.0641313 C4.67793799,11.5756185 5.74055896,10.3466413 7.13900825,9.67744663 C9.19908947,8.68001584 11.9107779,7.92685382 14.5798612,7.13043587 C14.6575528,8.69782711 14.6926394,10.2321403 14.7352445,11.7613645 C15.6324575,10.0133162 16.5121272,8.2449121 17.213858,6.30093985 C18.898012,5.73352387 20.444326,5.09486282 21.7500466,4.38241226 C21.9455287,5.41801004 22.1084305,6.42052977 22.2638138,7.40523823 C22.5194443,6.26277286 22.7199388,5.04651796 22.8251985,3.74120675 C25.7900112,1.89137975 26.9002496,-0.416451183 27.3789303,0.0644529482 C28.2260197,0.927027024 28.9302567,9.46625593 24.3389321,13.5475799" id="Fill-1" fill="#FEFEFE" mask="url(#mask-2)"></path>
                </g>
            </g>
        </g>
    </g>
</svg>