<?xml version="1.0" encoding="UTF-8"?>
<svg width="69px" height="71px" viewBox="0 0 69 71" version="1.1" xmlns="http://www.w3.org/2000/svg" xmlns:xlink="http://www.w3.org/1999/xlink">
    <!-- Generator: sketchtool 54.1 (76490) - https://sketchapp.com -->
    <title>27E5CF0B-654B-4C43-ABD2-CD10FED8486B</title>
    <desc>Created with sketchtool.</desc>
    <g id="Mobile-1" stroke="none" stroke-width="1" fill="none" fill-rule="evenodd">
        <g id="home---mobile1" transform="translate(-150.000000, -704.000000)">
            <g id="Facts" transform="translate(19.000000, 704.000000)">
                <g id="Gelatin" transform="translate(133.000000, 2.000000)">
                    <g transform="translate(20.172414, 20.919540)" fill="#FFFFFF" id="Path">
                        <path d="M9.23719958,1.14158045 C8.98725474,0.629469595 8.40405012,0.202710548 7.8208455,0.0320069286 C7.32095582,-0.0533448809 6.7377512,0.0320069286 6.23786152,0.288062357 C5.73797185,0.629469595 5.40471206,1.05622864 5.32139712,1.5683395 L2.32205906,14.5418145 C2.23874411,14.9685736 2.57200389,15.3953326 3.07189357,15.3953326 L7.40427077,15.3953326 C7.8208455,15.3953326 8.15410528,15.1392772 8.15410528,14.79787 L9.23719958,1.14158045 Z"></path>
                        <path d="M14.2516794,1.83195858 C13.899786,1.178302 13.1959994,0.769766632 12.3162661,0.769766632 C11.4365328,0.769766632 10.7327462,1.178302 10.3808529,1.83195858 L9.23719958,14.659969 C9.23719958,15.0685043 9.5890929,15.3953326 10.0289595,15.3953326 L14.6035727,15.3953326 C15.0434393,15.3953326 15.3953326,15.0685043 15.3953326,14.659969 L14.2516794,1.83195858 Z"></path>
                        <path d="M22.3125058,14.6237719 L19.3122861,1.59296813 C19.0622678,0.564220462 17.9788551,-0.207340287 16.8954425,0.0498466297 C16.228727,0.135575602 15.6453509,0.564220462 15.3953326,1.16432327 L16.4787453,14.7952298 C16.4787453,15.1381457 16.812103,15.3953326 17.2288002,15.3953326 L21.5624508,15.3953326 C21.979148,15.3953326 22.3958452,15.0524167 22.3125058,14.6237719 Z"></path>
                        <path d="M0,17.648032 L0,19.153605 C0,19.4705677 0.338697318,19.7875305 0.677394636,19.7875305 L2.37088123,19.7875305 L3.30229885,21.7685475 C3.38697318,22.0855103 3.81034483,22.3232323 4.14904215,22.3232323 L21.2532567,22.3232323 C21.6766284,22.3232323 22.0153257,22.0855103 22.1,21.6893069 L23.0314176,19.7082898 L24.7249042,19.7082898 C25.0636015,19.7082898 25.4022989,19.4705677 25.4022989,19.0743643 L25.4022989,17.5687914 C25.4022989,17.2518286 25.0636015,16.9348659 24.7249042,16.9348659 L0.677394636,16.9348659 C0.338697318,17.0141066 0,17.3310693 0,17.648032 Z"></path>
                    </g>
                    <path d="M64.7317816,12.5973124 C64.7317816,5.63975096 59.1225622,1.70530257e-13 52.2029754,1.70530257e-13 C47.3854076,1.70530257e-13 43.2085252,2.73808668 41.1120294,6.74757559 C38.1373527,5.77851622 34.9656837,5.248727 31.670204,5.248727 C28.8110532,5.248727 26.0471767,5.65123815 23.4218393,6.38779679 C21.2678107,2.57634704 17.2004708,1.70530257e-13 12.5288062,1.70530257e-13 C5.60921938,1.70530257e-13 -1.84741111e-13,5.63975096 -1.84741111e-13,12.5973124 C-1.84741111e-13,16.4092216 1.69100451,19.8181602 4.3513219,22.1280044 C2.24101823,26.3084227 1.0438754,31.0333339 1.0438754,36.0422083 C1.0438754,53.0487638 14.7555563,66.8356897 31.670204,66.8356897 C48.5843915,66.8356897 62.2956121,53.0487638 62.2956121,36.0422083 C62.2956121,31.3467044 61.2457533,26.8988643 59.3766271,22.9164852 C62.6113522,20.6383456 64.7317816,16.8696282 64.7317816,12.5973124" id="Fill-22" stroke="#FFFFFF" stroke-width="4"></path>
                    <polygon id="Rectangle" fill="#FFFFFF" fill-rule="nonzero" transform="translate(51.538841, 13.026171) rotate(-315.000000) translate(-51.538841, -13.026171) " points="50.4181511 -0.0485416694 52.6595304 -0.0485416694 52.6595304 26.1008836 50.4181511 26.1008836"></polygon>
                    <polygon id="Rectangle" fill="#FFFFFF" fill-rule="nonzero" transform="translate(14.822118, 49.742894) rotate(-315.000000) translate(-14.822118, -49.742894) " points="13.7014283 41.524503 15.9428076 41.524503 15.9428076 57.9612846 13.7014283 57.9612846"></polygon>
                </g>
            </g>
        </g>
    </g>
</svg>