<?xml version="1.0" encoding="UTF-8"?>
<svg width="69px" height="71px" viewBox="0 0 69 71" version="1.1" xmlns="http://www.w3.org/2000/svg" xmlns:xlink="http://www.w3.org/1999/xlink">
    <!-- Generator: sketchtool 54.1 (76490) - https://sketchapp.com -->
    <title>C3072B51-EFE8-48E6-9296-4B14FFBC22E4</title>
    <desc>Created with sketchtool.</desc>
    <g id="Mobile-1" stroke="none" stroke-width="1" fill="none" fill-rule="evenodd">
        <g id="home---mobile1" transform="translate(-272.000000, -845.000000)">
            <g id="Facts" transform="translate(19.000000, 704.000000)">
                <g id="Gluten-Free" transform="translate(255.000000, 143.000000)">
                    <g id="Gluten" transform="translate(23.413793, 17.436782)" fill="#FFFFFF">
                        <path d="M9.54661558,10.2148787 C8.87835249,10.2148787 8.30555556,10.7876756 8.30555556,11.4559387 L8.30555556,32.9358238 C8.30555556,33.6040868 8.87835249,34.1768838 9.54661558,34.1768838 C10.2148787,34.1768838 10.7876756,33.6040868 10.7876756,32.9358238 L10.7876756,11.4559387 C10.7876756,10.7876756 10.2148787,10.2148787 9.54661558,10.2148787 Z" id="Path"></path>
                        <path d="M9.54661558,0.429597701 C10.8354087,1.43199234 11.6946041,3.00718391 11.6946041,4.77330779 C11.6946041,6.53943167 10.8354087,8.11462324 9.54661558,9.11701788 C8.25782248,8.11462324 7.39862708,6.53943167 7.39862708,4.77330779 C7.39862708,3.00718391 8.25782248,1.43199234 9.54661558,0.429597701 Z" id="Path"></path>
                        <path d="M17.8044381,6.44396552 C18.1863027,8.01915709 17.8999042,9.78528097 16.7543103,11.1695402 C15.6564496,12.5537995 13.9857918,13.2697957 12.3628672,13.2220626 C11.9810026,11.646871 12.267401,9.88074713 13.4129949,8.49648787 C14.5108557,7.15996169 16.1337803,6.44396552 17.8044381,6.44396552 Z" id="Path"></path>
                        <path d="M18.3295019,13.7948595 C18.6159004,15.4177842 18.1385696,17.136175 16.8975096,18.4249681 C15.7041826,19.7137612 13.9857918,20.2865581 12.3628672,20.1433589 C12.0764687,18.5204342 12.5537995,16.8020434 13.7948595,15.5132503 C14.9881865,14.1767241 16.7065773,13.6039272 18.3295019,13.7948595 Z" id="Path"></path>
                        <path d="M18.6159004,20.859355 C18.9022989,22.4822797 18.4249681,24.2006705 17.183908,25.4894636 C15.9905811,26.7782567 14.2721903,27.3510536 12.6492656,27.2078544 C12.3628672,25.5849298 12.840198,23.866539 14.081258,22.5777458 C15.2745849,21.2889527 16.9929757,20.7161558 18.6159004,20.859355 Z" id="Path"></path>
                        <path d="M5.68023627,8.54422095 C6.77809706,9.9284802 7.11222861,11.6946041 6.73036398,13.2697957 C5.10743934,13.3175287 3.43678161,12.6015326 2.33892082,11.2172733 C1.24106003,9.83301405 0.90692848,8.06689017 1.2887931,6.4916986 C2.95945083,6.44396552 4.58237548,7.15996169 5.68023627,8.54422095 Z" id="Path"></path>
                        <path d="M5.29837165,15.4655172 C6.4916986,16.7543103 6.96902937,18.4727011 6.73036398,20.0956258 C5.10743934,20.238825 3.38904853,19.6660281 2.19572158,18.377235 C1.00239464,17.0884419 0.525063857,15.3700511 0.763729246,13.7471264 C2.3866539,13.6039272 4.1050447,14.1767241 5.29837165,15.4655172 Z" id="Path"></path>
                        <path d="M5.01197318,22.5777458 C6.20530013,23.866539 6.68263091,25.5849298 6.44396552,27.2078544 C4.82104087,27.3510536 3.10265006,26.7782567 1.90932312,25.4894636 C0.715996169,24.2006705 0.23866539,22.4822797 0.477330779,20.859355 C2.10025543,20.7161558 3.81864623,21.2889527 5.01197318,22.5777458 Z" id="Path"></path>
                    </g>
                    <path d="M64.7317816,12.5973124 C64.7317816,5.63975096 59.1225622,1.70530257e-13 52.2029754,1.70530257e-13 C47.3854076,1.70530257e-13 43.2085252,2.73808668 41.1120294,6.74757559 C38.1373527,5.77851622 34.9656837,5.248727 31.670204,5.248727 C28.8110532,5.248727 26.0471767,5.65123815 23.4218393,6.38779679 C21.2678107,2.57634704 17.2004708,1.70530257e-13 12.5288062,1.70530257e-13 C5.60921938,1.70530257e-13 -1.84741111e-13,5.63975096 -1.84741111e-13,12.5973124 C-1.84741111e-13,16.4092216 1.69100451,19.8181602 4.3513219,22.1280044 C2.24101823,26.3084227 1.0438754,31.0333339 1.0438754,36.0422083 C1.0438754,53.0487638 14.7555563,66.8356897 31.670204,66.8356897 C48.5843915,66.8356897 62.2956121,53.0487638 62.2956121,36.0422083 C62.2956121,31.3467044 61.2457533,26.8988643 59.3766271,22.9164852 C62.6113522,20.6383456 64.7317816,16.8696282 64.7317816,12.5973124" id="Fill-22" stroke="#FFFFFF" stroke-width="4"></path>
                    <polygon id="Rectangle" fill="#FFFFFF" fill-rule="nonzero" transform="translate(51.802990, 12.762022) rotate(-315.000000) translate(-51.802990, -12.762022) " points="50.6823002 0.0608724641 52.9236795 0.0608724641 52.9236795 25.4631713 50.6823002 25.4631713"></polygon>
                    <polygon id="Rectangle" fill="#FFFFFF" fill-rule="nonzero" transform="translate(15.350416, 49.214596) rotate(-315.000000) translate(-15.350416, -49.214596) " points="14.2297264 40.2490784 16.4711058 40.2490784 16.4711058 58.1801129 14.2297264 58.1801129"></polygon>
                </g>
            </g>
        </g>
    </g>
</svg>