<?xml version="1.0" standalone="no"?>
<!DOCTYPE svg PUBLIC "-//W3C//DTD SVG 1.1//EN" "http://www.w3.org/Graphics/SVG/1.1/DTD/svg11.dtd" >
<svg xmlns="http://www.w3.org/2000/svg" xmlns:xlink="http://www.w3.org/1999/xlink" version="1.1">
<metadata>
Created by FontForge 20170731 at Wed Apr 13 00:33:52 2011
 By Aleksey,,,
(c) 2011 Klim Type Foundry. All rights reserved.
</metadata>
<defs>
<font id="Metric-BlackItalic" horiz-adv-x="520" >
  <font-face 
    font-family="Metric Black"
    font-weight="900"
    font-style="italic"
    font-stretch="normal"
    units-per-em="1000"
    panose-1="2 11 10 3 3 2 2 13 2 3"
    ascent="650"
    descent="-350"
    x-height="454"
    cap-height="614"
    bbox="-174 -247 995 940"
    underline-thickness="30"
    underline-position="-130"
    slope="-10"
    unicode-range="U+0020-FB02"
  />
<missing-glyph horiz-adv-x="608" 
 />
    <glyph glyph-name="f_f" unicode="ff" horiz-adv-x="662" 
d="M726 646l-26 -151q-14 6 -30 6q-50 0 -58 -45v-2h81l-26 -146h-81l-54 -308h-189l54 308h-122l-54 -308h-189l54 308h-61l26 146h61l1 6q33 192 226 192q44 0 75 -12l-26 -147q-13 6 -30 6q-50 0 -57 -43v-2h122l2 12q33 192 226 192q44 0 75 -12z" />
    <glyph glyph-name=".notdef" horiz-adv-x="608" 
 />
    <glyph glyph-name=".null" horiz-adv-x="0" 
 />
    <glyph glyph-name="nonmarkingreturn" horiz-adv-x="333" 
 />
    <glyph glyph-name="space" unicode=" " horiz-adv-x="187" 
 />
    <glyph glyph-name="exclam" unicode="!" horiz-adv-x="262" 
d="M56 213l32 401h232l-114 -401h-150zM5 93q0 43 31.5 71.5t76.5 28.5t76.5 -28.5t31.5 -71.5q0 -42 -31.5 -71t-76.5 -29t-76.5 29t-31.5 71z" />
    <glyph glyph-name="quotedbl" unicode="&#x22;" horiz-adv-x="386" 
d="M51 344l48 270h142l-48 -270h-142zM229 344l48 270h142l-48 -270h-142z" />
    <glyph glyph-name="numbersign" unicode="#" horiz-adv-x="655" 
d="M597 265l-26 -113h-106l-46 -152h-128l46 152h-94l-46 -152h-127l46 152h-88l27 113h95l25 84h-97l26 113h106l46 152h128l-46 -152h94l46 152h127l-46 -152h88l-27 -113h-96l-25 -84h98zM303 349l-25 -84h94l25 84h-94z" />
    <glyph glyph-name="dollar" unicode="$" horiz-adv-x="508" 
d="M0 59l29 165q40 -29 92 -49t99 -20q73 0 73 35q0 16 -27 23l-86 27q-135 42 -135 154q0 86 57 142t145 70l16 88h150l-17 -94q51 -10 107 -41l-30 -165q-81 66 -173 66q-66 0 -66 -30q0 -10 7 -15t22 -10l91 -30q61 -21 95.5 -60.5t34.5 -94.5q0 -90 -54 -141.5
t-138 -67.5l-16 -93h-150l16 91q-84 13 -142 50z" />
    <glyph glyph-name="percent" unicode="%" horiz-adv-x="711" 
d="M210 624q61 0 103.5 -42.5t42.5 -103.5q0 -62 -45 -109.5t-110 -47.5q-61 0 -103.5 42.5t-42.5 103.5q0 62 45 109.5t110 47.5zM204 425q19 0 33.5 14.5t14.5 34.5q0 19 -13 32.5t-32 13.5t-33.5 -14.5t-14.5 -34.5q0 -19 13 -32.5t32 -13.5zM75 0l477 614h98l-477 -614
h-98zM515 -10q-61 0 -103.5 42.5t-42.5 103.5q0 62 45 109.5t110 47.5q61 0 103.5 -42.5t42.5 -103.5q0 -62 -45 -109.5t-110 -47.5zM521 189q-19 0 -33.5 -14.5t-14.5 -34.5q0 -19 13 -32.5t32 -13.5t33.5 14.5t14.5 34.5q0 19 -13 32.5t-32 13.5z" />
    <glyph glyph-name="ampersand" unicode="&#x26;" horiz-adv-x="598" 
d="M335 624q52 0 97 -14t63 -35l-27 -156q-56 52 -122 52q-59 0 -59 -47q0 -16 23 -50l83 -122q17 33 25 80h164q-16 -116 -101 -208l86 -124h-201l-19 25q-73 -35 -146 -35q-93 0 -146.5 46t-53.5 126q0 57 29.5 106t84.5 80q-13 30 -13 65q0 97 66 154t167 57zM225 134
q15 0 37 5l-68 92q-19 -19 -19 -49q0 -21 12.5 -34.5t37.5 -13.5z" />
    <glyph glyph-name="quotesingle" unicode="'" horiz-adv-x="218" 
d="M51 344l48 270h152l-48 -270h-152z" />
    <glyph glyph-name="parenleft" unicode="(" horiz-adv-x="343" 
d="M41 234q0 159 99 277t264 139l-30 -170q-163 -60 -163 -246q0 -107 94 -148l-30 -170q-113 27 -173.5 109t-60.5 209z" />
    <glyph glyph-name="parenright" unicode=")" horiz-adv-x="343" 
d="M325 332q0 -159 -99 -277t-264 -139l30 170q163 60 163 246q0 107 -94 148l30 170q113 -27 173.5 -109t60.5 -209z" />
    <glyph glyph-name="asterisk" unicode="*" horiz-adv-x="342" 
d="M233 341l-85 14l13 75l-71 -26l-29 81l72 25l-59 49l55 66l58 -49l13 75l85 -15l-14 -75l71 26l30 -80l-72 -26l58 -49l-55 -65l-57 48z" />
    <glyph glyph-name="plus" unicode="+" horiz-adv-x="551" 
d="M263 537h137l-30 -169h169l-24 -137h-169l-30 -169h-137l30 169h-169l24 137h169z" />
    <glyph glyph-name="comma" unicode="," horiz-adv-x="237" 
d="M-33 -100l86 117q-63 22 -63 89q0 45 30.5 74t76.5 29q44 0 75 -29.5t31 -81.5q0 -47 -46 -108l-70 -90h-120z" />
    <glyph glyph-name="hyphen" unicode="-" horiz-adv-x="307" 
d="M24 184l27 155h241l-27 -155h-241z" />
    <glyph glyph-name="period" unicode="." horiz-adv-x="237" 
d="M-10 101q0 46 30.5 77t75.5 31t76 -31t31 -77t-31 -77t-76 -31q-44 0 -75 31t-31 77z" />
    <glyph glyph-name="slash" unicode="/" horiz-adv-x="415" 
d="M-57 -84l376 734h165l-377 -734h-164z" />
    <glyph glyph-name="zero" unicode="0" horiz-adv-x="570" 
d="M277 158q51 0 79.5 58t28.5 134q0 46 -17 76t-50 30q-51 0 -79.5 -58t-28.5 -134q0 -46 17 -76t50 -30zM268 -10q-112 0 -175.5 77t-63.5 197q0 149 86.5 254.5t211.5 105.5q112 0 175.5 -77t63.5 -197q0 -149 -86.5 -254.5t-211.5 -105.5z" />
    <glyph glyph-name="one" unicode="1" horiz-adv-x="390" 
d="M409 614l-108 -614h-191l71 403l-151 -67l33 188l211 90h135z" />
    <glyph glyph-name="two" unicode="2" horiz-adv-x="498" 
d="M323 166h153l-29 -166h-478v4l229 255q34 37 49 55t31.5 45.5t16.5 46.5q0 40 -48 40q-70 0 -191 -75l32 184q107 69 239 69q82 0 129 -43t47 -112q0 -61 -31 -117t-90 -121z" />
    <glyph glyph-name="three" unicode="3" horiz-adv-x="470" 
d="M62 449l29 165h432v-3l-160 -240q86 -55 86 -147q0 -106 -77 -170t-197 -64q-118 0 -187 52l30 171q67 -67 159 -67q42 0 66.5 18t24.5 48q0 63 -98 63q-11 0 -35 -2v2l116 174h-189z" />
    <glyph glyph-name="four" unicode="4" horiz-adv-x="545" 
d="M462 614l-200 -346h62l14 80h163l-14 -80h58l-28 -156h-58l-19 -112h-163l19 112h-316v4l292 498h190z" />
    <glyph glyph-name="five" unicode="5" horiz-adv-x="467" 
d="M450 228q0 -113 -77 -175.5t-195 -62.5t-190 52l29 167q26 -28 71.5 -47t92.5 -19q38 0 64.5 15t26.5 47q0 52 -89 52q-83 0 -140 -22l67 379h376l-29 -165h-228l-8 -43q15 3 34 3q92 0 143.5 -49t51.5 -132z" />
    <glyph glyph-name="six" unicode="6" horiz-adv-x="526" 
d="M250 -10q-101 0 -164.5 62.5t-63.5 147.5q0 58 22 109.5t75 115.5l157 189h216l-149 -172h2q76 -14 124 -67t48 -128q0 -108 -78 -182.5t-189 -74.5zM264 157q31 0 53.5 22t22.5 55q0 27 -18.5 45.5t-45.5 18.5q-31 0 -53.5 -22t-22.5 -55q0 -27 18.5 -45.5t45.5 -18.5z
" />
    <glyph glyph-name="seven" unicode="7" horiz-adv-x="501" 
d="M555 611l-362 -611h-209l265 449h-212l29 165h489v-3z" />
    <glyph glyph-name="eight" unicode="8" horiz-adv-x="518" 
d="M197 182q0 -20 15 -32.5t40 -13.5q26 0 44.5 14t18.5 38q0 20 -15 33t-39 13q-27 0 -45.5 -14t-18.5 -38zM249 -10q-59 0 -110.5 16.5t-88.5 57.5t-37 100q0 54 30.5 94.5t80.5 59.5q-53 35 -53 107q0 95 69.5 147t165.5 52q90 0 151 -46.5t61 -124.5q0 -50 -24.5 -92
t-68.5 -64q31 -17 51 -47.5t20 -69.5q0 -89 -72.5 -139.5t-174.5 -50.5zM351 438q0 20 -14.5 33t-38.5 13q-26 0 -43.5 -14.5t-17.5 -38.5q0 -20 14.5 -32.5t37.5 -12.5q26 0 44 14t18 38z" />
    <glyph glyph-name="nine" unicode="9" horiz-adv-x="526" 
d="M300 624q101 0 164.5 -62.5t63.5 -147.5q0 -58 -22 -109.5t-75 -115.5l-157 -189h-216l149 172h-2q-76 14 -124 67t-48 128q0 108 78 182.5t189 74.5zM286 457q-31 0 -53.5 -22t-22.5 -55q0 -27 18.5 -45.5t45.5 -18.5q31 0 53.5 22t22.5 55q0 27 -18.5 45.5t-45.5 18.5z
" />
    <glyph glyph-name="colon" unicode=":" horiz-adv-x="237" 
d="M-10 101q0 46 30.5 77t75.5 31t76 -31t31 -77t-31 -77t-76 -31q-44 0 -75 31t-31 77zM35 346q0 46 30.5 77t75.5 31t76 -31t31 -77t-31 -77t-76 -31q-44 0 -75 31t-31 77z" />
    <glyph glyph-name="semicolon" unicode=";" horiz-adv-x="237" 
d="M-33 -100l86 117q-63 22 -63 89q0 45 30.5 74t76.5 29q44 0 75 -29.5t31 -81.5q0 -47 -46 -108l-70 -90h-120zM35 346q0 46 30.5 77t75.5 31t76 -31t31 -77t-31 -77t-76 -31q-44 0 -75 31t-31 77z" />
    <glyph glyph-name="less" unicode="&#x3c;" horiz-adv-x="426" 
d="M27 214l30 166l388 153l-27 -155l-247 -85l217 -85l-26 -147z" />
    <glyph glyph-name="equal" unicode="=" horiz-adv-x="571" 
d="M34 140l22 121h475l-22 -121h-475zM70 342l21 122h475l-21 -122h-475z" />
    <glyph glyph-name="greater" unicode="&#x3e;" horiz-adv-x="426" 
d="M427 380l-30 -166l-388 -153l27 155l247 85l-217 85l26 147z" />
    <glyph glyph-name="question" unicode="?" horiz-adv-x="464" 
d="M186 297q9 9 25.5 24.5t25 24t18.5 20t14.5 21.5t4.5 20q0 41 -51 41q-64 0 -172 -73l31 180q111 69 225 69q82 0 128.5 -44.5t46.5 -111.5q0 -30 -5.5 -54.5t-22.5 -48.5t-25.5 -35t-36 -37.5t-33.5 -32.5q-25 -26 -32 -47h-192q12 43 51 84zM107 93q0 43 31.5 71.5
t76.5 28.5q47 0 78.5 -28t31.5 -72q0 -43 -31.5 -71.5t-78.5 -28.5q-45 0 -76.5 29t-31.5 71z" />
    <glyph glyph-name="at" unicode="@" horiz-adv-x="750" 
d="M596 396l-59 -250q-9 -36 20 -36q44 0 73 47t29 130q0 97 -68.5 152t-177.5 55q-138 0 -227 -91.5t-89 -235.5q0 -55 17.5 -98.5t45 -70t65.5 -44.5t75 -25t77 -7q123 0 242 55l-15 -84q-98 -47 -227 -47q-73 0 -137 19t-116 56.5t-82 100.5t-30 144q0 169 114.5 287
t290.5 118q143 0 232 -79.5t89 -201.5q0 -125 -66 -194.5t-164 -69.5q-78 0 -117 49q-37 -45 -105 -45q-62 0 -95 39t-33 101q0 94 56 163.5t144 69.5q26 0 49.5 -10t32.5 -26l8 29h148zM396 181l17 71q-5 25 -37 25q-26 0 -45.5 -23t-19.5 -58q0 -41 40 -41q29 0 45 26z
" />
    <glyph glyph-name="A" unicode="A" horiz-adv-x="666" 
d="M309 614h202l116 -614h-192l-15 89h-218l-49 -89h-192zM369 387l-79 -141h103z" />
    <glyph glyph-name="B" unicode="B" horiz-adv-x="556" 
d="M459 315q77 -33 77 -120q0 -88 -64.5 -141.5t-168.5 -53.5h-309l108 614h292q83 0 128.5 -36.5t45.5 -106.5q0 -56 -32 -98.5t-77 -57.5zM243 379h81q57 0 57 47q0 32 -43 32h-81zM219 240l-15 -83h94q25 0 40.5 13t15.5 35q0 35 -41 35h-94z" />
    <glyph glyph-name="C" unicode="C" 
d="M492 209l-32 -183q-67 -36 -151 -36q-124 0 -202.5 75t-78.5 197q0 165 104.5 263.5t263.5 98.5q108 0 163 -36l-32 -183q-57 39 -132 39q-73 0 -122.5 -43t-49.5 -118q0 -55 35 -83.5t92 -28.5q75 0 142 38z" />
    <glyph glyph-name="D" unicode="D" horiz-adv-x="613" 
d="M213 166h47q72 0 117 47t45 123q0 54 -28.5 83.5t-83.5 29.5h-47zM-6 0l108 614h247q129 0 197.5 -67t68.5 -185q0 -162 -104.5 -262t-269.5 -100h-247z" />
    <glyph glyph-name="E" unicode="E" horiz-adv-x="522" 
d="M102 614h462l-29 -165h-271l-11 -58h248l-28 -160h-248l-11 -65h271l-29 -166h-462z" />
    <glyph glyph-name="F" unicode="F" horiz-adv-x="516" 
d="M185 0h-191l108 614h455l-30 -167h-264l-15 -86h240l-28 -162h-240z" />
    <glyph glyph-name="G" unicode="G" horiz-adv-x="592" 
d="M315 -10q-132 0 -209.5 78t-77.5 202q0 155 99.5 254.5t256.5 99.5q125 0 211 -55l-32 -183q-72 58 -179 58q-78 0 -119.5 -43.5t-41.5 -119.5q0 -57 28 -87.5t77 -30.5q39 0 61 11l5 27h-73l27 152h241l-53 -297q-99 -66 -221 -66z" />
    <glyph glyph-name="H" unicode="H" horiz-adv-x="649" 
d="M491 614h194l-108 -614h-194l40 228h-195l-40 -228h-194l108 614h194l-39 -221h195z" />
    <glyph glyph-name="I" unicode="I" horiz-adv-x="260" 
d="M296 614l-108 -614h-194l108 614h194z" />
    <glyph glyph-name="J" unicode="J" horiz-adv-x="416" 
d="M-27 27l32 178q52 -40 108 -40q41 0 60 22t28 74l62 353h194l-70 -396q-40 -228 -271 -228q-44 0 -83.5 11t-59.5 26z" />
    <glyph glyph-name="K" unicode="K" horiz-adv-x="628" 
d="M296 614l-46 -257l209 257h229l-261 -310l159 -304h-217l-134 271l-47 -271h-194l108 614h194z" />
    <glyph glyph-name="L" unicode="L" horiz-adv-x="513" 
d="M-6 0l108 614h194l-79 -448h264l-29 -166h-458z" />
    <glyph glyph-name="M" unicode="M" horiz-adv-x="727" 
d="M349 136h-4l-108 174l-53 -310h-190l108 614h175l113 -209l188 209h185l-108 -614h-190l53 310z" />
    <glyph glyph-name="N" unicode="N" horiz-adv-x="632" 
d="M668 614l-108 -614h-149l-174 317l-56 -317h-187l108 614h171l155 -296l53 296h187z" />
    <glyph glyph-name="O" unicode="O" horiz-adv-x="647" 
d="M323 159q57 0 94 48t37 131q0 54 -27.5 85.5t-72.5 31.5q-57 0 -94 -48t-37 -131q0 -54 27.5 -85.5t72.5 -31.5zM315 -10q-132 0 -209.5 78t-77.5 202q0 153 95.5 253.5t238.5 100.5q132 0 209.5 -78t77.5 -202q0 -153 -95.5 -253.5t-238.5 -100.5z" />
    <glyph glyph-name="P" unicode="P" horiz-adv-x="567" 
d="M311 168h-97l-29 -168h-191l108 614h267q101 0 157.5 -49t56.5 -140q0 -119 -77.5 -188t-194.5 -69zM264 453l-21 -124h71q38 0 59.5 19t21.5 53q0 52 -63 52h-68z" />
    <glyph glyph-name="Q" unicode="Q" horiz-adv-x="647" 
d="M315 -10q-132 0 -209.5 78t-77.5 202q0 153 95.5 253.5t238.5 100.5q132 0 209.5 -78t77.5 -202q0 -165 -114 -269l31 -48l-117 -77l-35 55q-53 -15 -99 -15zM288 206l118 76l30 -48q18 47 18 104q0 54 -27.5 85.5t-72.5 31.5q-57 0 -94 -48t-37 -131q0 -54 27.5 -89.5
t71.5 -35.5z" />
    <glyph glyph-name="R" unicode="R" horiz-adv-x="585" 
d="M266 176h-50l-31 -176h-191l108 614h287q91 0 146.5 -51t55.5 -139q0 -78 -38 -134.5t-102 -86.5l100 -203h-204zM264 453l-22 -125h82q39 0 59.5 19.5t20.5 53.5q0 52 -62 52h-78z" />
    <glyph glyph-name="S" unicode="S" horiz-adv-x="518" 
d="M-3 48l30 172q42 -31 96.5 -51.5t103.5 -20.5q76 0 76 36q0 16 -28 25l-90 28q-141 44 -141 161q0 104 78 165t189 61q121 0 212 -54l-31 -172q-86 69 -181 69q-69 0 -69 -31q0 -18 30 -27l95 -31q64 -22 100 -63t36 -99q0 -59 -24.5 -104.5t-65 -71t-87.5 -38t-99 -12.5
q-138 0 -230 58z" />
    <glyph glyph-name="T" unicode="T" horiz-adv-x="584" 
d="M54 449l29 165h556l-29 -165h-181l-79 -449h-194l79 449h-181z" />
    <glyph glyph-name="U" unicode="U" horiz-adv-x="616" 
d="M280 -10q-115 0 -183 56.5t-68 157.5q0 31 5 56l63 354h193l-61 -343q-3 -17 -3 -30q0 -37 19.5 -57.5t54.5 -20.5q84 0 103 108l61 343h193l-64 -360q-23 -130 -102 -197t-211 -67z" />
    <glyph glyph-name="V" unicode="V" horiz-adv-x="645" 
d="M367 0h-191l-107 614h194l57 -349l190 349h204z" />
    <glyph glyph-name="W" unicode="W" horiz-adv-x="846" 
d="M419 614h144l19 -308l133 308h200l-287 -614h-176l-20 314l-147 -314h-176l-40 614h194l13 -308z" />
    <glyph glyph-name="X" unicode="X" horiz-adv-x="612" 
d="M679 614l-254 -305l142 -309h-200l-71 164l-131 -164h-213l268 321l-135 293h200l62 -147l119 147h213z" />
    <glyph glyph-name="Y" unicode="Y" horiz-adv-x="632" 
d="M341 395l149 219h211l-293 -412l-35 -202h-195l35 202l-144 412h201z" />
    <glyph glyph-name="Z" unicode="Z" horiz-adv-x="566" 
d="M533 166l-29 -166h-538v4l333 445h-235l29 165h531v-4l-321 -444h230z" />
    <glyph glyph-name="bracketleft" unicode="[" horiz-adv-x="341" 
d="M264 497l-75 -428h111l-27 -153h-288l129 734h288l-27 -153h-111z" />
    <glyph glyph-name="backslash" unicode="\" horiz-adv-x="415" 
d="M233 650l119 -734h-145l-119 734h145z" />
    <glyph glyph-name="bracketright" unicode="]" horiz-adv-x="341" 
d="M100 69l75 428h-111l27 153h288l-129 -734h-288l27 153h111z" />
    <glyph glyph-name="asciicircum" unicode="^" horiz-adv-x="456" 
d="M223 614h144l101 -256h-149l-43 124l-85 -124h-159z" />
    <glyph glyph-name="underscore" unicode="_" horiz-adv-x="381" 
d="M-47 -179l23 137h341l-24 -137h-340z" />
    <glyph glyph-name="grave" unicode="`" horiz-adv-x="500" 
d="M364 493h-162l-57 157h162z" />
    <glyph glyph-name="a" unicode="a" horiz-adv-x="496" 
d="M287 255l2 11q1 6 1 9q0 39 -77 39q-82 0 -134 -26l25 145q73 31 176 31q198 0 198 -155q0 -22 -5 -52l-45 -257h-186l4 22q-34 -30 -98 -30t-107.5 36.5t-43.5 95.5q0 74 53.5 115.5t130.5 41.5q67 0 106 -26zM264 129l4 22q-12 23 -47 23q-18 0 -32.5 -9t-14.5 -26
q0 -13 12.5 -21t28.5 -8q31 0 49 19z" />
    <glyph glyph-name="b" unicode="b" horiz-adv-x="544" 
d="M188 35l-6 -35h-190l114 650h190l-40 -231q49 45 112 45q79 0 122 -54.5t43 -137.5q0 -118 -65 -200t-172 -82q-34 0 -64.5 13t-43.5 32zM230 272l-16 -90q3 -14 17 -23t32 -9q32 0 54.5 27t22.5 70q0 26 -13.5 41.5t-39.5 15.5q-37 0 -57 -32z" />
    <glyph glyph-name="c" unicode="c" horiz-adv-x="404" 
d="M363 164l-26 -149q-43 -25 -103 -25q-100 0 -161.5 57t-61.5 154q0 114 73 188.5t191 74.5q85 0 135 -34l-27 -152q-44 29 -87 29q-42 0 -70.5 -22.5t-28.5 -69.5q0 -34 22.5 -52.5t62.5 -18.5t81 20z" />
    <glyph glyph-name="d" unicode="d" horiz-adv-x="542" 
d="M356 419l40 231h190l-114 -650h-190l6 35q-49 -45 -112 -45q-79 0 -122 54.5t-43 137.5q0 118 65 200t172 82q34 0 64.5 -13t43.5 -32zM314 182l16 90q-3 14 -17 23t-32 9q-32 0 -54.5 -27t-22.5 -70q0 -26 13.5 -41.5t39.5 -15.5q37 0 57 32z" />
    <glyph glyph-name="e" unicode="e" horiz-adv-x="478" 
d="M461 183h-264q13 -48 93 -48q78 0 141 33l-26 -145q-60 -33 -165 -33q-106 0 -167.5 56.5t-61.5 151.5q0 113 74 189.5t189 76.5q94 0 145 -52t51 -145q0 -39 -9 -84zM263 324q-39 0 -59 -47h101v2q0 20 -11 32.5t-31 12.5z" />
    <glyph glyph-name="f" unicode="f" horiz-adv-x="351" 
d="M415 646l-26 -151q-13 6 -30 6q-51 0 -58 -45v-2h81l-26 -146h-81l-54 -308h-189l54 308h-61l26 146h61l2 12q33 192 226 192q44 0 75 -12z" />
    <glyph glyph-name="g" unicode="g" horiz-adv-x="542" 
d="M292 56l2 12q-46 -42 -102 -42q-82 0 -128 54t-46 131q0 109 64 181t169 72q34 0 63 -12.5t42 -31.5l6 34h190l-66 -373q-22 -126 -95 -185t-202 -59q-53 0 -107 13t-85 34l34 162q63 -58 158 -58q91 0 103 68zM317 197l14 84q-3 13 -17 21t-32 8q-32 0 -54 -25t-22 -64
q0 -24 13.5 -38.5t39.5 -14.5q38 0 58 29z" />
    <glyph glyph-name="h" unicode="h" horiz-adv-x="533" 
d="M378 464q65 0 102.5 -36t37.5 -99q0 -17 -3 -37l-51 -292h-190l43 248q1 6 1 12q0 37 -37 37t-53 -36l-46 -261h-190l114 650h190l-41 -233q50 47 123 47z" />
    <glyph glyph-name="i" unicode="i" horiz-adv-x="252" 
d="M262 454l-80 -454h-190l80 454h190zM292 575q0 -48 -32 -76t-77 -28q-44 0 -73 25t-29 67q0 48 32 76t77 28q44 0 73 -25t29 -67z" />
    <glyph glyph-name="j" unicode="j" horiz-adv-x="252" 
d="M-99 -154l25 138q12 -2 22 -2q40 0 48 44l76 428h190l-73 -414q-36 -203 -214 -203q-45 0 -74 9zM292 575q0 -48 -32 -76t-77 -28q-44 0 -73 25t-29 67q0 48 32 76t77 28q44 0 73 -25t29 -67z" />
    <glyph glyph-name="k" unicode="k" horiz-adv-x="539" 
d="M388 228l108 -228h-199l-83 185l-32 -185h-190l114 650h190l-63 -355l129 159h220z" />
    <glyph glyph-name="l" unicode="l" horiz-adv-x="252" 
d="M296 650l-114 -650h-190l114 650h190z" />
    <glyph glyph-name="m" unicode="m" horiz-adv-x="797" 
d="M502 413q61 51 137 51q66 0 105 -37t39 -96q0 -15 -3 -32l-52 -299h-190l43 248q1 7 1 14q0 35 -31 35q-35 0 -51 -37l-45 -260h-190l43 248q1 7 1 14q0 35 -31 35q-35 0 -51 -37l-45 -260h-190l80 454h190l-7 -37q49 47 131 47q78 0 116 -51z" />
    <glyph glyph-name="n" unicode="n" horiz-adv-x="533" 
d="M-8 0l80 454h190l-7 -37q50 47 123 47q65 0 102.5 -36t37.5 -99q0 -17 -3 -37l-51 -292h-190l43 248q1 6 1 12q0 37 -37 37t-53 -36l-46 -261h-190z" />
    <glyph glyph-name="o" unicode="o" horiz-adv-x="503" 
d="M238 145q30 0 49 32.5t19 80.5q0 22 -11 36.5t-30 14.5q-30 0 -49 -32.5t-19 -80.5q0 -22 11 -36.5t30 -14.5zM232 -10q-97 0 -159 56.5t-62 152.5q0 117 74.5 191t185.5 74q97 0 159 -56.5t62 -152.5q0 -117 -74.5 -191t-185.5 -74z" />
    <glyph glyph-name="p" unicode="p" horiz-adv-x="544" 
d="M188 35l-33 -188h-190l107 607h190l-6 -35q49 45 112 45q79 0 122 -54.5t43 -137.5q0 -118 -65 -200t-172 -82q-34 0 -64.5 13t-43.5 32zM230 272l-16 -90q3 -14 17 -23t32 -9q32 0 54.5 27t22.5 70q0 26 -13.5 41.5t-39.5 15.5q-37 0 -57 -32z" />
    <glyph glyph-name="q" unicode="q" horiz-adv-x="542" 
d="M356 419l6 35h190l-107 -607h-190l33 188q-49 -45 -112 -45q-79 0 -122 54.5t-43 137.5q0 118 65 200t172 82q34 0 64.5 -13t43.5 -32zM314 182l16 90q-3 14 -17 23t-32 9q-32 0 -54.5 -27t-22.5 -70q0 -26 13.5 -41.5t39.5 -15.5q37 0 57 32z" />
    <glyph glyph-name="r" unicode="r" horiz-adv-x="379" 
d="M405 456l-32 -180q-28 14 -66 14q-64 0 -81 -40l-44 -250h-190l80 454h190l-7 -37q41 47 107 47q31 0 43 -8z" />
    <glyph glyph-name="s" unicode="s" horiz-adv-x="419" 
d="M-11 40l26 146q27 -25 76 -41.5t82 -16.5t33 17q0 11 -28 18l-36 8q-112 26 -112 114q0 85 62 132t154 47q100 0 168 -48l-26 -143q-68 53 -139 53q-30 0 -30 -16q0 -10 20 -16l52 -17q51 -17 77 -43t26 -70q0 -87 -61 -130.5t-160 -43.5q-113 0 -184 50z" />
    <glyph glyph-name="t" unicode="t" horiz-adv-x="361" 
d="M285 308l-54 -308h-189l54 308h-71l26 146h71l22 127h189l-22 -127h81l-26 -146h-81z" />
    <glyph glyph-name="u" unicode="u" horiz-adv-x="527" 
d="M537 454l-80 -454h-190l7 37q-50 -47 -123 -47q-64 0 -101 35.5t-37 97.5q0 18 3 39l51 292h190l-42 -245q-2 -12 -2 -19q0 -36 35 -36q37 0 53 36l46 264h190z" />
    <glyph glyph-name="v" unicode="v" horiz-adv-x="510" 
d="M285 0h-166l-78 454h175l33 -219l116 219h186z" />
    <glyph glyph-name="w" unicode="w" horiz-adv-x="717" 
d="M456 454l20 -203l105 203h177l-246 -454h-148l-20 181l-91 -181h-148l-64 454h178l22 -203l102 203h113z" />
    <glyph glyph-name="x" unicode="x" horiz-adv-x="521" 
d="M562 454l-201 -228l118 -226h-192l-49 97l-82 -97h-201l206 233l-115 221h192l46 -92l77 92h201z" />
    <glyph glyph-name="y" unicode="y" horiz-adv-x="510" 
d="M196 -153h-190l108 180l-75 427h177l33 -219l116 219h186z" />
    <glyph glyph-name="z" unicode="z" horiz-adv-x="451" 
d="M419 146l-25 -146h-435v4l232 304h-157l26 146h424l-1 -4l-221 -304h157z" />
    <glyph glyph-name="braceleft" unicode="{" horiz-adv-x="379" 
d="M260 200l-18 -102q-6 -29 24 -29h72l-27 -153h-141q-58 0 -87 35.5t-19 94.5l23 132q5 29 -24 29h-40l27 152h40q29 0 34 29l23 132q10 58 52.5 94t99.5 36h141l-27 -153h-72q-29 0 -34 -29l-18 -102q-11 -57 -62 -85q43 -29 33 -81z" />
    <glyph glyph-name="bar" unicode="|" horiz-adv-x="217" 
d="M-21 -84l129 734h151l-129 -734h-151z" />
    <glyph glyph-name="braceright" unicode="}" horiz-adv-x="379" 
d="M142 366l18 102q6 29 -24 29h-72l27 153h141q58 0 87 -35.5t19 -94.5l-23 -132q-5 -29 24 -29h40l-27 -152h-40q-29 0 -34 -29l-23 -132q-10 -58 -52.5 -94t-99.5 -36h-141l27 153h72q29 0 34 29l18 102q11 57 62 85q-43 29 -33 81z" />
    <glyph glyph-name="asciitilde" unicode="~" horiz-adv-x="425" 
d="M311 363h109q-15 -83 -52.5 -128.5t-92.5 -45.5q-35 0 -64.5 26t-44.5 26q-34 0 -42 -47h-109q14 83 52.5 129t93.5 46q27 0 46.5 -13t33.5 -26t28 -13q34 0 42 46z" />
    <glyph glyph-name="uni00A0" unicode="&#xa0;" horiz-adv-x="187" 
 />
    <glyph glyph-name="exclamdown" unicode="&#xa1;" horiz-adv-x="262" 
d="M226 305l-32 -401h-232l114 401h150zM277 425q0 -43 -31.5 -71.5t-76.5 -28.5t-76.5 28.5t-31.5 71.5t31.5 71.5t76.5 28.5t76.5 -28.5t31.5 -71.5z" />
    <glyph glyph-name="cent" unicode="&#xa2;" horiz-adv-x="421" 
d="M126 -82l18 102q-55 24 -86 73.5t-31 117.5q0 96 52.5 165.5t142.5 89.5l18 98h150l-18 -101q29 -8 54 -23l-27 -152q-43 29 -87 29q-42 0 -70.5 -22.5t-28.5 -69.5q0 -34 22.5 -52.5t62.5 -18.5t81 20l-26 -149q-25 -15 -62 -22l-15 -85h-150z" />
    <glyph glyph-name="sterling" unicode="&#xa3;" horiz-adv-x="498" 
d="M37 234l25 141h56l7 35q18 100 85 157t180 57q87 0 134 -31l-30 -171q-43 31 -104 31q-38 0 -57.5 -18.5t-27.5 -59.5h102l-25 -141h-103q-12 -53 -34 -76h226l-27 -158h-448l27 158h37q22 30 33 76h-56z" />
    <glyph glyph-name="yen" unicode="&#xa5;" horiz-adv-x="586" 
d="M35 92l18 101h136l7 39h-137l18 101h87l-87 281h204l45 -185l109 185h208l-190 -281h87l-18 -101h-137l-7 -39h138l-18 -101h-137l-16 -92h-189l16 92h-137z" />
    <glyph glyph-name="section" unicode="&#xa7;" horiz-adv-x="494" 
d="M287 265l-63 47q-27 -4 -27 -29q0 -10 17 -24l63 -47q27 4 27 29q0 10 -17 24zM128 389q-21 26 -21 66q0 79 62.5 124t159.5 45q99 0 162 -41l-25 -145q-66 48 -142 48q-39 0 -39 -24q0 -13 10 -19l99 -64q79 -51 79 -115q0 -89 -101 -130q22 -27 22 -65
q0 -79 -62.5 -124t-159.5 -45q-99 0 -162 41l25 145q66 -48 142 -48q39 0 39 24q0 13 -10 19l-99 64q-79 51 -79 115q0 49 25.5 79t74.5 50z" />
    <glyph glyph-name="dieresis" unicode="&#xa8;" horiz-adv-x="500" 
d="M67 564q0 36 25.5 62t61.5 26t62 -26t26 -62t-26 -61.5t-62 -25.5t-61.5 25.5t-25.5 61.5zM257 564q0 36 25.5 62t61.5 26t62 -26t26 -62t-26 -61.5t-62 -25.5t-61.5 25.5t-25.5 61.5z" />
    <glyph glyph-name="copyright" unicode="&#xa9;" horiz-adv-x="704" 
d="M683 307q0 -136 -92.5 -226.5t-224.5 -90.5t-224.5 90.5t-92.5 226.5t92.5 226.5t224.5 90.5t224.5 -90.5t92.5 -226.5zM636 307q0 116 -79 193.5t-191 77.5t-191 -77.5t-79 -193.5t79 -193.5t191 -77.5t191 77.5t79 193.5zM177 309q0 91 56 145.5t150 54.5q57 0 95 -22
v-116q-41 25 -83 25q-45 0 -70.5 -22.5t-25.5 -64.5q0 -41 25.5 -63.5t70.5 -22.5q44 0 83 24v-116q-41 -22 -95 -22q-94 0 -150 54.5t-56 145.5z" />
    <glyph glyph-name="ordfeminine" unicode="&#xaa;" horiz-adv-x="353" 
d="M242 494l1 7v6q0 27 -52 27q-51 0 -90 -18l18 101q50 21 113 21q137 0 137 -107q0 -17 -3 -37l-31 -175h-124l2 15q-23 -21 -67 -21q-43 0 -72 25t-29 66q0 51 35.5 79.5t87.5 28.5q48 0 74 -18zM226 408l2 15q-8 15 -30 15q-11 0 -20.5 -6t-9.5 -17q0 -9 8 -14t18 -5
q20 0 32 12z" />
    <glyph glyph-name="guillemotleft" unicode="&#xab;" horiz-adv-x="483" 
d="M240 54h-150l-62 168l121 168h150l-119 -175zM431 54h-152l-60 158l121 178h150l-121 -178z" />
    <glyph glyph-name="registered" unicode="&#xae;" horiz-adv-x="407" 
d="M419 441q0 -78 -53 -130.5t-128 -52.5t-128 52.5t-53 130.5t53 130.5t128 52.5t128 -52.5t53 -130.5zM386 441q0 66 -43 109t-105 43t-105 -43t-43 -109t43 -109t105 -43t105 43t43 109zM230 401h-6v-55h-64v192h94q33 0 53 -18.5t20 -51.5q0 -41 -34 -59l40 -63h-71z
M264 468q0 17 -22 17h-18v-33h18q22 0 22 16z" />
    <glyph glyph-name="macron" unicode="&#xaf;" horiz-adv-x="500" 
d="M104 493l22 125h269l-22 -125h-269z" />
    <glyph glyph-name="degree" unicode="&#xb0;" horiz-adv-x="366" 
d="M221 624q57 0 95.5 -40t38.5 -98q0 -61 -44.5 -107.5t-107.5 -46.5q-57 0 -95.5 40t-38.5 98q0 61 44.5 107.5t107.5 46.5zM215 534q-22 0 -39 -18t-17 -42q0 -22 14.5 -37t35.5 -15q22 0 39 18t17 42q0 22 -14.5 37t-35.5 15z" />
    <glyph glyph-name="plusminus" unicode="&#xb1;" horiz-adv-x="566" 
d="M285 574h121l-22 -125h166l-21 -120h-167l-22 -125h-121l22 125h-164l21 120h165zM24 34l22 120h452l-22 -120h-452z" />
    <glyph glyph-name="twosuperior" unicode="&#xb2;" horiz-adv-x="309" 
d="M230 360h89l-18 -105h-287v2l140 154q51 58 51 78t-24 20q-42 0 -116 -45l20 116q64 39 144 39q48 0 76 -25.5t28 -65.5q0 -33 -18.5 -63.5t-54.5 -71.5z" />
    <glyph glyph-name="threesuperior" unicode="&#xb3;" horiz-adv-x="290" 
d="M66 509l19 105h259v-2l-91 -139q47 -35 47 -85q0 -63 -45.5 -101t-118.5 -38q-69 0 -111 30l19 107q39 -39 93 -39q23 0 35.5 9.5t12.5 23.5q0 32 -52 32q-15 0 -23 -1v1l64 97h-108z" />
    <glyph glyph-name="acute" unicode="&#xb4;" horiz-adv-x="500" 
d="M283 493h-178l113 157h178z" />
    <glyph glyph-name="paragraph" unicode="&#xb6;" horiz-adv-x="564" 
d="M357 -90l124 704h119l-124 -704h-119zM195 -90l57 326q-86 0 -145 43.5t-59 125.5q0 71 44 120.5t103 69t124 19.5h119l-124 -704h-119z" />
    <glyph glyph-name="periodcentered" unicode="&#xb7;" horiz-adv-x="253" 
d="M25 260q0 46 30.5 77t75.5 31t76 -31t31 -77t-31 -77t-76 -31q-44 0 -75 31t-31 77z" />
    <glyph glyph-name="cedilla" unicode="&#xb8;" horiz-adv-x="500" 
d="M282 -175h-156l92 143h156z" />
    <glyph glyph-name="onesuperior" unicode="&#xb9;" horiz-adv-x="246" 
d="M281 614l-64 -359h-121l40 226l-87 -38l21 118l124 53h87z" />
    <glyph glyph-name="ordmasculine" unicode="&#xba;" horiz-adv-x="369" 
d="M214 422q20 0 32 21t12 53q0 33 -26 33q-19 0 -31.5 -21.5t-12.5 -53.5q0 -13 7 -22.5t19 -9.5zM210 312q-67 0 -110 39t-43 105q0 81 51.5 131.5t128.5 50.5q67 0 110 -38.5t43 -105.5q0 -80 -52 -131t-128 -51z" />
    <glyph glyph-name="guillemotright" unicode="&#xbb;" horiz-adv-x="483" 
d="M240 390h150l62 -168l-121 -168h-150l119 175zM49 390h152l60 -158l-121 -178h-150l121 178z" />
    <glyph glyph-name="onequarter" unicode="&#xbc;" horiz-adv-x="737" 
d="M649 359l-131 -207h39l8 46h102l-8 -46h46l-16 -92h-46l-10 -60h-102l10 60h-165l15 86l144 213h114zM674 614l-512 -614h-101l512 614h101zM289 614l-64 -359h-117l41 228l-92 -40l20 118l125 53h87z" />
    <glyph glyph-name="onehalf" unicode="&#xbd;" horiz-adv-x="751" 
d="M674 614l-512 -614h-101l512 614h101zM289 614l-64 -359h-117l41 228l-92 -40l20 118l125 53h87zM621 105h89l-18 -105h-287v2l140 154q51 58 51 78t-24 20q-42 0 -116 -45l20 116q64 39 144 39q48 0 76 -25.5t28 -65.5q0 -33 -18.5 -63.5t-54.5 -71.5z" />
    <glyph glyph-name="threequarters" unicode="&#xbe;" horiz-adv-x="747" 
d="M659 359l-131 -207h39l8 46h102l-8 -46h46l-16 -92h-46l-10 -60h-102l10 60h-165l15 86l144 213h114zM684 614l-512 -614h-101l512 614h101zM75 509l19 105h259v-2l-94 -138q50 -37 50 -86q0 -63 -45.5 -101t-118.5 -38q-69 0 -111 30l19 107q39 -39 93 -39
q23 0 35.5 9.5t12.5 23.5q0 32 -52 32q-15 0 -23 -1v1l68 97h-112z" />
    <glyph glyph-name="questiondown" unicode="&#xbf;" horiz-adv-x="464" 
d="M293 221q-9 -9 -25.5 -24.5t-25 -24t-18.5 -20t-14.5 -21.5t-4.5 -20q0 -41 51 -41q64 0 172 73l-31 -180q-111 -69 -225 -69q-82 0 -128.5 44.5t-46.5 111.5q0 30 5.5 54.5t22.5 48.5t25.5 35t36 37.5t33.5 32.5q25 26 32 47h192q-12 -43 -51 -84zM372 425
q0 -43 -31.5 -71.5t-76.5 -28.5q-47 0 -78.5 28t-31.5 72q0 43 31.5 71.5t78.5 28.5q45 0 76.5 -28.5t31.5 -71.5z" />
    <glyph glyph-name="Agrave" unicode="&#xc0;" horiz-adv-x="666" 
d="M309 614h202l116 -614h-192l-15 89h-218l-49 -89h-192zM502 663h-175l-60 137h175zM369 387l-79 -141h103z" />
    <glyph glyph-name="Aacute" unicode="&#xc1;" horiz-adv-x="666" 
d="M309 614h202l116 -614h-192l-15 89h-218l-49 -89h-192zM513 663h-190l110 137h190zM369 387l-79 -141h103z" />
    <glyph glyph-name="Acircumflex" unicode="&#xc2;" horiz-adv-x="666" 
d="M309 614h202l116 -614h-192l-15 89h-218l-49 -89h-192zM507 800l92 -137h-145l-29 37l-43 -37h-153l142 137h136zM369 387l-79 -141h103z" />
    <glyph glyph-name="Atilde" unicode="&#xc3;" horiz-adv-x="666" 
d="M309 614h202l116 -614h-192l-15 89h-218l-49 -89h-192zM512 816h100q-27 -161 -119 -161q-25 0 -61 13.5t-51 13.5q-22 0 -26 -23h-100q27 161 119 161q25 0 61 -13.5t51 -13.5q22 0 26 23zM369 387l-79 -141h103z" />
    <glyph glyph-name="Adieresis" unicode="&#xc4;" horiz-adv-x="666" 
d="M309 614h202l116 -614h-192l-15 89h-218l-49 -89h-192zM240 737q0 38 26.5 64.5t63.5 26.5q38 0 64.5 -27t26.5 -64t-26.5 -63.5t-64.5 -26.5t-64 26.5t-26 63.5zM437 737q0 38 26.5 64.5t63.5 26.5t64 -27t27 -64t-26.5 -63.5t-64.5 -26.5q-37 0 -63.5 26.5t-26.5 63.5z
M369 387l-79 -141h103z" />
    <glyph glyph-name="Aring" unicode="&#xc5;" horiz-adv-x="666" 
d="M309 614h202l116 -614h-192l-15 89h-218l-49 -89h-192zM422 638q-48 0 -80 32t-32 77q0 49 35.5 83.5t86.5 34.5q48 0 80 -32t32 -77q0 -49 -35.5 -83.5t-86.5 -34.5zM369 387l-79 -141h103zM425 719q14 0 24 10t10 25q0 12 -8.5 21t-21.5 9q-14 0 -24 -10t-10 -25
q0 -12 8.5 -21t21.5 -9z" />
    <glyph glyph-name="AE" unicode="&#xc6;" horiz-adv-x="899" 
d="M387 614h554l-29 -165h-241l-11 -58h218l-28 -160h-218l-11 -65h241l-29 -166h-432l15 89h-190l-60 -89h-205zM483 466l-150 -220h111z" />
    <glyph glyph-name="Ccedilla" unicode="&#xc7;" 
d="M492 209l-32 -183q-67 -36 -151 -36q-124 0 -202.5 75t-78.5 197q0 165 104.5 263.5t263.5 98.5q108 0 163 -36l-32 -183q-57 39 -132 39q-73 0 -122.5 -43t-49.5 -118q0 -55 35 -83.5t92 -28.5q75 0 142 38zM286 -175h-156l92 143h156z" />
    <glyph glyph-name="Egrave" unicode="&#xc8;" horiz-adv-x="522" 
d="M424 663h-175l-60 137h175zM102 614h462l-29 -165h-271l-11 -58h248l-28 -160h-248l-11 -65h271l-29 -166h-462z" />
    <glyph glyph-name="Eacute" unicode="&#xc9;" horiz-adv-x="522" 
d="M435 663h-190l110 137h190zM102 614h462l-29 -165h-271l-11 -58h248l-28 -160h-248l-11 -65h271l-29 -166h-462z" />
    <glyph glyph-name="Ecircumflex" unicode="&#xca;" horiz-adv-x="522" 
d="M102 614h462l-29 -165h-271l-11 -58h248l-28 -160h-248l-11 -65h271l-29 -166h-462zM429 800l92 -137h-145l-29 37l-43 -37h-153l142 137h136z" />
    <glyph glyph-name="Edieresis" unicode="&#xcb;" horiz-adv-x="522" 
d="M166 737q0 38 26.5 64.5t63.5 26.5q38 0 64.5 -27t26.5 -64t-26.5 -63.5t-64.5 -26.5t-64 26.5t-26 63.5zM363 737q0 38 26.5 64.5t63.5 26.5t64 -27t27 -64t-26.5 -63.5t-64.5 -26.5q-37 0 -63.5 26.5t-26.5 63.5zM102 614h462l-29 -165h-271l-11 -58h248l-28 -160h-248
l-11 -65h271l-29 -166h-462z" />
    <glyph glyph-name="Igrave" unicode="&#xcc;" horiz-adv-x="260" 
d="M296 614l-108 -614h-194l108 614h194zM290 663h-175l-60 137h175z" />
    <glyph glyph-name="Iacute" unicode="&#xcd;" horiz-adv-x="260" 
d="M296 614l-108 -614h-194l108 614h194zM301 663h-190l110 137h190z" />
    <glyph glyph-name="Icircumflex" unicode="&#xce;" horiz-adv-x="260" 
d="M296 614l-108 -614h-194l108 614h194zM295 800l92 -137h-145l-29 37l-43 -37h-153l142 137h136z" />
    <glyph glyph-name="Idieresis" unicode="&#xcf;" horiz-adv-x="260" 
d="M296 614l-108 -614h-194l108 614h194zM32 737q0 38 26.5 64.5t63.5 26.5q38 0 64.5 -27t26.5 -64t-26.5 -63.5t-64.5 -26.5t-64 26.5t-26 63.5zM229 737q0 38 26.5 64.5t63.5 26.5t64 -27t27 -64t-26.5 -63.5t-64.5 -26.5q-37 0 -63.5 26.5t-26.5 63.5z" />
    <glyph glyph-name="Eth" unicode="&#xd0;" horiz-adv-x="630" 
d="M13 238l26 145h39l41 231h247q129 0 197.5 -67t68.5 -185q0 -162 -104.5 -262t-269.5 -100h-247l42 238h-40zM230 166h47q72 0 117 47t45 123q0 54 -28.5 83.5t-83.5 29.5h-47l-12 -66h71l-26 -145h-71z" />
    <glyph glyph-name="Ntilde" unicode="&#xd1;" horiz-adv-x="632" 
d="M486 816h100q-27 -161 -119 -161q-25 0 -61 13.5t-51 13.5q-22 0 -26 -23h-100q27 161 119 161q25 0 61 -13.5t51 -13.5q22 0 26 23zM668 614l-108 -614h-149l-174 317l-56 -317h-187l108 614h171l155 -296l53 296h187z" />
    <glyph glyph-name="Ograve" unicode="&#xd2;" horiz-adv-x="647" 
d="M483 663h-175l-60 137h175zM323 159q57 0 94 48t37 131q0 54 -27.5 85.5t-72.5 31.5q-57 0 -94 -48t-37 -131q0 -54 27.5 -85.5t72.5 -31.5zM315 -10q-132 0 -209.5 78t-77.5 202q0 153 95.5 253.5t238.5 100.5q132 0 209.5 -78t77.5 -202q0 -153 -95.5 -253.5
t-238.5 -100.5z" />
    <glyph glyph-name="Oacute" unicode="&#xd3;" horiz-adv-x="647" 
d="M494 663h-190l110 137h190zM323 159q57 0 94 48t37 131q0 54 -27.5 85.5t-72.5 31.5q-57 0 -94 -48t-37 -131q0 -54 27.5 -85.5t72.5 -31.5zM315 -10q-132 0 -209.5 78t-77.5 202q0 153 95.5 253.5t238.5 100.5q132 0 209.5 -78t77.5 -202q0 -153 -95.5 -253.5
t-238.5 -100.5z" />
    <glyph glyph-name="Ocircumflex" unicode="&#xd4;" horiz-adv-x="647" 
d="M323 159q57 0 94 48t37 131q0 54 -27.5 85.5t-72.5 31.5q-57 0 -94 -48t-37 -131q0 -54 27.5 -85.5t72.5 -31.5zM315 -10q-132 0 -209.5 78t-77.5 202q0 153 95.5 253.5t238.5 100.5q132 0 209.5 -78t77.5 -202q0 -153 -95.5 -253.5t-238.5 -100.5zM488 800l92 -137h-145
l-29 37l-43 -37h-153l142 137h136z" />
    <glyph glyph-name="Otilde" unicode="&#xd5;" horiz-adv-x="647" 
d="M483 816h100q-27 -161 -119 -161q-25 0 -61 13.5t-51 13.5q-22 0 -26 -23h-100q27 161 119 161q25 0 61 -13.5t51 -13.5q22 0 26 23zM323 159q57 0 94 48t37 131q0 54 -27.5 85.5t-72.5 31.5q-57 0 -94 -48t-37 -131q0 -54 27.5 -85.5t72.5 -31.5zM315 -10
q-132 0 -209.5 78t-77.5 202q0 153 95.5 253.5t238.5 100.5q132 0 209.5 -78t77.5 -202q0 -153 -95.5 -253.5t-238.5 -100.5z" />
    <glyph glyph-name="Odieresis" unicode="&#xd6;" horiz-adv-x="647" 
d="M219 737q0 38 26.5 64.5t63.5 26.5t64 -27t27 -64t-26.5 -63.5t-64.5 -26.5q-37 0 -63.5 26.5t-26.5 63.5zM416 737q0 38 26.5 64.5t63.5 26.5q38 0 64.5 -27t26.5 -64t-26.5 -63.5t-64.5 -26.5t-64 26.5t-26 63.5zM323 159q57 0 94 48t37 131q0 54 -27.5 85.5
t-72.5 31.5q-57 0 -94 -48t-37 -131q0 -54 27.5 -85.5t72.5 -31.5zM315 -10q-132 0 -209.5 78t-77.5 202q0 153 95.5 253.5t238.5 100.5q132 0 209.5 -78t77.5 -202q0 -153 -95.5 -253.5t-238.5 -100.5z" />
    <glyph glyph-name="multiply" unicode="&#xd7;" horiz-adv-x="493" 
d="M167 303l-99 119l109 93l99 -119l140 119l80 -97l-140 -119l98 -120l-109 -92l-98 119l-141 -119l-80 96z" />
    <glyph glyph-name="Oslash" unicode="&#xd8;" horiz-adv-x="655" 
d="M22 41l60 60q-50 70 -50 169q0 153 95.5 253.5t238.5 100.5q111 0 185 -57l58 57l54 -51l-60 -60q50 -72 50 -169q0 -153 -95.5 -253.5t-238.5 -100.5q-112 0 -186 57l-57 -57zM327 155q57 0 96.5 50t39.5 133q0 11 -4 33l-195 -195q27 -21 63 -21zM222 276q0 -18 3 -33
l196 194q-27 22 -63 22q-57 0 -96.5 -50t-39.5 -133z" />
    <glyph glyph-name="Ugrave" unicode="&#xd9;" horiz-adv-x="616" 
d="M468 663h-175l-60 137h175zM280 -10q-115 0 -183 56.5t-68 157.5q0 31 5 56l63 354h193l-61 -343q-3 -17 -3 -30q0 -37 19.5 -57.5t54.5 -20.5q84 0 103 108l61 343h193l-64 -360q-23 -130 -102 -197t-211 -67z" />
    <glyph glyph-name="Uacute" unicode="&#xda;" horiz-adv-x="616" 
d="M479 663h-190l110 137h190zM280 -10q-115 0 -183 56.5t-68 157.5q0 31 5 56l63 354h193l-61 -343q-3 -17 -3 -30q0 -37 19.5 -57.5t54.5 -20.5q84 0 103 108l61 343h193l-64 -360q-23 -130 -102 -197t-211 -67z" />
    <glyph glyph-name="Ucircumflex" unicode="&#xdb;" horiz-adv-x="616" 
d="M280 -10q-115 0 -183 56.5t-68 157.5q0 31 5 56l63 354h193l-61 -343q-3 -17 -3 -30q0 -37 19.5 -57.5t54.5 -20.5q84 0 103 108l61 343h193l-64 -360q-23 -130 -102 -197t-211 -67zM472 800l92 -137h-145l-29 37l-43 -37h-153l142 137h136z" />
    <glyph glyph-name="Udieresis" unicode="&#xdc;" horiz-adv-x="616" 
d="M209 737q0 38 26.5 64.5t63.5 26.5t64 -27t27 -64t-26.5 -63.5t-64.5 -26.5q-37 0 -63.5 26.5t-26.5 63.5zM406 737q0 38 26.5 64.5t63.5 26.5q38 0 64.5 -27t26.5 -64t-26.5 -63.5t-64.5 -26.5t-64 26.5t-26 63.5zM280 -10q-115 0 -183 56.5t-68 157.5q0 31 5 56l63 354
h193l-61 -343q-3 -17 -3 -30q0 -37 19.5 -57.5t54.5 -20.5q84 0 103 108l61 343h193l-64 -360q-23 -130 -102 -197t-211 -67z" />
    <glyph glyph-name="Yacute" unicode="&#xdd;" horiz-adv-x="632" 
d="M341 395l149 219h211l-293 -412l-35 -202h-195l35 202l-144 412h201zM482 663h-190l110 137h190z" />
    <glyph glyph-name="Thorn" unicode="&#xde;" horiz-adv-x="567" 
d="M297 89h-97l-15 -89h-191l108 614h191l-14 -79h76q101 0 157.5 -49t56.5 -140q0 -119 -77.5 -188t-194.5 -69zM250 374l-21 -124h71q38 0 59.5 19t21.5 53q0 52 -63 52h-68z" />
    <glyph glyph-name="germandbls" unicode="&#xdf;" horiz-adv-x="567" 
d="M-8 0l82 466q34 192 226 192q44 0 75 -12l-26 -151q-14 6 -30 6q-51 0 -58 -45v-2h328v-4l-122 -217q58 -41 58 -131q0 -82 -48.5 -144t-122 -91.5t-159.5 -29.5l26 150q56 2 91 28t35 72q0 31 -23 53t-61 31v4l72 133h-100l-54 -308h-189z" />
    <glyph glyph-name="agrave" unicode="&#xe0;" horiz-adv-x="496" 
d="M287 255l2 11q1 6 1 9q0 39 -77 39q-82 0 -134 -26l25 145q73 31 176 31q198 0 198 -155q0 -22 -5 -52l-45 -257h-186l4 22q-34 -30 -98 -30t-107.5 36.5t-43.5 95.5q0 74 53.5 115.5t130.5 41.5q67 0 106 -26zM264 129l4 22q-12 23 -47 23q-18 0 -32.5 -9t-14.5 -26
q0 -13 12.5 -21t28.5 -8q31 0 49 19zM381 493h-162l-57 157h162z" />
    <glyph glyph-name="aacute" unicode="&#xe1;" horiz-adv-x="496" 
d="M287 255l2 11q1 6 1 9q0 39 -77 39q-82 0 -134 -26l25 145q73 31 176 31q198 0 198 -155q0 -22 -5 -52l-45 -257h-186l4 22q-34 -30 -98 -30t-107.5 36.5t-43.5 95.5q0 74 53.5 115.5t130.5 41.5q67 0 106 -26zM264 129l4 22q-12 23 -47 23q-18 0 -32.5 -9t-14.5 -26
q0 -13 12.5 -21t28.5 -8q31 0 49 19zM387 493h-178l113 157h178z" />
    <glyph glyph-name="acircumflex" unicode="&#xe2;" horiz-adv-x="496" 
d="M287 255l2 11q1 6 1 9q0 39 -77 39q-82 0 -134 -26l25 145q73 31 176 31q198 0 198 -155q0 -22 -5 -52l-45 -257h-186l4 22q-34 -30 -98 -30t-107.5 36.5t-43.5 95.5q0 74 53.5 115.5t130.5 41.5q67 0 106 -26zM264 129l4 22q-12 23 -47 23q-18 0 -32.5 -9t-14.5 -26
q0 -13 12.5 -21t28.5 -8q31 0 49 19zM392 650l69 -157h-132l-22 41l-38 -41h-138l125 157h136z" />
    <glyph glyph-name="atilde" unicode="&#xe3;" horiz-adv-x="496" 
d="M287 255l2 11q1 6 1 9q0 39 -77 39q-82 0 -134 -26l25 145q73 31 176 31q198 0 198 -155q0 -22 -5 -52l-45 -257h-186l4 22q-34 -30 -98 -30t-107.5 36.5t-43.5 95.5q0 74 53.5 115.5t130.5 41.5q67 0 106 -26zM264 129l4 22q-12 23 -47 23q-18 0 -32.5 -9t-14.5 -26
q0 -13 12.5 -21t28.5 -8q31 0 49 19zM384 650h100q-27 -161 -119 -161q-25 0 -51.5 13.5t-41.5 13.5q-21 0 -26 -23h-100q29 161 120 161q25 0 51 -13.5t41 -13.5q22 0 26 23z" />
    <glyph glyph-name="adieresis" unicode="&#xe4;" horiz-adv-x="496" 
d="M287 255l2 11q1 6 1 9q0 39 -77 39q-82 0 -134 -26l25 145q73 31 176 31q198 0 198 -155q0 -22 -5 -52l-45 -257h-186l4 22q-34 -30 -98 -30t-107.5 36.5t-43.5 95.5q0 74 53.5 115.5t130.5 41.5q67 0 106 -26zM264 129l4 22q-12 23 -47 23q-18 0 -32.5 -9t-14.5 -26
q0 -13 12.5 -21t28.5 -8q31 0 49 19zM132 564q0 36 25.5 62t61.5 26t62 -26t26 -62t-26 -61.5t-62 -25.5t-61.5 25.5t-25.5 61.5zM322 564q0 36 25.5 62t61.5 26t62 -26t26 -62t-26 -61.5t-62 -25.5t-61.5 25.5t-25.5 61.5z" />
    <glyph glyph-name="aring" unicode="&#xe5;" horiz-adv-x="496" 
d="M287 255l2 11q1 6 1 9q0 39 -77 39q-82 0 -134 -26l25 145q73 31 176 31q198 0 198 -155q0 -22 -5 -52l-45 -257h-186l4 22q-34 -30 -98 -30t-107.5 36.5t-43.5 95.5q0 74 53.5 115.5t130.5 41.5q67 0 106 -26zM264 129l4 22q-12 23 -47 23q-18 0 -32.5 -9t-14.5 -26
q0 -13 12.5 -21t28.5 -8q31 0 49 19zM317 563q14 0 24 10t10 25q0 12 -8.5 21t-21.5 9q-14 0 -24 -10t-10 -25q0 -12 8.5 -21t21.5 -9zM314 482q-48 0 -80 32t-32 77q0 49 35.5 83.5t86.5 34.5q48 0 80 -32t32 -77q0 -49 -35.5 -83.5t-86.5 -34.5z" />
    <glyph glyph-name="ae" unicode="&#xe6;" horiz-adv-x="722" 
d="M329 47q-80 -57 -176 -57q-71 0 -113.5 36t-42.5 95q0 54 35.5 90.5t84.5 51t105 14.5h67v2q-7 37 -77 37q-75 0 -131 -28l25 145q73 31 164 31q90 0 129 -42q49 42 119 42q94 0 145 -52t51 -145q0 -39 -9 -84h-265v-2q12 -46 94 -46q78 0 141 33l-26 -145
q-60 -33 -159 -33q-97 0 -161 57zM210 123q37 0 56 22l7 38h-48q-50 0 -50 -34q0 -26 35 -26zM507 324q-39 0 -59 -47h101v2q0 20 -11 32.5t-31 12.5z" />
    <glyph glyph-name="ccedilla" unicode="&#xe7;" horiz-adv-x="404" 
d="M363 164l-26 -149q-43 -25 -103 -25q-100 0 -161.5 57t-61.5 154q0 114 73 188.5t191 74.5q85 0 135 -34l-27 -152q-44 29 -87 29q-42 0 -70.5 -22.5t-28.5 -69.5q0 -34 22.5 -52.5t62.5 -18.5t81 20zM194 -175h-156l92 143h156z" />
    <glyph glyph-name="egrave" unicode="&#xe8;" horiz-adv-x="478" 
d="M461 183h-264q13 -48 93 -48q78 0 141 33l-26 -145q-60 -33 -165 -33q-106 0 -167.5 56.5t-61.5 151.5q0 113 74 189.5t189 76.5q94 0 145 -52t51 -145q0 -39 -9 -84zM368 493h-162l-57 157h162zM263 324q-39 0 -59 -47h101v2q0 20 -11 32.5t-31 12.5z" />
    <glyph glyph-name="eacute" unicode="&#xe9;" horiz-adv-x="478" 
d="M461 183h-264q13 -48 93 -48q78 0 141 33l-26 -145q-60 -33 -165 -33q-106 0 -167.5 56.5t-61.5 151.5q0 113 74 189.5t189 76.5q94 0 145 -52t51 -145q0 -39 -9 -84zM375 493h-178l113 157h178zM263 324q-39 0 -59 -47h101v2q0 20 -11 32.5t-31 12.5z" />
    <glyph glyph-name="ecircumflex" unicode="&#xea;" horiz-adv-x="478" 
d="M461 183h-264q13 -48 93 -48q78 0 141 33l-26 -145q-60 -33 -165 -33q-106 0 -167.5 56.5t-61.5 151.5q0 113 74 189.5t189 76.5q94 0 145 -52t51 -145q0 -39 -9 -84zM380 650l69 -157h-132l-22 41l-38 -41h-138l125 157h136zM263 324q-39 0 -59 -47h101v2q0 20 -11 32.5
t-31 12.5z" />
    <glyph glyph-name="edieresis" unicode="&#xeb;" horiz-adv-x="478" 
d="M461 183h-264q13 -48 93 -48q78 0 141 33l-26 -145q-60 -33 -165 -33q-106 0 -167.5 56.5t-61.5 151.5q0 113 74 189.5t189 76.5q94 0 145 -52t51 -145q0 -39 -9 -84zM306 564q0 36 25.5 62t61.5 26t62 -26t26 -62t-26 -61.5t-62 -25.5t-61.5 25.5t-25.5 61.5zM116 564
q0 36 25.5 62t61.5 26t62 -26t26 -62t-26 -61.5t-62 -25.5t-61.5 25.5t-25.5 61.5zM263 324q-39 0 -59 -47h101v2q0 20 -11 32.5t-31 12.5z" />
    <glyph glyph-name="igrave" unicode="&#xec;" horiz-adv-x="252" 
d="M262 454l-80 -454h-190l80 454h190zM253 493h-162l-57 157h162z" />
    <glyph glyph-name="iacute" unicode="&#xed;" horiz-adv-x="252" 
d="M260 493h-178l113 157h178zM262 454l-80 -454h-190l80 454h190z" />
    <glyph glyph-name="icircumflex" unicode="&#xee;" horiz-adv-x="252" 
d="M265 650l69 -157h-132l-22 41l-38 -41h-138l125 157h136zM262 454l-80 -454h-190l80 454h190z" />
    <glyph glyph-name="idieresis" unicode="&#xef;" horiz-adv-x="252" 
d="M4 564q0 36 25.5 62t61.5 26t62 -26t26 -62t-26 -61.5t-62 -25.5t-61.5 25.5t-25.5 61.5zM194 564q0 36 25.5 62t61.5 26t62 -26t26 -62t-26 -61.5t-62 -25.5t-61.5 25.5t-25.5 61.5zM262 454l-80 -454h-190l80 454h190z" />
    <glyph glyph-name="eth" unicode="&#xf0;" horiz-adv-x="503" 
d="M179 469l-27 70l66 20q-30 39 -80 87v4h199q26 -28 39 -43l73 22l26 -70l-52 -16q69 -112 69 -247q0 -145 -73.5 -225.5t-186.5 -80.5q-97 0 -159 56.5t-62 152.5q0 117 71.5 187.5t182.5 70.5q14 0 23 -5h2l-26 43zM238 145q30 0 49 32t19 79q0 21 -11 35.5t-30 14.5
q-30 0 -49 -32t-19 -79q0 -21 11 -35.5t30 -14.5z" />
    <glyph glyph-name="ntilde" unicode="&#xf1;" horiz-adv-x="533" 
d="M-8 0l80 454h190l-7 -37q50 47 123 47q65 0 102.5 -36t37.5 -99q0 -17 -3 -37l-51 -292h-190l43 248q1 6 1 12q0 37 -37 37t-53 -36l-46 -261h-190zM398 650h100q-27 -161 -119 -161q-25 0 -51.5 13.5t-41.5 13.5q-21 0 -26 -23h-100q29 161 120 161q25 0 51 -13.5
t41 -13.5q22 0 26 23z" />
    <glyph glyph-name="ograve" unicode="&#xf2;" horiz-adv-x="503" 
d="M238 145q30 0 49 32.5t19 80.5q0 22 -11 36.5t-30 14.5q-30 0 -49 -32.5t-19 -80.5q0 -22 11 -36.5t30 -14.5zM232 -10q-97 0 -159 56.5t-62 152.5q0 117 74.5 191t185.5 74q97 0 159 -56.5t62 -152.5q0 -117 -74.5 -191t-185.5 -74zM377 493h-162l-57 157h162z" />
    <glyph glyph-name="oacute" unicode="&#xf3;" horiz-adv-x="503" 
d="M384 493h-178l113 157h178zM238 145q30 0 49 32.5t19 80.5q0 22 -11 36.5t-30 14.5q-30 0 -49 -32.5t-19 -80.5q0 -22 11 -36.5t30 -14.5zM232 -10q-97 0 -159 56.5t-62 152.5q0 117 74.5 191t185.5 74q97 0 159 -56.5t62 -152.5q0 -117 -74.5 -191t-185.5 -74z" />
    <glyph glyph-name="ocircumflex" unicode="&#xf4;" horiz-adv-x="503" 
d="M389 650l69 -157h-132l-22 41l-38 -41h-138l125 157h136zM238 145q30 0 49 32.5t19 80.5q0 22 -11 36.5t-30 14.5q-30 0 -49 -32.5t-19 -80.5q0 -22 11 -36.5t30 -14.5zM232 -10q-97 0 -159 56.5t-62 152.5q0 117 74.5 191t185.5 74q97 0 159 -56.5t62 -152.5
q0 -117 -74.5 -191t-185.5 -74z" />
    <glyph glyph-name="otilde" unicode="&#xf5;" horiz-adv-x="503" 
d="M238 145q30 0 49 32.5t19 80.5q0 22 -11 36.5t-30 14.5q-30 0 -49 -32.5t-19 -80.5q0 -22 11 -36.5t30 -14.5zM232 -10q-97 0 -159 56.5t-62 152.5q0 117 74.5 191t185.5 74q97 0 159 -56.5t62 -152.5q0 -117 -74.5 -191t-185.5 -74zM381 650h100q-27 -161 -119 -161
q-25 0 -51.5 13.5t-41.5 13.5q-21 0 -26 -23h-100q29 161 120 161q25 0 51 -13.5t41 -13.5q22 0 26 23z" />
    <glyph glyph-name="odieresis" unicode="&#xf6;" horiz-adv-x="503" 
d="M125 564q0 36 25.5 62t61.5 26t62 -26t26 -62t-26 -61.5t-62 -25.5t-61.5 25.5t-25.5 61.5zM315 564q0 36 25.5 62t61.5 26t62 -26t26 -62t-26 -61.5t-62 -25.5t-61.5 25.5t-25.5 61.5zM238 145q30 0 49 32.5t19 80.5q0 22 -11 36.5t-30 14.5q-30 0 -49 -32.5t-19 -80.5
q0 -22 11 -36.5t30 -14.5zM232 -10q-97 0 -159 56.5t-62 152.5q0 117 74.5 191t185.5 74q97 0 159 -56.5t62 -152.5q0 -117 -74.5 -191t-185.5 -74z" />
    <glyph glyph-name="divide" unicode="&#xf7;" horiz-adv-x="551" 
d="M40 231l24 137h475l-24 -137h-475zM232 486q0 37 26.5 62.5t64.5 25.5t64.5 -25.5t26.5 -62.5t-26.5 -62.5t-64.5 -25.5t-64.5 25.5t-26.5 62.5zM167 112q0 37 26.5 62.5t64.5 25.5t64.5 -25.5t26.5 -62.5t-26.5 -62.5t-64.5 -25.5t-64.5 25.5t-26.5 62.5z" />
    <glyph glyph-name="oslash" unicode="&#xf8;" horiz-adv-x="513" 
d="M16 27l41 41q-41 54 -41 131q0 117 74.5 191t185.5 74q81 0 138 -40l41 40l42 -37l-42 -42q42 -53 42 -130q0 -117 -74.5 -191t-185.5 -74q-82 0 -139 40l-40 -40zM243 136q29 0 51 33.5t25 80.5l-105 -105q12 -9 29 -9zM271 319q-29 0 -51 -33.5t-26 -80.5l105 104
q-13 10 -28 10z" />
    <glyph glyph-name="ugrave" unicode="&#xf9;" horiz-adv-x="527" 
d="M537 454l-80 -454h-190l7 37q-50 -47 -123 -47q-64 0 -101 35.5t-37 97.5q0 18 3 39l51 292h190l-42 -245q-2 -12 -2 -19q0 -36 35 -36q37 0 53 36l46 264h190zM391 493h-162l-57 157h162z" />
    <glyph glyph-name="uacute" unicode="&#xfa;" horiz-adv-x="527" 
d="M397 493h-178l113 157h178zM537 454l-80 -454h-190l7 37q-50 -47 -123 -47q-64 0 -101 35.5t-37 97.5q0 18 3 39l51 292h190l-42 -245q-2 -12 -2 -19q0 -36 35 -36q37 0 53 36l46 264h190z" />
    <glyph glyph-name="ucircumflex" unicode="&#xfb;" horiz-adv-x="527" 
d="M403 650l69 -157h-132l-22 41l-38 -41h-138l125 157h136zM537 454l-80 -454h-190l7 37q-50 -47 -123 -47q-64 0 -101 35.5t-37 97.5q0 18 3 39l51 292h190l-42 -245q-2 -12 -2 -19q0 -36 35 -36q37 0 53 36l46 264h190z" />
    <glyph glyph-name="udieresis" unicode="&#xfc;" horiz-adv-x="527" 
d="M142 564q0 36 25.5 62t61.5 26t62 -26t26 -62t-26 -61.5t-62 -25.5t-61.5 25.5t-25.5 61.5zM332 564q0 36 25.5 62t61.5 26t62 -26t26 -62t-26 -61.5t-62 -25.5t-61.5 25.5t-25.5 61.5zM537 454l-80 -454h-190l7 37q-50 -47 -123 -47q-64 0 -101 35.5t-37 97.5q0 18 3 39
l51 292h190l-42 -245q-2 -12 -2 -19q0 -36 35 -36q37 0 53 36l46 264h190z" />
    <glyph glyph-name="yacute" unicode="&#xfd;" horiz-adv-x="510" 
d="M196 -153h-190l108 180l-75 427h177l33 -219l116 219h186zM382 493h-178l113 157h178z" />
    <glyph glyph-name="thorn" unicode="&#xfe;" horiz-adv-x="544" 
d="M188 35l-33 -188h-190l141 803h190l-40 -231q49 45 112 45q79 0 122 -54.5t43 -137.5q0 -118 -65 -200t-172 -82q-34 0 -64.5 13t-43.5 32zM230 272l-16 -90q3 -14 17 -23t32 -9q32 0 54.5 27t22.5 70q0 26 -13.5 41.5t-39.5 15.5q-37 0 -57 -32z" />
    <glyph glyph-name="ydieresis" unicode="&#xff;" horiz-adv-x="510" 
d="M196 -153h-190l108 180l-75 427h177l33 -219l116 219h186zM127 564q0 36 25.5 62t61.5 26t62 -26t26 -62t-26 -61.5t-62 -25.5t-61.5 25.5t-25.5 61.5zM317 564q0 36 25.5 62t61.5 26t62 -26t26 -62t-26 -61.5t-62 -25.5t-61.5 25.5t-25.5 61.5z" />
    <glyph glyph-name="Amacron" unicode="&#x100;" horiz-adv-x="666" 
d="M309 614h202l116 -614h-192l-15 89h-218l-49 -89h-192zM272 663l22 125h289l-22 -125h-289zM369 387l-79 -141h103z" />
    <glyph glyph-name="amacron" unicode="&#x101;" horiz-adv-x="496" 
d="M287 255l2 11q1 6 1 9q0 39 -77 39q-82 0 -134 -26l25 145q73 31 176 31q198 0 198 -155q0 -22 -5 -52l-45 -257h-186l4 22q-34 -30 -98 -30t-107.5 36.5t-43.5 95.5q0 74 53.5 115.5t130.5 41.5q67 0 106 -26zM264 129l4 22q-12 23 -47 23q-18 0 -32.5 -9t-14.5 -26
q0 -13 12.5 -21t28.5 -8q31 0 49 19zM167 493l22 125h269l-22 -125h-269z" />
    <glyph glyph-name="Abreve" unicode="&#x102;" horiz-adv-x="666" 
d="M309 614h202l116 -614h-192l-15 89h-218l-49 -89h-192zM422 653q-69 0 -109 42.5t-26 116.5h129q-7 -37 18 -37q26 0 33 37h128q-14 -78 -59.5 -118.5t-113.5 -40.5zM369 387l-79 -141h103z" />
    <glyph glyph-name="abreve" unicode="&#x103;" horiz-adv-x="496" 
d="M287 255l2 11q1 6 1 9q0 39 -77 39q-82 0 -134 -26l25 145q73 31 176 31q198 0 198 -155q0 -22 -5 -52l-45 -257h-186l4 22q-34 -30 -98 -30t-107.5 36.5t-43.5 95.5q0 74 53.5 115.5t130.5 41.5q67 0 106 -26zM264 129l4 22q-12 23 -47 23q-18 0 -32.5 -9t-14.5 -26
q0 -13 12.5 -21t28.5 -8q31 0 49 19zM308 484q-69 0 -109 42.5t-26 116.5h129q-7 -37 18 -37q26 0 33 37h128q-14 -78 -59.5 -118.5t-113.5 -40.5z" />
    <glyph glyph-name="Aogonek" unicode="&#x104;" horiz-adv-x="666" 
d="M309 614h202l116 -614q-59 -45 -59 -66q0 -12 15 -12q14 0 37 13l-18 -100q-34 -17 -72 -17t-61.5 17.5t-23.5 51.5q0 33 18.5 58.5t52.5 54.5h-81l-15 89h-218l-49 -89h-192zM369 387l-79 -141h103z" />
    <glyph glyph-name="aogonek" unicode="&#x105;" horiz-adv-x="496" 
d="M264 129l4 22q-12 23 -47 23q-18 0 -32.5 -9t-14.5 -26q0 -13 12.5 -21t28.5 -8q31 0 49 19zM317 0h-75l4 22q-34 -30 -98 -30t-107.5 36.5t-43.5 95.5q0 74 53.5 115.5t130.5 41.5q67 0 106 -26l2 11q1 6 1 9q0 39 -77 39q-82 0 -134 -26l25 145q73 31 176 31
q198 0 198 -155q0 -22 -5 -52l-45 -257q-59 -45 -59 -66q0 -12 15 -12q14 0 37 13l-18 -100q-34 -17 -72 -17t-61.5 17.5t-23.5 51.5q0 33 18.5 58.5t52.5 54.5z" />
    <glyph glyph-name="Cacute" unicode="&#x106;" 
d="M492 209l-32 -183q-67 -36 -151 -36q-124 0 -202.5 75t-78.5 197q0 165 104.5 263.5t263.5 98.5q108 0 163 -36l-32 -183q-57 39 -132 39q-73 0 -122.5 -43t-49.5 -118q0 -55 35 -83.5t92 -28.5q75 0 142 38zM503 663h-190l110 137h190z" />
    <glyph glyph-name="cacute" unicode="&#x107;" horiz-adv-x="404" 
d="M375 493h-178l113 157h178zM363 164l-26 -149q-43 -25 -103 -25q-100 0 -161.5 57t-61.5 154q0 114 73 188.5t191 74.5q85 0 135 -34l-27 -152q-44 29 -87 29q-42 0 -70.5 -22.5t-28.5 -69.5q0 -34 22.5 -52.5t62.5 -18.5t81 20z" />
    <glyph glyph-name="Ccircumflex" unicode="&#x108;" 
d="M492 209l-32 -183q-67 -36 -151 -36q-124 0 -202.5 75t-78.5 197q0 165 104.5 263.5t263.5 98.5q108 0 163 -36l-32 -183q-57 39 -132 39q-73 0 -122.5 -43t-49.5 -118q0 -55 35 -83.5t92 -28.5q75 0 142 38zM497 800l92 -137h-145l-29 37l-43 -37h-153l142 137h136z" />
    <glyph glyph-name="ccircumflex" unicode="&#x109;" horiz-adv-x="404" 
d="M380 650l69 -157h-132l-22 41l-38 -41h-138l125 157h136zM363 164l-26 -149q-43 -25 -103 -25q-100 0 -161.5 57t-61.5 154q0 114 73 188.5t191 74.5q85 0 135 -34l-27 -152q-44 29 -87 29q-42 0 -70.5 -22.5t-28.5 -69.5q0 -34 22.5 -52.5t62.5 -18.5t81 20z" />
    <glyph glyph-name="Cdotaccent" unicode="&#x10a;" 
d="M530 751q0 -45 -30.5 -71.5t-74.5 -26.5t-74.5 26.5t-30.5 71.5t30.5 71.5t74.5 26.5t74.5 -26.5t30.5 -71.5zM492 209l-32 -183q-67 -36 -151 -36q-124 0 -202.5 75t-78.5 197q0 165 104.5 263.5t263.5 98.5q108 0 163 -36l-32 -183q-57 39 -132 39q-73 0 -122.5 -43
t-49.5 -118q0 -55 35 -83.5t92 -28.5q75 0 142 38z" />
    <glyph glyph-name="cdotaccent" unicode="&#x10b;" horiz-adv-x="404" 
d="M363 164l-26 -149q-43 -25 -103 -25q-100 0 -161.5 57t-61.5 154q0 114 73 188.5t191 74.5q85 0 135 -34l-27 -152q-44 29 -87 29q-42 0 -70.5 -22.5t-28.5 -69.5q0 -34 22.5 -52.5t62.5 -18.5t81 20zM409 580q0 -45 -30.5 -71.5t-74.5 -26.5t-74.5 26.5t-30.5 71.5
t30.5 71.5t74.5 26.5t74.5 -26.5t30.5 -71.5z" />
    <glyph glyph-name="Ccaron" unicode="&#x10c;" 
d="M492 209l-32 -183q-67 -36 -151 -36q-124 0 -202.5 75t-78.5 197q0 165 104.5 263.5t263.5 98.5q108 0 163 -36l-32 -183q-57 39 -132 39q-73 0 -122.5 -43t-49.5 -118q0 -55 35 -83.5t92 -28.5q75 0 142 38zM344 659l-92 137h145l29 -37l43 37h153l-142 -137h-136z" />
    <glyph glyph-name="ccaron" unicode="&#x10d;" horiz-adv-x="404" 
d="M224 493l-69 157h132l22 -41l38 41h138l-125 -157h-136zM363 164l-26 -149q-43 -25 -103 -25q-100 0 -161.5 57t-61.5 154q0 114 73 188.5t191 74.5q85 0 135 -34l-27 -152q-44 29 -87 29q-42 0 -70.5 -22.5t-28.5 -69.5q0 -34 22.5 -52.5t62.5 -18.5t81 20z" />
    <glyph glyph-name="Dcaron" unicode="&#x10e;" horiz-adv-x="613" 
d="M284 659l-92 137h145l29 -37l43 37h153l-142 -137h-136zM213 166h47q72 0 117 47t45 123q0 54 -28.5 83.5t-83.5 29.5h-47zM-6 0l108 614h247q129 0 197.5 -67t68.5 -185q0 -162 -104.5 -262t-269.5 -100h-247z" />
    <glyph glyph-name="dcaron" unicode="&#x10f;" horiz-adv-x="542" 
d="M723 483h-146l77 167h148zM356 419l40 231h190l-114 -650h-190l6 35q-49 -45 -112 -45q-79 0 -122 54.5t-43 137.5q0 118 65 200t172 82q34 0 64.5 -13t43.5 -32zM314 182l16 90q-3 14 -17 23t-32 9q-32 0 -54.5 -27t-22.5 -70q0 -26 13.5 -41.5t39.5 -15.5q37 0 57 32z
" />
    <glyph glyph-name="Dcroat" unicode="&#x110;" horiz-adv-x="630" 
d="M13 238l26 145h39l41 231h247q129 0 197.5 -67t68.5 -185q0 -162 -104.5 -262t-269.5 -100h-247l42 238h-40zM230 166h47q72 0 117 47t45 123q0 54 -28.5 83.5t-83.5 29.5h-47l-12 -66h71l-26 -145h-71z" />
    <glyph glyph-name="dcroat" unicode="&#x111;" horiz-adv-x="542" 
d="M296 483l21 121h71l8 46h190l-8 -46h40l-21 -121h-41l-84 -483h-190l6 35q-49 -45 -112 -45q-79 0 -122 54.5t-43 137.5q0 118 65 200t172 82q34 0 64.5 -13t43.5 -32l11 64h-71zM314 182l16 90q-3 14 -17 23t-32 9q-32 0 -54.5 -27t-22.5 -70q0 -26 13.5 -41.5
t39.5 -15.5q37 0 57 32z" />
    <glyph glyph-name="Emacron" unicode="&#x112;" horiz-adv-x="522" 
d="M198 663l22 125h289l-22 -125h-289zM102 614h462l-29 -165h-271l-11 -58h248l-28 -160h-248l-11 -65h271l-29 -166h-462z" />
    <glyph glyph-name="emacron" unicode="&#x113;" horiz-adv-x="478" 
d="M461 183h-264q13 -48 93 -48q78 0 141 33l-26 -145q-60 -33 -165 -33q-106 0 -167.5 56.5t-61.5 151.5q0 113 74 189.5t189 76.5q94 0 145 -52t51 -145q0 -39 -9 -84zM155 493l22 125h269l-22 -125h-269zM263 324q-39 0 -59 -47h101v2q0 20 -11 32.5t-31 12.5z" />
    <glyph glyph-name="Ebreve" unicode="&#x114;" horiz-adv-x="522" 
d="M349 653q-69 0 -109 42.5t-26 116.5h129q-7 -37 18 -37q26 0 33 37h128q-14 -78 -59.5 -118.5t-113.5 -40.5zM102 614h462l-29 -165h-271l-11 -58h248l-28 -160h-248l-11 -65h271l-29 -166h-462z" />
    <glyph glyph-name="ebreve" unicode="&#x115;" horiz-adv-x="478" 
d="M461 183h-264q13 -48 93 -48q78 0 141 33l-26 -145q-60 -33 -165 -33q-106 0 -167.5 56.5t-61.5 151.5q0 113 74 189.5t189 76.5q94 0 145 -52t51 -145q0 -39 -9 -84zM296 484q-69 0 -109 42.5t-26 116.5h129q-7 -37 18 -37q26 0 33 37h128q-14 -78 -59.5 -118.5
t-113.5 -40.5zM263 324q-39 0 -59 -47h101v2q0 20 -11 32.5t-31 12.5z" />
    <glyph glyph-name="Edotaccent" unicode="&#x116;" horiz-adv-x="522" 
d="M462 751q0 -45 -30.5 -71.5t-74.5 -26.5t-74.5 26.5t-30.5 71.5t30.5 71.5t74.5 26.5t74.5 -26.5t30.5 -71.5zM102 614h462l-29 -165h-271l-11 -58h248l-28 -160h-248l-11 -65h271l-29 -166h-462z" />
    <glyph glyph-name="edotaccent" unicode="&#x117;" horiz-adv-x="478" 
d="M461 183h-264q13 -48 93 -48q78 0 141 33l-26 -145q-60 -33 -165 -33q-106 0 -167.5 56.5t-61.5 151.5q0 113 74 189.5t189 76.5q94 0 145 -52t51 -145q0 -39 -9 -84zM409 580q0 -45 -30.5 -71.5t-74.5 -26.5t-74.5 26.5t-30.5 71.5t30.5 71.5t74.5 26.5t74.5 -26.5
t30.5 -71.5zM263 324q-39 0 -59 -47h101v2q0 20 -11 32.5t-31 12.5z" />
    <glyph glyph-name="Eogonek" unicode="&#x118;" horiz-adv-x="522" 
d="M102 614h462l-29 -165h-271l-11 -58h248l-28 -160h-248l-11 -65h271l-29 -166h-42q-58 -44 -58 -66q0 -12 15 -12q14 0 37 13l-18 -100q-34 -17 -72 -17t-61.5 17.5t-23.5 51.5q0 33 18.5 58.5t52.5 54.5h-310z" />
    <glyph glyph-name="eogonek" unicode="&#x119;" horiz-adv-x="478" 
d="M461 183h-264v-2q17 -46 93 -46q78 0 141 33l-26 -145q-38 -27 -45 -33q-37 -30 -37 -56q0 -12 15 -12q14 0 37 13l-18 -100q-34 -17 -72 -17t-61.5 17.5t-23.5 51.5q0 50 60 103h-20q-106 0 -167.5 56.5t-61.5 151.5q0 113 74 189.5t189 76.5q94 0 145 -52t51 -145
q0 -39 -9 -84zM263 324q-39 0 -59 -47h101v2q0 20 -11 32.5t-31 12.5z" />
    <glyph glyph-name="Ecaron" unicode="&#x11a;" horiz-adv-x="522" 
d="M276 659l-92 137h145l29 -37l43 37h153l-142 -137h-136zM102 614h462l-29 -165h-271l-11 -58h248l-28 -160h-248l-11 -65h271l-29 -166h-462z" />
    <glyph glyph-name="ecaron" unicode="&#x11b;" horiz-adv-x="478" 
d="M461 183h-264q13 -48 93 -48q78 0 141 33l-26 -145q-60 -33 -165 -33q-106 0 -167.5 56.5t-61.5 151.5q0 113 74 189.5t189 76.5q94 0 145 -52t51 -145q0 -39 -9 -84zM224 493l-69 157h132l22 -41l38 41h138l-125 -157h-136zM263 324q-39 0 -59 -47h101v2q0 20 -11 32.5
t-31 12.5z" />
    <glyph glyph-name="Gcircumflex" unicode="&#x11c;" horiz-adv-x="592" 
d="M315 -10q-132 0 -209.5 78t-77.5 202q0 155 99.5 254.5t256.5 99.5q125 0 211 -55l-32 -183q-72 58 -179 58q-78 0 -119.5 -43.5t-41.5 -119.5q0 -57 28 -87.5t77 -30.5q39 0 61 11l5 27h-73l27 152h241l-53 -297q-99 -66 -221 -66zM493 800l92 -137h-145l-29 37l-43 -37
h-153l142 137h136z" />
    <glyph glyph-name="gcircumflex" unicode="&#x11d;" horiz-adv-x="542" 
d="M426 650l69 -157h-132l-22 41l-38 -41h-138l125 157h136zM292 56l2 12q-46 -42 -102 -42q-82 0 -128 54t-46 131q0 109 64 181t169 72q34 0 63 -12.5t42 -31.5l6 34h190l-66 -373q-22 -126 -95 -185t-202 -59q-53 0 -107 13t-85 34l34 162q63 -58 158 -58q91 0 103 68z
M317 197l14 84q-3 13 -17 21t-32 8q-32 0 -54 -25t-22 -64q0 -24 13.5 -38.5t39.5 -14.5q38 0 58 29z" />
    <glyph glyph-name="Gbreve" unicode="&#x11e;" horiz-adv-x="592" 
d="M413 653q-69 0 -109 42.5t-26 116.5h129q-7 -37 18 -37q26 0 33 37h128q-14 -78 -59.5 -118.5t-113.5 -40.5zM315 -10q-132 0 -209.5 78t-77.5 202q0 155 99.5 254.5t256.5 99.5q125 0 211 -55l-32 -183q-72 58 -179 58q-78 0 -119.5 -43.5t-41.5 -119.5q0 -57 28 -87.5
t77 -30.5q39 0 61 11l5 27h-73l27 152h241l-53 -297q-99 -66 -221 -66z" />
    <glyph glyph-name="gbreve" unicode="&#x11f;" horiz-adv-x="542" 
d="M292 56l2 12q-46 -42 -102 -42q-82 0 -128 54t-46 131q0 109 64 181t169 72q34 0 63 -12.5t42 -31.5l6 34h190l-66 -373q-22 -126 -95 -185t-202 -59q-53 0 -107 13t-85 34l34 162q63 -58 158 -58q91 0 103 68zM317 197l14 84q-3 13 -17 21t-32 8q-32 0 -54 -25t-22 -64
q0 -24 13.5 -38.5t39.5 -14.5q38 0 58 29zM342 484q-69 0 -109 42.5t-26 116.5h129q-7 -37 18 -37q26 0 33 37h128q-14 -78 -59.5 -118.5t-113.5 -40.5z" />
    <glyph glyph-name="Gdotaccent" unicode="&#x120;" horiz-adv-x="592" 
d="M526 751q0 -45 -30.5 -71.5t-74.5 -26.5t-74.5 26.5t-30.5 71.5t30.5 71.5t74.5 26.5t74.5 -26.5t30.5 -71.5zM315 -10q-132 0 -209.5 78t-77.5 202q0 155 99.5 254.5t256.5 99.5q125 0 211 -55l-32 -183q-72 58 -179 58q-78 0 -119.5 -43.5t-41.5 -119.5q0 -57 28 -87.5
t77 -30.5q39 0 61 11l5 27h-73l27 152h241l-53 -297q-99 -66 -221 -66z" />
    <glyph glyph-name="gdotaccent" unicode="&#x121;" horiz-adv-x="542" 
d="M292 56l2 12q-46 -42 -102 -42q-82 0 -128 54t-46 131q0 109 64 181t169 72q34 0 63 -12.5t42 -31.5l6 34h190l-66 -373q-22 -126 -95 -185t-202 -59q-53 0 -107 13t-85 34l34 162q63 -58 158 -58q91 0 103 68zM317 197l14 84q-3 13 -17 21t-32 8q-32 0 -54 -25t-22 -64
q0 -24 13.5 -38.5t39.5 -14.5q38 0 58 29zM455 580q0 -45 -30.5 -71.5t-74.5 -26.5t-74.5 26.5t-30.5 71.5t30.5 71.5t74.5 26.5t74.5 -26.5t30.5 -71.5z" />
    <glyph glyph-name="Gcommaaccent" unicode="&#x122;" horiz-adv-x="592" 
d="M157 -247l60 66q-47 21 -47 74q0 35 26 58t66 23q38 0 65 -24t27 -64q0 -52 -55 -107l-26 -26h-116zM315 -10q-132 0 -209.5 78t-77.5 202q0 155 99.5 254.5t256.5 99.5q125 0 211 -55l-32 -183q-72 58 -179 58q-78 0 -119.5 -43.5t-41.5 -119.5q0 -57 28 -87.5t77 -30.5
q39 0 61 11l5 27h-73l27 152h241l-53 -297q-99 -66 -221 -66z" />
    <glyph glyph-name="gcommaaccent" unicode="&#x123;" horiz-adv-x="542" 
d="M451 696l-64 -70q47 -21 47 -74q0 -35 -26 -58t-66 -23q-38 0 -65 24t-27 64q0 52 55 107l30 30h116zM292 56l2 12q-46 -42 -102 -42q-82 0 -128 54t-46 131q0 109 64 181t169 72q34 0 63 -12.5t42 -31.5l6 34h190l-66 -373q-22 -126 -95 -185t-202 -59q-53 0 -107 13
t-85 34l34 162q63 -58 158 -58q91 0 103 68zM317 197l14 84q-3 13 -17 21t-32 8q-32 0 -54 -25t-22 -64q0 -24 13.5 -38.5t39.5 -14.5q38 0 58 29z" />
    <glyph glyph-name="Hcircumflex" unicode="&#x124;" horiz-adv-x="649" 
d="M491 614h194l-108 -614h-194l40 228h-195l-40 -228h-194l108 614h194l-39 -221h195zM489 800l92 -137h-145l-29 37l-43 -37h-153l142 137h136z" />
    <glyph glyph-name="hcircumflex" unicode="&#x125;" horiz-adv-x="533" 
d="M378 464q65 0 102.5 -36t37.5 -99q0 -17 -3 -37l-51 -292h-190l43 248q1 6 1 12q0 37 -37 37t-53 -36l-46 -261h-190l114 650h190l-41 -233q50 47 123 47zM402 810l92 -137h-145l-29 37l-43 -37h-153l142 137h136z" />
    <glyph glyph-name="Hbar" unicode="&#x126;" horiz-adv-x="683" 
d="M508 614h194l-12 -65h41l-26 -145h-40l-71 -404h-194l32 180h-195l-32 -180h-194l71 404h-40l25 145h40l12 65h194l-12 -65h195zM262 325h195l14 79h-195z" />
    <glyph glyph-name="hbar" unicode="&#x127;" horiz-adv-x="533" 
d="M37 483l21 121h40l8 46h190l-8 -46h71l-21 -121h-72l-11 -66q50 47 123 47q65 0 102.5 -36t37.5 -99q0 -17 -3 -37l-51 -292h-190l43 248q1 6 1 12q0 37 -37 37t-53 -36l-46 -261h-190l84 483h-39z" />
    <glyph glyph-name="Itilde" unicode="&#x128;" horiz-adv-x="260" 
d="M296 614l-108 -614h-194l108 614h194zM300 816h100q-27 -161 -119 -161q-25 0 -61 13.5t-51 13.5q-22 0 -26 -23h-100q27 161 119 161q25 0 61 -13.5t51 -13.5q22 0 26 23z" />
    <glyph glyph-name="itilde" unicode="&#x129;" horiz-adv-x="252" 
d="M257 650h100q-27 -161 -119 -161q-25 0 -51.5 13.5t-41.5 13.5q-21 0 -26 -23h-100q29 161 120 161q25 0 51 -13.5t41 -13.5q22 0 26 23zM262 454l-80 -454h-190l80 454h190z" />
    <glyph glyph-name="Imacron" unicode="&#x12a;" horiz-adv-x="260" 
d="M296 614l-108 -614h-194l108 614h194zM64 663l22 125h289l-22 -125h-289z" />
    <glyph glyph-name="imacron" unicode="&#x12b;" horiz-adv-x="252" 
d="M40 493l22 125h269l-22 -125h-269zM262 454l-80 -454h-190l80 454h190z" />
    <glyph glyph-name="Ibreve" unicode="&#x12c;" horiz-adv-x="260" 
d="M296 614l-108 -614h-194l108 614h194zM215 653q-69 0 -109 42.5t-26 116.5h129q-7 -37 18 -37q26 0 33 37h128q-14 -78 -59.5 -118.5t-113.5 -40.5z" />
    <glyph glyph-name="ibreve" unicode="&#x12d;" horiz-adv-x="252" 
d="M181 484q-69 0 -109 42.5t-26 116.5h129q-7 -37 18 -37q26 0 33 37h128q-14 -78 -59.5 -118.5t-113.5 -40.5zM262 454l-80 -454h-190l80 454h190z" />
    <glyph glyph-name="Iogonek" unicode="&#x12e;" horiz-adv-x="260" 
d="M296 614l-108 -614q-59 -45 -59 -66q0 -12 15 -12q14 0 37 13l-18 -100q-34 -17 -72 -17t-61.5 17.5t-23.5 51.5q0 33 18.5 58.5t52.5 54.5h-83l108 614h194z" />
    <glyph glyph-name="iogonek" unicode="&#x12f;" horiz-adv-x="252" 
d="M292 575q0 -48 -32 -76t-77 -28q-44 0 -73 25t-29 67q0 48 32 76t77 28q44 0 73 -25t29 -67zM-8 0l80 454h190l-80 -454q-59 -45 -59 -66q0 -12 15 -12q14 0 37 13l-18 -100q-34 -17 -72 -17t-61.5 17.5t-23.5 51.5q0 33 18.5 58.5t52.5 54.5h-79z" />
    <glyph glyph-name="Idotaccent" unicode="&#x130;" horiz-adv-x="260" 
d="M296 614l-108 -614h-194l108 614h194zM328 751q0 -45 -30.5 -71.5t-74.5 -26.5t-74.5 26.5t-30.5 71.5t30.5 71.5t74.5 26.5t74.5 -26.5t30.5 -71.5z" />
    <glyph glyph-name="dotlessi" unicode="&#x131;" horiz-adv-x="252" 
d="M262 454l-80 -454h-190l80 454h190z" />
    <glyph glyph-name="IJ" unicode="&#x132;" horiz-adv-x="676" 
d="M296 614l-108 -614h-194l108 614h194zM233 27l32 178q52 -40 108 -40q41 0 60 22t28 74l62 353h194l-70 -396q-40 -228 -271 -228q-44 0 -83.5 11t-59.5 26z" />
    <glyph glyph-name="ij" unicode="&#x133;" horiz-adv-x="504" 
d="M262 454l-80 -454h-190l80 454h190zM292 575q0 -48 -32 -76t-77 -28q-44 0 -73 25t-29 67q0 48 32 76t77 28q44 0 73 -25t29 -67zM153 -154l25 138q12 -2 22 -2q40 0 48 44l76 428h190l-73 -414q-36 -203 -214 -203q-45 0 -74 9zM544 575q0 -48 -32 -76t-77 -28
q-44 0 -73 25t-29 67q0 48 32 76t77 28q44 0 73 -25t29 -67z" />
    <glyph glyph-name="Jcircumflex" unicode="&#x134;" horiz-adv-x="416" 
d="M-27 27l32 178q52 -40 108 -40q41 0 60 22t28 74l62 353h194l-70 -396q-40 -228 -271 -228q-44 0 -83.5 11t-59.5 26zM455 800l92 -137h-145l-29 37l-43 -37h-153l142 137h136z" />
    <glyph glyph-name="jcircumflex" unicode="&#x135;" horiz-adv-x="252" 
d="M265 650l69 -157h-132l-22 41l-38 -41h-138l125 157h136zM-99 -154l25 138q12 -2 22 -2q40 0 48 44l76 428h190l-73 -414q-36 -203 -214 -203q-45 0 -74 9z" />
    <glyph glyph-name="Kcommaaccent" unicode="&#x136;" horiz-adv-x="628" 
d="M141 -247l60 66q-47 21 -47 74q0 35 26 58t66 23q38 0 65 -24t27 -64q0 -52 -55 -107l-26 -26h-116zM296 614l-46 -257l209 257h229l-261 -310l159 -304h-217l-134 271l-47 -271h-194l108 614h194z" />
    <glyph glyph-name="kcommaaccent" unicode="&#x137;" horiz-adv-x="539" 
d="M388 228l108 -228h-199l-83 185l-32 -185h-190l114 650h190l-62 -355l128 159h220zM98 -247l60 66q-47 21 -47 74q0 35 26 58t66 23q38 0 65 -24t27 -64q0 -52 -55 -107l-26 -26h-116z" />
    <glyph glyph-name="kgreenlandic" unicode="&#x138;" horiz-adv-x="539" 
d="M388 228l108 -228h-199l-83 185l-32 -185h-190l80 454h190l-28 -159l128 159h220z" />
    <glyph glyph-name="Lacute" unicode="&#x139;" horiz-adv-x="513" 
d="M304 663h-190l110 137h190zM-6 0l108 614h194l-79 -448h264l-29 -166h-458z" />
    <glyph glyph-name="lacute" unicode="&#x13a;" horiz-adv-x="252" 
d="M299 673h-190l110 137h190zM296 650l-114 -650h-190l114 650h190z" />
    <glyph glyph-name="Lcommaaccent" unicode="&#x13b;" horiz-adv-x="513" 
d="M101 -247l60 66q-47 21 -47 74q0 35 26 58t66 23q38 0 65 -24t27 -64q0 -52 -55 -107l-26 -26h-116zM-6 0l108 614h194l-79 -448h264l-29 -166h-458z" />
    <glyph glyph-name="lcommaaccent" unicode="&#x13c;" horiz-adv-x="252" 
d="M-45 -247l60 66q-47 21 -47 74q0 35 26 58t66 23q38 0 65 -24t27 -64q0 -52 -55 -107l-26 -26h-116zM296 650l-114 -650h-190l114 650h190z" />
    <glyph glyph-name="Lcaron" unicode="&#x13d;" horiz-adv-x="513" 
d="M457 447h-146l77 167h148zM-6 0l108 614h194l-79 -448h264l-29 -166h-458z" />
    <glyph glyph-name="lcaron" unicode="&#x13e;" horiz-adv-x="252" 
d="M432 483h-146l77 167h148zM296 650l-114 -650h-190l114 650h190z" />
    <glyph glyph-name="Ldot" unicode="&#x13f;" horiz-adv-x="513" 
d="M-6 0l108 614h194l-79 -448h264l-29 -166h-458zM509 323q0 -45 -30.5 -71.5t-74.5 -26.5t-74.5 26.5t-30.5 71.5t30.5 71.5t74.5 26.5t74.5 -26.5t30.5 -71.5z" />
    <glyph glyph-name="ldot" unicode="&#x140;" horiz-adv-x="473" 
d="M296 650l-114 -650h-190l114 650h190zM481 325q0 -45 -30.5 -71.5t-74.5 -26.5t-74.5 26.5t-30.5 71.5t30.5 71.5t74.5 26.5t74.5 -26.5t30.5 -71.5z" />
    <glyph glyph-name="Lslash" unicode="&#x141;" horiz-adv-x="530" 
d="M6 198l25 146l43 16l45 254h194l-35 -196l103 37l-25 -146l-104 -38l-18 -105h264l-29 -166h-458l37 213z" />
    <glyph glyph-name="lslash" unicode="&#x142;" horiz-adv-x="312" 
d="M326 650l-38 -215l62 27l-24 -132l-61 -27l-53 -303h-190l41 232l-54 -23l24 132l53 23l50 286h190z" />
    <glyph glyph-name="Nacute" unicode="&#x143;" horiz-adv-x="632" 
d="M487 663h-190l110 137h190zM668 614l-108 -614h-149l-174 317l-56 -317h-187l108 614h171l155 -296l53 296h187z" />
    <glyph glyph-name="nacute" unicode="&#x144;" horiz-adv-x="533" 
d="M401 493h-178l113 157h178zM-8 0l80 454h190l-7 -37q50 47 123 47q65 0 102.5 -36t37.5 -99q0 -17 -3 -37l-51 -292h-190l43 248q1 6 1 12q0 37 -37 37t-53 -36l-46 -261h-190z" />
    <glyph glyph-name="Ncommaaccent" unicode="&#x145;" horiz-adv-x="632" 
d="M145 -247l60 66q-47 21 -47 74q0 35 26 58t66 23q38 0 65 -24t27 -64q0 -52 -55 -107l-26 -26h-116zM668 614l-108 -614h-149l-174 317l-56 -317h-187l108 614h171l155 -296l53 296h187z" />
    <glyph glyph-name="ncommaaccent" unicode="&#x146;" horiz-adv-x="533" 
d="M96 -247l60 66q-47 21 -47 74q0 35 26 58t66 23q38 0 65 -24t27 -64q0 -52 -55 -107l-26 -26h-116zM-8 0l80 454h190l-7 -37q50 47 123 47q65 0 102.5 -36t37.5 -99q0 -17 -3 -37l-51 -292h-190l43 248q1 6 1 12q0 37 -37 37t-53 -36l-46 -261h-190z" />
    <glyph glyph-name="Ncaron" unicode="&#x147;" horiz-adv-x="632" 
d="M328 659l-92 137h145l29 -37l43 37h153l-142 -137h-136zM668 614l-108 -614h-149l-174 317l-56 -317h-187l108 614h171l155 -296l53 296h187z" />
    <glyph glyph-name="ncaron" unicode="&#x148;" horiz-adv-x="533" 
d="M240 493l-69 157h132l22 -41l38 41h138l-125 -157h-136zM-8 0l80 454h190l-7 -37q50 47 123 47q65 0 102.5 -36t37.5 -99q0 -17 -3 -37l-51 -292h-190l43 248q1 6 1 12q0 37 -37 37t-53 -36l-46 -261h-190z" />
    <glyph glyph-name="Eng" unicode="&#x14a;" horiz-adv-x="632" 
d="M378 60l-141 257l-56 -317h-187l108 614h171l155 -296l53 296h187l-96 -547q-40 -230 -265 -230q-47 0 -89 15l27 158q24 -8 51 -8q35 0 54 12t28 46z" />
    <glyph glyph-name="eng" unicode="&#x14b;" horiz-adv-x="533" 
d="M183 -154l25 138q12 -2 22 -2q40 0 48 44l39 222q1 6 1 12q0 37 -37 37t-53 -36l-46 -261h-190l80 454h190l-7 -37q50 47 123 47q65 0 102.5 -36t37.5 -99q0 -17 -3 -37l-44 -252q-35 -203 -214 -203q-45 0 -74 9z" />
    <glyph glyph-name="Omacron" unicode="&#x14c;" horiz-adv-x="647" 
d="M257 663l22 125h289l-22 -125h-289zM323 159q57 0 94 48t37 131q0 54 -27.5 85.5t-72.5 31.5q-57 0 -94 -48t-37 -131q0 -54 27.5 -85.5t72.5 -31.5zM315 -10q-132 0 -209.5 78t-77.5 202q0 153 95.5 253.5t238.5 100.5q132 0 209.5 -78t77.5 -202q0 -153 -95.5 -253.5
t-238.5 -100.5z" />
    <glyph glyph-name="omacron" unicode="&#x14d;" horiz-adv-x="503" 
d="M164 493l22 125h269l-22 -125h-269zM238 145q30 0 49 32.5t19 80.5q0 22 -11 36.5t-30 14.5q-30 0 -49 -32.5t-19 -80.5q0 -22 11 -36.5t30 -14.5zM232 -10q-97 0 -159 56.5t-62 152.5q0 117 74.5 191t185.5 74q97 0 159 -56.5t62 -152.5q0 -117 -74.5 -191t-185.5 -74z
" />
    <glyph glyph-name="Obreve" unicode="&#x14e;" horiz-adv-x="647" 
d="M408 653q-69 0 -109 42.5t-26 116.5h129q-7 -37 18 -37q26 0 33 37h128q-14 -78 -59.5 -118.5t-113.5 -40.5zM323 159q57 0 94 48t37 131q0 54 -27.5 85.5t-72.5 31.5q-57 0 -94 -48t-37 -131q0 -54 27.5 -85.5t72.5 -31.5zM315 -10q-132 0 -209.5 78t-77.5 202
q0 153 95.5 253.5t238.5 100.5q132 0 209.5 -78t77.5 -202q0 -153 -95.5 -253.5t-238.5 -100.5z" />
    <glyph glyph-name="obreve" unicode="&#x14f;" horiz-adv-x="503" 
d="M238 145q30 0 49 32.5t19 80.5q0 22 -11 36.5t-30 14.5q-30 0 -49 -32.5t-19 -80.5q0 -22 11 -36.5t30 -14.5zM232 -10q-97 0 -159 56.5t-62 152.5q0 117 74.5 191t185.5 74q97 0 159 -56.5t62 -152.5q0 -117 -74.5 -191t-185.5 -74zM305 484q-69 0 -109 42.5t-26 116.5
h129q-7 -37 18 -37q26 0 33 37h128q-14 -78 -59.5 -118.5t-113.5 -40.5z" />
    <glyph glyph-name="Ohungarumlaut" unicode="&#x150;" horiz-adv-x="647" 
d="M323 159q57 0 94 48t37 131q0 54 -27.5 85.5t-72.5 31.5q-57 0 -94 -48t-37 -131q0 -54 27.5 -85.5t72.5 -31.5zM315 -10q-132 0 -209.5 78t-77.5 202q0 153 95.5 253.5t238.5 100.5q132 0 209.5 -78t77.5 -202q0 -153 -95.5 -253.5t-238.5 -100.5zM374 663h-159l110 137
h159zM563 663h-159l110 137h159z" />
    <glyph glyph-name="ohungarumlaut" unicode="&#x151;" horiz-adv-x="503" 
d="M279 493h-146l113 157h146zM455 493h-146l113 157h146zM238 145q30 0 49 32.5t19 80.5q0 22 -11 36.5t-30 14.5q-30 0 -49 -32.5t-19 -80.5q0 -22 11 -36.5t30 -14.5zM232 -10q-97 0 -159 56.5t-62 152.5q0 117 74.5 191t185.5 74q97 0 159 -56.5t62 -152.5
q0 -117 -74.5 -191t-185.5 -74z" />
    <glyph glyph-name="OE" unicode="&#x152;" horiz-adv-x="824" 
d="M866 614l-29 -165h-211l-11 -58h188l-28 -160h-188l-11 -65h211l-29 -166h-464q-129 0 -197.5 67t-68.5 185q0 162 104.5 262t269.5 100h464zM221 278q0 -54 28.5 -83.5t83.5 -29.5h55l50 283h-55q-72 0 -117 -47t-45 -123z" />
    <glyph glyph-name="oe" unicode="&#x153;" horiz-adv-x="757" 
d="M271 464q75 0 139 -50q68 50 143 50q94 0 145 -52t51 -145q0 -39 -9 -84h-264v-2q14 -46 93 -46q78 0 141 33l-26 -145q-60 -33 -165 -33q-90 0 -146 49q-60 -49 -141 -49q-97 0 -159 56.5t-62 152.5q0 117 74.5 191t185.5 74zM238 145q30 0 49 32.5t19 80.5
q0 22 -11 36.5t-30 14.5q-30 0 -49 -32.5t-19 -80.5q0 -22 11 -36.5t30 -14.5zM542 324q-39 0 -59 -47h101v2q0 20 -11 32.5t-31 12.5z" />
    <glyph glyph-name="Racute" unicode="&#x154;" horiz-adv-x="585" 
d="M266 176h-50l-31 -176h-191l108 614h287q91 0 146.5 -51t55.5 -139q0 -78 -38 -134.5t-102 -86.5l100 -203h-204zM448 663h-190l110 137h190zM264 453l-22 -125h82q39 0 59.5 19.5t20.5 53.5q0 52 -62 52h-78z" />
    <glyph glyph-name="racute" unicode="&#x155;" horiz-adv-x="379" 
d="M334 493h-178l113 157h178zM405 456l-32 -180q-28 14 -66 14q-64 0 -81 -40l-44 -250h-190l80 454h190l-7 -37q41 47 107 47q31 0 43 -8z" />
    <glyph glyph-name="Rcommaaccent" unicode="&#x156;" horiz-adv-x="585" 
d="M266 176h-50l-31 -176h-191l108 614h287q91 0 146.5 -51t55.5 -139q0 -78 -38 -134.5t-102 -86.5l100 -203h-204zM136 -247l60 66q-47 21 -47 74q0 35 26 58t66 23q38 0 65 -24t27 -64q0 -52 -55 -107l-26 -26h-116zM264 453l-22 -125h82q39 0 59.5 19.5t20.5 53.5
q0 52 -62 52h-78z" />
    <glyph glyph-name="rcommaaccent" unicode="&#x157;" horiz-adv-x="379" 
d="M-40 -247l60 66q-47 21 -47 74q0 35 26 58t66 23q38 0 65 -24t27 -64q0 -52 -55 -107l-26 -26h-116zM405 456l-32 -180q-28 14 -66 14q-64 0 -81 -40l-44 -250h-190l80 454h190l-7 -37q41 47 107 47q31 0 43 -8z" />
    <glyph glyph-name="Rcaron" unicode="&#x158;" horiz-adv-x="585" 
d="M266 176h-50l-31 -176h-191l108 614h287q91 0 146.5 -51t55.5 -139q0 -78 -38 -134.5t-102 -86.5l100 -203h-204zM289 659l-92 137h145l29 -37l43 37h153l-142 -137h-136zM264 453l-22 -125h82q39 0 59.5 19.5t20.5 53.5q0 52 -62 52h-78z" />
    <glyph glyph-name="rcaron" unicode="&#x159;" horiz-adv-x="379" 
d="M183 493l-69 157h132l22 -41l38 41h138l-125 -157h-136zM405 456l-32 -180q-28 14 -66 14q-64 0 -81 -40l-44 -250h-190l80 454h190l-7 -37q41 47 107 47q31 0 43 -8z" />
    <glyph glyph-name="Sacute" unicode="&#x15a;" horiz-adv-x="518" 
d="M-3 48l30 172q42 -31 96.5 -51.5t103.5 -20.5q76 0 76 36q0 16 -28 25l-90 28q-141 44 -141 161q0 104 78 165t189 61q121 0 212 -54l-31 -172q-86 69 -181 69q-69 0 -69 -31q0 -18 30 -27l95 -31q64 -22 100 -63t36 -99q0 -59 -24.5 -104.5t-65 -71t-87.5 -38t-99 -12.5
q-138 0 -230 58zM434 663h-190l110 137h190z" />
    <glyph glyph-name="sacute" unicode="&#x15b;" horiz-adv-x="419" 
d="M346 493h-178l113 157h178zM-11 40l26 146q27 -25 76 -41.5t82 -16.5t33 17q0 11 -28 18l-36 8q-112 26 -112 114q0 85 62 132t154 47q100 0 168 -48l-26 -143q-68 53 -139 53q-30 0 -30 -16q0 -10 20 -16l52 -17q51 -17 77 -43t26 -70q0 -87 -61 -130.5t-160 -43.5
q-113 0 -184 50z" />
    <glyph glyph-name="Scircumflex" unicode="&#x15c;" horiz-adv-x="518" 
d="M-3 48l30 172q42 -31 96.5 -51.5t103.5 -20.5q76 0 76 36q0 16 -28 25l-90 28q-141 44 -141 161q0 104 78 165t189 61q121 0 212 -54l-31 -172q-86 69 -181 69q-69 0 -69 -31q0 -18 30 -27l95 -31q64 -22 100 -63t36 -99q0 -59 -24.5 -104.5t-65 -71t-87.5 -38t-99 -12.5
q-138 0 -230 58zM428 800l92 -137h-145l-29 37l-43 -37h-153l142 137h136z" />
    <glyph glyph-name="scircumflex" unicode="&#x15d;" horiz-adv-x="419" 
d="M361 650l69 -157h-132l-22 41l-38 -41h-138l125 157h136zM-11 40l26 146q27 -25 76 -41.5t82 -16.5t33 17q0 11 -28 18l-36 8q-112 26 -112 114q0 85 62 132t154 47q100 0 168 -48l-26 -143q-68 53 -139 53q-30 0 -30 -16q0 -10 20 -16l52 -17q51 -17 77 -43t26 -70
q0 -87 -61 -130.5t-160 -43.5q-113 0 -184 50z" />
    <glyph glyph-name="Scedilla" unicode="&#x15e;" horiz-adv-x="518" 
d="M-3 48l30 172q42 -31 96.5 -51.5t103.5 -20.5q76 0 76 36q0 16 -28 25l-90 28q-141 44 -141 161q0 104 78 165t189 61q121 0 212 -54l-31 -172q-86 69 -181 69q-69 0 -69 -31q0 -18 30 -27l95 -31q64 -22 100 -63t36 -99q0 -59 -24.5 -104.5t-65 -71t-87.5 -38t-99 -12.5
q-138 0 -230 58zM207 -175h-156l92 143h156z" />
    <glyph glyph-name="scedilla" unicode="&#x15f;" horiz-adv-x="419" 
d="M-11 40l26 146q27 -25 76 -41.5t82 -16.5t33 17q0 11 -28 18l-36 8q-112 26 -112 114q0 85 62 132t154 47q100 0 168 -48l-26 -143q-68 53 -139 53q-30 0 -30 -16q0 -10 20 -16l52 -17q51 -17 77 -43t26 -70q0 -87 -61 -130.5t-160 -43.5q-113 0 -184 50zM156 -175h-156
l92 143h156z" />
    <glyph glyph-name="Scaron" unicode="&#x160;" horiz-adv-x="518" 
d="M-3 48l30 172q42 -31 96.5 -51.5t103.5 -20.5q76 0 76 36q0 16 -28 25l-90 28q-141 44 -141 161q0 104 78 165t189 61q121 0 212 -54l-31 -172q-86 69 -181 69q-69 0 -69 -31q0 -18 30 -27l95 -31q64 -22 100 -63t36 -99q0 -59 -24.5 -104.5t-65 -71t-87.5 -38t-99 -12.5
q-138 0 -230 58zM275 659l-92 137h145l29 -37l43 37h153l-142 -137h-136z" />
    <glyph glyph-name="scaron" unicode="&#x161;" horiz-adv-x="419" 
d="M195 493l-69 157h132l22 -41l38 41h138l-125 -157h-136zM-11 40l26 146q27 -25 76 -41.5t82 -16.5t33 17q0 11 -28 18l-36 8q-112 26 -112 114q0 85 62 132t154 47q100 0 168 -48l-26 -143q-68 53 -139 53q-30 0 -30 -16q0 -10 20 -16l52 -17q51 -17 77 -43t26 -70
q0 -87 -61 -130.5t-160 -43.5q-113 0 -184 50z" />
    <glyph glyph-name="Tcedilla" unicode="&#x162;" horiz-adv-x="584" 
d="M131 -247l60 66q-47 21 -47 74q0 35 26 58t66 23q38 0 65 -24t27 -64q0 -52 -55 -107l-26 -26h-116zM54 449l29 165h556l-29 -165h-181l-79 -449h-194l79 449h-181z" />
    <glyph glyph-name="tcedilla" unicode="&#x163;" horiz-adv-x="361" 
d="M9 -247l60 66q-47 21 -47 74q0 35 26 58t66 23q38 0 65 -24t27 -64q0 -52 -55 -107l-26 -26h-116zM285 308l-54 -308h-189l54 308h-71l26 146h71l22 127h189l-22 -127h81l-26 -146h-81z" />
    <glyph glyph-name="Tcaron" unicode="&#x164;" horiz-adv-x="584" 
d="M306 659l-92 137h145l29 -37l43 37h153l-142 -137h-136zM54 449l29 165h556l-29 -165h-181l-79 -449h-194l79 449h-181z" />
    <glyph glyph-name="tcaron" unicode="&#x165;" horiz-adv-x="361" 
d="M481 483h-146l77 167h148zM285 308l-54 -308h-189l54 308h-71l26 146h71l22 127h189l-22 -127h81l-26 -146h-81z" />
    <glyph glyph-name="Tbar" unicode="&#x166;" horiz-adv-x="584" 
d="M54 449l29 165h556l-29 -165h-181l-15 -85h83l-28 -155h-82l-37 -209h-194l37 209h-78l28 155h77l15 85h-181z" />
    <glyph glyph-name="tbar" unicode="&#x167;" horiz-adv-x="361" 
d="M285 308l-8 -44h47l-23 -130h-47l-23 -134h-189l23 134h-40l23 130h40l8 44h-71l26 146h71l22 127h189l-22 -127h81l-26 -146h-81z" />
    <glyph glyph-name="Utilde" unicode="&#x168;" horiz-adv-x="616" 
d="M477 816h100q-27 -161 -119 -161q-25 0 -61 13.5t-51 13.5q-22 0 -26 -23h-100q27 161 119 161q25 0 61 -13.5t51 -13.5q22 0 26 23zM280 -10q-115 0 -183 56.5t-68 157.5q0 31 5 56l63 354h193l-61 -343q-3 -17 -3 -30q0 -37 19.5 -57.5t54.5 -20.5q84 0 103 108l61 343
h193l-64 -360q-23 -130 -102 -197t-211 -67z" />
    <glyph glyph-name="utilde" unicode="&#x169;" horiz-adv-x="527" 
d="M537 454l-80 -454h-190l7 37q-50 -47 -123 -47q-64 0 -101 35.5t-37 97.5q0 18 3 39l51 292h190l-42 -245q-2 -12 -2 -19q0 -36 35 -36q37 0 53 36l46 264h190zM394 650h100q-27 -161 -119 -161q-25 0 -51.5 13.5t-41.5 13.5q-21 0 -26 -23h-100q29 161 120 161
q25 0 51 -13.5t41 -13.5q22 0 26 23z" />
    <glyph glyph-name="Umacron" unicode="&#x16a;" horiz-adv-x="616" 
d="M241 663l22 125h289l-22 -125h-289zM280 -10q-115 0 -183 56.5t-68 157.5q0 31 5 56l63 354h193l-61 -343q-3 -17 -3 -30q0 -37 19.5 -57.5t54.5 -20.5q84 0 103 108l61 343h193l-64 -360q-23 -130 -102 -197t-211 -67z" />
    <glyph glyph-name="umacron" unicode="&#x16b;" horiz-adv-x="527" 
d="M537 454l-80 -454h-190l7 37q-50 -47 -123 -47q-64 0 -101 35.5t-37 97.5q0 18 3 39l51 292h190l-42 -245q-2 -12 -2 -19q0 -36 35 -36q37 0 53 36l46 264h190zM177 493l22 125h269l-22 -125h-269z" />
    <glyph glyph-name="Ubreve" unicode="&#x16c;" horiz-adv-x="616" 
d="M385 653q-69 0 -109 42.5t-26 116.5h129q-7 -37 18 -37q26 0 33 37h128q-14 -78 -59.5 -118.5t-113.5 -40.5zM280 -10q-115 0 -183 56.5t-68 157.5q0 31 5 56l63 354h193l-61 -343q-3 -17 -3 -30q0 -37 19.5 -57.5t54.5 -20.5q84 0 103 108l61 343h193l-64 -360
q-23 -130 -102 -197t-211 -67z" />
    <glyph glyph-name="ubreve" unicode="&#x16d;" horiz-adv-x="527" 
d="M537 454l-80 -454h-190l7 37q-50 -47 -123 -47q-64 0 -101 35.5t-37 97.5q0 18 3 39l51 292h190l-42 -245q-2 -12 -2 -19q0 -36 35 -36q37 0 53 36l46 264h190zM318 484q-69 0 -109 42.5t-26 116.5h129q-7 -37 18 -37q26 0 33 37h128q-14 -78 -59.5 -118.5t-113.5 -40.5z
" />
    <glyph glyph-name="Uring" unicode="&#x16e;" horiz-adv-x="616" 
d="M280 -10q-115 0 -183 56.5t-68 157.5q0 31 5 56l63 354h193l-61 -343q-3 -17 -3 -30q0 -37 19.5 -57.5t54.5 -20.5q84 0 103 108l61 343h193l-64 -360q-23 -130 -102 -197t-211 -67zM399 719q14 0 24 10t10 25q0 12 -8.5 21t-21.5 9q-14 0 -24 -10t-10 -25q0 -12 8.5 -21
t21.5 -9zM396 638q-48 0 -80 32t-32 77q0 49 35.5 83.5t86.5 34.5q48 0 80 -32t32 -77q0 -49 -35.5 -83.5t-86.5 -34.5z" />
    <glyph glyph-name="uring" unicode="&#x16f;" horiz-adv-x="527" 
d="M327 563q14 0 24 10t10 25q0 12 -8.5 21t-21.5 9q-14 0 -24 -10t-10 -25q0 -12 8.5 -21t21.5 -9zM324 482q-48 0 -80 32t-32 77q0 49 35.5 83.5t86.5 34.5q48 0 80 -32t32 -77q0 -49 -35.5 -83.5t-86.5 -34.5zM537 454l-80 -454h-190l7 37q-50 -47 -123 -47
q-64 0 -101 35.5t-37 97.5q0 18 3 39l51 292h190l-42 -245q-2 -12 -2 -19q0 -36 35 -36q37 0 53 36l46 264h190z" />
    <glyph glyph-name="Uhungarumlaut" unicode="&#x170;" horiz-adv-x="616" 
d="M280 -10q-115 0 -183 56.5t-68 157.5q0 31 5 56l63 354h193l-61 -343q-3 -17 -3 -30q0 -37 19.5 -57.5t54.5 -20.5q84 0 103 108l61 343h193l-64 -360q-23 -130 -102 -197t-211 -67zM367 663h-159l110 137h159zM556 663h-159l110 137h159z" />
    <glyph glyph-name="uhungarumlaut" unicode="&#x171;" horiz-adv-x="527" 
d="M537 454l-80 -454h-190l7 37q-50 -47 -123 -47q-64 0 -101 35.5t-37 97.5q0 18 3 39l51 292h190l-42 -245q-2 -12 -2 -19q0 -36 35 -36q37 0 53 36l46 264h190zM292 493h-146l113 157h146zM468 493h-146l113 157h146z" />
    <glyph glyph-name="Uogonek" unicode="&#x172;" horiz-adv-x="616" 
d="M280 -10q-115 0 -183 56.5t-68 157.5q0 31 5 56l63 354h193l-61 -343q-3 -17 -3 -30q0 -37 19.5 -57.5t54.5 -20.5q84 0 103 108l61 343h193l-64 -360q-14 -79 -49.5 -133.5t-100.5 -97.5q-89 -56 -89 -89q0 -12 15 -12q14 0 37 13l-18 -100q-34 -17 -72 -17t-61.5 17.5
t-23.5 51.5q0 50 60 103h-11z" />
    <glyph glyph-name="uogonek" unicode="&#x173;" horiz-adv-x="527" 
d="M267 0l7 37q-50 -47 -123 -47q-64 0 -101 35.5t-37 97.5q0 18 3 39l51 292h190l-42 -245q-2 -12 -2 -19q0 -36 35 -36q37 0 53 36l46 264h190l-80 -454q-59 -45 -59 -66q0 -12 15 -12q14 0 37 13l-18 -100q-34 -17 -72 -17t-61.5 17.5t-23.5 51.5q0 33 18.5 58.5
t52.5 54.5h-79z" />
    <glyph glyph-name="Wcircumflex" unicode="&#x174;" horiz-adv-x="846" 
d="M419 614h144l19 -308l133 308h200l-287 -614h-176l-20 314l-147 -314h-176l-40 614h194l13 -308zM582 800l92 -137h-145l-29 37l-43 -37h-153l142 137h136z" />
    <glyph glyph-name="wcircumflex" unicode="&#x175;" horiz-adv-x="717" 
d="M493 650l69 -157h-132l-22 41l-38 -41h-138l125 157h136zM456 454l20 -203l105 203h177l-246 -454h-148l-20 181l-91 -181h-148l-64 454h178l22 -203l102 203h113z" />
    <glyph glyph-name="Ycircumflex" unicode="&#x176;" horiz-adv-x="632" 
d="M341 395l149 219h211l-293 -412l-35 -202h-195l35 202l-144 412h201zM475 800l92 -137h-145l-29 37l-43 -37h-153l142 137h136z" />
    <glyph glyph-name="ycircumflex" unicode="&#x177;" horiz-adv-x="510" 
d="M196 -153h-190l108 180l-75 427h177l33 -219l116 219h186zM388 650l69 -157h-132l-22 41l-38 -41h-138l125 157h136z" />
    <glyph glyph-name="Ydieresis" unicode="&#x178;" horiz-adv-x="632" 
d="M341 395l149 219h211l-293 -412l-35 -202h-195l35 202l-144 412h201zM212 737q0 38 26.5 64.5t63.5 26.5q38 0 64.5 -27t26.5 -64t-26.5 -63.5t-64.5 -26.5t-64 26.5t-26 63.5zM409 737q0 38 26.5 64.5t63.5 26.5t64 -27t27 -64t-26.5 -63.5t-64.5 -26.5
q-37 0 -63.5 26.5t-26.5 63.5z" />
    <glyph glyph-name="Zacute" unicode="&#x179;" horiz-adv-x="566" 
d="M533 166l-29 -166h-538v4l333 445h-235l29 165h531v-4l-321 -444h230zM451 663h-190l110 137h190z" />
    <glyph glyph-name="zacute" unicode="&#x17a;" horiz-adv-x="451" 
d="M354 493h-178l113 157h178zM419 146l-25 -146h-435v4l232 304h-157l26 146h424l-1 -4l-221 -304h157z" />
    <glyph glyph-name="Zdotaccent" unicode="&#x17b;" horiz-adv-x="566" 
d="M478 751q0 -45 -30.5 -71.5t-74.5 -26.5t-74.5 26.5t-30.5 71.5t30.5 71.5t74.5 26.5t74.5 -26.5t30.5 -71.5zM533 166l-29 -166h-538v4l333 445h-235l29 165h531v-4l-321 -444h230z" />
    <glyph glyph-name="zdotaccent" unicode="&#x17c;" horiz-adv-x="451" 
d="M419 146l-25 -146h-435v4l232 304h-157l26 146h424l-1 -4l-221 -304h157zM388 580q0 -45 -30.5 -71.5t-74.5 -26.5t-74.5 26.5t-30.5 71.5t30.5 71.5t74.5 26.5t74.5 -26.5t30.5 -71.5z" />
    <glyph glyph-name="Zcaron" unicode="&#x17d;" horiz-adv-x="566" 
d="M292 659l-92 137h145l29 -37l43 37h153l-142 -137h-136zM533 166l-29 -166h-538v4l333 445h-235l29 165h531v-4l-321 -444h230z" />
    <glyph glyph-name="zcaron" unicode="&#x17e;" horiz-adv-x="451" 
d="M203 493l-69 157h132l22 -41l38 41h138l-125 -157h-136zM419 146l-25 -146h-435v4l232 304h-157l26 146h424l-1 -4l-221 -304h157z" />
    <glyph glyph-name="florin" unicode="&#x192;" horiz-adv-x="418" 
d="M32 215l26 144h79l26 87q52 178 214 178q53 0 86 -13l-27 -151q-16 7 -34 7q-39 0 -52 -45l-19 -63h70l-26 -144h-87l-58 -195q-52 -178 -214 -178q-53 0 -86 13l23 139q16 -7 34 -7q39 0 52 45l55 183h-62z" />
    <glyph glyph-name="Aringacute" unicode="&#x1fa;" horiz-adv-x="666" 
d="M309 614h202l116 -614h-192l-15 89h-218l-49 -89h-192zM423 630q-47 0 -79.5 26t-32.5 62q0 39 35.5 67t86.5 28q47 0 79.5 -26t32.5 -62q0 -39 -35.5 -67t-86.5 -28zM549 829h-190l89 111h190zM369 387l-79 -141h103zM426 695q14 0 24 8.5t10 20.5q0 9 -8.5 16.5
t-21.5 7.5q-14 0 -24 -8.5t-10 -20.5q0 -9 8.5 -16.5t21.5 -7.5z" />
    <glyph glyph-name="aringacute" unicode="&#x1fb;" horiz-adv-x="496" 
d="M317 545q14 0 24 8.5t10 20.5q0 9 -8.5 16.5t-21.5 7.5q-14 0 -24 -8.5t-10 -20.5q0 -9 8.5 -16.5t21.5 -7.5zM314 480q-48 0 -80 26t-32 62q0 39 35.5 67t86.5 28q48 0 80 -26t32 -62q0 -39 -35.5 -67t-86.5 -28zM440 679h-190l89 111h190zM287 255l2 11q1 6 1 9
q0 39 -77 39q-82 0 -134 -26l25 145q73 31 176 31q198 0 198 -155q0 -22 -5 -52l-45 -257h-186l4 22q-34 -30 -98 -30t-107.5 36.5t-43.5 95.5q0 74 53.5 115.5t130.5 41.5q67 0 106 -26zM264 129l4 22q-12 23 -47 23q-18 0 -32.5 -9t-14.5 -26q0 -13 12.5 -21t28.5 -8
q31 0 49 19z" />
    <glyph glyph-name="AEacute" unicode="&#x1fc;" horiz-adv-x="899" 
d="M387 614h554l-29 -165h-241l-11 -58h218l-28 -160h-218l-11 -65h241l-29 -166h-432l15 89h-190l-60 -89h-205zM746 663h-190l110 137h190zM483 466l-150 -220h111z" />
    <glyph glyph-name="aeacute" unicode="&#x1fd;" horiz-adv-x="722" 
d="M510 493h-178l113 157h178zM329 47q-80 -57 -176 -57q-71 0 -113.5 36t-42.5 95q0 54 35.5 90.5t84.5 51t105 14.5h67v2q-7 37 -77 37q-75 0 -131 -28l25 145q73 31 164 31q90 0 129 -42q49 42 119 42q94 0 145 -52t51 -145q0 -39 -9 -84h-265v-2q12 -46 94 -46
q78 0 141 33l-26 -145q-60 -33 -159 -33q-97 0 -161 57zM210 123q37 0 56 22l7 38h-48q-50 0 -50 -34q0 -26 35 -26zM507 324q-39 0 -59 -47h101v2q0 20 -11 32.5t-31 12.5z" />
    <glyph glyph-name="Oslashacute" unicode="&#x1fe;" horiz-adv-x="655" 
d="M22 41l60 60q-50 70 -50 169q0 153 95.5 253.5t238.5 100.5q111 0 185 -57l58 57l54 -51l-60 -60q50 -72 50 -169q0 -153 -95.5 -253.5t-238.5 -100.5q-112 0 -186 57l-57 -57zM498 663h-190l110 137h190zM327 155q57 0 96.5 50t39.5 133q0 11 -4 33l-195 -195
q27 -21 63 -21zM222 276q0 -18 3 -33l196 194q-27 22 -63 22q-57 0 -96.5 -50t-39.5 -133z" />
    <glyph glyph-name="oslashacute" unicode="&#x1ff;" horiz-adv-x="513" 
d="M16 27l41 41q-41 54 -41 131q0 117 74.5 191t185.5 74q81 0 138 -40l41 40l42 -37l-42 -42q42 -53 42 -130q0 -117 -74.5 -191t-185.5 -74q-82 0 -139 40l-40 -40zM389 493h-178l113 157h178zM243 136q29 0 51 33.5t25 80.5l-105 -105q12 -9 29 -9zM271 319
q-29 0 -51 -33.5t-26 -80.5l105 104q-13 10 -28 10z" />
    <glyph glyph-name="Scommaaccent" unicode="&#x218;" horiz-adv-x="518" 
d="M92 -247l60 66q-47 21 -47 74q0 35 26 58t66 23q38 0 65 -24t27 -64q0 -52 -55 -107l-26 -26h-116zM-3 48l30 172q42 -31 96.5 -51.5t103.5 -20.5q76 0 76 36q0 16 -28 25l-90 28q-141 44 -141 161q0 104 78 165t189 61q121 0 212 -54l-31 -172q-86 69 -181 69
q-69 0 -69 -31q0 -18 30 -27l95 -31q64 -22 100 -63t36 -99q0 -59 -24.5 -104.5t-65 -71t-87.5 -38t-99 -12.5q-138 0 -230 58z" />
    <glyph glyph-name="scommaaccent" unicode="&#x219;" horiz-adv-x="419" 
d="M41 -247l60 66q-47 21 -47 74q0 35 26 58t66 23q38 0 65 -24t27 -64q0 -52 -55 -107l-26 -26h-116zM-11 40l26 146q27 -25 76 -41.5t82 -16.5t33 17q0 11 -28 18l-36 8q-112 26 -112 114q0 85 62 132t154 47q100 0 168 -48l-26 -143q-68 53 -139 53q-30 0 -30 -16
q0 -10 20 -16l52 -17q51 -17 77 -43t26 -70q0 -87 -61 -130.5t-160 -43.5q-113 0 -184 50z" />
    <glyph glyph-name="uni0237" unicode="&#x237;" horiz-adv-x="252" 
d="M-99 -154l25 138q12 -2 22 -2q40 0 48 44l76 428h190l-73 -414q-36 -203 -214 -203q-45 0 -74 9z" />
    <glyph glyph-name="circumflex" unicode="&#x2c6;" horiz-adv-x="500" 
d="M346 650l69 -157h-132l-22 41l-38 -41h-138l125 157h136z" />
    <glyph glyph-name="caron" unicode="&#x2c7;" horiz-adv-x="500" 
d="M154 493l-69 157h132l22 -41l38 41h138l-125 -157h-136z" />
    <glyph glyph-name="breve" unicode="&#x2d8;" horiz-adv-x="500" 
d="M233 484q-69 0 -109 42.5t-26 116.5h129q-7 -37 18 -37q26 0 33 37h128q-14 -78 -59.5 -118.5t-113.5 -40.5z" />
    <glyph glyph-name="dotaccent" unicode="&#x2d9;" horiz-adv-x="500" 
d="M355 580q0 -45 -30.5 -71.5t-74.5 -26.5t-74.5 26.5t-30.5 71.5t30.5 71.5t74.5 26.5t74.5 -26.5t30.5 -71.5z" />
    <glyph glyph-name="ring" unicode="&#x2da;" horiz-adv-x="500" 
d="M247 563q14 0 24 10t10 25q0 12 -8.5 21t-21.5 9q-14 0 -24 -10t-10 -25q0 -12 8.5 -21t21.5 -9zM244 482q-48 0 -80 32t-32 77q0 49 35.5 83.5t86.5 34.5q48 0 80 -32t32 -77q0 -49 -35.5 -83.5t-86.5 -34.5z" />
    <glyph glyph-name="ogonek" unicode="&#x2db;" horiz-adv-x="500" 
d="M238 10h111l-14 -10.5t-14.5 -11.5t-13 -10.5t-12.5 -11.5t-9 -10.5t-7 -11t-2 -10.5q0 -12 15 -12q14 0 37 13l-18 -100q-34 -17 -72 -17t-61.5 17.5t-23.5 51.5q0 25 14.5 49.5t28 37.5t41.5 36z" />
    <glyph glyph-name="tilde" unicode="&#x2dc;" horiz-adv-x="500" 
d="M319 650h100q-27 -161 -119 -161q-25 0 -51.5 13.5t-41.5 13.5q-21 0 -26 -23h-100q29 161 120 161q25 0 51 -13.5t41 -13.5q22 0 26 23z" />
    <glyph glyph-name="hungarumlaut" unicode="&#x2dd;" horiz-adv-x="500" 
d="M178 493h-146l113 157h146zM354 493h-146l113 157h146z" />
    <glyph glyph-name="Wgrave" unicode="&#x1e80;" horiz-adv-x="846" 
d="M577 663h-175l-60 137h175zM419 614h144l19 -308l133 308h200l-287 -614h-176l-20 314l-147 -314h-176l-40 614h194l13 -308z" />
    <glyph glyph-name="wgrave" unicode="&#x1e81;" horiz-adv-x="717" 
d="M456 454l20 -203l105 203h177l-246 -454h-148l-20 181l-91 -181h-148l-64 454h178l22 -203l102 203h113zM481 493h-162l-57 157h162z" />
    <glyph glyph-name="Wacute" unicode="&#x1e82;" horiz-adv-x="846" 
d="M588 663h-190l110 137h190zM419 614h144l19 -308l133 308h200l-287 -614h-176l-20 314l-147 -314h-176l-40 614h194l13 -308z" />
    <glyph glyph-name="wacute" unicode="&#x1e83;" horiz-adv-x="717" 
d="M488 493h-178l113 157h178zM456 454l20 -203l105 203h177l-246 -454h-148l-20 181l-91 -181h-148l-64 454h178l22 -203l102 203h113z" />
    <glyph glyph-name="Wdieresis" unicode="&#x1e84;" horiz-adv-x="846" 
d="M319 737q0 38 26.5 64.5t63.5 26.5t64 -27t27 -64t-26.5 -63.5t-64.5 -26.5q-37 0 -63.5 26.5t-26.5 63.5zM516 737q0 38 26.5 64.5t63.5 26.5q38 0 64.5 -27t26.5 -64t-26.5 -63.5t-64.5 -26.5t-64 26.5t-26 63.5zM419 614h144l19 -308l133 308h200l-287 -614h-176
l-20 314l-147 -314h-176l-40 614h194l13 -308z" />
    <glyph glyph-name="wdieresis" unicode="&#x1e85;" horiz-adv-x="717" 
d="M232 564q0 36 25.5 62t61.5 26t62 -26t26 -62t-26 -61.5t-62 -25.5t-61.5 25.5t-25.5 61.5zM422 564q0 36 25.5 62t61.5 26t62 -26t26 -62t-26 -61.5t-62 -25.5t-61.5 25.5t-25.5 61.5zM456 454l20 -203l105 203h177l-246 -454h-148l-20 181l-91 -181h-148l-64 454h178
l22 -203l102 203h113z" />
    <glyph glyph-name="Ygrave" unicode="&#x1ef2;" horiz-adv-x="632" 
d="M341 395l149 219h211l-293 -412l-35 -202h-195l35 202l-144 412h201zM471 663h-175l-60 137h175z" />
    <glyph glyph-name="ygrave" unicode="&#x1ef3;" horiz-adv-x="510" 
d="M196 -153h-190l108 180l-75 427h177l33 -219l116 219h186zM376 493h-162l-57 157h162z" />
    <glyph glyph-name="endash" unicode="&#x2013;" horiz-adv-x="461" 
d="M24 200l21 122h395l-21 -122h-395z" />
    <glyph glyph-name="emdash" unicode="&#x2014;" horiz-adv-x="832" 
d="M24 200l21 122h766l-21 -122h-766z" />
    <glyph glyph-name="quoteleft" unicode="&#x2018;" horiz-adv-x="239" 
d="M282 614l-86 -117q63 -22 63 -89q0 -45 -30.5 -74t-76.5 -29q-44 0 -75 29.5t-31 81.5q0 47 46 108l70 90h120z" />
    <glyph glyph-name="quoteright" unicode="&#x2019;" horiz-adv-x="239" 
d="M39 315l86 117q-63 22 -63 89q0 45 30.5 74t76.5 29q44 0 75 -29.5t31 -81.5q0 -47 -46 -108l-70 -90h-120z" />
    <glyph glyph-name="quotesinglbase" unicode="&#x201a;" horiz-adv-x="239" 
d="M-33 -116l86 117q-63 22 -63 89q0 45 30.5 74t76.5 29q44 0 75 -29.5t31 -81.5q0 -47 -46 -108l-70 -90h-120z" />
    <glyph glyph-name="quotedblleft" unicode="&#x201c;" horiz-adv-x="470" 
d="M282 614l-86 -117q63 -22 63 -89q0 -45 -30.5 -74t-76.5 -29q-44 0 -75 29.5t-31 81.5q0 47 46 108l70 90h120zM513 614l-86 -117q63 -22 63 -89q0 -45 -30.5 -74t-76.5 -29q-44 0 -75 29.5t-31 81.5q0 47 46 108l70 90h120z" />
    <glyph glyph-name="quotedblright" unicode="&#x201d;" horiz-adv-x="470" 
d="M39 315l86 117q-63 22 -63 89q0 45 30.5 74t76.5 29q44 0 75 -29.5t31 -81.5q0 -47 -46 -108l-70 -90h-120zM270 315l86 117q-63 22 -63 89q0 45 30.5 74t76.5 29q44 0 75 -29.5t31 -81.5q0 -47 -46 -108l-70 -90h-120z" />
    <glyph glyph-name="quotedblbase" unicode="&#x201e;" horiz-adv-x="470" 
d="M-33 -116l86 117q-63 22 -63 89q0 45 30.5 74t76.5 29q44 0 75 -29.5t31 -81.5q0 -47 -46 -108l-70 -90h-120zM198 -116l86 117q-63 22 -63 89q0 45 30.5 74t76.5 29q44 0 75 -29.5t31 -81.5q0 -47 -46 -108l-70 -90h-120z" />
    <glyph glyph-name="dagger" unicode="&#x2020;" horiz-adv-x="352" 
d="M57 446l20 112h99l16 92h114l-16 -92h99l-20 -112h-99l-30 -170h-114l30 170h-99z" />
    <glyph glyph-name="daggerdbl" unicode="&#x2021;" horiz-adv-x="352" 
d="M66 492l18 98h101l11 60h108l-11 -60h103l-18 -98h-102l-11 -59h103l-17 -97h-103l-10 -60h-108l10 60h-101l17 97h101l11 59h-102z" />
    <glyph glyph-name="bullet" unicode="&#x2022;" horiz-adv-x="398" 
d="M381 261q0 -77 -51.5 -127t-126.5 -50q-76 0 -128 50t-52 127q0 79 52 129.5t128 50.5q75 0 126.5 -50.5t51.5 -129.5z" />
    <glyph glyph-name="ellipsis" unicode="&#x2026;" horiz-adv-x="734" 
d="M-8 101q0 46 30.5 77t75.5 31t76 -31t31 -77t-31 -77t-76 -31q-44 0 -75 31t-31 77zM249 101q0 46 30.5 77t75.5 31t76 -31t31 -77t-31 -77t-76 -31q-44 0 -75 31t-31 77zM506 101q0 46 30.5 77t75.5 31t76 -31t31 -77t-31 -77t-76 -31q-44 0 -75 31t-31 77z" />
    <glyph glyph-name="perthousand" unicode="&#x2030;" horiz-adv-x="1036" 
d="M210 624q61 0 103.5 -42.5t42.5 -103.5q0 -62 -45 -109.5t-110 -47.5q-61 0 -103.5 42.5t-42.5 103.5q0 62 45 109.5t110 47.5zM204 425q19 0 33.5 14.5t14.5 34.5q0 19 -13 32.5t-32 13.5t-33.5 -14.5t-14.5 -34.5q0 -19 13 -32.5t32 -13.5zM75 0l477 614h98l-477 -614
h-98zM515 -10q-61 0 -103.5 42.5t-42.5 103.5q0 62 45 109.5t110 47.5q61 0 103.5 -42.5t42.5 -103.5q0 -62 -45 -109.5t-110 -47.5zM521 189q-19 0 -33.5 -14.5t-14.5 -34.5q0 -19 13 -32.5t32 -13.5t33.5 14.5t14.5 34.5q0 19 -13 32.5t-32 13.5zM840 -10
q-61 0 -103.5 42.5t-42.5 103.5q0 62 45 109.5t110 47.5q61 0 103.5 -42.5t42.5 -103.5q0 -62 -45 -109.5t-110 -47.5zM846 189q-19 0 -33.5 -14.5t-14.5 -34.5q0 -19 13 -32.5t32 -13.5t33.5 14.5t14.5 34.5q0 19 -13 32.5t-32 13.5z" />
    <glyph glyph-name="guilsinglleft" unicode="&#x2039;" horiz-adv-x="302" 
d="M248 54h-158l-62 168l114 168h167l-121 -178z" />
    <glyph glyph-name="guilsinglright" unicode="&#x203a;" horiz-adv-x="302" 
d="M51 390h158l62 -168l-114 -168h-167l121 178z" />
    <glyph glyph-name="fraction" unicode="&#x2044;" horiz-adv-x="216" 
d="M390 614l-477 -614h-87l477 614h87z" />
    <glyph glyph-name="Euro" unicode="&#x20ac;" horiz-adv-x="512" 
d="M39 326l14 77h44q36 98 113.5 159.5t183.5 61.5q93 0 150 -49l-30 -172q-59 51 -120 51q-64 0 -102 -51h128l-29 -77h-133q-4 -22 -5 -33h124l-28 -77h-89q23 -56 102 -56q58 0 114 28l-31 -173q-47 -25 -106 -25q-112 0 -183 61t-83 165h-53l13 77h39q2 22 4 33h-37z
" />
    <glyph glyph-name="uni2117" unicode="&#x2117;" horiz-adv-x="704" 
d="M683 307q0 -136 -92.5 -226.5t-224.5 -90.5t-224.5 90.5t-92.5 226.5t92.5 226.5t224.5 90.5t224.5 -90.5t92.5 -226.5zM636 307q0 116 -79 193.5t-191 77.5t-191 -77.5t-79 -193.5t79 -193.5t191 -77.5t191 77.5t79 193.5zM406 224h-59v-100h-115v369h174
q63 0 101 -35.5t38 -98.5q0 -64 -38 -99.5t-101 -35.5zM432 359q0 37 -42 37h-43v-75h43q42 0 42 38z" />
    <glyph glyph-name="trademark" unicode="&#x2122;" horiz-adv-x="618" 
d="M72 531l15 83h242l-15 -83h-76l-30 -171h-91l30 171h-75zM471 403h-1l-46 73l-20 -116h-89l45 254h81l46 -87l79 87h89l-45 -254h-89l20 116z" />
    <glyph glyph-name="uni2153" unicode="&#x2153;" horiz-adv-x="753" 
d="M674 614l-512 -614h-101l512 614h101zM289 614l-64 -359h-117l41 228l-92 -40l20 118l125 53h87zM477 254l19 105h259v-2l-94 -138q50 -37 50 -86q0 -63 -45.5 -101t-118.5 -38q-69 0 -111 30l19 107q39 -39 93 -39q23 0 35.5 9.5t12.5 23.5q0 32 -52 32q-15 0 -23 -1v1
l68 97h-112z" />
    <glyph glyph-name="uni2154" unicode="&#x2154;" horiz-adv-x="817" 
d="M738 614l-512 -614h-101l512 614h101zM238 360h89l-18 -105h-287v2l140 154q51 58 51 78t-24 20q-42 0 -116 -45l20 116q64 39 144 39q48 0 76 -25.5t28 -65.5q0 -33 -18.5 -63.5t-54.5 -71.5zM541 254l19 105h259v-2l-94 -138q50 -37 50 -86q0 -63 -45.5 -101
t-118.5 -38q-69 0 -111 30l19 107q39 -39 93 -39q23 0 35.5 9.5t12.5 23.5q0 32 -52 32q-15 0 -23 -1v1l68 97h-112z" />
    <glyph glyph-name="uni215B" unicode="&#x215b;" horiz-adv-x="753" 
d="M674 614l-512 -614h-101l512 614h101zM289 614l-64 -359h-117l41 228l-92 -40l20 118l125 53h87zM525 108q0 -11 8.5 -18t23.5 -7t25.5 8t10.5 21q0 11 -8.5 18t-23.5 7t-25.5 -8t-10.5 -21zM556 -6q-57 0 -99 25.5t-42 77.5q0 62 61 88q-29 20 -29 61q0 57 42 87.5
t99 30.5q53 0 89.5 -27.5t36.5 -73.5q0 -63 -51 -91q39 -24 39 -67q0 -52 -42.5 -81.5t-103.5 -29.5zM610 254q0 24 -29 24q-15 0 -24.5 -8t-9.5 -21q0 -24 29 -24q15 0 24.5 8t9.5 21z" />
    <glyph glyph-name="uni215C" unicode="&#x215c;" horiz-adv-x="763" 
d="M684 614l-512 -614h-101l512 614h101zM75 509l19 105h259v-2l-94 -138q50 -37 50 -86q0 -63 -45.5 -101t-118.5 -38q-69 0 -111 30l19 107q39 -39 93 -39q23 0 35.5 9.5t12.5 23.5q0 32 -52 32q-15 0 -23 -1v1l68 97h-112zM545 108q0 -11 8.5 -18t23.5 -7t25.5 8t10.5 21
q0 11 -8.5 18t-23.5 7t-25.5 -8t-10.5 -21zM576 -6q-57 0 -99 25.5t-42 77.5q0 62 61 88q-29 20 -29 61q0 57 42 87.5t99 30.5q53 0 89.5 -27.5t36.5 -73.5q0 -63 -51 -91q39 -24 39 -67q0 -52 -42.5 -81.5t-103.5 -29.5zM630 254q0 24 -29 24q-15 0 -24.5 -8t-9.5 -21
q0 -24 29 -24q15 0 24.5 8t9.5 21z" />
    <glyph glyph-name="uni215D" unicode="&#x215d;" horiz-adv-x="763" 
d="M684 614l-512 -614h-101l512 614h101zM545 108q0 -11 8.5 -18t23.5 -7t25.5 8t10.5 21q0 11 -8.5 18t-23.5 7t-25.5 -8t-10.5 -21zM576 -6q-57 0 -99 25.5t-42 77.5q0 62 61 88q-29 20 -29 61q0 57 42 87.5t99 30.5q53 0 89.5 -27.5t36.5 -73.5q0 -63 -51 -91
q39 -24 39 -67q0 -52 -42.5 -81.5t-103.5 -29.5zM630 254q0 24 -29 24q-15 0 -24.5 -8t-9.5 -21q0 -24 29 -24q15 0 24.5 8t9.5 21zM309 389q0 -67 -45.5 -103.5t-116.5 -36.5q-69 0 -113 31l18 100q15 -16 42.5 -27.5t54.5 -11.5q19 0 33 9t14 25q0 28 -48 28t-82 -12
l39 223h224l-18 -101h-130l-5 -26q10 2 17 2q56 0 86 -26t30 -74z" />
    <glyph glyph-name="uni215E" unicode="&#x215e;" horiz-adv-x="723" 
d="M644 614l-512 -614h-101l512 614h101zM383 612l-225 -357h-123l165 258h-131l18 101h297zM505 108q0 -11 8.5 -18t23.5 -7t25.5 8t10.5 21q0 11 -8.5 18t-23.5 7t-25.5 -8t-10.5 -21zM536 -6q-57 0 -99 25.5t-42 77.5q0 62 61 88q-29 20 -29 61q0 57 42 87.5t99 30.5
q53 0 89.5 -27.5t36.5 -73.5q0 -63 -51 -91q39 -24 39 -67q0 -52 -42.5 -81.5t-103.5 -29.5zM590 254q0 24 -29 24q-15 0 -24.5 -8t-9.5 -21q0 -24 29 -24q15 0 24.5 8t9.5 21z" />
    <glyph glyph-name="minus" unicode="&#x2212;" horiz-adv-x="551" 
d="M40 231l24 137h475l-24 -137h-475z" />
    <glyph glyph-name="approxequal" unicode="&#x2248;" horiz-adv-x="571" 
d="M64 311l23 127q71 42 134 42q41 0 105 -20.5t105 -20.5q67 0 138 43l-22 -128q-74 -42 -138 -42q-41 0 -105 20.5t-105 20.5q-62 0 -135 -42zM30 118l23 127q71 43 134 43q41 0 105 -21t105 -21q64 0 138 43l-22 -128q-74 -42 -139 -42q-40 0 -104 21t-105 21
q-60 0 -135 -43z" />
    <glyph glyph-name="notequal" unicode="&#x2260;" horiz-adv-x="571" 
d="M70 342l21 122h282l72 91h110l-72 -91h83l-21 -122h-158l-64 -81h208l-22 -121h-282l-72 -92h-110l72 92h-83l22 121h157l64 81h-207z" />
    <glyph glyph-name="lessequal" unicode="&#x2264;" horiz-adv-x="436" 
d="M50 293l29 161l383 119l-28 -150l-242 -56l222 -58l-23 -135zM3 24l23 131h362l-23 -131h-362z" />
    <glyph glyph-name="greaterequal" unicode="&#x2265;" horiz-adv-x="436" 
d="M388 155l-23 -131h-362l23 131h362zM441 454l-29 -161l-383 -119l28 150l242 56l-222 58l23 135z" />
    <glyph glyph-name="fi" unicode="&#xfb01;" horiz-adv-x="603" 
d="M613 454l-80 -454h-190l80 454h190zM643 575q0 -48 -32 -76t-77 -28q-44 0 -73 25t-29 67q0 48 32 76t77 28q44 0 73 -25t29 -67zM415 646l-26 -151q-13 6 -30 6q-51 0 -58 -45v-2h81l-26 -146h-81l-54 -308h-189l54 308h-61l26 146h61l2 12q33 192 226 192q44 0 75 -12z
" />
    <glyph glyph-name="fl" unicode="&#xfb02;" horiz-adv-x="603" 
d="M647 650l-114 -650h-190l114 650h190zM415 646l-26 -151q-13 6 -30 6q-51 0 -58 -45v-2h81l-26 -146h-81l-54 -308h-189l54 308h-61l26 146h61l2 12q33 192 226 192q44 0 75 -12z" />
    <glyph glyph-name="i.dot" horiz-adv-x="252" 
d="M262 454l-80 -454h-190l80 454h190zM294 580q0 -45 -30.5 -71.5t-74.5 -26.5t-74.5 26.5t-30.5 71.5t30.5 71.5t74.5 26.5t74.5 -26.5t30.5 -71.5z" />
    <glyph glyph-name="space_uni0326" horiz-adv-x="500" 
d="M156 -247l60 66q-47 21 -47 74q0 35 26 58t66 23q38 0 65 -24t27 -64q0 -52 -55 -107l-26 -26h-116z" />
    <glyph glyph-name="space_uni0326.alt" horiz-adv-x="500" 
d="M353 696l-64 -70q47 -21 47 -74q0 -35 -26 -58t-66 -23q-38 0 -65 24t-27 64q0 52 55 107l30 30h116z" />
    <glyph glyph-name="space_dotbelowcomb" horiz-adv-x="500" 
d="M351 -120q0 -44 -29 -69.5t-72 -25.5t-72 25.5t-29 69.5q0 43 29 68.5t72 25.5t72 -25.5t29 -68.5z" />
    <glyph glyph-name="caron.Slovak" horiz-adv-x="500" 
d="M283 483h-146l77 167h148z" />
    <glyph glyph-name="cedilla.alt" horiz-adv-x="500" 
d="M282 -175h-156l92 143h156z" />
    <glyph glyph-name="grave.cap" horiz-adv-x="500" 
d="M371 663h-175l-60 137h175z" />
    <glyph glyph-name="acute.cap" horiz-adv-x="500" 
d="M292 663h-190l110 137h190z" />
    <glyph glyph-name="circumflex.cap" horiz-adv-x="500" 
d="M343 800l92 -137h-145l-29 37l-43 -37h-153l142 137h136z" />
    <glyph glyph-name="caron.cap" horiz-adv-x="500" 
d="M157 659l-92 137h145l29 -37l43 37h153l-142 -137h-136z" />
    <glyph glyph-name="tilde.cap" horiz-adv-x="500" 
d="M328 816h100q-27 -161 -119 -161q-25 0 -61 13.5t-51 13.5q-22 0 -26 -23h-100q27 161 119 161q25 0 61 -13.5t51 -13.5q22 0 26 23z" />
    <glyph glyph-name="macron.cap" horiz-adv-x="500" 
d="M94 663l22 125h289l-22 -125h-289z" />
    <glyph glyph-name="breve.cap" horiz-adv-x="500" 
d="M233 653q-69 0 -109 42.5t-26 116.5h129q-7 -37 18 -37q26 0 33 37h128q-14 -78 -59.5 -118.5t-113.5 -40.5z" />
    <glyph glyph-name="dotaccent.cap" horiz-adv-x="500" 
d="M355 751q0 -45 -30.5 -71.5t-74.5 -26.5t-74.5 26.5t-30.5 71.5t30.5 71.5t74.5 26.5t74.5 -26.5t30.5 -71.5z" />
    <glyph glyph-name="dieresis.cap" horiz-adv-x="500" 
d="M61 737q0 38 26.5 64.5t63.5 26.5t64 -27t27 -64t-26.5 -63.5t-64.5 -26.5q-37 0 -63.5 26.5t-26.5 63.5zM258 737q0 38 26.5 64.5t63.5 26.5q38 0 64.5 -27t26.5 -64t-26.5 -63.5t-64.5 -26.5t-64 26.5t-26 63.5z" />
    <glyph glyph-name="ring.cap" horiz-adv-x="500" 
d="M247 719q14 0 24 10t10 25q0 12 -8.5 21t-21.5 9q-14 0 -24 -10t-10 -25q0 -12 8.5 -21t21.5 -9zM244 638q-48 0 -80 32t-32 77q0 49 35.5 83.5t86.5 34.5q48 0 80 -32t32 -77q0 -49 -35.5 -83.5t-86.5 -34.5z" />
    <glyph glyph-name="hungarumlaut.cap" horiz-adv-x="500" 
d="M180 663h-159l110 137h159zM369 663h-159l110 137h159z" />
    <glyph glyph-name="exclamdown.cap" horiz-adv-x="262" 
d="M241 401l-32 -401h-232l114 401h150zM292 521q0 -42 -31.5 -71t-76.5 -29t-76.5 29t-31.5 71q0 43 31.5 71.5t76.5 28.5t76.5 -28.5t31.5 -71.5z" />
    <glyph glyph-name="questiondown.cap" horiz-adv-x="464" 
d="M306 317q-9 -9 -25.5 -24.5t-25 -24t-18.5 -20t-14.5 -21.5t-4.5 -20q0 -41 51 -41q64 0 172 73l-31 -180q-111 -69 -225 -69q-82 0 -128.5 44.5t-46.5 111.5q0 30 5.5 54.5t22.5 48.5t25.5 35t36 37.5t33.5 32.5q25 26 32 47h192q-12 -43 -51 -84zM385 521
q0 -43 -31.5 -71.5t-76.5 -28.5q-47 0 -78.5 28t-31.5 72q0 43 31.5 71.5t78.5 28.5q45 0 76.5 -28.5t31.5 -71.5z" />
    <glyph glyph-name="guilsinglleft.cap" horiz-adv-x="302" 
d="M268 134h-158l-62 168l114 168h167l-121 -178z" />
    <glyph glyph-name="guilsinglright.cap" horiz-adv-x="302" 
d="M71 470h158l62 -168l-114 -168h-167l121 178z" />
    <glyph glyph-name="guillemotleft.cap" horiz-adv-x="483" 
d="M260 134h-150l-62 168l121 168h150l-119 -175zM451 134h-152l-60 158l121 178h150l-121 -178z" />
    <glyph glyph-name="guillemotright.cap" horiz-adv-x="483" 
d="M260 470h150l62 -168l-121 -168h-150l119 175zM69 470h152l60 -158l-121 -178h-150l121 178z" />
    <glyph glyph-name="slash.cap" horiz-adv-x="415" 
d="M-53 -64l376 734h165l-377 -734h-164z" />
    <glyph glyph-name="backslash.cap" horiz-adv-x="415" 
d="M237 670l119 -734h-145l-119 734h145z" />
    <glyph glyph-name="bar.cap" horiz-adv-x="217" 
d="M-18 -64l129 734h151l-129 -734h-151z" />
    <glyph glyph-name="periodcentered.cap" horiz-adv-x="253" 
d="M31 290q0 46 30.5 77t75.5 31t76 -31t31 -77t-31 -77t-76 -31q-44 0 -75 31t-31 77z" />
    <glyph glyph-name="bullet.cap" horiz-adv-x="398" 
d="M387 291q0 -77 -51.5 -127t-126.5 -50q-76 0 -128 50t-52 127q0 79 52 129.5t128 50.5q75 0 126.5 -50.5t51.5 -129.5z" />
    <glyph glyph-name="hyphen.cap" horiz-adv-x="307" 
d="M30 214l27 155h241l-27 -155h-241z" />
    <glyph glyph-name="endash.cap" horiz-adv-x="461" 
d="M30 230l21 122h395l-21 -122h-395z" />
    <glyph glyph-name="emdash.cap" horiz-adv-x="832" 
d="M30 230l21 122h766l-21 -122h-766z" />
    <glyph glyph-name="parenleft.cap" horiz-adv-x="343" 
d="M45 254q0 159 99 277t264 139l-30 -170q-163 -60 -163 -246q0 -107 94 -148l-30 -170q-113 27 -173.5 109t-60.5 209z" />
    <glyph glyph-name="parenright.cap" horiz-adv-x="343" 
d="M329 352q0 -159 -99 -277t-264 -139l30 170q163 60 163 246q0 107 -94 148l30 170q113 -27 173.5 -109t60.5 -209z" />
    <glyph glyph-name="bracketleft.cap" horiz-adv-x="341" 
d="M268 517l-75 -428h111l-27 -153h-288l129 734h288l-27 -153h-111z" />
    <glyph glyph-name="bracketright.cap" horiz-adv-x="341" 
d="M104 89l75 428h-111l27 153h288l-129 -734h-288l27 153h111z" />
    <glyph glyph-name="braceleft.cap" horiz-adv-x="379" 
d="M264 220l-18 -102q-6 -29 24 -29h72l-27 -153h-141q-58 0 -87 35.5t-19 94.5l23 132q5 29 -24 29h-40l27 152h40q29 0 34 29l23 132q10 58 52.5 94t99.5 36h141l-27 -153h-72q-29 0 -34 -29l-18 -102q-11 -57 -62 -85q43 -29 33 -81z" />
    <glyph glyph-name="braceright.cap" horiz-adv-x="379" 
d="M146 386l18 102q6 29 -24 29h-72l27 153h141q58 0 87 -35.5t19 -94.5l-23 -132q-5 -29 24 -29h40l-27 -152h-40q-29 0 -34 -29l-23 -132q-10 -58 -52.5 -94t-99.5 -36h-141l27 153h72q29 0 34 29l18 102q11 57 62 85q-43 29 -33 81z" />
    <glyph glyph-name="at.cap" horiz-adv-x="750" 
d="M613 488l-59 -250q-9 -36 20 -36q44 0 73 47t29 130q0 97 -68.5 152t-177.5 55q-138 0 -227 -91.5t-89 -235.5q0 -55 17.5 -98.5t45 -70t65.5 -44.5t75 -25t77 -7q123 0 242 55l-15 -84q-98 -47 -227 -47q-73 0 -137 19t-116 56.5t-82 100.5t-30 144q0 169 114.5 287
t290.5 118q143 0 232 -79.5t89 -201.5q0 -125 -66 -194.5t-164 -69.5q-78 0 -117 49q-37 -45 -105 -45q-62 0 -95 39t-33 101q0 94 56 163.5t144 69.5q26 0 49.5 -10t32.5 -26l8 29h148zM413 273l17 71q-5 25 -37 25q-26 0 -45.5 -23t-19.5 -58q0 -41 40 -41q29 0 45 26z
" />
    <glyph glyph-name="Euro.lt" 
d="M36 326l14 77h44q36 98 113.5 159.5t183.5 61.5q93 0 150 -49l-30 -172q-59 51 -120 51q-64 0 -102 -51h128l-29 -77h-133q-4 -22 -5 -33h124l-28 -77h-89q23 -56 102 -56q58 0 114 28l-31 -173q-47 -25 -106 -25q-112 0 -183 61t-83 165h-53l13 77h39q2 22 4 33h-37z
" />
    <glyph glyph-name="dollar.lt" 
d="M4 59l29 165q40 -29 92 -49t99 -20q73 0 73 35q0 16 -27 23l-86 27q-135 42 -135 154q0 86 57 142t145 70l16 88h150l-17 -94q51 -10 107 -41l-30 -165q-81 66 -173 66q-66 0 -66 -30q0 -10 7 -15t22 -10l91 -30q61 -21 95.5 -60.5t34.5 -94.5q0 -90 -54 -141.5
t-138 -67.5l-16 -93h-150l16 91q-84 13 -142 50z" />
    <glyph glyph-name="cent.lt" 
d="M149 -82l18 102q-55 24 -86 73.5t-31 117.5q0 96 52.5 165.5t142.5 89.5l18 98h150l-18 -101q29 -8 54 -23l-27 -152q-44 29 -87 29q-42 0 -70.5 -22.5t-28.5 -69.5q0 -34 22.5 -52.5t62.5 -18.5t81 20l-26 -149q-25 -15 -62 -22l-15 -85h-150z" />
    <glyph glyph-name="sterling.lt" 
d="M41 234l25 141h56l7 35q18 100 85 157t180 57q87 0 134 -31l-30 -171q-43 31 -104 31q-38 0 -57.5 -18.5t-27.5 -59.5h102l-25 -141h-103q-12 -53 -34 -76h226l-27 -158h-448l27 158h37q22 30 33 76h-56z" />
    <glyph glyph-name="yen.lt" 
d="M5 92l18 101h126l7 39h-127l18 101h85l-65 281h186l34 -189l96 189h190l-168 -281h85l-18 -101h-127l-7 -39h128l-18 -101h-127l-16 -92h-189l16 92h-127z" />
    <glyph glyph-name="florin.lt" 
d="M96 215l26 144h79l26 87q52 178 214 178q53 0 86 -13l-27 -151q-16 7 -34 7q-39 0 -52 -45l-19 -63h70l-26 -144h-87l-58 -195q-52 -178 -214 -178q-53 0 -86 13l23 139q16 -7 34 -7q39 0 52 45l55 183h-62z" />
    <glyph glyph-name="zero.lt" 
d="M247 157q40 0 63.5 74.5t23.5 150.5q0 75 -44 75q-40 0 -63.5 -74.5t-23.5 -150.5q0 -75 44 -75zM234 -10q-104 0 -158.5 69t-54.5 181q0 167 80 275.5t202 108.5q104 0 158.5 -69t54.5 -181q0 -167 -80 -275.5t-202 -108.5z" />
    <glyph glyph-name="one.lt" 
d="M13 0l29 166h140l43 246l-143 -64l32 180l200 86h135l-79 -448h113l-29 -166h-441z" />
    <glyph glyph-name="two.lt" 
d="M323 166h153l-29 -166h-478v4l229 255q34 37 49 55t31.5 45.5t16.5 46.5q0 40 -48 40q-70 0 -191 -75l32 184q107 69 239 69q82 0 129 -43t47 -112q0 -61 -31 -117t-90 -121z" />
    <glyph glyph-name="three.lt" 
d="M88 449l29 165h432v-3l-160 -240q86 -55 86 -147q0 -106 -77 -170t-197 -64q-118 0 -187 52l30 171q67 -67 159 -67q42 0 66.5 18t24.5 48q0 63 -98 63q-11 0 -35 -2v2l116 174h-189z" />
    <glyph glyph-name="four.lt" 
d="M413 614l-173 -362h56l17 96h159l-17 -96h56l-28 -156h-56l-16 -96h-159l16 96h-286l1 4l258 514h172z" />
    <glyph glyph-name="five.lt" 
d="M474 228q0 -113 -77 -175.5t-195 -62.5t-190 52l29 167q26 -28 71.5 -47t92.5 -19q38 0 64.5 15t26.5 47q0 52 -89 52q-83 0 -140 -22l67 379h376l-29 -165h-228l-8 -43q15 3 34 3q92 0 143.5 -49t51.5 -132z" />
    <glyph glyph-name="six.lt" 
d="M245 -10q-101 0 -164.5 62.5t-63.5 147.5q0 58 22 109.5t75 115.5l157 189h216l-149 -172h2q76 -14 124 -67t48 -128q0 -108 -78 -182.5t-189 -74.5zM259 157q31 0 53.5 22t22.5 55q0 27 -18.5 45.5t-45.5 18.5q-31 0 -53.5 -22t-22.5 -55q0 -27 18.5 -45.5t45.5 -18.5z
" />
    <glyph glyph-name="seven.lt" 
d="M582 611l-375 -611h-209l278 449h-212l29 165h489v-3z" />
    <glyph glyph-name="eight.lt" 
d="M194 182q0 -20 15 -32.5t40 -13.5q26 0 44.5 14t18.5 38q0 20 -15 33t-39 13q-27 0 -45.5 -14t-18.5 -38zM246 -10q-59 0 -110.5 16.5t-88.5 57.5t-37 100q0 54 30.5 94.5t80.5 59.5q-53 35 -53 107q0 95 69.5 147t165.5 52q90 0 151 -46.5t61 -124.5q0 -50 -24.5 -92
t-68.5 -64q31 -17 51 -47.5t20 -69.5q0 -89 -72.5 -139.5t-174.5 -50.5zM348 438q0 20 -14.5 33t-38.5 13q-26 0 -43.5 -14.5t-17.5 -38.5q0 -20 14.5 -32.5t37.5 -12.5q26 0 44 14t18 38z" />
    <glyph glyph-name="nine.lt" 
d="M296 624q101 0 164.5 -62.5t63.5 -147.5q0 -58 -22 -109.5t-75 -115.5l-157 -189h-216l149 172h-2q-76 14 -124 67t-48 128q0 108 78 182.5t189 74.5zM282 457q-31 0 -53.5 -22t-22.5 -55q0 -27 18.5 -45.5t45.5 -18.5q31 0 53.5 22t22.5 55q0 27 -18.5 45.5t-45.5 18.5z
" />
    <glyph glyph-name="period.tab" horiz-adv-x="260" 
d="M-5 101q0 46 30.5 77t75.5 31t76 -31t31 -77t-31 -77t-76 -31q-44 0 -75 31t-31 77z" />
    <glyph glyph-name="comma.tab" horiz-adv-x="260" 
d="M-28 -100l86 117q-63 22 -63 89q0 45 30.5 74t76.5 29q44 0 75 -29.5t31 -81.5q0 -47 -46 -108l-70 -90h-120z" />
    <glyph glyph-name="colon.tab" horiz-adv-x="260" 
d="M-5 101q0 46 30.5 77t75.5 31t76 -31t31 -77t-31 -77t-76 -31q-44 0 -75 31t-31 77zM40 346q0 46 30.5 77t75.5 31t76 -31t31 -77t-31 -77t-76 -31q-44 0 -75 31t-31 77z" />
    <glyph glyph-name="semicolon.tab" horiz-adv-x="260" 
d="M-28 -100l86 117q-63 22 -63 89q0 45 30.5 74t76.5 29q44 0 75 -29.5t31 -81.5q0 -47 -46 -108l-70 -90h-120zM40 346q0 46 30.5 77t75.5 31t76 -31t31 -77t-31 -77t-76 -31q-44 0 -75 31t-31 77z" />
    <glyph glyph-name="space.tab" horiz-adv-x="260" 
 />
    <glyph glyph-name="percent.lt" 
d="M182 624q50 0 84.5 -34.5t34.5 -84.5q0 -52 -36.5 -90.5t-90.5 -38.5q-50 0 -84.5 34.5t-34.5 84.5q0 51 37 90t90 39zM177 461q15 0 27 12t12 28t-10.5 27t-26.5 11q-15 0 -27 -12t-12 -28t10.5 -27t26.5 -11zM343 -10q-50 0 -84.5 34.5t-34.5 84.5q0 52 36.5 90.5
t90.5 38.5q50 0 84.5 -34.5t34.5 -84.5q0 -51 -37 -90t-90 -39zM348 153q-15 0 -27 -12t-12 -28t10.5 -27t26.5 -11q15 0 27 12t12 28t-10.5 27t-26.5 11zM550 614l-477 -614h-98l477 614h98z" />
    <glyph glyph-name="perthousand.lt" horiz-adv-x="800" 
d="M199 624q50 0 84.5 -34.5t34.5 -84.5q0 -52 -36.5 -90.5t-90.5 -38.5q-50 0 -84.5 34.5t-34.5 84.5q0 51 37 90t90 39zM194 461q15 0 27 12t12 28t-10.5 27t-26.5 11q-15 0 -27 -12t-12 -28t10.5 -27t26.5 -11zM360 -10q-50 0 -84.5 34.5t-34.5 84.5q0 52 36.5 90.5
t90.5 38.5q50 0 84.5 -34.5t34.5 -84.5q0 -51 -37 -90t-90 -39zM365 153q-15 0 -27 -12t-12 -28t10.5 -27t26.5 -11q15 0 27 12t12 28t-10.5 27t-26.5 11zM567 614l-477 -614h-98l477 614h98zM627 -10q-50 0 -84.5 34.5t-34.5 84.5q0 52 36.5 90.5t90.5 38.5
q50 0 84.5 -34.5t34.5 -84.5q0 -51 -37 -90t-90 -39zM632 153q-15 0 -27 -12t-12 -28t10.5 -27t26.5 -11q15 0 27 12t12 28t-10.5 27t-26.5 11z" />
    <glyph glyph-name="plus.lt" 
d="M237 537h137l-30 -169h169l-24 -137h-169l-30 -169h-137l30 169h-169l24 137h169z" />
    <glyph glyph-name="minus.lt" 
d="M14 231l24 137h475l-24 -137h-475z" />
    <glyph glyph-name="multiply.lt" 
d="M170 303l-99 119l109 93l99 -119l140 119l80 -97l-140 -119l98 -120l-109 -92l-98 119l-141 -119l-80 96z" />
    <glyph glyph-name="divide.lt" 
d="M14 231l24 137h475l-24 -137h-475zM206 486q0 37 26.5 62.5t64.5 25.5t64.5 -25.5t26.5 -62.5t-26.5 -62.5t-64.5 -25.5t-64.5 25.5t-26.5 62.5zM141 112q0 37 26.5 62.5t64.5 25.5t64.5 -25.5t26.5 -62.5t-26.5 -62.5t-64.5 -25.5t-64.5 25.5t-26.5 62.5z" />
    <glyph glyph-name="equal.lt" 
d="M-2 140l22 121h475l-22 -121h-475zM34 342l21 122h475l-21 -122h-475z" />
    <glyph glyph-name="less.lt" 
d="M55 214l30 166l388 153l-27 -155l-247 -85l217 -85l-26 -147z" />
    <glyph glyph-name="greater.lt" 
d="M473 380l-30 -166l-388 -153l27 155l247 85l-217 85l26 147z" />
    <glyph glyph-name="plusminus.lt" 
d="M262 574h121l-22 -125h166l-21 -120h-167l-22 -125h-121l22 125h-164l21 120h165zM1 34l22 120h452l-22 -120h-452z" />
    <glyph glyph-name="lessequal.lt" 
d="M81 293l29 161l383 119l-28 -150l-242 -56l222 -58l-23 -135zM34 24l23 131h362l-23 -131h-362z" />
    <glyph glyph-name="greaterequal.lt" 
d="M430 155l-23 -131h-362l23 131h362zM483 454l-29 -161l-383 -119l28 150l242 56l-222 58l23 135z" />
    <glyph glyph-name="notequal.lt" 
d="M34 342l21 122h282l72 91h110l-72 -91h83l-21 -122h-158l-64 -81h208l-22 -121h-282l-72 -92h-110l72 92h-83l22 121h157l64 81h-207z" />
    <glyph glyph-name="approxequal.lt" 
d="M29 311l23 127q71 42 134 42q40 0 105 -20.5t105 -20.5q67 0 138 43l-22 -128q-74 -42 -138 -42q-40 0 -105 20.5t-105 20.5q-62 0 -135 -42zM-5 118l23 127q71 43 134 43q40 0 105 -21t105 -21q64 0 138 43l-22 -128q-74 -42 -139 -42q-41 0 -105 21t-104 21
q-60 0 -135 -43z" />
    </font>
</defs>
</svg>
