<?xml version="1.0" standalone="no"?>
<!DOCTYPE svg PUBLIC "-//W3C//DTD SVG 1.1//EN" "http://www.w3.org/Graphics/SVG/1.1/DTD/svg11.dtd" >
<svg xmlns="http://www.w3.org/2000/svg" xmlns:xlink="http://www.w3.org/1999/xlink" version="1.1">
<metadata>
Created by FontForge 20170731 at Wed Apr 13 00:33:53 2011
 By Aleksey,,,
(c) 2011 Klim Type Foundry. All rights reserved.
</metadata>
<defs>
<font id="Metric-ThinItalic" horiz-adv-x="500" >
  <font-face 
    font-family="Metric Thin"
    font-weight="250"
    font-style="italic"
    font-stretch="normal"
    units-per-em="1000"
    panose-1="2 11 4 3 3 2 2 13 2 3"
    ascent="650"
    descent="-350"
    x-height="444"
    cap-height="614"
    bbox="-175 -180 879 892"
    underline-thickness="30"
    underline-position="-130"
    slope="-10"
    unicode-range="U+0020-FB02"
  />
<missing-glyph horiz-adv-x="608" 
 />
    <glyph glyph-name="f_f" unicode="ff" horiz-adv-x="453" 
d="M547 651l-5 -29q-21 8 -42 8q-40 0 -68.5 -27.5t-37.5 -78.5l-14 -80h107l-5 -28h-107l-73 -416h-30l73 416h-187l-73 -416h-30l73 416h-70l5 28h70l14 78q10 58 46.5 94t88.5 36q29 0 47 -7l-5 -29q-21 8 -42 8q-40 0 -68.5 -27.5t-37.5 -78.5l-13 -74h187l15 84
q10 58 46.5 94t88.5 36q29 0 47 -7z" />
    <glyph glyph-name=".notdef" horiz-adv-x="608" 
 />
    <glyph glyph-name=".null" horiz-adv-x="0" 
 />
    <glyph glyph-name="nonmarkingreturn" horiz-adv-x="333" 
 />
    <glyph glyph-name="space" unicode=" " horiz-adv-x="221" 
 />
    <glyph glyph-name="exclam" unicode="!" horiz-adv-x="208" 
d="M90 192l71 422h32l-79 -422h-24zM44 25q0 11 7.5 19t18.5 8t18.5 -8t7.5 -19t-7.5 -19t-18.5 -8t-18.5 8t-7.5 19z" />
    <glyph glyph-name="quotedbl" unicode="&#x22;" horiz-adv-x="189" 
d="M77 434l32 180h30l-32 -180h-30zM156 434l32 180h30l-32 -180h-30z" />
    <glyph glyph-name="numbersign" unicode="#" horiz-adv-x="529" 
d="M476 228l-5 -26h-121l-61 -202h-28l61 202h-148l-61 -202h-27l61 202h-101l6 26h103l48 158h-118l5 26h121l61 202h28l-62 -202h148l62 202h27l-61 -202h101l-6 -26h-103l-48 -158h118zM230 386l-48 -158h148l48 158h-148z" />
    <glyph glyph-name="dollar" unicode="$" horiz-adv-x="425" 
d="M11 76l6 37q61 -67 158 -67q76 0 122 37.5t46 99.5q0 33 -20 54.5t-69 45.5l-78 37q-99 46 -99 120q0 76 56.5 116.5t132.5 41.5l17 94h28l-17 -95q76 -8 121 -47l-7 -36q-53 54 -140 54q-68 0 -114.5 -32.5t-46.5 -95.5q0 -32 22.5 -54t67.5 -43l79 -38
q50 -24 73.5 -52.5t23.5 -69.5q0 -70 -51.5 -116t-129.5 -51l-18 -98h-28l17 98q-102 3 -152 60z" />
    <glyph glyph-name="percent" unicode="%" horiz-adv-x="599" 
d="M189 622q50 0 84.5 -34t34.5 -84t-36.5 -88.5t-88.5 -38.5q-50 0 -84.5 34t-34.5 84t36.5 88.5t88.5 38.5zM184 407q38 0 66 28.5t28 68.5q0 36 -26.5 62t-63.5 26q-38 0 -66 -28.5t-28 -68.5q0 -36 26.5 -62t63.5 -26zM36 0l500 614h32l-500 -614h-32zM415 -8
q-50 0 -84.5 34t-34.5 84t36.5 88.5t88.5 38.5q50 0 84.5 -34t34.5 -84t-36.5 -88.5t-88.5 -38.5zM420 207q-38 0 -66 -28.5t-28 -68.5q0 -36 26.5 -62t63.5 -26q38 0 66 28.5t28 68.5q0 36 -26.5 62t-63.5 26z" />
    <glyph glyph-name="ampersand" unicode="&#x26;" horiz-adv-x="555" 
d="M311 622q76 0 128 -44l-7 -34q-55 50 -121 50q-59 0 -99.5 -35.5t-40.5 -98.5q0 -33 15 -60.5t47 -66.5l173 -214q55 68 74 175l30 -1q-19 -115 -87 -195l80 -98h-36l-63 77q-83 -85 -199 -85q-76 0 -125 45t-49 117q0 69 42.5 122.5t108.5 73.5q-42 57 -42 110
q0 74 50 118t121 44zM205 322q-4 4 -5 6q-60 -15 -99 -63.5t-39 -110.5q0 -59 40 -96.5t102 -37.5q109 0 183 77z" />
    <glyph glyph-name="quotesingle" unicode="'" horiz-adv-x="110" 
d="M77 434l32 180h30l-32 -180h-30z" />
    <glyph glyph-name="parenleft" unicode="(" horiz-adv-x="328" 
d="M39 210q0 161 91.5 278t248.5 162l-5 -29q-144 -50 -224.5 -156t-80.5 -255q0 -104 48 -171.5t138 -94.5l-5 -28q-101 28 -156 105t-55 189z" />
    <glyph glyph-name="parenright" unicode=")" horiz-adv-x="328" 
d="M312 356q0 -161 -91.5 -278t-248.5 -162l5 29q144 50 224.5 156t80.5 255q0 104 -48 171.5t-138 94.5l5 28q101 -28 156 -105t55 -189z" />
    <glyph glyph-name="asterisk" unicode="*" horiz-adv-x="302" 
d="M198 388l-24 4l19 108l-103 -37l-8 21l104 38l-85 71l15 17l84 -70l19 108l24 -4l-19 -108l103 37l8 -21l-104 -38l85 -71l-15 -17l-84 70z" />
    <glyph glyph-name="plus" unicode="+" horiz-adv-x="495" 
d="M275 470h29l-29 -163h164l-5 -29h-164l-28 -163h-29l28 163h-162l5 29h162z" />
    <glyph glyph-name="comma" unicode="," horiz-adv-x="118" 
d="M-45 -97l66 98q-19 3 -19 24q0 11 7.5 19t18.5 8t18.5 -8t7.5 -19q0 -12 -11 -29l-63 -93h-25z" />
    <glyph glyph-name="hyphen" unicode="-" horiz-adv-x="321" 
d="M44 244l5 29h241l-5 -29h-241z" />
    <glyph glyph-name="period" unicode="." horiz-adv-x="118" 
d="M2 25q0 11 7.5 19t18.5 8t18.5 -8t7.5 -19t-7.5 -19t-18.5 -8t-18.5 8t-7.5 19z" />
    <glyph glyph-name="slash" unicode="/" horiz-adv-x="287" 
d="M-48 -84l376 734h31l-377 -734h-30z" />
    <glyph glyph-name="zero" unicode="0" horiz-adv-x="534" 
d="M243 21q100 0 169 107.5t69 254.5q0 97 -41 153.5t-113 56.5q-100 0 -169 -107.5t-69 -254.5q0 -97 41 -153.5t113 -56.5zM244 -8q-86 0 -136 64.5t-50 174.5q0 159 76.5 275t191.5 116q86 0 136 -64.5t50 -174.5q0 -159 -76.5 -275t-191.5 -116z" />
    <glyph glyph-name="one" unicode="1" horiz-adv-x="318" 
d="M296 616l-108 -616h-31l101 576l-182 -86l6 35l194 91h20z" />
    <glyph glyph-name="two" unicode="2" horiz-adv-x="435" 
d="M55 30h316l-5 -30h-380v4l248 235q5 4 30 27t33.5 32t29 30.5t29.5 36t21.5 35.5t17 41.5t4.5 41.5q0 51 -30 80.5t-91 29.5q-94 0 -189 -86l7 39q85 76 187 76q72 0 109 -37t37 -102q0 -20 -5 -40t-9.5 -34.5t-19 -35.5t-21 -31t-28.5 -33t-28.5 -29.5t-34.5 -33
t-33 -31.5z" />
    <glyph glyph-name="three" unicode="3" horiz-adv-x="435" 
d="M99 584l6 30h360v-4l-236 -240q72 -2 119.5 -45t47.5 -113q0 -89 -66.5 -154.5t-160.5 -65.5q-100 0 -162 55l7 39q53 -65 155 -65q80 0 138.5 55t58.5 136q0 62 -44 97.5t-117 35.5q-11 0 -35 -2v4l229 237h-300z" />
    <glyph glyph-name="four" unicode="4" horiz-adv-x="494" 
d="M346 614l-268 -425h244l27 155h31l-27 -155h122l-5 -30h-122l-28 -159h-31l28 159h-290v4l285 451h34z" />
    <glyph glyph-name="five" unicode="5" horiz-adv-x="429" 
d="M396 212q0 -89 -66.5 -154.5t-160.5 -65.5q-100 0 -162 55l7 39q53 -65 155 -65q80 0 138.5 55t58.5 136q0 60 -40 95t-105 35q-31 0 -58 -5t-39.5 -10t-39.5 -16l54 303h299l-6 -30h-271l-40 -231q46 18 101 18q78 0 126.5 -43t48.5 -116z" />
    <glyph glyph-name="six" unicode="6" horiz-adv-x="477" 
d="M231 -8q-80 0 -134.5 53t-54.5 135q0 81 64 161l219 273h36l-193 -241q42 26 90 26q83 0 136 -53.5t53 -132.5q0 -92 -64.5 -156.5t-151.5 -64.5zM231 21q74 0 129.5 55.5t55.5 136.5q0 67 -44.5 112t-113.5 45q-74 0 -129.5 -54.5t-55.5 -135.5q0 -67 45 -113t113 -46z
" />
    <glyph glyph-name="seven" unicode="7" horiz-adv-x="433" 
d="M486 610l-385 -610h-35l370 584h-350l6 30h394v-4z" />
    <glyph glyph-name="eight" unicode="8" horiz-adv-x="477" 
d="M59 153q0 -58 47 -95.5t112 -37.5q82 0 137.5 46.5t55.5 113.5q0 61 -47.5 98.5t-117.5 37.5q-78 0 -132.5 -48t-54.5 -115zM218 -8q-78 0 -134 42t-56 119q0 65 46.5 116t118.5 66q-38 17 -60 49t-22 72q0 67 54.5 116.5t136.5 49.5q69 0 117.5 -38t48.5 -104
q0 -52 -37.5 -95.5t-96.5 -59.5q51 -20 79.5 -58t28.5 -88q0 -78 -65.5 -132.5t-158.5 -54.5zM438 480q0 52 -39 83t-97 31q-69 0 -115 -41t-46 -97q0 -51 40 -82t96 -31q69 0 115 41.5t46 95.5z" />
    <glyph glyph-name="nine" unicode="9" horiz-adv-x="477" 
d="M282 622q80 0 134.5 -53t54.5 -135q0 -81 -64 -161l-219 -273h-36l193 241q-42 -26 -90 -26q-83 0 -136 53.5t-53 132.5q0 92 64.5 156.5t151.5 64.5zM282 593q-74 0 -129.5 -55.5t-55.5 -136.5q0 -67 44.5 -112t113.5 -45q74 0 129.5 54.5t55.5 135.5q0 67 -45 113
t-113 46z" />
    <glyph glyph-name="colon" unicode=":" horiz-adv-x="118" 
d="M2 25q0 11 7.5 19t18.5 8t18.5 -8t7.5 -19t-7.5 -19t-18.5 -8t-18.5 8t-7.5 19zM62 365q0 11 7.5 19t18.5 8t18.5 -8t7.5 -19t-7.5 -19t-18.5 -8t-18.5 8t-7.5 19z" />
    <glyph glyph-name="semicolon" unicode=";" horiz-adv-x="118" 
d="M-45 -97l66 98q-19 3 -19 24q0 11 7.5 19t18.5 8t18.5 -8t7.5 -19q0 -12 -11 -29l-63 -93h-25zM62 365q0 11 7.5 19t18.5 8t18.5 -8t7.5 -19t-7.5 -19t-18.5 -8t-18.5 8t-7.5 19z" />
    <glyph glyph-name="less" unicode="&#x3c;" horiz-adv-x="379" 
d="M64 279l4 24l285 149l-6 -34l-251 -129l205 -129l-5 -30z" />
    <glyph glyph-name="equal" unicode="=" 
d="M70 219l5 29h356l-5 -29h-356zM91 339l5 29h356l-5 -29h-356z" />
    <glyph glyph-name="greater" unicode="&#x3e;" horiz-adv-x="379" 
d="M337 303l-4 -24l-285 -149l6 34l251 129l-205 129l5 30z" />
    <glyph glyph-name="question" unicode="?" horiz-adv-x="414" 
d="M264 299q6 6 27 25.5t30.5 28.5t26 28.5t24 33.5t14 34.5t6.5 40.5q0 48 -30.5 75.5t-86.5 27.5q-97 0 -196 -95l7 40q37 36 87.5 60t101.5 24q70 0 108.5 -35t38.5 -97q0 -28 -7.5 -52.5t-25 -47.5t-30.5 -37t-40 -39t-38 -36q-25 -25 -37 -42t-19 -43h-29q12 52 68 106
zM149 25q0 11 7.5 19t18.5 8t18.5 -8t7.5 -19t-7.5 -19t-18.5 -8t-18.5 8t-7.5 19z" />
    <glyph glyph-name="at" unicode="@" horiz-adv-x="774" 
d="M552 379l-64 -264q-15 -64 49 -64q71 0 121.5 62t50.5 171q0 108 -76.5 177t-201.5 69q-157 0 -260.5 -109.5t-103.5 -264.5q0 -138 93.5 -210.5t229.5 -72.5q116 0 208 44l-3 -29q-95 -42 -206 -42q-70 0 -132 18.5t-111.5 55t-78.5 97t-29 139.5q0 167 112 284.5
t282 117.5q138 0 222 -77.5t84 -196.5q0 -122 -61 -191t-142 -69q-35 0 -57 17t-23 48q-54 -62 -118 -62q-58 0 -88 35.5t-30 94.5q0 88 55 158.5t138 70.5q36 0 61.5 -19t36.5 -45l14 57h28zM464 133l35 149q-10 34 -33 55.5t-55 21.5q-71 0 -117.5 -64t-46.5 -138
q0 -48 25 -75.5t67 -27.5q65 0 125 79z" />
    <glyph glyph-name="A" unicode="A" horiz-adv-x="567" 
d="M357 614h28l124 -614h-30l-43 215h-285l-128 -215h-34zM364 571l-195 -327h261z" />
    <glyph glyph-name="B" unicode="B" horiz-adv-x="513" 
d="M366 317q48 -8 77.5 -42t29.5 -83q0 -89 -63.5 -140.5t-164.5 -51.5h-196l108 614h179q82 0 124 -34.5t42 -98.5q0 -70 -40.5 -110.5t-95.5 -53.5zM138 331h147q86 0 136 38.5t50 111.5q0 103 -141 103h-148zM133 303l-48 -273h171q86 0 136 44.5t50 117.5q0 52 -35 81.5
t-103 29.5h-171z" />
    <glyph glyph-name="C" unicode="C" horiz-adv-x="531" 
d="M454 73l-7 -38q-66 -43 -157 -43q-105 0 -170.5 75t-65.5 195q0 149 89 254.5t229 105.5q101 0 168 -60l-6 -35q-65 65 -162 65q-123 0 -204.5 -95.5t-81.5 -234.5q0 -107 56.5 -173.5t147.5 -66.5t164 51z" />
    <glyph glyph-name="D" unicode="D" horiz-adv-x="604" 
d="M85 30h147q134 0 225.5 93t91.5 238q0 103 -57.5 163t-162.5 60h-147zM49 0l108 614h176q117 0 182.5 -68.5t65.5 -184.5q0 -159 -103.5 -260t-252.5 -101h-176z" />
    <glyph glyph-name="E" unicode="E" horiz-adv-x="516" 
d="M157 614h373l-6 -30h-342l-44 -253h310l-5 -29h-310l-48 -272h342l-5 -30h-373z" />
    <glyph glyph-name="F" unicode="F" horiz-adv-x="465" 
d="M80 0h-31l108 614h342l-6 -30h-311l-44 -254h296l-5 -29h-296z" />
    <glyph glyph-name="G" unicode="G" horiz-adv-x="582" 
d="M300 -8q-111 0 -178.5 74.5t-67.5 195.5q0 149 89 254.5t229 105.5q112 0 188 -68l-6 -35q-73 73 -182 73q-123 0 -204.5 -95.5t-81.5 -234.5q0 -108 58 -174t156 -66q100 0 171 55l36 201h-169l5 27h198l-42 -240q-80 -73 -199 -73z" />
    <glyph glyph-name="H" unicode="H" horiz-adv-x="648" 
d="M608 614h31l-108 -614h-31l53 302h-420l-53 -302h-31l108 614h31l-50 -282h420z" />
    <glyph glyph-name="I" unicode="I" horiz-adv-x="197" 
d="M188 614l-108 -614h-31l108 614h31z" />
    <glyph glyph-name="J" unicode="J" horiz-adv-x="367" 
d="M-6 36l6 34q50 -48 114 -48q63 0 96.5 35t48.5 122l77 435h31l-77 -435q-18 -100 -60 -143.5t-116 -43.5q-38 0 -70.5 13.5t-49.5 30.5z" />
    <glyph glyph-name="K" unicode="K" horiz-adv-x="520" 
d="M188 614l-50 -285l382 285h46l-403 -299l303 -315h-41l-292 303l-53 -303h-31l108 614h31z" />
    <glyph glyph-name="L" unicode="L" horiz-adv-x="502" 
d="M49 0l108 614h31l-103 -584h348l-5 -30h-379z" />
    <glyph glyph-name="M" unicode="M" horiz-adv-x="724" 
d="M355 145h-3l-176 408l-97 -553h-30l108 614h24l180 -417l329 417h25l-108 -614h-30l96 547z" />
    <glyph glyph-name="N" unicode="N" horiz-adv-x="611" 
d="M602 614l-108 -614h-17l-298 570l-100 -570h-30l108 614h30l288 -549l97 549h30z" />
    <glyph glyph-name="O" unicode="O" horiz-adv-x="614" 
d="M284 22q83 0 147 49.5t96 124.5t32 160q0 104 -54.5 170t-144.5 66q-83 0 -147 -49.5t-96 -124.5t-32 -160q0 -104 54.5 -170t144.5 -66zM284 -8q-100 0 -165.5 73.5t-65.5 192.5q0 90 35 172t107 137t165 55q100 0 165.5 -73.5t65.5 -192.5q0 -90 -35 -172t-107 -137
t-165 -55z" />
    <glyph glyph-name="P" unicode="P" horiz-adv-x="523" 
d="M314 279h-185l-49 -279h-31l108 614h214q77 0 119.5 -36t42.5 -105q0 -93 -60.5 -143.5t-158.5 -50.5zM183 584l-49 -275h184q85 0 134.5 42.5t49.5 121.5q0 54 -35 82.5t-103 28.5h-181z" />
    <glyph glyph-name="Q" unicode="Q" horiz-adv-x="614" 
d="M288 -8q-101 0 -167.5 75t-66.5 196q0 89 34.5 170t105.5 135t163 54q101 0 167.5 -75t66.5 -196q0 -88 -35.5 -169.5t-99.5 -132.5l35 -59l-24 -15l-34 58q-65 -41 -145 -41zM288 22q73 0 130 37l-44 75l24 14l43 -73q56 45 87 120t31 156q0 106 -56 173.5t-146 67.5
q-83 0 -146.5 -49.5t-94 -123t-30.5 -156.5q0 -106 56 -173.5t146 -67.5z" />
    <glyph glyph-name="R" unicode="R" horiz-adv-x="541" 
d="M304 280h-175l-49 -280h-31l108 614h202q76 0 121.5 -37t45.5 -105q0 -83 -52 -133t-137 -58l138 -281h-32zM182 584l-48 -275h177q85 0 134.5 43t49.5 120q0 54 -37.5 83t-106.5 29h-169z" />
    <glyph glyph-name="S" unicode="S" horiz-adv-x="464" 
d="M16 57l7 38q65 -73 171 -73q82 0 132.5 41.5t50.5 109.5q0 36 -22.5 60t-75.5 49l-84 40q-30 14 -50 27t-38.5 40.5t-18.5 61.5q0 82 62 126.5t144 44.5q101 0 159 -52l-7 -37q-58 59 -152 59q-74 0 -124.5 -36.5t-50.5 -104.5q0 -35 24.5 -58.5t73.5 -46.5l86 -41
q105 -50 105 -132q0 -80 -61.5 -130.5t-152.5 -50.5q-118 0 -178 65z" />
    <glyph glyph-name="T" unicode="T" horiz-adv-x="558" 
d="M95 584l6 30h496l-6 -30h-233l-102 -584h-31l102 584h-232z" />
    <glyph glyph-name="U" unicode="U" horiz-adv-x="604" 
d="M277 -8q-91 0 -149 51t-58 144q0 22 5 54l66 373h31l-65 -368q-5 -32 -5 -54q0 -84 49 -127.5t126 -43.5q90 0 150 56.5t80 168.5l65 368h31l-66 -373q-22 -124 -90.5 -186.5t-169.5 -62.5z" />
    <glyph glyph-name="V" unicode="V" horiz-adv-x="567" 
d="M246 0h-26l-122 614h31l112 -567l343 567h33z" />
    <glyph glyph-name="W" unicode="W" horiz-adv-x="753" 
d="M437 614h26l47 -557l262 557h31l-289 -614h-27l-48 555l-261 -555h-27l-53 614h30l47 -557z" />
    <glyph glyph-name="X" unicode="X" horiz-adv-x="534" 
d="M572 614l-271 -304l157 -310h-33l-145 286l-256 -286h-38l281 314l-153 300h33l141 -276l246 276h38z" />
    <glyph glyph-name="Y" unicode="Y" horiz-adv-x="519" 
d="M272 297l261 317h36l-285 -346l-47 -268h-31l47 268l-163 346h33z" />
    <glyph glyph-name="Z" unicode="Z" horiz-adv-x="509" 
d="M437 30l-5 -30h-447v4l514 580h-380l6 30h435v-4l-513 -580h390z" />
    <glyph glyph-name="bracketleft" unicode="[" horiz-adv-x="310" 
d="M184 622l-119 -678h168l-5 -28h-197l129 734h197l-5 -28h-168z" />
    <glyph glyph-name="backslash" unicode="\" horiz-adv-x="287" 
d="M118 650l119 -734h-29l-119 734h29z" />
    <glyph glyph-name="bracketright" unicode="]" horiz-adv-x="310" 
d="M144 -56l119 678h-168l5 28h197l-129 -734h-197l5 28h168z" />
    <glyph glyph-name="asciicircum" unicode="^" horiz-adv-x="294" 
d="M195 614h20l77 -171h-33l-59 130l-105 -130h-37z" />
    <glyph glyph-name="underscore" unicode="_" horiz-adv-x="341" 
d="M-20 -71l5 29h301l-5 -29h-301z" />
    <glyph glyph-name="grave" unicode="`" 
d="M298 523h-29l-63 127h29z" />
    <glyph glyph-name="a" unicode="a" horiz-adv-x="426" 
d="M322 201l20 116q2 16 2 23q0 39 -24.5 61.5t-68.5 22.5q-73 0 -142 -42l6 34q61 36 136 36q58 0 91 -29t33 -80q0 -11 -3 -29l-55 -314h-30l8 48q-22 -23 -58.5 -39t-74.5 -16q-63 0 -104 35.5t-41 88.5q0 64 51 104t120 40q46 0 81.5 -18.5t52.5 -41.5zM303 95l12 64
q-9 31 -44 52.5t-83 21.5q-55 0 -98 -30.5t-43 -85.5q0 -43 33.5 -69.5t81.5 -26.5q47 0 85.5 21t55.5 53z" />
    <glyph glyph-name="b" unicode="b" horiz-adv-x="485" 
d="M80 79l-14 -79h-30l114 650h30l-50 -283q68 85 156 85q79 0 118.5 -50.5t39.5 -131.5q0 -110 -63 -194t-165 -84q-49 0 -84.5 25.5t-51.5 61.5zM123 324l-36 -204q35 -99 129 -99q63 0 109.5 39.5t67 94.5t20.5 115q0 71 -32 112t-95 41q-93 0 -163 -99z" />
    <glyph glyph-name="c" unicode="c" horiz-adv-x="400" 
d="M331 59l-7 -36q-46 -31 -113 -31q-80 0 -125.5 50t-45.5 135q0 122 69 198.5t168 76.5q78 0 116 -41l-6 -33q-43 46 -110 46q-81 0 -143.5 -67.5t-62.5 -179.5q0 -70 37.5 -113.5t103.5 -43.5q62 0 119 39z" />
    <glyph glyph-name="d" unicode="d" horiz-adv-x="485" 
d="M405 365l50 285h30l-114 -650h-30l14 77q-68 -85 -156 -85q-79 0 -118.5 50.5t-39.5 131.5q0 110 63 194t165 84q49 0 84.5 -25.5t51.5 -61.5zM362 120l36 204q-35 99 -129 99q-63 0 -109.5 -39.5t-67 -94.5t-20.5 -115q0 -71 32 -112t95 -41q93 0 163 99z" />
    <glyph glyph-name="e" unicode="e" horiz-adv-x="440" 
d="M403 225h-328q-3 -23 -3 -46q0 -75 38 -117.5t104 -42.5q74 0 134 45l-7 -36q-50 -36 -127 -36q-82 0 -127.5 50t-45.5 137q0 66 24.5 127t77.5 103.5t122 42.5q72 0 108 -43t36 -121q0 -30 -6 -63zM265 424q-68 0 -117.5 -49t-67.5 -123h296q3 20 3 38q0 58 -27.5 96
t-86.5 38z" />
    <glyph glyph-name="f" unicode="f" horiz-adv-x="236" 
d="M330 651l-5 -29q-21 8 -42 8q-40 0 -68.5 -27.5t-37.5 -78.5l-14 -80h107l-5 -28h-107l-73 -416h-30l73 416h-70l5 28h70l15 84q10 58 46.5 94t88.5 36q29 0 47 -7z" />
    <glyph glyph-name="g" unicode="g" horiz-adv-x="479" 
d="M346 27l11 59q-68 -84 -154 -84q-80 0 -121 49.5t-41 128.5q0 107 63 189.5t165 82.5q49 0 84.5 -25.5t51.5 -61.5l14 79h30l-73 -414q-18 -103 -75.5 -156t-141.5 -53q-43 0 -82 14t-59 34l6 34q49 -53 135 -53q73 0 122 44t65 133zM364 131l34 193q-36 99 -129 99
q-63 0 -109.5 -38.5t-67 -92t-20.5 -112.5q0 -68 34 -108.5t97 -40.5q88 0 161 100z" />
    <glyph glyph-name="h" unicode="h" horiz-adv-x="479" 
d="M295 452q62 0 96 -33t34 -89q0 -16 -3 -34l-52 -296h-30l51 292q3 18 3 33q0 45 -25 71.5t-74 26.5q-53 0 -99 -30t-74 -75l-56 -318h-30l114 650h30l-51 -288q30 39 74 64.5t92 25.5z" />
    <glyph glyph-name="i" unicode="i" horiz-adv-x="180" 
d="M144 444l-78 -444h-30l78 444h30zM175 579q0 -10 -6.5 -17t-16.5 -7t-16.5 7t-6.5 17t6.5 17t16.5 7t16.5 -7t6.5 -17z" />
    <glyph glyph-name="j" unicode="j" horiz-adv-x="180" 
d="M-81 -176l5 28q8 -2 17 -2q34 0 53.5 17.5t28.5 63.5l91 513h30l-91 -517q-19 -105 -112 -105q-14 0 -22 2zM175 579q0 -10 -6.5 -17t-16.5 -7t-16.5 7t-6.5 17t6.5 17t16.5 7t16.5 -7t6.5 -17z" />
    <glyph glyph-name="k" unicode="k" horiz-adv-x="411" 
d="M142 237l215 -237h-37l-213 232l-41 -232h-30l114 650h30l-71 -403l277 197h45z" />
    <glyph glyph-name="l" unicode="l" horiz-adv-x="180" 
d="M180 650l-114 -650h-30l114 650h30z" />
    <glyph glyph-name="m" unicode="m" horiz-adv-x="709" 
d="M388 359q72 93 157 93q55 0 83 -30.5t28 -83.5q0 -13 -4 -41l-52 -297h-30l51 293q4 28 4 40q0 90 -84 90q-90 0 -152 -104l-56 -319h-30l51 293q4 28 4 40q0 90 -84 90q-90 0 -152 -104l-56 -319h-30l78 444h30l-14 -80q62 88 148 88q98 0 110 -93z" />
    <glyph glyph-name="n" unicode="n" horiz-adv-x="479" 
d="M36 0l78 444h30l-14 -82q30 39 73.5 64.5t91.5 25.5q62 0 96 -33t34 -89q0 -16 -3 -34l-52 -296h-30l51 292q3 18 3 33q0 45 -25 71.5t-74 26.5q-53 0 -99 -30t-74 -75l-56 -318h-30z" />
    <glyph glyph-name="o" unicode="o" horiz-adv-x="466" 
d="M207 20q80 0 133.5 67.5t53.5 177.5q0 73 -36.5 116t-98.5 43q-80 0 -133.5 -67.5t-53.5 -177.5q0 -73 36.5 -116t98.5 -43zM207 -8q-77 0 -121.5 51t-44.5 136q0 120 62.5 196.5t155.5 76.5q77 0 121.5 -51t44.5 -136q0 -120 -62.5 -196.5t-155.5 -76.5z" />
    <glyph glyph-name="p" unicode="p" horiz-adv-x="485" 
d="M80 79l-44 -249h-30l108 614h30l-14 -77q68 85 156 85q79 0 118.5 -50.5t39.5 -131.5q0 -110 -63 -194t-165 -84q-49 0 -84.5 25.5t-51.5 61.5zM123 324l-36 -204q35 -99 129 -99q63 0 109.5 39.5t67 94.5t20.5 115q0 71 -32 112t-95 41q-93 0 -163 -99z" />
    <glyph glyph-name="q" unicode="q" horiz-adv-x="485" 
d="M405 365l14 79h30l-108 -614h-30l44 247q-68 -85 -156 -85q-79 0 -118.5 50.5t-39.5 131.5q0 110 63 194t165 84q49 0 84.5 -25.5t51.5 -61.5zM362 120l36 204q-35 99 -129 99q-63 0 -109.5 -39.5t-67 -94.5t-20.5 -115q0 -71 32 -112t95 -41q93 0 163 99z" />
    <glyph glyph-name="r" unicode="r" horiz-adv-x="286" 
d="M307 447l-5 -28q-15 5 -33 5q-43 0 -81 -29t-66 -76l-56 -319h-30l78 444h30l-14 -81q24 39 62.5 64t81.5 25q18 0 33 -5z" />
    <glyph glyph-name="s" unicode="s" horiz-adv-x="371" 
d="M12 42l7 35q54 -57 135 -57q55 0 92 27t37 79q0 45 -62 71l-79 34q-39 17 -59 38.5t-20 57.5q0 54 43 89.5t106 35.5q75 0 132 -48l-6 -34q-54 54 -126 54q-49 0 -83.5 -27t-34.5 -70q0 -26 16.5 -41.5t52.5 -30.5l81 -35q70 -30 70 -94q0 -59 -45.5 -96.5t-114.5 -37.5
q-85 0 -142 50z" />
    <glyph glyph-name="t" unicode="t" horiz-adv-x="274" 
d="M181 416l-73 -416h-30l73 416h-97l5 28h97l20 112h30l-20 -112h107l-5 -28h-107z" />
    <glyph glyph-name="u" unicode="u" horiz-adv-x="477" 
d="M439 444l-78 -444h-30l14 82q-30 -39 -73.5 -64.5t-91.5 -25.5q-61 0 -94.5 32.5t-33.5 88.5q0 17 3 35l52 296h30l-51 -292q-3 -18 -3 -35q0 -45 24 -70.5t73 -25.5q53 0 99 30t74 75l56 318h30z" />
    <glyph glyph-name="v" unicode="v" horiz-adv-x="416" 
d="M169 0h-20l-92 444h31l79 -396l238 396h32z" />
    <glyph glyph-name="w" unicode="w" horiz-adv-x="586" 
d="M342 444l38 -385l197 385h30l-227 -444h-21l-38 389l-198 -389h-21l-45 444h28l40 -385l195 385h22z" />
    <glyph glyph-name="x" unicode="x" horiz-adv-x="418" 
d="M430 444l-202 -220l120 -224h-31l-109 203l-185 -203h-36l208 227l-115 217h31l104 -196l179 196h36z" />
    <glyph glyph-name="y" unicode="y" horiz-adv-x="416" 
d="M67 -170h-32l111 184l-89 430h31l79 -394l237 394h33z" />
    <glyph glyph-name="z" unicode="z" horiz-adv-x="411" 
d="M327 28l-4 -28h-334v4l374 412h-269l5 28h322v-4l-373 -412h279z" />
    <glyph glyph-name="braceleft" unicode="{" horiz-adv-x="330" 
d="M136 218l-39 -223q-9 -51 38 -51h118l-5 -28h-118q-33 0 -50.5 22t-11.5 57l39 223q9 51 -38 51h-39l5 28h39q47 0 56 51l39 223q6 35 31.5 57t58.5 22h118l-5 -28h-118q-47 0 -56 -51l-39 -223q-8 -45 -49 -66q33 -23 26 -64z" />
    <glyph glyph-name="bar" unicode="|" horiz-adv-x="195" 
d="M33 -84l129 734h29l-129 -734h-29z" />
    <glyph glyph-name="braceright" unicode="}" horiz-adv-x="330" 
d="M212 348l39 223q9 51 -38 51h-118l5 28h118q33 0 50.5 -22t11.5 -57l-39 -223q-9 -51 38 -51h39l-5 -28h-39q-47 0 -56 -51l-39 -223q-6 -35 -31.5 -57t-58.5 -22h-118l5 28h118q47 0 56 51l39 223q8 45 49 66q-33 23 -26 64z" />
    <glyph glyph-name="asciitilde" unicode="~" horiz-adv-x="397" 
d="M341 324h32q-8 -47 -34.5 -74.5t-66.5 -27.5q-22 0 -42 11.5t-32 26t-28 26t-33 11.5q-26 0 -43.5 -19.5t-23.5 -51.5h-32q8 47 35 74.5t67 27.5q27 0 50 -19t43.5 -38t41.5 -19q26 0 43 19.5t23 52.5z" />
    <glyph glyph-name="uni00A0" unicode="&#xa0;" horiz-adv-x="221" 
 />
    <glyph glyph-name="exclamdown" unicode="&#xa1;" horiz-adv-x="208" 
d="M151 326l-71 -422h-32l79 422h24zM197 493q0 -11 -7.5 -19t-18.5 -8t-18.5 8t-7.5 19t7.5 19t18.5 8t18.5 -8t7.5 -19z" />
    <glyph glyph-name="cent" unicode="&#xa2;" horiz-adv-x="400" 
d="M165 -82l15 86q-64 11 -99 59t-35 123q0 114 62 189.5t153 83.5l16 95h28l-16 -93q72 -2 110 -41l-6 -33q-43 46 -110 46q-81 0 -143.5 -67.5t-62.5 -179.5q0 -70 37.5 -113.5t103.5 -43.5q64 0 118 37l-6 -34q-46 -31 -113 -31h-10l-14 -83h-28z" />
    <glyph glyph-name="sterling" unicode="&#xa3;" horiz-adv-x="453" 
d="M42 288l5 28h94l16 92q18 102 72 158t142 56q74 0 112 -29l-5 -31q-43 31 -107 31q-152 0 -183 -184l-17 -93h180l-5 -28h-180l-29 -167q-10 -56 -41 -91h305l-5 -30h-404l5 30h68q33 42 42 91l29 167h-94z" />
    <glyph glyph-name="yen" unicode="&#xa5;" horiz-adv-x="503" 
d="M65 151l5 27h156l15 83h-156l4 27h157l-146 326h32l132 -298l238 298h37l-262 -326h157l-4 -27h-158l-15 -83h158l-5 -27h-157l-26 -151h-31l26 151h-157z" />
    <glyph glyph-name="section" unicode="&#xa7;" horiz-adv-x="442" 
d="M322 281l-163 128q-31 -10 -55.5 -36t-24.5 -62q0 -22 13.5 -38.5t43.5 -39.5l163 -128q31 10 55.5 36t24.5 62q0 22 -13.5 38.5t-43.5 39.5zM145 431q-15 25 -15 53q0 63 47 100.5t110 37.5q80 0 127 -41l-6 -35q-53 48 -121 48q-51 0 -88.5 -29t-37.5 -80q0 -23 11 -39
t40 -39l130 -102q24 -19 35.5 -30t22 -30.5t10.5 -41.5q0 -41 -27.5 -73.5t-69.5 -46.5q15 -25 15 -53q0 -63 -47 -100.5t-110 -37.5q-80 0 -127 41l6 35q53 -48 121 -48q51 0 88.5 29t37.5 80q0 23 -11 39t-40 39l-130 102q-24 19 -35.5 30t-22 30.5t-10.5 41.5
q0 41 27.5 73.5t69.5 46.5z" />
    <glyph glyph-name="dieresis" unicode="&#xa8;" 
d="M170 570q0 10 6.5 16.5t16.5 6.5t16.5 -6.5t6.5 -16.5t-6.5 -16.5t-16.5 -6.5t-16.5 6.5t-6.5 16.5zM284 570q0 10 6.5 16.5t16.5 6.5t16.5 -6.5t6.5 -16.5t-6.5 -16.5t-16.5 -6.5t-16.5 6.5t-6.5 16.5z" />
    <glyph glyph-name="copyright" unicode="&#xa9;" horiz-adv-x="710" 
d="M689 307q0 -136 -91.5 -225.5t-223.5 -89.5t-223.5 89.5t-91.5 225.5t91.5 225.5t223.5 89.5t223.5 -89.5t91.5 -225.5zM663 307q0 124 -84 206.5t-205 82.5t-205 -82.5t-84 -206.5t84 -206.5t205 -82.5t205 82.5t84 206.5zM202 309q0 90 50 144.5t125 54.5q63 0 106 -33
v-35q-45 39 -105 39q-63 0 -104 -46.5t-41 -123.5t41 -123.5t104 -46.5q60 0 105 39v-35q-43 -33 -106 -33q-75 0 -125 54.5t-50 144.5z" />
    <glyph glyph-name="ordfeminine" unicode="&#xaa;" horiz-adv-x="276" 
d="M249 461l12 65q0 3 0.5 8.5t0.5 7.5q0 52 -61 52q-47 0 -93 -27l5 30q39 24 92 24q41 0 64 -19.5t23 -54.5q0 -4 -1 -11.5t-1 -9.5l-36 -205h-29l5 29q-34 -34 -85 -34q-42 0 -69.5 23t-27.5 60q0 43 34.5 70.5t82.5 27.5q57 0 84 -36zM236 387l7 39q-5 19 -27 32t-51 13
q-35 0 -62 -18.5t-27 -52.5q0 -26 21 -42t51 -16q29 0 53 12.5t35 32.5z" />
    <glyph glyph-name="guillemotleft" unicode="&#xab;" horiz-adv-x="283" 
d="M133 94h-30l-69 128l114 128h36l-117 -131zM241 94h-30l-69 128l114 128h36l-117 -131z" />
    <glyph glyph-name="registered" unicode="&#xae;" horiz-adv-x="422" 
d="M425 439q0 -78 -53 -130.5t-128 -52.5t-128 52.5t-53 130.5t53 130.5t128 52.5t128 -52.5t53 -130.5zM399 439q0 67 -45 112t-110 45t-110 -45t-45 -112t45 -112t110 -45t110 45t45 112zM240 424h-33v-78h-27v192h74q30 0 47.5 -15t17.5 -42q0 -23 -13.5 -37.5
t-35.5 -18.5l56 -79h-32zM292 481q0 13 -9.5 22t-25.5 9h-50v-62h50q16 0 25.5 9t9.5 22z" />
    <glyph glyph-name="macron" unicode="&#xaf;" 
d="M151 542l5 27h193l-5 -27h-193z" />
    <glyph glyph-name="degree" unicode="&#xb0;" horiz-adv-x="302" 
d="M194 622q42 0 70.5 -28t28.5 -70q0 -49 -31.5 -82.5t-79.5 -33.5q-42 0 -70.5 28t-28.5 70q0 49 31.5 82.5t79.5 33.5zM192 594q-32 0 -56 -25t-24 -63q0 -31 20.5 -50.5t51.5 -19.5q32 0 56 25t24 63q0 31 -20.5 50.5t-51.5 19.5z" />
    <glyph glyph-name="plusminus" unicode="&#xb1;" horiz-adv-x="495" 
d="M277 478h29l-22 -123h163l-5 -29h-163l-22 -123h-29l22 123h-163l5 29h163zM50 116l5 29h355l-5 -29h-355z" />
    <glyph glyph-name="twosuperior" unicode="&#xb2;" horiz-adv-x="274" 
d="M95 314h152l-5 -27h-207v2l127 125q3 3 17 16.5t20 19t17.5 19t16.5 23t9.5 22.5t4.5 26q0 52 -58 52q-48 0 -102 -46l6 33q46 41 102 41q39 0 60 -20.5t21 -55.5q0 -11 -2.5 -21.5t-5 -19t-10 -19.5t-11.5 -17t-15 -18t-15 -16l-17.5 -17.5l-16.5 -16.5z" />
    <glyph glyph-name="threesuperior" unicode="&#xb3;" horiz-adv-x="273" 
d="M95 587l5 27h193v-2l-116 -130q35 -3 57.5 -26t22.5 -59q0 -48 -36 -82t-87 -34q-52 0 -88 30l6 32q29 -35 82 -35q39 0 67 25t28 64q0 30 -23 48t-61 18h-14v2l109 122h-145z" />
    <glyph glyph-name="acute" unicode="&#xb4;" 
d="M214 523h-34l107 127h34z" />
    <glyph glyph-name="paragraph" unicode="&#xb6;" horiz-adv-x="415" 
d="M253 -90l124 704h29l-124 -704h-29zM158 -90l80 456q-68 0 -118 29.5t-50 81.5q0 47 34.5 79.5t80.5 45t97 12.5h29l-124 -704h-29z" />
    <glyph glyph-name="periodcentered" unicode="&#xb7;" horiz-adv-x="132" 
d="M39 260q0 11 7.5 19t18.5 8t18.5 -8t7.5 -19t-7.5 -19t-18.5 -8t-18.5 8t-7.5 19z" />
    <glyph glyph-name="cedilla" unicode="&#xb8;" 
d="M226 -170h-31l76 124h31z" />
    <glyph glyph-name="onesuperior" unicode="&#xb9;" horiz-adv-x="212" 
d="M200 616l-58 -329h-29l51 292l-93 -43l6 31l105 49h18z" />
    <glyph glyph-name="ordmasculine" unicode="&#xba;" horiz-adv-x="300" 
d="M176 342q50 0 83 42.5t33 111.5q0 45 -22.5 72t-61.5 27q-50 0 -83 -42.5t-33 -111.5q0 -45 22.5 -72t61.5 -27zM175 315q-52 0 -82.5 34.5t-30.5 91.5q0 79 42 129.5t105 50.5q52 0 82.5 -34t30.5 -91q0 -79 -42 -130t-105 -51z" />
    <glyph glyph-name="guillemotright" unicode="&#xbb;" horiz-adv-x="283" 
d="M160 350h30l69 -128l-114 -128h-36l117 131zM52 350h30l69 -128l-114 -128h-36l117 131z" />
    <glyph glyph-name="onequarter" unicode="&#xbc;" horiz-adv-x="626" 
d="M494 328l-142 -223h114l14 81h28l-14 -81h60l-5 -26h-60l-13 -79h-28l13 79h-155l1 3l158 246h29zM586 614l-517 -614h-32l517 614h32zM234 616l-58 -329h-29l52 293l-93 -44l5 31l105 49h18z" />
    <glyph glyph-name="onehalf" unicode="&#xbd;" horiz-adv-x="632" 
d="M586 614l-517 -614h-32l517 614h32zM234 616l-58 -329h-29l52 293l-93 -44l5 31l105 49h18zM391 27h152l-5 -27h-207v2l127 125q3 3 17 16.5t20 19t17.5 19t16.5 23t9.5 22.5t4.5 26q0 52 -58 52q-48 0 -102 -46l6 33q46 41 102 41q39 0 60 -20.5t21 -55.5
q0 -27 -15.5 -55t-30.5 -43.5t-47 -46.5z" />
    <glyph glyph-name="threequarters" unicode="&#xbe;" horiz-adv-x="656" 
d="M617 614l-517 -614h-32l517 614h32zM116 587l5 27h193v-2l-116 -130q35 -3 57.5 -26t22.5 -59q0 -48 -36 -82t-87 -34q-52 0 -88 30l6 32q29 -35 82 -35q39 0 67 25t28 64q0 30 -23 48t-61 18h-14v2l109 122h-145zM524 328l-142 -223h114l14 81h28l-14 -81h60l-5 -26h-60
l-13 -79h-28l13 79h-155l1 3l158 246h29z" />
    <glyph glyph-name="questiondown" unicode="&#xbf;" horiz-adv-x="414" 
d="M180 219q-6 -6 -27 -25.5t-30.5 -28.5t-26 -28.5t-24 -33.5t-14 -34.5t-6.5 -40.5q0 -48 30.5 -75.5t86.5 -27.5q97 0 196 95l-7 -40q-37 -36 -87.5 -60t-101.5 -24q-70 0 -108.5 35t-38.5 97q0 28 7.5 52.5t25 47.5t30.5 37t40 39t38 36q25 25 37 42t19 43h29
q-12 -52 -68 -106zM295 493q0 -11 -7.5 -19t-18.5 -8t-18.5 8t-7.5 19t7.5 19t18.5 8t18.5 -8t7.5 -19z" />
    <glyph glyph-name="Agrave" unicode="&#xc0;" horiz-adv-x="567" 
d="M357 614h28l124 -614h-30l-43 215h-285l-128 -215h-34zM364 571l-195 -327h261zM396 663h-30l-64 117h30z" />
    <glyph glyph-name="Aacute" unicode="&#xc1;" horiz-adv-x="567" 
d="M357 614h28l124 -614h-30l-43 215h-285l-128 -215h-34zM364 571l-195 -327h261zM395 663h-35l106 117h35z" />
    <glyph glyph-name="Acircumflex" unicode="&#xc2;" horiz-adv-x="567" 
d="M357 614h28l124 -614h-30l-43 215h-285l-128 -215h-34zM364 571l-195 -327h261zM412 783l70 -117h-29l-57 92l-89 -92h-33l112 117h26z" />
    <glyph glyph-name="Atilde" unicode="&#xc3;" horiz-adv-x="567" 
d="M357 614h28l124 -614h-30l-43 215h-285l-128 -215h-34zM364 571l-195 -327h261zM490 759h26q-18 -95 -79 -95q-21 0 -38 17.5t-31.5 35t-29.5 17.5q-38 0 -50 -67h-26q8 44 28.5 69.5t50.5 25.5q27 0 54 -35t45 -35q38 0 50 67z" />
    <glyph glyph-name="Adieresis" unicode="&#xc4;" horiz-adv-x="567" 
d="M357 614h28l124 -614h-30l-43 215h-285l-128 -215h-34zM364 571l-195 -327h261zM308 710q0 10 6.5 16.5t16.5 6.5t16.5 -6.5t6.5 -16.5t-6.5 -16.5t-16.5 -6.5t-16.5 6.5t-6.5 16.5zM422 710q0 10 6.5 16.5t16.5 6.5t16.5 -6.5t6.5 -16.5t-6.5 -16.5t-16.5 -6.5
t-16.5 6.5t-6.5 16.5z" />
    <glyph glyph-name="Aring" unicode="&#xc5;" horiz-adv-x="567" 
d="M357 614h28l124 -614h-30l-43 215h-285l-128 -215h-34zM364 571l-195 -327h261zM383 647q-31 0 -52.5 21t-21.5 52q0 33 23 57t57 24q31 0 52.5 -21t21.5 -52q0 -33 -23 -57t-57 -24zM384 672q22 0 38 15.5t16 38.5q0 21 -14.5 35.5t-35.5 14.5q-22 0 -38 -15.5
t-16 -38.5q0 -21 14.5 -35.5t35.5 -14.5z" />
    <glyph glyph-name="AE" unicode="&#xc6;" horiz-adv-x="865" 
d="M496 614h383l-6 -30h-332l-44 -253h300l-5 -29h-300l-48 -272h332l-5 -30h-363l37 215h-242l-178 -215h-36zM511 587l-284 -343h223z" />
    <glyph glyph-name="Ccedilla" unicode="&#xc7;" horiz-adv-x="531" 
d="M454 73l-7 -38q-66 -43 -157 -43q-105 0 -170.5 75t-65.5 195q0 149 89 254.5t229 105.5q101 0 168 -60l-6 -35q-65 65 -162 65q-123 0 -204.5 -95.5t-81.5 -234.5q0 -107 56.5 -173.5t147.5 -66.5t164 51zM210 -170h-31l76 124h31z" />
    <glyph glyph-name="Egrave" unicode="&#xc8;" horiz-adv-x="516" 
d="M157 614h373l-6 -30h-342l-44 -253h310l-5 -29h-310l-48 -272h342l-5 -30h-373zM376 663h-30l-64 117h30z" />
    <glyph glyph-name="Eacute" unicode="&#xc9;" horiz-adv-x="516" 
d="M157 614h373l-6 -30h-342l-44 -253h310l-5 -29h-310l-48 -272h342l-5 -30h-373zM375 663h-35l106 117h35z" />
    <glyph glyph-name="Ecircumflex" unicode="&#xca;" horiz-adv-x="516" 
d="M157 614h373l-6 -30h-342l-44 -253h310l-5 -29h-310l-48 -272h342l-5 -30h-373zM392 783l70 -117h-29l-57 92l-89 -92h-33l112 117h26z" />
    <glyph glyph-name="Edieresis" unicode="&#xcb;" horiz-adv-x="516" 
d="M157 614h373l-6 -30h-342l-44 -253h310l-5 -29h-310l-48 -272h342l-5 -30h-373zM288 710q0 10 6.5 16.5t16.5 6.5t16.5 -6.5t6.5 -16.5t-6.5 -16.5t-16.5 -6.5t-16.5 6.5t-6.5 16.5zM402 710q0 10 6.5 16.5t16.5 6.5t16.5 -6.5t6.5 -16.5t-6.5 -16.5t-16.5 -6.5
t-16.5 6.5t-6.5 16.5z" />
    <glyph glyph-name="Igrave" unicode="&#xcc;" horiz-adv-x="197" 
d="M188 614l-108 -614h-31l108 614h31zM197 663h-30l-64 117h30z" />
    <glyph glyph-name="Iacute" unicode="&#xcd;" horiz-adv-x="197" 
d="M188 614l-108 -614h-31l108 614h31zM196 663h-35l106 117h35z" />
    <glyph glyph-name="Icircumflex" unicode="&#xce;" horiz-adv-x="197" 
d="M188 614l-108 -614h-31l108 614h31zM213 783l70 -117h-29l-57 92l-89 -92h-33l112 117h26z" />
    <glyph glyph-name="Idieresis" unicode="&#xcf;" horiz-adv-x="197" 
d="M188 614l-108 -614h-31l108 614h31zM109 710q0 10 6.5 16.5t16.5 6.5t16.5 -6.5t6.5 -16.5t-6.5 -16.5t-16.5 -6.5t-16.5 6.5t-6.5 16.5zM223 710q0 10 6.5 16.5t16.5 6.5t16.5 -6.5t6.5 -16.5t-6.5 -16.5t-16.5 -6.5t-16.5 6.5t-6.5 16.5z" />
    <glyph glyph-name="Eth" unicode="&#xd0;" horiz-adv-x="616" 
d="M54 304l5 28h60l50 282h176q117 0 182.5 -68.5t65.5 -184.5q0 -159 -103.5 -260t-252.5 -101h-176l53 304h-60zM97 30h147q134 0 225.5 93t91.5 238q0 103 -57.5 163t-162.5 60h-147l-44 -252h135l-5 -28h-135z" />
    <glyph glyph-name="Ntilde" unicode="&#xd1;" horiz-adv-x="611" 
d="M602 614l-108 -614h-17l-298 570l-100 -570h-30l108 614h30l288 -549l97 549h30zM498 759h26q-18 -95 -79 -95q-21 0 -38 17.5t-31.5 35t-29.5 17.5q-38 0 -50 -67h-26q8 44 28.5 69.5t50.5 25.5q27 0 54 -35t45 -35q38 0 50 67z" />
    <glyph glyph-name="Ograve" unicode="&#xd2;" horiz-adv-x="614" 
d="M284 22q83 0 147 49.5t96 124.5t32 160q0 104 -54.5 170t-144.5 66q-83 0 -147 -49.5t-96 -124.5t-32 -160q0 -104 54.5 -170t144.5 -66zM284 -8q-100 0 -165.5 73.5t-65.5 192.5q0 90 35 172t107 137t165 55q100 0 165.5 -73.5t65.5 -192.5q0 -90 -35 -172t-107 -137
t-165 -55zM401 663h-30l-64 117h30z" />
    <glyph glyph-name="Oacute" unicode="&#xd3;" horiz-adv-x="614" 
d="M284 22q83 0 147 49.5t96 124.5t32 160q0 104 -54.5 170t-144.5 66q-83 0 -147 -49.5t-96 -124.5t-32 -160q0 -104 54.5 -170t144.5 -66zM284 -8q-100 0 -165.5 73.5t-65.5 192.5q0 90 35 172t107 137t165 55q100 0 165.5 -73.5t65.5 -192.5q0 -90 -35 -172t-107 -137
t-165 -55zM400 663h-35l106 117h35z" />
    <glyph glyph-name="Ocircumflex" unicode="&#xd4;" horiz-adv-x="614" 
d="M284 22q83 0 147 49.5t96 124.5t32 160q0 104 -54.5 170t-144.5 66q-83 0 -147 -49.5t-96 -124.5t-32 -160q0 -104 54.5 -170t144.5 -66zM284 -8q-100 0 -165.5 73.5t-65.5 192.5q0 90 35 172t107 137t165 55q100 0 165.5 -73.5t65.5 -192.5q0 -90 -35 -172t-107 -137
t-165 -55zM417 783l70 -117h-29l-57 92l-89 -92h-33l112 117h26z" />
    <glyph glyph-name="Otilde" unicode="&#xd5;" horiz-adv-x="614" 
d="M284 22q83 0 147 49.5t96 124.5t32 160q0 104 -54.5 170t-144.5 66q-83 0 -147 -49.5t-96 -124.5t-32 -160q0 -104 54.5 -170t144.5 -66zM284 -8q-100 0 -165.5 73.5t-65.5 192.5q0 90 35 172t107 137t165 55q100 0 165.5 -73.5t65.5 -192.5q0 -90 -35 -172t-107 -137
t-165 -55zM495 759h26q-18 -95 -79 -95q-21 0 -38 17.5t-31.5 35t-29.5 17.5q-38 0 -50 -67h-26q8 44 28.5 69.5t50.5 25.5q26 0 53.5 -35t45.5 -35q38 0 50 67z" />
    <glyph glyph-name="Odieresis" unicode="&#xd6;" horiz-adv-x="614" 
d="M284 22q83 0 147 49.5t96 124.5t32 160q0 104 -54.5 170t-144.5 66q-83 0 -147 -49.5t-96 -124.5t-32 -160q0 -104 54.5 -170t144.5 -66zM284 -8q-100 0 -165.5 73.5t-65.5 192.5q0 90 35 172t107 137t165 55q100 0 165.5 -73.5t65.5 -192.5q0 -90 -35 -172t-107 -137
t-165 -55zM313 710q0 10 6.5 16.5t16.5 6.5t16.5 -6.5t6.5 -16.5t-6.5 -16.5t-16.5 -6.5t-16.5 6.5t-6.5 16.5zM427 710q0 10 6.5 16.5t16.5 6.5t16.5 -6.5t6.5 -16.5t-6.5 -16.5t-16.5 -6.5t-16.5 6.5t-6.5 16.5z" />
    <glyph glyph-name="multiply" unicode="&#xd7;" horiz-adv-x="422" 
d="M205 291l-100 122l21 18l99 -122l141 122l17 -19l-141 -122l98 -122l-21 -18l-99 121l-141 -121l-17 19z" />
    <glyph glyph-name="Oslash" unicode="&#xd8;" horiz-adv-x="624" 
d="M47 0l67 76q-56 74 -56 182q0 90 35 172t107 137t165 55q100 0 164 -72l55 64l22 -18l-60 -68q50 -69 50 -172q0 -90 -35 -172t-107 -137t-165 -55t-156 63l-64 -73zM90 258q0 -97 44 -159l375 429q-54 64 -144 64q-83 0 -147 -49.5t-96 -124.5t-32 -160zM289 22
q83 0 147 49.5t96 124.5t32 160q0 86 -38 149l-374 -428q52 -55 137 -55z" />
    <glyph glyph-name="Ugrave" unicode="&#xd9;" horiz-adv-x="604" 
d="M277 -8q-91 0 -149 51t-58 144q0 22 5 54l66 373h31l-65 -368q-5 -32 -5 -54q0 -84 49 -127.5t126 -43.5q90 0 150 56.5t80 168.5l65 368h31l-66 -373q-22 -124 -90.5 -186.5t-169.5 -62.5zM395 663h-30l-64 117h30z" />
    <glyph glyph-name="Uacute" unicode="&#xda;" horiz-adv-x="604" 
d="M277 -8q-91 0 -149 51t-58 144q0 22 5 54l66 373h31l-65 -368q-5 -32 -5 -54q0 -84 49 -127.5t126 -43.5q90 0 150 56.5t80 168.5l65 368h31l-66 -373q-22 -124 -90.5 -186.5t-169.5 -62.5zM394 663h-35l106 117h35z" />
    <glyph glyph-name="Ucircumflex" unicode="&#xdb;" horiz-adv-x="604" 
d="M277 -8q-91 0 -149 51t-58 144q0 22 5 54l66 373h31l-65 -368q-5 -32 -5 -54q0 -84 49 -127.5t126 -43.5q90 0 150 56.5t80 168.5l65 368h31l-66 -373q-22 -124 -90.5 -186.5t-169.5 -62.5zM411 783l70 -117h-29l-57 92l-89 -92h-33l112 117h26z" />
    <glyph glyph-name="Udieresis" unicode="&#xdc;" horiz-adv-x="604" 
d="M277 -8q-91 0 -149 51t-58 144q0 22 5 54l66 373h31l-65 -368q-5 -32 -5 -54q0 -84 49 -127.5t126 -43.5q90 0 150 56.5t80 168.5l65 368h31l-66 -373q-22 -124 -90.5 -186.5t-169.5 -62.5zM307 710q0 10 6.5 16.5t16.5 6.5t16.5 -6.5t6.5 -16.5t-6.5 -16.5t-16.5 -6.5
t-16.5 6.5t-6.5 16.5zM421 710q0 10 6.5 16.5t16.5 6.5t16.5 -6.5t6.5 -16.5t-6.5 -16.5t-16.5 -6.5t-16.5 6.5t-6.5 16.5z" />
    <glyph glyph-name="Yacute" unicode="&#xdd;" horiz-adv-x="519" 
d="M276 297l261 317h36l-285 -346l-47 -268h-31l47 268l-163 346h33zM359 663h-35l106 117h35z" />
    <glyph glyph-name="Thorn" unicode="&#xde;" horiz-adv-x="523" 
d="M291 147h-185l-26 -147h-31l108 614h31l-23 -132h183q77 0 119.5 -36t42.5 -105q0 -93 -60.5 -143.5t-158.5 -50.5zM160 452l-49 -275h184q85 0 134.5 42.5t49.5 121.5q0 54 -35 82.5t-103 28.5h-181z" />
    <glyph glyph-name="germandbls" unicode="&#xdf;" horiz-adv-x="473" 
d="M36 0l93 528q10 61 47 95.5t88 34.5q36 0 59 -12l-5 -30q-25 14 -54 14q-40 0 -68.5 -27.5t-37.5 -78.5l-14 -80h337v-4l-215 -214q138 -53 138 -168q0 -77 -43.5 -132t-110.5 -80t-149 -25l5 28q69 0 127.5 20.5t99 69.5t40.5 120q0 55 -38.5 92t-112.5 64v4l197 197
h-280l-73 -416h-30z" />
    <glyph glyph-name="agrave" unicode="&#xe0;" horiz-adv-x="426" 
d="M322 201l20 116q2 16 2 23q0 39 -24.5 61.5t-68.5 22.5q-73 0 -142 -42l6 34q61 36 136 36q58 0 91 -29t33 -80q0 -11 -3 -29l-55 -314h-30l8 48q-22 -23 -58.5 -39t-74.5 -16q-63 0 -104 35.5t-41 88.5q0 64 51 104t120 40q46 0 81.5 -18.5t52.5 -41.5zM303 95l12 64
q-9 31 -44 52.5t-83 21.5q-55 0 -98 -30.5t-43 -85.5q0 -43 33.5 -69.5t81.5 -26.5q47 0 85.5 21t55.5 53zM291 523h-29l-63 127h29z" />
    <glyph glyph-name="aacute" unicode="&#xe1;" horiz-adv-x="426" 
d="M322 201l20 116q2 16 2 23q0 39 -24.5 61.5t-68.5 22.5q-73 0 -142 -42l6 34q61 36 136 36q58 0 91 -29t33 -80q0 -11 -3 -29l-55 -314h-30l8 48q-22 -23 -58.5 -39t-74.5 -16q-63 0 -104 35.5t-41 88.5q0 64 51 104t120 40q46 0 81.5 -18.5t52.5 -41.5zM303 95l12 64
q-9 31 -44 52.5t-83 21.5q-55 0 -98 -30.5t-43 -85.5q0 -43 33.5 -69.5t81.5 -26.5q47 0 85.5 21t55.5 53zM289 523h-34l107 127h34z" />
    <glyph glyph-name="acircumflex" unicode="&#xe2;" horiz-adv-x="426" 
d="M322 201l20 116q2 16 2 23q0 39 -24.5 61.5t-68.5 22.5q-73 0 -142 -42l6 34q61 36 136 36q58 0 91 -29t33 -80q0 -11 -3 -29l-55 -314h-30l8 48q-22 -23 -58.5 -39t-74.5 -16q-63 0 -104 35.5t-41 88.5q0 64 51 104t120 40q46 0 81.5 -18.5t52.5 -41.5zM303 95l12 64
q-9 31 -44 52.5t-83 21.5q-55 0 -98 -30.5t-43 -85.5q0 -43 33.5 -69.5t81.5 -26.5q47 0 85.5 21t55.5 53zM300 643l68 -127h-29l-54 103l-92 -103h-33l114 127h26z" />
    <glyph glyph-name="atilde" unicode="&#xe3;" horiz-adv-x="426" 
d="M322 201l20 116q2 16 2 23q0 39 -24.5 61.5t-68.5 22.5q-73 0 -142 -42l6 34q61 36 136 36q58 0 91 -29t33 -80q0 -11 -3 -29l-55 -314h-30l8 48q-22 -23 -58.5 -39t-74.5 -16q-63 0 -104 35.5t-41 88.5q0 64 51 104t120 40q46 0 81.5 -18.5t52.5 -41.5zM303 95l12 64
q-9 31 -44 52.5t-83 21.5q-55 0 -98 -30.5t-43 -85.5q0 -43 33.5 -69.5t81.5 -26.5q47 0 85.5 21t55.5 53zM381 619h26q-18 -95 -79 -95q-21 0 -38 17.5t-31.5 35t-29.5 17.5q-38 0 -50 -67h-26q8 44 28.5 69.5t50.5 25.5q17 0 31.5 -11t23 -24t20 -24t24.5 -11q38 0 50 67z
" />
    <glyph glyph-name="adieresis" unicode="&#xe4;" horiz-adv-x="426" 
d="M322 201l20 116q2 16 2 23q0 39 -24.5 61.5t-68.5 22.5q-73 0 -142 -42l6 34q61 36 136 36q58 0 91 -29t33 -80q0 -11 -3 -29l-55 -314h-30l8 48q-22 -23 -58.5 -39t-74.5 -16q-63 0 -104 35.5t-41 88.5q0 64 51 104t120 40q46 0 81.5 -18.5t52.5 -41.5zM303 95l12 64
q-9 31 -44 52.5t-83 21.5q-55 0 -98 -30.5t-43 -85.5q0 -43 33.5 -69.5t81.5 -26.5q47 0 85.5 21t55.5 53zM203 570q0 10 6.5 16.5t16.5 6.5t16.5 -6.5t6.5 -16.5t-6.5 -16.5t-16.5 -6.5t-16.5 6.5t-6.5 16.5zM317 570q0 10 6.5 16.5t16.5 6.5t16.5 -6.5t6.5 -16.5
t-6.5 -16.5t-16.5 -6.5t-16.5 6.5t-6.5 16.5z" />
    <glyph glyph-name="aring" unicode="&#xe5;" horiz-adv-x="426" 
d="M322 201l20 116q2 16 2 23q0 39 -24.5 61.5t-68.5 22.5q-73 0 -142 -42l6 34q61 36 136 36q58 0 91 -29t33 -80q0 -11 -3 -29l-55 -314h-30l8 48q-22 -23 -58.5 -39t-74.5 -16q-63 0 -104 35.5t-41 88.5q0 64 51 104t120 40q46 0 81.5 -18.5t52.5 -41.5zM303 95l12 64
q-9 31 -44 52.5t-83 21.5q-55 0 -98 -30.5t-43 -85.5q0 -43 33.5 -69.5t81.5 -26.5q47 0 85.5 21t55.5 53zM283 528q22 0 38 15.5t16 38.5q0 21 -14.5 35.5t-35.5 14.5q-22 0 -38 -15.5t-16 -38.5q0 -21 14.5 -35.5t35.5 -14.5zM282 503q-31 0 -52.5 21t-21.5 52q0 33 23 57
t57 24q31 0 52.5 -21t21.5 -52q0 -33 -23 -57t-57 -24z" />
    <glyph glyph-name="ae" unicode="&#xe6;" horiz-adv-x="719" 
d="M331 119q-27 -54 -77 -90t-113 -36q-56 0 -90 32.5t-34 84.5q0 69 52 105.5t135 36.5h129q12 77 12 88q0 39 -24.5 61.5t-68.5 22.5q-73 0 -142 -42l6 34q61 36 136 36q53 0 85 -27t35 -78q26 47 72 76t100 29q72 0 108 -43t36 -121q0 -30 -6 -63h-327q-3 -23 -3 -46
q0 -75 38 -117.5t103 -42.5q74 0 134 45l-7 -36q-50 -36 -127 -36q-65 0 -106.5 33.5t-55.5 93.5zM141 20q58 0 102.5 34t69.5 85l15 86h-123q-70 0 -114.5 -27.5t-44.5 -87.5q0 -40 26.5 -65t68.5 -25zM544 424q-68 0 -117 -49t-67 -123h295q3 19 3 38q0 58 -27.5 96
t-86.5 38z" />
    <glyph glyph-name="ccedilla" unicode="&#xe7;" horiz-adv-x="400" 
d="M331 59l-7 -36q-46 -31 -113 -31q-80 0 -125.5 50t-45.5 135q0 122 69 198.5t168 76.5q78 0 116 -41l-6 -33q-43 46 -110 46q-81 0 -143.5 -67.5t-62.5 -179.5q0 -70 37.5 -113.5t103.5 -43.5q62 0 119 39zM138 -170h-31l76 124h31z" />
    <glyph glyph-name="egrave" unicode="&#xe8;" horiz-adv-x="440" 
d="M403 225h-328q-3 -23 -3 -46q0 -75 38 -117.5t104 -42.5q74 0 134 45l-7 -36q-50 -36 -127 -36q-82 0 -127.5 50t-45.5 137q0 66 24.5 127t77.5 103.5t122 42.5q72 0 108 -43t36 -121q0 -30 -6 -63zM265 424q-68 0 -117.5 -49t-67.5 -123h296q3 20 3 38q0 58 -27.5 96
t-86.5 38zM299 523h-29l-63 127h29z" />
    <glyph glyph-name="eacute" unicode="&#xe9;" horiz-adv-x="440" 
d="M403 225h-328q-3 -23 -3 -46q0 -75 38 -117.5t104 -42.5q74 0 134 45l-7 -36q-50 -36 -127 -36q-82 0 -127.5 50t-45.5 137q0 66 24.5 127t77.5 103.5t122 42.5q72 0 108 -43t36 -121q0 -30 -6 -63zM265 424q-68 0 -117.5 -49t-67.5 -123h296q3 20 3 38q0 58 -27.5 96
t-86.5 38zM297 523h-34l107 127h34z" />
    <glyph glyph-name="ecircumflex" unicode="&#xea;" horiz-adv-x="440" 
d="M403 225h-328q-3 -23 -3 -46q0 -75 38 -117.5t104 -42.5q74 0 134 45l-7 -36q-50 -36 -127 -36q-82 0 -127.5 50t-45.5 137q0 66 24.5 127t77.5 103.5t122 42.5q72 0 108 -43t36 -121q0 -30 -6 -63zM265 424q-68 0 -117.5 -49t-67.5 -123h296q3 20 3 38q0 58 -27.5 96
t-86.5 38zM313 643l68 -127h-29l-54 103l-92 -103h-33l114 127h26z" />
    <glyph glyph-name="edieresis" unicode="&#xeb;" horiz-adv-x="440" 
d="M403 225h-328q-3 -23 -3 -46q0 -75 38 -117.5t104 -42.5q74 0 134 45l-7 -36q-50 -36 -127 -36q-82 0 -127.5 50t-45.5 137q0 66 24.5 127t77.5 103.5t122 42.5q72 0 108 -43t36 -121q0 -30 -6 -63zM265 424q-68 0 -117.5 -49t-67.5 -123h296q3 20 3 38q0 58 -27.5 96
t-86.5 38zM210 570q0 10 6.5 16.5t16.5 6.5t16.5 -6.5t6.5 -16.5t-6.5 -16.5t-16.5 -6.5t-16.5 6.5t-6.5 16.5zM324 570q0 10 6.5 16.5t16.5 6.5t16.5 -6.5t6.5 -16.5t-6.5 -16.5t-16.5 -6.5t-16.5 6.5t-6.5 16.5z" />
    <glyph glyph-name="igrave" unicode="&#xec;" horiz-adv-x="180" 
d="M144 444l-78 -444h-30l78 444h30zM160 523h-29l-63 127h29z" />
    <glyph glyph-name="iacute" unicode="&#xed;" horiz-adv-x="180" 
d="M144 444l-78 -444h-30l78 444h30zM158 523h-34l107 127h34z" />
    <glyph glyph-name="icircumflex" unicode="&#xee;" horiz-adv-x="180" 
d="M175 643l48 -127h-28l-36 100l-72 -100h-32l94 127h26zM144 444l-78 -444h-30l78 444h30z" />
    <glyph glyph-name="idieresis" unicode="&#xef;" horiz-adv-x="180" 
d="M80 570q0 10 6.5 16.5t16.5 6.5t16.5 -6.5t6.5 -16.5t-6.5 -16.5t-16.5 -6.5t-16.5 6.5t-6.5 16.5zM174 570q0 10 6.5 16.5t16.5 6.5t16.5 -6.5t6.5 -16.5t-6.5 -16.5t-16.5 -6.5t-16.5 6.5t-6.5 16.5zM144 444l-78 -444h-30l78 444h30z" />
    <glyph glyph-name="eth" unicode="&#xf0;" horiz-adv-x="466" 
d="M177 506l-9 24l105 35q-41 44 -90 81v4h37q44 -32 83 -76l83 28l8 -24l-74 -25q105 -131 105 -288q0 -120 -62.5 -196.5t-155.5 -76.5q-77 0 -121.5 51t-44.5 136q0 120 62.5 196.5t155.5 76.5q37 0 70 -14.5t48 -44.5h2q-32 82 -88 151zM207 20q80 0 133.5 67.5
t53.5 177.5q0 73 -36.5 116t-98.5 43q-80 0 -133.5 -67.5t-53.5 -177.5q0 -73 36.5 -116t98.5 -43z" />
    <glyph glyph-name="ntilde" unicode="&#xf1;" horiz-adv-x="479" 
d="M36 0l78 444h30l-14 -82q30 39 73.5 64.5t91.5 25.5q62 0 96 -33t34 -89q0 -16 -3 -34l-52 -296h-30l51 292q3 18 3 33q0 45 -25 71.5t-74 26.5q-53 0 -99 -30t-74 -75l-56 -318h-30zM403 619h26q-18 -95 -79 -95q-21 0 -38 17.5t-31.5 35t-29.5 17.5q-38 0 -50 -67h-26
q8 44 28.5 69.5t50.5 25.5q17 0 31.5 -11t23 -24t20 -24t24.5 -11q38 0 50 67z" />
    <glyph glyph-name="ograve" unicode="&#xf2;" horiz-adv-x="466" 
d="M207 20q80 0 133.5 67.5t53.5 177.5q0 73 -36.5 116t-98.5 43q-80 0 -133.5 -67.5t-53.5 -177.5q0 -73 36.5 -116t98.5 -43zM207 -8q-77 0 -121.5 51t-44.5 136q0 120 62.5 196.5t155.5 76.5q77 0 121.5 -51t44.5 -136q0 -120 -62.5 -196.5t-155.5 -76.5zM303 523h-29
l-63 127h29z" />
    <glyph glyph-name="oacute" unicode="&#xf3;" horiz-adv-x="466" 
d="M207 20q80 0 133.5 67.5t53.5 177.5q0 73 -36.5 116t-98.5 43q-80 0 -133.5 -67.5t-53.5 -177.5q0 -73 36.5 -116t98.5 -43zM207 -8q-77 0 -121.5 51t-44.5 136q0 120 62.5 196.5t155.5 76.5q77 0 121.5 -51t44.5 -136q0 -120 -62.5 -196.5t-155.5 -76.5zM301 523h-34
l107 127h34z" />
    <glyph glyph-name="ocircumflex" unicode="&#xf4;" horiz-adv-x="466" 
d="M207 20q80 0 133.5 67.5t53.5 177.5q0 73 -36.5 116t-98.5 43q-80 0 -133.5 -67.5t-53.5 -177.5q0 -73 36.5 -116t98.5 -43zM207 -8q-77 0 -121.5 51t-44.5 136q0 120 62.5 196.5t155.5 76.5q77 0 121.5 -51t44.5 -136q0 -120 -62.5 -196.5t-155.5 -76.5zM317 643
l68 -127h-29l-54 103l-92 -103h-33l114 127h26z" />
    <glyph glyph-name="otilde" unicode="&#xf5;" horiz-adv-x="466" 
d="M207 20q80 0 133.5 67.5t53.5 177.5q0 73 -36.5 116t-98.5 43q-80 0 -133.5 -67.5t-53.5 -177.5q0 -73 36.5 -116t98.5 -43zM207 -8q-77 0 -121.5 51t-44.5 136q0 120 62.5 196.5t155.5 76.5q77 0 121.5 -51t44.5 -136q0 -120 -62.5 -196.5t-155.5 -76.5zM396 619h26
q-18 -95 -79 -95q-21 0 -38 17.5t-31.5 35t-29.5 17.5q-38 0 -50 -67h-26q8 44 28.5 69.5t50.5 25.5q27 0 54 -35t45 -35q38 0 50 67z" />
    <glyph glyph-name="odieresis" unicode="&#xf6;" horiz-adv-x="466" 
d="M207 20q80 0 133.5 67.5t53.5 177.5q0 73 -36.5 116t-98.5 43q-80 0 -133.5 -67.5t-53.5 -177.5q0 -73 36.5 -116t98.5 -43zM207 -8q-77 0 -121.5 51t-44.5 136q0 120 62.5 196.5t155.5 76.5q77 0 121.5 -51t44.5 -136q0 -120 -62.5 -196.5t-155.5 -76.5zM214 570
q0 10 6.5 16.5t16.5 6.5t16.5 -6.5t6.5 -16.5t-6.5 -16.5t-16.5 -6.5t-16.5 6.5t-6.5 16.5zM328 570q0 10 6.5 16.5t16.5 6.5t16.5 -6.5t6.5 -16.5t-6.5 -16.5t-16.5 -6.5t-16.5 6.5t-6.5 16.5z" />
    <glyph glyph-name="divide" unicode="&#xf7;" horiz-adv-x="495" 
d="M79 278l5 29h355l-5 -29h-355zM257 440q0 11 7.5 19t18.5 8t18.5 -8t7.5 -19t-7.5 -19t-18.5 -8t-18.5 8t-7.5 19zM207 146q0 11 7.5 19t18.5 8t18.5 -8t7.5 -19t-7.5 -19t-18.5 -8t-18.5 8t-7.5 19z" />
    <glyph glyph-name="oslash" unicode="&#xf8;" horiz-adv-x="476" 
d="M31 -12l52 63q-37 49 -37 128q0 120 62.5 196.5t155.5 76.5q72 0 116 -46l51 61l21 -15l-55 -66q33 -50 33 -121q0 -120 -62.5 -196.5t-155.5 -76.5q-68 0 -111 40l-49 -59zM77 179q0 -66 26 -105l259 310q-37 40 -98 40q-80 0 -133.5 -67.5t-53.5 -177.5zM212 20
q80 0 133.5 67.5t53.5 177.5q0 59 -22 97l-257 -308q34 -34 92 -34z" />
    <glyph glyph-name="ugrave" unicode="&#xf9;" horiz-adv-x="477" 
d="M439 444l-78 -444h-30l14 82q-30 -39 -73.5 -64.5t-91.5 -25.5q-61 0 -94.5 32.5t-33.5 88.5q0 17 3 35l52 296h30l-51 -292q-3 -18 -3 -35q0 -45 24 -70.5t73 -25.5q53 0 99 30t74 75l56 318h30zM302 523h-29l-63 127h29z" />
    <glyph glyph-name="uacute" unicode="&#xfa;" horiz-adv-x="477" 
d="M439 444l-78 -444h-30l14 82q-30 -39 -73.5 -64.5t-91.5 -25.5q-61 0 -94.5 32.5t-33.5 88.5q0 17 3 35l52 296h30l-51 -292q-3 -18 -3 -35q0 -45 24 -70.5t73 -25.5q53 0 99 30t74 75l56 318h30zM300 523h-34l107 127h34z" />
    <glyph glyph-name="ucircumflex" unicode="&#xfb;" horiz-adv-x="477" 
d="M439 444l-78 -444h-30l14 82q-30 -39 -73.5 -64.5t-91.5 -25.5q-61 0 -94.5 32.5t-33.5 88.5q0 17 3 35l52 296h30l-51 -292q-3 -18 -3 -35q0 -45 24 -70.5t73 -25.5q53 0 99 30t74 75l56 318h30zM316 643l68 -127h-29l-54 103l-92 -103h-33l114 127h26z" />
    <glyph glyph-name="udieresis" unicode="&#xfc;" horiz-adv-x="477" 
d="M439 444l-78 -444h-30l14 82q-30 -39 -73.5 -64.5t-91.5 -25.5q-61 0 -94.5 32.5t-33.5 88.5q0 17 3 35l52 296h30l-51 -292q-3 -18 -3 -35q0 -45 24 -70.5t73 -25.5q53 0 99 30t74 75l56 318h30zM214 570q0 10 6.5 16.5t16.5 6.5t16.5 -6.5t6.5 -16.5t-6.5 -16.5
t-16.5 -6.5t-16.5 6.5t-6.5 16.5zM328 570q0 10 6.5 16.5t16.5 6.5t16.5 -6.5t6.5 -16.5t-6.5 -16.5t-16.5 -6.5t-16.5 6.5t-6.5 16.5z" />
    <glyph glyph-name="yacute" unicode="&#xfd;" horiz-adv-x="416" 
d="M67 -170h-32l111 184l-89 430h31l79 -394l237 394h33zM270 523h-34l107 127h34z" />
    <glyph glyph-name="thorn" unicode="&#xfe;" horiz-adv-x="485" 
d="M80 79l-44 -249h-30l144 820h30l-50 -283q68 85 156 85q79 0 118.5 -50.5t39.5 -131.5q0 -110 -63 -194t-165 -84q-49 0 -84.5 25.5t-51.5 61.5zM123 324l-36 -204q35 -99 129 -99q63 0 109.5 39.5t67 94.5t20.5 115q0 71 -32 112t-95 41q-93 0 -163 -99z" />
    <glyph glyph-name="ydieresis" unicode="&#xff;" horiz-adv-x="416" 
d="M67 -170h-32l111 184l-89 430h31l79 -394l237 394h33zM184 570q0 10 6.5 16.5t16.5 6.5t16.5 -6.5t6.5 -16.5t-6.5 -16.5t-16.5 -6.5t-16.5 6.5t-6.5 16.5zM298 570q0 10 6.5 16.5t16.5 6.5t16.5 -6.5t6.5 -16.5t-6.5 -16.5t-16.5 -6.5t-16.5 6.5t-6.5 16.5z" />
    <glyph glyph-name="Amacron" unicode="&#x100;" horiz-adv-x="567" 
d="M357 614h28l124 -614h-30l-43 215h-285l-128 -215h-34zM364 571l-195 -327h261zM280 670l4 27h193l-4 -27h-193z" />
    <glyph glyph-name="amacron" unicode="&#x101;" horiz-adv-x="426" 
d="M322 201l20 116q2 16 2 23q0 39 -24.5 61.5t-68.5 22.5q-73 0 -142 -42l6 34q61 36 136 36q58 0 91 -29t33 -80q0 -11 -3 -29l-55 -314h-30l8 48q-22 -23 -58.5 -39t-74.5 -16q-63 0 -104 35.5t-41 88.5q0 64 51 104t120 40q46 0 81.5 -18.5t52.5 -41.5zM303 95l12 64
q-9 31 -44 52.5t-83 21.5q-55 0 -98 -30.5t-43 -85.5q0 -43 33.5 -69.5t81.5 -26.5q47 0 85.5 21t55.5 53zM181 542l5 27h193l-5 -27h-193z" />
    <glyph glyph-name="Abreve" unicode="&#x102;" horiz-adv-x="567" 
d="M357 614h28l124 -614h-30l-43 215h-285l-128 -215h-34zM364 571l-195 -327h261zM383 663q-39 0 -62 30.5t-13 83.5h27q-8 -42 6.5 -65.5t43.5 -23.5t51.5 23.5t30.5 65.5h27q-10 -54 -40 -84t-71 -30z" />
    <glyph glyph-name="abreve" unicode="&#x103;" horiz-adv-x="426" 
d="M322 201l20 116q2 16 2 23q0 39 -24.5 61.5t-68.5 22.5q-73 0 -142 -42l6 34q61 36 136 36q58 0 91 -29t33 -80q0 -11 -3 -29l-55 -314h-30l8 48q-22 -23 -58.5 -39t-74.5 -16q-63 0 -104 35.5t-41 88.5q0 64 51 104t120 40q46 0 81.5 -18.5t52.5 -41.5zM303 95l12 64
q-9 31 -44 52.5t-83 21.5q-55 0 -98 -30.5t-43 -85.5q0 -43 33.5 -69.5t81.5 -26.5q47 0 85.5 21t55.5 53zM273 510q-39 0 -62 30.5t-13 83.5h27q-8 -42 6.5 -65.5t43.5 -23.5t51.5 23.5t30.5 65.5h27q-10 -54 -40 -84t-71 -30z" />
    <glyph glyph-name="Aogonek" unicode="&#x104;" horiz-adv-x="567" 
d="M357 614h28l124 -614q-46 -65 -59.5 -89.5t-13.5 -45.5q0 -20 20 -20q18 0 40 14l-5 -25q-19 -13 -39 -13q-19 0 -31 11t-12 33q0 6 1 12t3.5 13t4 12.5t6.5 14t8 13.5t10 15.5t11 16t13.5 19t13.5 19.5h-1l-43 215h-285l-128 -215h-34zM364 571l-195 -327h261z" />
    <glyph glyph-name="aogonek" unicode="&#x105;" horiz-adv-x="426" 
d="M303 95l12 64q-9 31 -44 52.5t-83 21.5q-55 0 -98 -30.5t-43 -85.5q0 -43 33.5 -69.5t81.5 -26.5q47 0 85.5 21t55.5 53zM289 0h-2l8 48q-22 -23 -58.5 -39t-74.5 -16q-63 0 -104 35.5t-41 88.5q0 64 51 104t120 40q46 0 81.5 -18.5t52.5 -41.5l20 116q2 16 2 23
q0 39 -24.5 61.5t-68.5 22.5q-73 0 -142 -42l6 34q61 36 136 36q58 0 91 -29t33 -80q0 -11 -3 -29l-55 -314q-46 -65 -59.5 -89.5t-13.5 -45.5q0 -20 20 -20q18 0 40 14l-5 -25q-19 -13 -39 -13q-19 0 -31 11t-12 33q0 8 1.5 15.5t5.5 17t7 16t11.5 19.5t12.5 19t16.5 23
t17.5 25z" />
    <glyph glyph-name="Cacute" unicode="&#x106;" horiz-adv-x="531" 
d="M454 73l-7 -38q-66 -43 -157 -43q-105 0 -170.5 75t-65.5 195q0 149 89 254.5t229 105.5q101 0 168 -60l-6 -35q-65 65 -162 65q-123 0 -204.5 -95.5t-81.5 -234.5q0 -107 56.5 -173.5t147.5 -66.5t164 51zM409 663h-35l106 117h35z" />
    <glyph glyph-name="cacute" unicode="&#x107;" horiz-adv-x="400" 
d="M331 59l-7 -36q-46 -31 -113 -31q-80 0 -125.5 50t-45.5 135q0 122 69 198.5t168 76.5q78 0 116 -41l-6 -33q-43 46 -110 46q-81 0 -143.5 -67.5t-62.5 -179.5q0 -70 37.5 -113.5t103.5 -43.5q62 0 119 39zM311 523h-34l107 127h34z" />
    <glyph glyph-name="Ccircumflex" unicode="&#x108;" horiz-adv-x="531" 
d="M454 73l-7 -38q-66 -43 -157 -43q-105 0 -170.5 75t-65.5 195q0 149 89 254.5t229 105.5q101 0 168 -60l-6 -35q-65 65 -162 65q-123 0 -204.5 -95.5t-81.5 -234.5q0 -107 56.5 -173.5t147.5 -66.5t164 51zM425 783l70 -117h-29l-57 92l-89 -92h-33l112 117h26z" />
    <glyph glyph-name="ccircumflex" unicode="&#x109;" horiz-adv-x="400" 
d="M331 59l-7 -36q-46 -31 -113 -31q-80 0 -125.5 50t-45.5 135q0 122 69 198.5t168 76.5q78 0 116 -41l-6 -33q-43 46 -110 46q-81 0 -143.5 -67.5t-62.5 -179.5q0 -70 37.5 -113.5t103.5 -43.5q62 0 119 39zM327 643l68 -127h-29l-54 103l-92 -103h-33l114 127h26z" />
    <glyph glyph-name="Cdotaccent" unicode="&#x10a;" horiz-adv-x="531" 
d="M454 73l-7 -38q-66 -43 -157 -43q-105 0 -170.5 75t-65.5 195q0 149 89 254.5t229 105.5q101 0 168 -60l-6 -35q-65 65 -162 65q-123 0 -204.5 -95.5t-81.5 -234.5q0 -107 56.5 -173.5t147.5 -66.5t164 51zM425 709q0 -10 -6.5 -17t-16.5 -7t-16.5 7t-6.5 17t6.5 17
t16.5 7t16.5 -7t6.5 -17z" />
    <glyph glyph-name="cdotaccent" unicode="&#x10b;" horiz-adv-x="400" 
d="M331 59l-7 -36q-46 -31 -113 -31q-80 0 -125.5 50t-45.5 135q0 122 69 198.5t168 76.5q78 0 116 -41l-6 -33q-43 46 -110 46q-81 0 -143.5 -67.5t-62.5 -179.5q0 -70 37.5 -113.5t103.5 -43.5q62 0 119 39zM329 579q0 -10 -6.5 -17t-16.5 -7t-16.5 7t-6.5 17t6.5 17
t16.5 7t16.5 -7t6.5 -17z" />
    <glyph glyph-name="Ccaron" unicode="&#x10c;" horiz-adv-x="531" 
d="M454 73l-7 -38q-66 -43 -157 -43q-105 0 -170.5 75t-65.5 195q0 149 89 254.5t229 105.5q101 0 168 -60l-6 -35q-65 65 -162 65q-123 0 -204.5 -95.5t-81.5 -234.5q0 -107 56.5 -173.5t147.5 -66.5t164 51zM379 656l-70 117h29l57 -92l89 92h33l-112 -117h-26z" />
    <glyph glyph-name="ccaron" unicode="&#x10d;" horiz-adv-x="400" 
d="M331 59l-7 -36q-46 -31 -113 -31q-80 0 -125.5 50t-45.5 135q0 122 69 198.5t168 76.5q78 0 116 -41l-6 -33q-43 46 -110 46q-81 0 -143.5 -67.5t-62.5 -179.5q0 -70 37.5 -113.5t103.5 -43.5q62 0 119 39zM284 518l-68 127h29l54 -103l92 103h33l-114 -127h-26z" />
    <glyph glyph-name="Dcaron" unicode="&#x10e;" horiz-adv-x="604" 
d="M85 30h147q134 0 225.5 93t91.5 238q0 103 -57.5 163t-162.5 60h-147zM49 0l108 614h176q117 0 182.5 -68.5t65.5 -184.5q0 -159 -103.5 -260t-252.5 -101h-176zM342 656l-70 117h29l57 -92l89 92h33l-112 -117h-26z" />
    <glyph glyph-name="dcaron" unicode="&#x10f;" horiz-adv-x="485" 
d="M405 365l50 285h30l-114 -650h-30l14 77q-68 -85 -156 -85q-79 0 -118.5 50.5t-39.5 131.5q0 110 63 194t165 84q49 0 84.5 -25.5t51.5 -61.5zM362 120l36 204q-35 99 -129 99q-63 0 -109.5 -39.5t-67 -94.5t-20.5 -115q0 -71 32 -112t95 -41q93 0 163 99zM534 493h-28
l80 157h28z" />
    <glyph glyph-name="Dcroat" unicode="&#x110;" horiz-adv-x="616" 
d="M54 304l5 28h60l50 282h176q117 0 182.5 -68.5t65.5 -184.5q0 -159 -103.5 -260t-252.5 -101h-176l53 304h-60zM97 30h147q134 0 225.5 93t91.5 238q0 103 -57.5 163t-162.5 60h-147l-44 -252h135l-5 -28h-135z" />
    <glyph glyph-name="dcroat" unicode="&#x111;" horiz-adv-x="485" 
d="M312 527l5 25h121l17 98h30l-17 -98h50l-5 -25h-50l-92 -527h-30l14 77q-68 -85 -156 -85q-79 0 -118.5 50.5t-39.5 131.5q0 110 63 194t165 84q49 0 84.5 -25.5t51.5 -61.5l28 162h-121zM362 120l36 204q-35 99 -129 99q-63 0 -109.5 -39.5t-67 -94.5t-20.5 -115
q0 -71 32 -112t95 -41q93 0 163 99z" />
    <glyph glyph-name="Emacron" unicode="&#x112;" horiz-adv-x="516" 
d="M157 614h373l-6 -30h-342l-44 -253h310l-5 -29h-310l-48 -272h342l-5 -30h-373zM265 670l4 27h193l-4 -27h-193z" />
    <glyph glyph-name="emacron" unicode="&#x113;" horiz-adv-x="440" 
d="M403 225h-328q-3 -23 -3 -46q0 -75 38 -117.5t104 -42.5q74 0 134 45l-7 -36q-50 -36 -127 -36q-82 0 -127.5 50t-45.5 137q0 66 24.5 127t77.5 103.5t122 42.5q72 0 108 -43t36 -121q0 -30 -6 -63zM265 424q-68 0 -117.5 -49t-67.5 -123h296q3 20 3 38q0 58 -27.5 96
t-86.5 38zM189 542l5 27h193l-5 -27h-193z" />
    <glyph glyph-name="Ebreve" unicode="&#x114;" horiz-adv-x="516" 
d="M157 614h373l-6 -30h-342l-44 -253h310l-5 -29h-310l-48 -272h342l-5 -30h-373zM363 663q-39 0 -62 30.5t-13 83.5h27q-8 -42 6.5 -65.5t43.5 -23.5t51.5 23.5t30.5 65.5h27q-10 -54 -40 -84t-71 -30z" />
    <glyph glyph-name="ebreve" unicode="&#x115;" horiz-adv-x="440" 
d="M403 225h-328q-3 -23 -3 -46q0 -75 38 -117.5t104 -42.5q74 0 134 45l-7 -36q-50 -36 -127 -36q-82 0 -127.5 50t-45.5 137q0 66 24.5 127t77.5 103.5t122 42.5q72 0 108 -43t36 -121q0 -30 -6 -63zM265 424q-68 0 -117.5 -49t-67.5 -123h296q3 20 3 38q0 58 -27.5 96
t-86.5 38zM281 510q-39 0 -62 30.5t-13 83.5h27q-8 -42 6.5 -65.5t43.5 -23.5t51.5 23.5t30.5 65.5h27q-10 -54 -40 -84t-71 -30z" />
    <glyph glyph-name="Edotaccent" unicode="&#x116;" horiz-adv-x="516" 
d="M157 614h373l-6 -30h-342l-44 -253h310l-5 -29h-310l-48 -272h342l-5 -30h-373zM391 709q0 -10 -6.5 -17t-16.5 -7t-16.5 7t-6.5 17t6.5 17t16.5 7t16.5 -7t6.5 -17z" />
    <glyph glyph-name="edotaccent" unicode="&#x117;" horiz-adv-x="440" 
d="M403 225h-328q-3 -23 -3 -46q0 -75 38 -117.5t104 -42.5q74 0 134 45l-7 -36q-50 -36 -127 -36q-82 0 -127.5 50t-45.5 137q0 66 24.5 127t77.5 103.5t122 42.5q72 0 108 -43t36 -121q0 -30 -6 -63zM265 424q-68 0 -117.5 -49t-67.5 -123h296q3 20 3 38q0 58 -27.5 96
t-86.5 38zM315 579q0 -10 -6.5 -17t-16.5 -7t-16.5 7t-6.5 17t6.5 17t16.5 7t16.5 -7t6.5 -17z" />
    <glyph glyph-name="Eogonek" unicode="&#x118;" horiz-adv-x="516" 
d="M157 614h373l-6 -30h-342l-44 -253h310l-5 -29h-310l-48 -272h342l-5 -30h-38q-45 -64 -58.5 -89t-13.5 -46q0 -20 20 -20q18 0 40 14l-5 -25q-19 -13 -39 -13q-19 0 -31 11t-12 33q0 6 1 12t3.5 13t4 12.5t6.5 14t8 13.5t10 15.5t11 16t13.5 19t13.5 19.5h-307z" />
    <glyph glyph-name="eogonek" unicode="&#x119;" horiz-adv-x="440" 
d="M403 225h-328q-3 -23 -3 -46q0 -75 38 -117.5t104 -42.5q74 0 134 45l-7 -36q-25 -16 -35 -26q-75 -72 -75 -137q0 -20 20 -20q18 0 40 14l-5 -25q-19 -13 -39 -13q-19 0 -31 11t-12 33q0 62 70 134q-24 -7 -60 -7q-82 0 -127.5 50t-45.5 137q0 66 24.5 127t77.5 103.5
t122 42.5q72 0 108 -43t36 -121q0 -30 -6 -63zM265 424q-68 0 -117.5 -49t-67.5 -123h296q3 20 3 38q0 58 -27.5 96t-86.5 38z" />
    <glyph glyph-name="Ecaron" unicode="&#x11a;" horiz-adv-x="516" 
d="M157 614h373l-6 -30h-342l-44 -253h310l-5 -29h-310l-48 -272h342l-5 -30h-373zM346 656l-70 117h29l57 -92l89 92h33l-112 -117h-26z" />
    <glyph glyph-name="ecaron" unicode="&#x11b;" horiz-adv-x="440" 
d="M403 225h-328q-3 -23 -3 -46q0 -75 38 -117.5t104 -42.5q74 0 134 45l-7 -36q-50 -36 -127 -36q-82 0 -127.5 50t-45.5 137q0 66 24.5 127t77.5 103.5t122 42.5q72 0 108 -43t36 -121q0 -30 -6 -63zM265 424q-68 0 -117.5 -49t-67.5 -123h296q3 20 3 38q0 58 -27.5 96
t-86.5 38zM269 518l-68 127h29l54 -103l92 103h33l-114 -127h-26z" />
    <glyph glyph-name="Gcircumflex" unicode="&#x11c;" horiz-adv-x="582" 
d="M300 -8q-111 0 -178.5 74.5t-67.5 195.5q0 149 89 254.5t229 105.5q112 0 188 -68l-6 -35q-73 73 -182 73q-123 0 -204.5 -95.5t-81.5 -234.5q0 -108 58 -174t156 -66q100 0 171 55l36 201h-169l5 27h198l-42 -240q-80 -73 -199 -73zM431 783l70 -117h-29l-57 92l-89 -92
h-33l112 117h26z" />
    <glyph glyph-name="gcircumflex" unicode="&#x11d;" horiz-adv-x="479" 
d="M346 27l11 59q-68 -84 -154 -84q-80 0 -121 49.5t-41 128.5q0 107 63 189.5t165 82.5q49 0 84.5 -25.5t51.5 -61.5l14 79h30l-73 -414q-18 -103 -75.5 -156t-141.5 -53q-43 0 -82 14t-59 34l6 34q49 -53 135 -53q73 0 122 44t65 133zM364 131l34 193q-36 99 -129 99
q-63 0 -109.5 -38.5t-67 -92t-20.5 -112.5q0 -68 34 -108.5t97 -40.5q88 0 161 100zM332 643l68 -127h-29l-54 103l-92 -103h-33l114 127h26z" />
    <glyph glyph-name="Gbreve" unicode="&#x11e;" horiz-adv-x="582" 
d="M300 -8q-111 0 -178.5 74.5t-67.5 195.5q0 149 89 254.5t229 105.5q112 0 188 -68l-6 -35q-73 73 -182 73q-123 0 -204.5 -95.5t-81.5 -234.5q0 -108 58 -174t156 -66q100 0 171 55l36 201h-169l5 27h198l-42 -240q-80 -73 -199 -73zM402 663q-39 0 -62 30.5t-13 83.5h27
q-8 -42 6.5 -65.5t43.5 -23.5t51.5 23.5t30.5 65.5h27q-10 -54 -40 -84t-71 -30z" />
    <glyph glyph-name="gbreve" unicode="&#x11f;" horiz-adv-x="479" 
d="M346 27l11 59q-68 -84 -154 -84q-80 0 -121 49.5t-41 128.5q0 107 63 189.5t165 82.5q49 0 84.5 -25.5t51.5 -61.5l14 79h30l-73 -414q-18 -103 -75.5 -156t-141.5 -53q-43 0 -82 14t-59 34l6 34q49 -53 135 -53q73 0 122 44t65 133zM364 131l34 193q-36 99 -129 99
q-63 0 -109.5 -38.5t-67 -92t-20.5 -112.5q0 -68 34 -108.5t97 -40.5q88 0 161 100zM300 510q-39 0 -62 30.5t-13 83.5h27q-8 -42 6.5 -65.5t43.5 -23.5t51.5 23.5t30.5 65.5h27q-10 -54 -40 -84t-71 -30z" />
    <glyph glyph-name="Gdotaccent" unicode="&#x120;" horiz-adv-x="582" 
d="M300 -8q-111 0 -178.5 74.5t-67.5 195.5q0 149 89 254.5t229 105.5q112 0 188 -68l-6 -35q-73 73 -182 73q-123 0 -204.5 -95.5t-81.5 -234.5q0 -108 58 -174t156 -66q100 0 171 55l36 201h-169l5 27h198l-42 -240q-80 -73 -199 -73zM431 709q0 -10 -6.5 -17t-16.5 -7
t-16.5 7t-6.5 17t6.5 17t16.5 7t16.5 -7t6.5 -17z" />
    <glyph glyph-name="gdotaccent" unicode="&#x121;" horiz-adv-x="479" 
d="M346 27l11 59q-68 -84 -154 -84q-80 0 -121 49.5t-41 128.5q0 107 63 189.5t165 82.5q49 0 84.5 -25.5t51.5 -61.5l14 79h30l-73 -414q-18 -103 -75.5 -156t-141.5 -53q-43 0 -82 14t-59 34l6 34q49 -53 135 -53q73 0 122 44t65 133zM364 131l34 193q-36 99 -129 99
q-63 0 -109.5 -38.5t-67 -92t-20.5 -112.5q0 -68 34 -108.5t97 -40.5q88 0 161 100zM334 579q0 -10 -6.5 -17t-16.5 -7t-16.5 7t-6.5 17t6.5 17t16.5 7t16.5 -7t6.5 -17z" />
    <glyph glyph-name="Gcommaaccent" unicode="&#x122;" horiz-adv-x="582" 
d="M300 -8q-111 0 -178.5 74.5t-67.5 195.5q0 149 89 254.5t229 105.5q112 0 188 -68l-6 -35q-73 73 -182 73q-123 0 -204.5 -95.5t-81.5 -234.5q0 -108 58 -174t156 -66q100 0 171 55l36 201h-169l5 27h198l-42 -240q-80 -73 -199 -73zM215 -170l48 71q-19 3 -19 24
q0 11 7.5 19t18.5 8t18.5 -8t7.5 -19q0 -13 -11 -29l-45 -66h-25z" />
    <glyph glyph-name="gcommaaccent" unicode="&#x123;" horiz-adv-x="479" 
d="M346 27l11 59q-68 -84 -154 -84q-80 0 -121 49.5t-41 128.5q0 107 63 189.5t165 82.5q49 0 84.5 -25.5t51.5 -61.5l14 79h30l-73 -414q-18 -103 -75.5 -156t-141.5 -53q-43 0 -82 14t-59 34l6 34q49 -53 135 -53q73 0 122 44t65 133zM364 131l34 193q-36 99 -129 99
q-63 0 -109.5 -38.5t-67 -92t-20.5 -112.5q0 -68 34 -108.5t97 -40.5q88 0 161 100zM354 650l-48 -71q19 -3 19 -24q0 -11 -7.5 -19t-18.5 -8t-18.5 8t-7.5 19q0 13 11 29l45 66h25z" />
    <glyph glyph-name="Hcircumflex" unicode="&#x124;" horiz-adv-x="648" 
d="M608 614h31l-108 -614h-31l53 302h-420l-53 -302h-31l108 614h31l-50 -282h420zM439 783l70 -117h-29l-57 92l-89 -92h-33l112 117h26z" />
    <glyph glyph-name="hcircumflex" unicode="&#x125;" horiz-adv-x="479" 
d="M295 452q62 0 96 -33t34 -89q0 -16 -3 -34l-52 -296h-30l51 292q3 18 3 33q0 45 -25 71.5t-74 26.5q-53 0 -99 -30t-74 -75l-56 -318h-30l114 650h30l-51 -288q30 39 74 64.5t92 25.5zM322 793l70 -117h-29l-57 92l-89 -92h-33l112 117h26z" />
    <glyph glyph-name="Hbar" unicode="&#x126;" horiz-adv-x="672" 
d="M620 614h31l-25 -142h61l-5 -28h-61l-78 -444h-31l53 302h-420l-53 -302h-31l78 444h-60l5 28h60l25 142h31l-25 -142h420zM150 332h420l20 112h-420z" />
    <glyph glyph-name="hbar" unicode="&#x127;" horiz-adv-x="479" 
d="M78 527l5 25h50l17 98h30l-18 -98h122l-5 -25h-121l-29 -165q30 39 74 64.5t92 25.5q62 0 96 -33t34 -89q0 -16 -3 -34l-52 -296h-30l51 292q3 18 3 33q0 45 -25 71.5t-74 26.5q-53 0 -99 -30t-74 -75l-56 -318h-30l92 527h-50z" />
    <glyph glyph-name="Itilde" unicode="&#x128;" horiz-adv-x="197" 
d="M188 614l-108 -614h-31l108 614h31zM291 759h26q-18 -95 -79 -95q-21 0 -38 17.5t-31.5 35t-29.5 17.5q-38 0 -50 -67h-26q8 44 28.5 69.5t50.5 25.5q21 0 38 -17.5t31 -35t30 -17.5q38 0 50 67z" />
    <glyph glyph-name="itilde" unicode="&#x129;" horiz-adv-x="180" 
d="M226 619h26q-18 -95 -64 -95q-14 0 -24.5 11t-16 24t-13 24t-16.5 11q-25 0 -37 -67h-26q8 43 25 69t39 26q14 0 24.5 -11t16 -24t13 -24t16.5 -11q25 0 37 67zM144 444l-78 -444h-30l78 444h30z" />
    <glyph glyph-name="Imacron" unicode="&#x12a;" horiz-adv-x="197" 
d="M188 614l-108 -614h-31l108 614h31zM86 670l4 27h193l-4 -27h-193z" />
    <glyph glyph-name="imacron" unicode="&#x12b;" horiz-adv-x="180" 
d="M73 542l5 27h143l-5 -27h-143zM144 444l-78 -444h-30l78 444h30z" />
    <glyph glyph-name="Ibreve" unicode="&#x12c;" horiz-adv-x="197" 
d="M188 614l-108 -614h-31l108 614h31zM184 663q-39 0 -62 30.5t-13 83.5h27q-8 -42 6.5 -65.5t43.5 -23.5t51.5 23.5t30.5 65.5h27q-10 -54 -40 -84t-71 -30z" />
    <glyph glyph-name="ibreve" unicode="&#x12d;" horiz-adv-x="180" 
d="M142 510q-37 0 -55.5 30t-8.5 84h26q-8 -42 3.5 -65.5t36.5 -23.5t44.5 23.5t27.5 65.5h26q-10 -54 -37 -84t-63 -30zM144 444l-78 -444h-30l78 444h30z" />
    <glyph glyph-name="Iogonek" unicode="&#x12e;" horiz-adv-x="197" 
d="M188 614l-108 -614q-46 -65 -59.5 -89.5t-13.5 -45.5q0 -20 20 -20q18 0 40 14l-5 -25q-19 -13 -39 -13q-19 0 -31 11t-12 33q0 6 1 12t3.5 13t4 12.5t6.5 14t8 13.5t10 15.5t11 16t13.5 19t13.5 19.5h-2l108 614h31z" />
    <glyph glyph-name="iogonek" unicode="&#x12f;" horiz-adv-x="180" 
d="M175 579q0 -10 -6.5 -17t-16.5 -7t-16.5 7t-6.5 17t6.5 17t16.5 7t16.5 -7t6.5 -17zM36 0l78 444h30l-78 -444q-46 -65 -59.5 -89.5t-13.5 -45.5q0 -20 20 -20q18 0 40 14l-5 -25q-19 -13 -39 -13q-19 0 -31 11t-12 33q0 8 1.5 15.5t5.5 17t7 16t11.5 19.5t12.5 19
t16.5 23t17.5 25h-2z" />
    <glyph glyph-name="Idotaccent" unicode="&#x130;" horiz-adv-x="197" 
d="M188 614l-108 -614h-31l108 614h31zM212 709q0 -10 -6.5 -17t-16.5 -7t-16.5 7t-6.5 17t6.5 17t16.5 7t16.5 -7t6.5 -17z" />
    <glyph glyph-name="dotlessi" unicode="&#x131;" horiz-adv-x="180" 
d="M144 444l-78 -444h-30l78 444h30z" />
    <glyph glyph-name="IJ" unicode="&#x132;" horiz-adv-x="534" 
d="M188 614l-108 -614h-31l108 614h31zM161 36l6 34q49 -48 114 -48q63 0 96.5 35t48.5 122l77 435h31l-77 -435q-18 -100 -60 -143.5t-116 -43.5q-38 0 -70.5 13.5t-49.5 30.5z" />
    <glyph glyph-name="ij" unicode="&#x133;" horiz-adv-x="360" 
d="M144 444l-78 -444h-30l78 444h30zM175 579q0 -10 -6.5 -17t-16.5 -7t-16.5 7t-6.5 17t6.5 17t16.5 7t16.5 -7t6.5 -17zM99 -176l5 28q8 -2 17 -2q34 0 53.5 17.5t28.5 63.5l91 513h30l-91 -517q-19 -105 -112 -105q-14 0 -22 2zM355 579q0 -10 -6.5 -17t-16.5 -7t-16.5 7
t-6.5 17t6.5 17t16.5 7t16.5 -7t6.5 -17z" />
    <glyph glyph-name="Jcircumflex" unicode="&#x134;" horiz-adv-x="367" 
d="M-6 36l6 34q50 -48 114 -48q63 0 96.5 35t48.5 122l77 435h31l-77 -435q-18 -100 -60 -143.5t-116 -43.5q-38 0 -70.5 13.5t-49.5 30.5zM394 783l70 -117h-29l-57 92l-89 -92h-33l112 117h26z" />
    <glyph glyph-name="jcircumflex" unicode="&#x135;" horiz-adv-x="180" 
d="M175 643l48 -127h-28l-36 100l-72 -100h-32l94 127h26zM-81 -176l5 28q8 -2 17 -2q34 0 53.5 17.5t28.5 63.5l91 513h30l-91 -517q-19 -105 -112 -105q-14 0 -22 2z" />
    <glyph glyph-name="Kcommaaccent" unicode="&#x136;" horiz-adv-x="520" 
d="M188 614l-50 -285l382 285h46l-403 -299l303 -315h-41l-292 303l-53 -303h-31l108 614h31zM165 -170l48 71q-19 3 -19 24q0 11 7.5 19t18.5 8t18.5 -8t7.5 -19q0 -13 -11 -29l-45 -66h-25z" />
    <glyph glyph-name="kcommaaccent" unicode="&#x137;" horiz-adv-x="411" 
d="M142 237l215 -237h-37l-213 232l-41 -232h-30l114 650h30l-71 -403l277 197h45zM108 -170l48 71q-19 3 -19 24q0 11 7.5 19t18.5 8t18.5 -8t7.5 -19q0 -13 -11 -29l-45 -66h-25z" />
    <glyph glyph-name="kgreenlandic" unicode="&#x138;" horiz-adv-x="411" 
d="M142 237l215 -237h-37l-213 232l-41 -232h-30l78 444h30l-35 -197l277 197h45z" />
    <glyph glyph-name="Lacute" unicode="&#x139;" horiz-adv-x="502" 
d="M49 0l108 614h31l-103 -584h348l-5 -30h-379zM204 663h-35l106 117h35z" />
    <glyph glyph-name="lacute" unicode="&#x13a;" horiz-adv-x="180" 
d="M180 650l-114 -650h-30l114 650h30zM191 686h-35l106 117h35z" />
    <glyph glyph-name="Lcommaaccent" unicode="&#x13b;" horiz-adv-x="502" 
d="M49 0l108 614h31l-103 -584h348l-5 -30h-379zM182 -170l48 71q-19 3 -19 24q0 11 7.5 19t18.5 8t18.5 -8t7.5 -19q0 -13 -11 -29l-45 -66h-25z" />
    <glyph glyph-name="lcommaaccent" unicode="&#x13c;" horiz-adv-x="180" 
d="M180 650l-114 -650h-30l114 650h30zM-17 -170l48 71q-19 3 -19 24q0 11 7.5 19t18.5 8t18.5 -8t7.5 -19q0 -13 -11 -29l-45 -66h-25z" />
    <glyph glyph-name="Lcaron" unicode="&#x13d;" horiz-adv-x="502" 
d="M49 0l108 614h31l-103 -584h348l-5 -30h-379zM387 457h-28l80 157h28z" />
    <glyph glyph-name="lcaron" unicode="&#x13e;" horiz-adv-x="180" 
d="M180 650l-114 -650h-30l114 650h30zM229 493h-28l80 157h28z" />
    <glyph glyph-name="Ldot" unicode="&#x13f;" horiz-adv-x="502" 
d="M49 0l108 614h31l-103 -584h348l-5 -30h-379zM405 307q0 -10 -6.5 -17t-16.5 -7t-16.5 7t-6.5 17t6.5 17t16.5 7t16.5 -7t6.5 -17z" />
    <glyph glyph-name="ldot" unicode="&#x140;" horiz-adv-x="263" 
d="M180 650l-114 -650h-30l114 650h30zM268 325q0 -10 -6.5 -17t-16.5 -7t-16.5 7t-6.5 17t6.5 17t16.5 7t16.5 -7t6.5 -17z" />
    <glyph glyph-name="Lslash" unicode="&#x141;" horiz-adv-x="514" 
d="M46 262l6 30l64 23l53 299h31l-51 -288l159 58l-6 -30l-158 -58l-47 -266h348l-5 -30h-379l50 285z" />
    <glyph glyph-name="lslash" unicode="&#x142;" horiz-adv-x="220" 
d="M200 650l-44 -247l75 49l-5 -34l-76 -50l-64 -368h-30l61 349l-69 -46l5 34l70 46l47 267h30z" />
    <glyph glyph-name="Nacute" unicode="&#x143;" horiz-adv-x="611" 
d="M602 614l-108 -614h-17l-298 570l-100 -570h-30l108 614h30l288 -549l97 549h30zM403 663h-35l106 117h35z" />
    <glyph glyph-name="nacute" unicode="&#x144;" horiz-adv-x="479" 
d="M36 0l78 444h30l-14 -82q30 39 73.5 64.5t91.5 25.5q62 0 96 -33t34 -89q0 -16 -3 -34l-52 -296h-30l51 292q3 18 3 33q0 45 -25 71.5t-74 26.5q-53 0 -99 -30t-74 -75l-56 -318h-30zM307 523h-34l107 127h34z" />
    <glyph glyph-name="Ncommaaccent" unicode="&#x145;" horiz-adv-x="611" 
d="M602 614l-108 -614h-17l-298 570l-100 -570h-30l108 614h30l288 -549l97 549h30zM203 -170l48 71q-19 3 -19 24q0 11 7.5 19t18.5 8t18.5 -8t7.5 -19q0 -13 -11 -29l-45 -66h-25z" />
    <glyph glyph-name="ncommaaccent" unicode="&#x146;" horiz-adv-x="479" 
d="M36 0l78 444h30l-14 -82q30 39 73.5 64.5t91.5 25.5q62 0 96 -33t34 -89q0 -16 -3 -34l-52 -296h-30l51 292q3 18 3 33q0 45 -25 71.5t-74 26.5q-53 0 -99 -30t-74 -75l-56 -318h-30zM133 -170l48 71q-19 3 -19 24q0 11 7.5 19t18.5 8t18.5 -8t7.5 -19q0 -13 -11 -29
l-45 -66h-25z" />
    <glyph glyph-name="Ncaron" unicode="&#x147;" horiz-adv-x="611" 
d="M602 614l-108 -614h-17l-298 570l-100 -570h-30l108 614h30l288 -549l97 549h30zM374 656l-70 117h29l57 -92l89 92h33l-112 -117h-26z" />
    <glyph glyph-name="ncaron" unicode="&#x148;" horiz-adv-x="479" 
d="M36 0l78 444h30l-14 -82q30 39 73.5 64.5t91.5 25.5q62 0 96 -33t34 -89q0 -16 -3 -34l-52 -296h-30l51 292q3 18 3 33q0 45 -25 71.5t-74 26.5q-53 0 -99 -30t-74 -75l-56 -318h-30zM280 518l-68 127h29l54 -103l92 103h33l-114 -127h-26z" />
    <glyph glyph-name="Eng" unicode="&#x14a;" horiz-adv-x="611" 
d="M467 19l-288 551l-100 -570h-30l108 614h30l288 -549l97 549h30l-107 -607q-18 -100 -60 -143.5t-116 -43.5q-38 0 -70.5 13.5t-49.5 30.5l6 34q49 -48 114 -48q67 0 99.5 38.5t48.5 130.5z" />
    <glyph glyph-name="eng" unicode="&#x14b;" horiz-adv-x="479" 
d="M223 -176l5 28q8 -2 17 -2q34 0 53.5 17.5t28.5 63.5l64 361q3 18 3 33q0 45 -25 71.5t-74 26.5q-53 0 -99 -30t-74 -75l-56 -318h-30l78 444h30l-14 -82q30 39 73.5 64.5t91.5 25.5q62 0 96 -33t34 -89q0 -16 -3 -34l-65 -369q-19 -105 -112 -105q-14 0 -22 2z" />
    <glyph glyph-name="Omacron" unicode="&#x14c;" horiz-adv-x="614" 
d="M284 22q83 0 147 49.5t96 124.5t32 160q0 104 -54.5 170t-144.5 66q-83 0 -147 -49.5t-96 -124.5t-32 -160q0 -104 54.5 -170t144.5 -66zM284 -8q-100 0 -165.5 73.5t-65.5 192.5q0 90 35 172t107 137t165 55q100 0 165.5 -73.5t65.5 -192.5q0 -90 -35 -172t-107 -137
t-165 -55zM290 670l4 27h193l-4 -27h-193z" />
    <glyph glyph-name="omacron" unicode="&#x14d;" horiz-adv-x="466" 
d="M207 20q80 0 133.5 67.5t53.5 177.5q0 73 -36.5 116t-98.5 43q-80 0 -133.5 -67.5t-53.5 -177.5q0 -73 36.5 -116t98.5 -43zM207 -8q-77 0 -121.5 51t-44.5 136q0 120 62.5 196.5t155.5 76.5q77 0 121.5 -51t44.5 -136q0 -120 -62.5 -196.5t-155.5 -76.5zM193 542l5 27
h193l-5 -27h-193z" />
    <glyph glyph-name="Obreve" unicode="&#x14e;" horiz-adv-x="614" 
d="M284 22q83 0 147 49.5t96 124.5t32 160q0 104 -54.5 170t-144.5 66q-83 0 -147 -49.5t-96 -124.5t-32 -160q0 -104 54.5 -170t144.5 -66zM284 -8q-100 0 -165.5 73.5t-65.5 192.5q0 90 35 172t107 137t165 55q100 0 165.5 -73.5t65.5 -192.5q0 -90 -35 -172t-107 -137
t-165 -55zM388 663q-39 0 -62 30.5t-13 83.5h27q-8 -42 6.5 -65.5t43.5 -23.5t51.5 23.5t30.5 65.5h27q-10 -54 -40 -84t-71 -30z" />
    <glyph glyph-name="obreve" unicode="&#x14f;" horiz-adv-x="466" 
d="M207 20q80 0 133.5 67.5t53.5 177.5q0 73 -36.5 116t-98.5 43q-80 0 -133.5 -67.5t-53.5 -177.5q0 -73 36.5 -116t98.5 -43zM207 -8q-77 0 -121.5 51t-44.5 136q0 120 62.5 196.5t155.5 76.5q77 0 121.5 -51t44.5 -136q0 -120 -62.5 -196.5t-155.5 -76.5zM285 510
q-39 0 -62 30.5t-13 83.5h27q-8 -42 6.5 -65.5t43.5 -23.5t51.5 23.5t30.5 65.5h27q-10 -54 -40 -84t-71 -30z" />
    <glyph glyph-name="Ohungarumlaut" unicode="&#x150;" horiz-adv-x="614" 
d="M284 22q83 0 147 49.5t96 124.5t32 160q0 104 -54.5 170t-144.5 66q-83 0 -147 -49.5t-96 -124.5t-32 -160q0 -104 54.5 -170t144.5 -66zM284 -8q-100 0 -165.5 73.5t-65.5 192.5q0 90 35 172t107 137t165 55q100 0 165.5 -73.5t65.5 -192.5q0 -90 -35 -172t-107 -137
t-165 -55zM346 663h-33l100 117h33zM449 663h-33l100 117h33z" />
    <glyph glyph-name="ohungarumlaut" unicode="&#x151;" horiz-adv-x="466" 
d="M207 20q80 0 133.5 67.5t53.5 177.5q0 73 -36.5 116t-98.5 43q-80 0 -133.5 -67.5t-53.5 -177.5q0 -73 36.5 -116t98.5 -43zM207 -8q-77 0 -121.5 51t-44.5 136q0 120 62.5 196.5t155.5 76.5q77 0 121.5 -51t44.5 -136q0 -120 -62.5 -196.5t-155.5 -76.5zM242 523h-32
l101 127h32zM345 523h-32l101 127h32z" />
    <glyph glyph-name="OE" unicode="&#x152;" horiz-adv-x="844" 
d="M858 614l-6 -30h-332l-44 -253h300l-5 -29h-300l-48 -272h332l-5 -30h-449q-117 0 -182.5 68.5t-65.5 184.5q0 159 103.5 260t252.5 101h449zM85 253q0 -103 57.5 -163t162.5 -60h88l97 554h-88q-134 0 -225.5 -93t-91.5 -238z" />
    <glyph glyph-name="oe" unicode="&#x153;" horiz-adv-x="785" 
d="M259 452q62 0 103.5 -36t56.5 -97q29 59 78 96t113 37q72 0 108 -43t36 -121q0 -30 -6 -63h-328q-3 -23 -3 -46q0 -75 38 -117.5t104 -42.5q74 0 134 45l-7 -36q-50 -36 -127 -36q-66 0 -108.5 34t-57.5 94q-29 -59 -78 -93.5t-108 -34.5q-77 0 -121.5 51t-44.5 136
q0 120 62.5 196.5t155.5 76.5zM207 20q80 0 133.5 67.5t53.5 177.5q0 73 -36.5 116t-98.5 43q-80 0 -133.5 -67.5t-53.5 -177.5q0 -73 36.5 -116t98.5 -43zM610 424q-68 0 -117.5 -49t-67.5 -123h296q3 19 3 38q0 58 -27.5 96t-86.5 38z" />
    <glyph glyph-name="Racute" unicode="&#x154;" horiz-adv-x="541" 
d="M304 280h-175l-49 -280h-31l108 614h202q76 0 121.5 -37t45.5 -105q0 -83 -52 -133t-137 -58l138 -281h-32zM182 584l-48 -275h177q85 0 134.5 43t49.5 120q0 54 -37.5 83t-106.5 29h-169zM365 663h-35l106 117h35z" />
    <glyph glyph-name="racute" unicode="&#x155;" horiz-adv-x="286" 
d="M307 447l-5 -28q-15 5 -33 5q-43 0 -81 -29t-66 -76l-56 -319h-30l78 444h30l-14 -81q24 39 62.5 64t81.5 25q18 0 33 -5zM238 523h-34l107 127h34z" />
    <glyph glyph-name="Rcommaaccent" unicode="&#x156;" horiz-adv-x="541" 
d="M304 280h-175l-49 -280h-31l108 614h202q76 0 121.5 -37t45.5 -105q0 -83 -52 -133t-137 -58l138 -281h-32zM182 584l-48 -275h177q85 0 134.5 43t49.5 120q0 54 -37.5 83t-106.5 29h-169zM165 -170l48 71q-19 3 -19 24q0 11 7.5 19t18.5 8t18.5 -8t7.5 -19
q0 -13 -11 -29l-45 -66h-25z" />
    <glyph glyph-name="rcommaaccent" unicode="&#x157;" horiz-adv-x="286" 
d="M307 447l-5 -28q-15 5 -33 5q-43 0 -81 -29t-66 -76l-56 -319h-30l78 444h30l-14 -81q24 39 62.5 64t81.5 25q18 0 33 -5zM-15 -170l48 71q-19 3 -19 24q0 11 7.5 19t18.5 8t18.5 -8t7.5 -19q0 -13 -11 -29l-45 -66h-25z" />
    <glyph glyph-name="Rcaron" unicode="&#x158;" horiz-adv-x="541" 
d="M304 280h-175l-49 -280h-31l108 614h202q76 0 121.5 -37t45.5 -105q0 -83 -52 -133t-137 -58l138 -281h-32zM182 584l-48 -275h177q85 0 134.5 43t49.5 120q0 54 -37.5 83t-106.5 29h-169zM336 656l-70 117h29l57 -92l89 92h33l-112 -117h-26z" />
    <glyph glyph-name="rcaron" unicode="&#x159;" horiz-adv-x="286" 
d="M307 447l-5 -28q-15 5 -33 5q-43 0 -81 -29t-66 -76l-56 -319h-30l78 444h30l-14 -81q24 39 62.5 64t81.5 25q18 0 33 -5zM211 518l-68 127h29l54 -103l92 103h33l-114 -127h-26z" />
    <glyph glyph-name="Sacute" unicode="&#x15a;" horiz-adv-x="464" 
d="M16 57l7 38q65 -73 171 -73q82 0 132.5 41.5t50.5 109.5q0 36 -22.5 60t-75.5 49l-84 40q-30 14 -50 27t-38.5 40.5t-18.5 61.5q0 82 62 126.5t144 44.5q101 0 159 -52l-7 -37q-58 59 -152 59q-74 0 -124.5 -36.5t-50.5 -104.5q0 -35 24.5 -58.5t73.5 -46.5l86 -41
q105 -50 105 -132q0 -80 -61.5 -130.5t-152.5 -50.5q-118 0 -178 65zM331 663h-35l106 117h35z" />
    <glyph glyph-name="sacute" unicode="&#x15b;" horiz-adv-x="371" 
d="M12 42l7 35q54 -57 135 -57q55 0 92 27t37 79q0 45 -62 71l-79 34q-39 17 -59 38.5t-20 57.5q0 54 43 89.5t106 35.5q75 0 132 -48l-6 -34q-54 54 -126 54q-49 0 -83.5 -27t-34.5 -70q0 -26 16.5 -41.5t52.5 -30.5l81 -35q70 -30 70 -94q0 -59 -45.5 -96.5t-114.5 -37.5
q-85 0 -142 50zM254 523h-34l107 127h34z" />
    <glyph glyph-name="Scircumflex" unicode="&#x15c;" horiz-adv-x="464" 
d="M16 57l7 38q65 -73 171 -73q82 0 132.5 41.5t50.5 109.5q0 36 -22.5 60t-75.5 49l-84 40q-30 14 -50 27t-38.5 40.5t-18.5 61.5q0 82 62 126.5t144 44.5q101 0 159 -52l-7 -37q-58 59 -152 59q-74 0 -124.5 -36.5t-50.5 -104.5q0 -35 24.5 -58.5t73.5 -46.5l86 -41
q105 -50 105 -132q0 -80 -61.5 -130.5t-152.5 -50.5q-118 0 -178 65zM348 783l70 -117h-29l-57 92l-89 -92h-33l112 117h26z" />
    <glyph glyph-name="scircumflex" unicode="&#x15d;" horiz-adv-x="371" 
d="M12 42l7 35q54 -57 135 -57q55 0 92 27t37 79q0 45 -62 71l-79 34q-39 17 -59 38.5t-20 57.5q0 54 43 89.5t106 35.5q75 0 132 -48l-6 -34q-54 54 -126 54q-49 0 -83.5 -27t-34.5 -70q0 -26 16.5 -41.5t52.5 -30.5l81 -35q70 -30 70 -94q0 -59 -45.5 -96.5t-114.5 -37.5
q-85 0 -142 50zM270 643l68 -127h-29l-54 103l-92 -103h-33l114 127h26z" />
    <glyph glyph-name="Scedilla" unicode="&#x15e;" horiz-adv-x="464" 
d="M16 57l7 38q65 -73 171 -73q82 0 132.5 41.5t50.5 109.5q0 36 -22.5 60t-75.5 49l-84 40q-30 14 -50 27t-38.5 40.5t-18.5 61.5q0 82 62 126.5t144 44.5q101 0 159 -52l-7 -37q-58 59 -152 59q-74 0 -124.5 -36.5t-50.5 -104.5q0 -35 24.5 -58.5t73.5 -46.5l86 -41
q105 -50 105 -132q0 -80 -61.5 -130.5t-152.5 -50.5q-118 0 -178 65zM133 -170h-31l76 124h31z" />
    <glyph glyph-name="scedilla" unicode="&#x15f;" horiz-adv-x="371" 
d="M12 42l7 35q54 -57 135 -57q55 0 92 27t37 79q0 45 -62 71l-79 34q-39 17 -59 38.5t-20 57.5q0 54 43 89.5t106 35.5q75 0 132 -48l-6 -34q-54 54 -126 54q-49 0 -83.5 -27t-34.5 -70q0 -26 16.5 -41.5t52.5 -30.5l81 -35q70 -30 70 -94q0 -59 -45.5 -96.5t-114.5 -37.5
q-85 0 -142 50zM81 -170h-31l76 124h31z" />
    <glyph glyph-name="Scaron" unicode="&#x160;" horiz-adv-x="464" 
d="M16 57l7 38q65 -73 171 -73q82 0 132.5 41.5t50.5 109.5q0 36 -22.5 60t-75.5 49l-84 40q-30 14 -50 27t-38.5 40.5t-18.5 61.5q0 82 62 126.5t144 44.5q101 0 159 -52l-7 -37q-58 59 -152 59q-74 0 -124.5 -36.5t-50.5 -104.5q0 -35 24.5 -58.5t73.5 -46.5l86 -41
q105 -50 105 -132q0 -80 -61.5 -130.5t-152.5 -50.5q-118 0 -178 65zM302 656l-70 117h29l57 -92l89 92h33l-112 -117h-26z" />
    <glyph glyph-name="scaron" unicode="&#x161;" horiz-adv-x="371" 
d="M12 42l7 35q54 -57 135 -57q55 0 92 27t37 79q0 45 -62 71l-79 34q-39 17 -59 38.5t-20 57.5q0 54 43 89.5t106 35.5q75 0 132 -48l-6 -34q-54 54 -126 54q-49 0 -83.5 -27t-34.5 -70q0 -26 16.5 -41.5t52.5 -30.5l81 -35q70 -30 70 -94q0 -59 -45.5 -96.5t-114.5 -37.5
q-85 0 -142 50zM227 518l-68 127h29l54 -103l92 103h33l-114 -127h-26z" />
    <glyph glyph-name="Tcedilla" unicode="&#x162;" horiz-adv-x="558" 
d="M95 584l6 30h496l-6 -30h-233l-102 -584h-31l102 584h-232zM174 -170l48 71q-19 3 -19 24q0 11 7.5 19t18.5 8t18.5 -8t7.5 -19q0 -13 -11 -29l-45 -66h-25z" />
    <glyph glyph-name="tcedilla" unicode="&#x163;" horiz-adv-x="274" 
d="M181 416l-73 -416h-30l73 416h-97l5 28h97l20 112h30l-20 -112h107l-5 -28h-107zM25 -170l48 71q-19 3 -19 24q0 11 7.5 19t18.5 8t18.5 -8t7.5 -19q0 -13 -11 -29l-45 -66h-25z" />
    <glyph glyph-name="Tcaron" unicode="&#x164;" horiz-adv-x="558" 
d="M95 584l6 30h496l-6 -30h-233l-102 -584h-31l102 584h-232zM345 656l-70 117h29l57 -92l89 92h33l-112 -117h-26z" />
    <glyph glyph-name="tcaron" unicode="&#x165;" horiz-adv-x="274" 
d="M181 416l-73 -416h-30l73 416h-97l5 28h97l20 112h30l-20 -112h107l-5 -28h-107zM275 503h-28l80 157h28z" />
    <glyph glyph-name="Tbar" unicode="&#x166;" horiz-adv-x="558" 
d="M95 584l6 30h496l-6 -30h-233l-44 -252h122l-5 -28h-122l-53 -304h-31l53 304h-118l5 28h118l44 252h-232z" />
    <glyph glyph-name="tbar" unicode="&#x167;" horiz-adv-x="274" 
d="M181 416l-23 -132h84l-5 -27h-84l-45 -257h-30l45 257h-79l5 27h79l23 132h-97l5 28h97l20 112h30l-20 -112h107l-5 -28h-107z" />
    <glyph glyph-name="Utilde" unicode="&#x168;" horiz-adv-x="604" 
d="M277 -8q-91 0 -149 51t-58 144q0 22 5 54l66 373h31l-65 -368q-5 -32 -5 -54q0 -84 49 -127.5t126 -43.5q90 0 150 56.5t80 168.5l65 368h31l-66 -373q-22 -124 -90.5 -186.5t-169.5 -62.5zM488 759h26q-18 -95 -79 -95q-21 0 -38 17.5t-31.5 35t-29.5 17.5
q-38 0 -50 -67h-26q8 44 28.5 69.5t50.5 25.5q21 0 38 -17.5t31 -35t30 -17.5q38 0 50 67z" />
    <glyph glyph-name="utilde" unicode="&#x169;" horiz-adv-x="477" 
d="M439 444l-78 -444h-30l14 82q-30 -39 -73.5 -64.5t-91.5 -25.5q-61 0 -94.5 32.5t-33.5 88.5q0 17 3 35l52 296h30l-51 -292q-3 -18 -3 -35q0 -45 24 -70.5t73 -25.5q53 0 99 30t74 75l56 318h30zM395 619h26q-18 -95 -79 -95q-21 0 -38 17.5t-31.5 35t-29.5 17.5
q-38 0 -50 -67h-26q8 44 28.5 69.5t50.5 25.5q17 0 31.5 -11t23 -24t20 -24t24.5 -11q38 0 50 67z" />
    <glyph glyph-name="Umacron" unicode="&#x16a;" horiz-adv-x="604" 
d="M277 -8q-91 0 -149 51t-58 144q0 22 5 54l66 373h31l-65 -368q-5 -32 -5 -54q0 -84 49 -127.5t126 -43.5q90 0 150 56.5t80 168.5l65 368h31l-66 -373q-22 -124 -90.5 -186.5t-169.5 -62.5zM284 670l4 27h193l-4 -27h-193z" />
    <glyph glyph-name="umacron" unicode="&#x16b;" horiz-adv-x="477" 
d="M439 444l-78 -444h-30l14 82q-30 -39 -73.5 -64.5t-91.5 -25.5q-61 0 -94.5 32.5t-33.5 88.5q0 17 3 35l52 296h30l-51 -292q-3 -18 -3 -35q0 -45 24 -70.5t73 -25.5q53 0 99 30t74 75l56 318h30zM192 542l5 27h193l-5 -27h-193z" />
    <glyph glyph-name="Ubreve" unicode="&#x16c;" horiz-adv-x="604" 
d="M277 -8q-91 0 -149 51t-58 144q0 22 5 54l66 373h31l-65 -368q-5 -32 -5 -54q0 -84 49 -127.5t126 -43.5q90 0 150 56.5t80 168.5l65 368h31l-66 -373q-22 -124 -90.5 -186.5t-169.5 -62.5zM382 663q-39 0 -62 30.5t-13 83.5h27q-8 -42 6.5 -65.5t43.5 -23.5t51.5 23.5
t30.5 65.5h27q-10 -54 -40 -84t-71 -30z" />
    <glyph glyph-name="ubreve" unicode="&#x16d;" horiz-adv-x="477" 
d="M439 444l-78 -444h-30l14 82q-30 -39 -73.5 -64.5t-91.5 -25.5q-61 0 -94.5 32.5t-33.5 88.5q0 17 3 35l52 296h30l-51 -292q-3 -18 -3 -35q0 -45 24 -70.5t73 -25.5q53 0 99 30t74 75l56 318h30zM284 510q-39 0 -62 30.5t-13 83.5h27q-8 -42 6.5 -65.5t43.5 -23.5
t51.5 23.5t30.5 65.5h27q-10 -54 -40 -84t-71 -30z" />
    <glyph glyph-name="Uring" unicode="&#x16e;" horiz-adv-x="604" 
d="M277 -8q-91 0 -149 51t-58 144q0 22 5 54l66 373h31l-65 -368q-5 -32 -5 -54q0 -84 49 -127.5t126 -43.5q90 0 150 56.5t80 168.5l65 368h31l-66 -373q-22 -124 -90.5 -186.5t-169.5 -62.5zM382 672q22 0 38 15.5t16 38.5q0 21 -14.5 35.5t-35.5 14.5q-22 0 -38 -15.5
t-16 -38.5q0 -21 14.5 -35.5t35.5 -14.5zM381 647q-31 0 -52.5 21t-21.5 52q0 33 23 57t57 24q31 0 52.5 -21t21.5 -52q0 -33 -23 -57t-57 -24z" />
    <glyph glyph-name="uring" unicode="&#x16f;" horiz-adv-x="477" 
d="M439 444l-78 -444h-30l14 82q-30 -39 -73.5 -64.5t-91.5 -25.5q-61 0 -94.5 32.5t-33.5 88.5q0 17 3 35l52 296h30l-51 -292q-3 -18 -3 -35q0 -45 24 -70.5t73 -25.5q53 0 99 30t74 75l56 318h30zM294 528q22 0 38 15.5t16 38.5q0 21 -14.5 35.5t-35.5 14.5
q-22 0 -38 -15.5t-16 -38.5q0 -21 14.5 -35.5t35.5 -14.5zM293 503q-31 0 -52.5 21t-21.5 52q0 33 23 57t57 24q31 0 52.5 -21t21.5 -52q0 -33 -23 -57t-57 -24z" />
    <glyph glyph-name="Uhungarumlaut" unicode="&#x170;" horiz-adv-x="604" 
d="M277 -8q-91 0 -149 51t-58 144q0 22 5 54l66 373h31l-65 -368q-5 -32 -5 -54q0 -84 49 -127.5t126 -43.5q90 0 150 56.5t80 168.5l65 368h31l-66 -373q-22 -124 -90.5 -186.5t-169.5 -62.5zM331 663h-33l100 117h33zM434 663h-33l100 117h33z" />
    <glyph glyph-name="uhungarumlaut" unicode="&#x171;" horiz-adv-x="477" 
d="M439 444l-78 -444h-30l14 82q-30 -39 -73.5 -64.5t-91.5 -25.5q-61 0 -94.5 32.5t-33.5 88.5q0 17 3 35l52 296h30l-51 -292q-3 -18 -3 -35q0 -45 24 -70.5t73 -25.5q53 0 99 30t74 75l56 318h30zM242 523h-32l101 127h32zM345 523h-32l101 127h32z" />
    <glyph glyph-name="Uogonek" unicode="&#x172;" horiz-adv-x="604" 
d="M277 -8q-91 0 -149 51t-58 144q0 22 5 54l66 373h31l-65 -368q-5 -32 -5 -54q0 -84 49 -127.5t126 -43.5q90 0 150 56.5t80 168.5l65 368h31l-66 -373q-15 -81 -46 -128t-92 -98q-44 -36 -69.5 -76.5t-25.5 -73.5q0 -20 20 -20q18 0 40 14l-5 -25q-19 -13 -39 -13
q-19 0 -31 11t-12 33q0 53 71 136q-33 -9 -71 -9z" />
    <glyph glyph-name="uogonek" unicode="&#x173;" horiz-adv-x="477" 
d="M331 0l14 82q-30 -39 -73.5 -64.5t-91.5 -25.5q-61 0 -94.5 32.5t-33.5 88.5q0 17 3 35l52 296h30l-51 -292q-3 -18 -3 -35q0 -45 24 -70.5t73 -25.5q53 0 99 30t74 75l56 318h30l-78 -444q-46 -65 -59.5 -89.5t-13.5 -45.5q0 -20 20 -20q18 0 40 14l-5 -25
q-19 -13 -39 -13q-19 0 -31 11t-12 33q0 8 1.5 15.5t5.5 17t7 16t11.5 19.5t12.5 19t16.5 23t17.5 25h-2z" />
    <glyph glyph-name="Wcircumflex" unicode="&#x174;" horiz-adv-x="753" 
d="M437 614h26l47 -557l262 557h31l-289 -614h-27l-48 555l-261 -555h-27l-53 614h30l47 -557zM490 783l70 -117h-29l-57 92l-89 -92h-33l112 117h26z" />
    <glyph glyph-name="wcircumflex" unicode="&#x175;" horiz-adv-x="586" 
d="M342 444l38 -385l197 385h30l-227 -444h-21l-38 389l-198 -389h-21l-45 444h28l40 -385l195 385h22zM376 643l68 -127h-29l-54 103l-92 -103h-33l114 127h26z" />
    <glyph glyph-name="Ycircumflex" unicode="&#x176;" horiz-adv-x="519" 
d="M276 297l261 317h36l-285 -346l-47 -268h-31l47 268l-163 346h33zM375 783l70 -117h-29l-57 92l-89 -92h-33l112 117h26z" />
    <glyph glyph-name="ycircumflex" unicode="&#x177;" horiz-adv-x="416" 
d="M67 -170h-32l111 184l-89 430h31l79 -394l237 394h33zM286 643l68 -127h-29l-54 103l-92 -103h-33l114 127h26z" />
    <glyph glyph-name="Ydieresis" unicode="&#x178;" horiz-adv-x="519" 
d="M276 297l261 317h36l-285 -346l-47 -268h-31l47 268l-163 346h33zM271 710q0 10 6.5 16.5t16.5 6.5t16.5 -6.5t6.5 -16.5t-6.5 -16.5t-16.5 -6.5t-16.5 6.5t-6.5 16.5zM385 710q0 10 6.5 16.5t16.5 6.5t16.5 -6.5t6.5 -16.5t-6.5 -16.5t-16.5 -6.5t-16.5 6.5t-6.5 16.5z
" />
    <glyph glyph-name="Zacute" unicode="&#x179;" horiz-adv-x="509" 
d="M437 30l-5 -30h-447v4l514 580h-380l6 30h435v-4l-513 -580h390zM350 663h-35l106 117h35z" />
    <glyph glyph-name="zacute" unicode="&#x17a;" horiz-adv-x="411" 
d="M327 28l-4 -28h-334v4l374 412h-269l5 28h322v-4l-373 -412h279zM291 523h-34l107 127h34z" />
    <glyph glyph-name="Zdotaccent" unicode="&#x17b;" horiz-adv-x="509" 
d="M437 30l-5 -30h-447v4l514 580h-380l6 30h435v-4l-513 -580h390zM366 709q0 -10 -6.5 -17t-16.5 -7t-16.5 7t-6.5 17t6.5 17t16.5 7t16.5 -7t6.5 -17z" />
    <glyph glyph-name="zdotaccent" unicode="&#x17c;" horiz-adv-x="411" 
d="M327 28l-4 -28h-334v4l374 412h-269l5 28h322v-4l-373 -412h279zM309 579q0 -10 -6.5 -17t-16.5 -7t-16.5 7t-6.5 17t6.5 17t16.5 7t16.5 -7t6.5 -17z" />
    <glyph glyph-name="Zcaron" unicode="&#x17d;" horiz-adv-x="509" 
d="M437 30l-5 -30h-447v4l514 580h-380l6 30h435v-4l-513 -580h390zM321 656l-70 117h29l57 -92l89 92h33l-112 -117h-26z" />
    <glyph glyph-name="zcaron" unicode="&#x17e;" horiz-adv-x="411" 
d="M327 28l-4 -28h-334v4l374 412h-269l5 28h322v-4l-373 -412h279zM263 518l-68 127h29l54 -103l92 103h33l-114 -127h-26z" />
    <glyph glyph-name="florin" unicode="&#x192;" horiz-adv-x="360" 
d="M78 306l5 26h86l52 169q38 121 130 121q35 0 59 -12l-3 -30q-28 14 -56 14q-71 0 -100 -97l-51 -165h98l-5 -26h-101l-108 -355q-18 -59 -47 -90t-75 -31q-35 0 -59 12l3 30q28 -14 56 -14q36 0 56 22.5t36 74.5l107 351h-83z" />
    <glyph glyph-name="Aringacute" unicode="&#x1fa;" horiz-adv-x="567" 
d="M357 614h28l124 -614h-30l-43 215h-285l-128 -215h-34zM364 571l-195 -327h261zM385 643q-31 0 -52.5 18.5t-21.5 45.5q0 29 23 50.5t57 21.5q31 0 52.5 -18.5t21.5 -45.5q0 -29 -23 -50.5t-57 -21.5zM386 667q22 0 38 13t16 33q0 18 -14.5 30t-35.5 12q-22 0 -38 -13
t-16 -33q0 -18 14.5 -30t35.5 -12zM428 810h-35l74 82h35z" />
    <glyph glyph-name="aringacute" unicode="&#x1fb;" horiz-adv-x="426" 
d="M277 506q22 0 38 13t16 33q0 18 -14.5 30t-35.5 12q-22 0 -38 -13t-16 -33q0 -18 14.5 -30t35.5 -12zM276 482q-31 0 -52.5 18.5t-21.5 45.5q0 29 23 50.5t57 21.5q31 0 52.5 -18.5t21.5 -45.5q0 -29 -23 -50.5t-57 -21.5zM319 649h-35l74 82h35zM322 201l20 116
q2 16 2 23q0 39 -24.5 61.5t-68.5 22.5q-73 0 -142 -42l6 34q61 36 136 36q58 0 91 -29t33 -80q0 -11 -3 -29l-55 -314h-30l8 48q-22 -23 -58.5 -39t-74.5 -16q-63 0 -104 35.5t-41 88.5q0 64 51 104t120 40q46 0 81.5 -18.5t52.5 -41.5zM303 95l12 64q-9 31 -44 52.5
t-83 21.5q-55 0 -98 -30.5t-43 -85.5q0 -43 33.5 -69.5t81.5 -26.5q47 0 85.5 21t55.5 53z" />
    <glyph glyph-name="AEacute" unicode="&#x1fc;" horiz-adv-x="865" 
d="M496 614h383l-6 -30h-332l-44 -253h300l-5 -29h-300l-48 -272h332l-5 -30h-363l37 215h-242l-178 -215h-36zM511 587l-284 -343h223zM696 663h-35l106 117h35z" />
    <glyph glyph-name="aeacute" unicode="&#x1fd;" horiz-adv-x="719" 
d="M331 119q-27 -54 -77 -90t-113 -36q-56 0 -90 32.5t-34 84.5q0 69 52 105.5t135 36.5h129q12 77 12 88q0 39 -24.5 61.5t-68.5 22.5q-73 0 -142 -42l6 34q61 36 136 36q53 0 85 -27t35 -78q26 47 72 76t100 29q72 0 108 -43t36 -121q0 -30 -6 -63h-327q-3 -23 -3 -46
q0 -75 38 -117.5t103 -42.5q74 0 134 45l-7 -36q-50 -36 -127 -36q-65 0 -106.5 33.5t-55.5 93.5zM141 20q58 0 102.5 34t69.5 85l15 86h-123q-70 0 -114.5 -27.5t-44.5 -87.5q0 -40 26.5 -65t68.5 -25zM544 424q-68 0 -117 -49t-67 -123h295q3 19 3 38q0 58 -27.5 96
t-86.5 38zM420 523h-34l107 127h34z" />
    <glyph glyph-name="Oslashacute" unicode="&#x1fe;" horiz-adv-x="624" 
d="M47 0l67 76q-56 74 -56 182q0 90 35 172t107 137t165 55q100 0 164 -72l55 64l22 -18l-60 -68q50 -69 50 -172q0 -90 -35 -172t-107 -137t-165 -55t-156 63l-64 -73zM90 258q0 -97 44 -159l375 429q-54 64 -144 64q-83 0 -147 -49.5t-96 -124.5t-32 -160zM289 22
q83 0 147 49.5t96 124.5t32 160q0 86 -38 149l-374 -428q52 -55 137 -55zM405 663h-35l106 117h35z" />
    <glyph glyph-name="oslashacute" unicode="&#x1ff;" horiz-adv-x="476" 
d="M31 -12l52 63q-37 49 -37 128q0 120 62.5 196.5t155.5 76.5q72 0 116 -46l51 61l21 -15l-55 -66q33 -50 33 -121q0 -120 -62.5 -196.5t-155.5 -76.5q-68 0 -111 40l-49 -59zM77 179q0 -66 26 -105l259 310q-37 40 -98 40q-80 0 -133.5 -67.5t-53.5 -177.5zM212 20
q80 0 133.5 67.5t53.5 177.5q0 59 -22 97l-257 -308q34 -34 92 -34zM309 523h-34l107 127h34z" />
    <glyph glyph-name="Scommaaccent" unicode="&#x218;" horiz-adv-x="464" 
d="M16 57l7 38q65 -73 171 -73q82 0 132.5 41.5t50.5 109.5q0 36 -22.5 60t-75.5 49l-84 40q-30 14 -50 27t-38.5 40.5t-18.5 61.5q0 82 62 126.5t144 44.5q101 0 159 -52l-7 -37q-58 59 -152 59q-74 0 -124.5 -36.5t-50.5 -104.5q0 -35 24.5 -58.5t73.5 -46.5l86 -41
q105 -50 105 -132q0 -80 -61.5 -130.5t-152.5 -50.5q-118 0 -178 65zM131 -170l48 71q-19 3 -19 24q0 11 7.5 19t18.5 8t18.5 -8t7.5 -19q0 -13 -11 -29l-45 -66h-25z" />
    <glyph glyph-name="scommaaccent" unicode="&#x219;" horiz-adv-x="371" 
d="M12 42l7 35q54 -57 135 -57q55 0 92 27t37 79q0 45 -62 71l-79 34q-39 17 -59 38.5t-20 57.5q0 54 43 89.5t106 35.5q75 0 132 -48l-6 -34q-54 54 -126 54q-49 0 -83.5 -27t-34.5 -70q0 -26 16.5 -41.5t52.5 -30.5l81 -35q70 -30 70 -94q0 -59 -45.5 -96.5t-114.5 -37.5
q-85 0 -142 50zM79 -170l48 71q-19 3 -19 24q0 11 7.5 19t18.5 8t18.5 -8t7.5 -19q0 -13 -11 -29l-45 -66h-25z" />
    <glyph glyph-name="uni0237" unicode="&#x237;" horiz-adv-x="180" 
d="M-81 -176l5 28q8 -2 17 -2q34 0 53.5 17.5t28.5 63.5l91 513h30l-91 -517q-19 -105 -112 -105q-14 0 -22 2z" />
    <glyph glyph-name="circumflex" unicode="&#x2c6;" 
d="M286 643l68 -127h-29l-54 103l-92 -103h-33l114 127h26z" />
    <glyph glyph-name="caron" unicode="&#x2c7;" 
d="M214 518l-68 127h29l54 -103l92 103h33l-114 -127h-26z" />
    <glyph glyph-name="breve" unicode="&#x2d8;" 
d="M234 510q-39 0 -62 30.5t-13 83.5h27q-8 -42 6.5 -65.5t43.5 -23.5t51.5 23.5t30.5 65.5h27q-10 -54 -40 -84t-71 -30z" />
    <glyph glyph-name="dotaccent" unicode="&#x2d9;" 
d="M273 579q0 -10 -6.5 -17t-16.5 -7t-16.5 7t-6.5 17t6.5 17t16.5 7t16.5 -7t6.5 -17z" />
    <glyph glyph-name="ring" unicode="&#x2da;" 
d="M247 528q22 0 38 15.5t16 38.5q0 21 -14.5 35.5t-35.5 14.5q-22 0 -38 -15.5t-16 -38.5q0 -21 14.5 -35.5t35.5 -14.5zM246 503q-31 0 -52.5 21t-21.5 52q0 33 23 57t57 24q31 0 52.5 -21t21.5 -52q0 -33 -23 -57t-57 -24z" />
    <glyph glyph-name="ogonek" unicode="&#x2db;" 
d="M273 3h29q-47 -68 -61 -92.5t-14 -45.5q0 -20 20 -20q18 0 40 14l-5 -25q-19 -13 -39 -13q-19 0 -31 11t-12 33q0 7 1.5 14.5t3.5 13.5t6.5 15.5t8 15t11 17.5t12 18t15 21t15.5 23z" />
    <glyph glyph-name="tilde" unicode="&#x2dc;" 
d="M351 619h26q-18 -95 -79 -95q-21 0 -38 17.5t-31.5 35t-29.5 17.5q-38 0 -50 -67h-26q8 44 28.5 69.5t50.5 25.5q17 0 31.5 -11t23 -24t20 -24t24.5 -11q38 0 50 67z" />
    <glyph glyph-name="hungarumlaut" unicode="&#x2dd;" 
d="M164 523h-32l101 127h32zM267 523h-32l101 127h32z" />
    <glyph glyph-name="Wgrave" unicode="&#x1e80;" horiz-adv-x="753" 
d="M437 614h26l47 -557l262 557h31l-289 -614h-27l-48 555l-261 -555h-27l-53 614h30l47 -557zM474 663h-30l-64 117h30z" />
    <glyph glyph-name="wgrave" unicode="&#x1e81;" horiz-adv-x="586" 
d="M342 444l38 -385l197 385h30l-227 -444h-21l-38 389l-198 -389h-21l-45 444h28l40 -385l195 385h22zM363 523h-29l-63 127h29z" />
    <glyph glyph-name="Wacute" unicode="&#x1e82;" horiz-adv-x="753" 
d="M437 614h26l47 -557l262 557h31l-289 -614h-27l-48 555l-261 -555h-27l-53 614h30l47 -557zM474 663h-35l106 117h35z" />
    <glyph glyph-name="wacute" unicode="&#x1e83;" horiz-adv-x="586" 
d="M342 444l38 -385l197 385h30l-227 -444h-21l-38 389l-198 -389h-21l-45 444h28l40 -385l195 385h22zM360 523h-34l107 127h34z" />
    <glyph glyph-name="Wdieresis" unicode="&#x1e84;" horiz-adv-x="753" 
d="M437 614h26l47 -557l262 557h31l-289 -614h-27l-48 555l-261 -555h-27l-53 614h30l47 -557zM386 710q0 10 6.5 16.5t16.5 6.5t16.5 -6.5t6.5 -16.5t-6.5 -16.5t-16.5 -6.5t-16.5 6.5t-6.5 16.5zM500 710q0 10 6.5 16.5t16.5 6.5t16.5 -6.5t6.5 -16.5t-6.5 -16.5
t-16.5 -6.5t-16.5 6.5t-6.5 16.5z" />
    <glyph glyph-name="wdieresis" unicode="&#x1e85;" horiz-adv-x="586" 
d="M342 444l38 -385l197 385h30l-227 -444h-21l-38 389l-198 -389h-21l-45 444h28l40 -385l195 385h22zM274 570q0 10 6.5 16.5t16.5 6.5t16.5 -6.5t6.5 -16.5t-6.5 -16.5t-16.5 -6.5t-16.5 6.5t-6.5 16.5zM388 570q0 10 6.5 16.5t16.5 6.5t16.5 -6.5t6.5 -16.5t-6.5 -16.5
t-16.5 -6.5t-16.5 6.5t-6.5 16.5z" />
    <glyph glyph-name="Ygrave" unicode="&#x1ef2;" horiz-adv-x="519" 
d="M276 297l261 317h36l-285 -346l-47 -268h-31l47 268l-163 346h33zM359 663h-30l-64 117h30z" />
    <glyph glyph-name="ygrave" unicode="&#x1ef3;" horiz-adv-x="416" 
d="M67 -170h-32l111 184l-89 430h31l79 -394l237 394h33zM272 523h-29l-63 127h29z" />
    <glyph glyph-name="endash" unicode="&#x2013;" horiz-adv-x="475" 
d="M44 245l4 27h395l-4 -27h-395z" />
    <glyph glyph-name="emdash" unicode="&#x2014;" horiz-adv-x="846" 
d="M44 245l4 27h766l-4 -27h-766z" />
    <glyph glyph-name="quoteleft" unicode="&#x2018;" horiz-adv-x="121" 
d="M172 614l-63 -94q19 -3 19 -24q0 -11 -7.5 -19t-18.5 -8t-18.5 8t-7.5 19q0 12 11 29l60 89h25z" />
    <glyph glyph-name="quoteright" unicode="&#x2019;" horiz-adv-x="121" 
d="M60 477l63 94q-19 3 -19 24q0 11 7.5 19t18.5 8t18.5 -8t7.5 -19q0 -13 -11 -29l-60 -89h-25z" />
    <glyph glyph-name="quotesinglbase" unicode="&#x201a;" horiz-adv-x="101" 
d="M-31 -94l63 94q-19 3 -19 24q0 11 7.5 19t18.5 8t18.5 -8t7.5 -19q0 -12 -11 -29l-60 -89h-25z" />
    <glyph glyph-name="quotedblleft" unicode="&#x201c;" horiz-adv-x="222" 
d="M172 614l-63 -94q19 -3 19 -24q0 -11 -7.5 -19t-18.5 -8t-18.5 8t-7.5 19q0 12 11 29l60 89h25zM273 614l-63 -94q19 -3 19 -24q0 -11 -7.5 -19t-18.5 -8t-18.5 8t-7.5 19q0 12 11 29l60 89h25z" />
    <glyph glyph-name="quotedblright" unicode="&#x201d;" horiz-adv-x="222" 
d="M60 477l63 94q-19 3 -19 24q0 11 7.5 19t18.5 8t18.5 -8t7.5 -19q0 -13 -11 -29l-60 -89h-25zM161 477l63 94q-19 3 -19 24q0 11 7.5 19t18.5 8t18.5 -8t7.5 -19q0 -13 -11 -29l-60 -89h-25z" />
    <glyph glyph-name="quotedblbase" unicode="&#x201e;" horiz-adv-x="222" 
d="M-31 -94l63 94q-19 3 -19 24q0 11 7.5 19t18.5 8t18.5 -8t7.5 -19q0 -12 -11 -29l-60 -89h-25zM70 -94l63 94q-19 3 -19 24q0 11 7.5 19t18.5 8t18.5 -8t7.5 -19q0 -12 -11 -29l-60 -89h-25z" />
    <glyph glyph-name="dagger" unicode="&#x2020;" horiz-adv-x="288" 
d="M85 532l5 26h99l16 92h28l-16 -92h99l-5 -26h-99l-35 -202h-28l35 202h-99z" />
    <glyph glyph-name="daggerdbl" unicode="&#x2021;" horiz-adv-x="288" 
d="M85 530l5 26h98l17 94h28l-17 -94h100l-5 -26h-99l-14 -80h99l-5 -26h-99l-16 -94h-28l16 94h-99l5 26h99l14 80h-99z" />
    <glyph glyph-name="bullet" unicode="&#x2022;" horiz-adv-x="325" 
d="M289 259q0 -53 -35.5 -87.5t-87.5 -34.5t-87 34.5t-35 87.5t35 87.5t87 34.5t87.5 -34.5t35.5 -87.5z" />
    <glyph glyph-name="ellipsis" unicode="&#x2026;" horiz-adv-x="394" 
d="M2 25q0 11 7.5 19t18.5 8t18.5 -8t7.5 -19t-7.5 -19t-18.5 -8t-18.5 8t-7.5 19zM140 25q0 11 7.5 19t18.5 8t18.5 -8t7.5 -19t-7.5 -19t-18.5 -8t-18.5 8t-7.5 19zM278 25q0 11 7.5 19t18.5 8t18.5 -8t7.5 -19t-7.5 -19t-18.5 -8t-18.5 8t-7.5 19z" />
    <glyph glyph-name="perthousand" unicode="&#x2030;" horiz-adv-x="851" 
d="M189 622q50 0 84.5 -34t34.5 -84t-36.5 -88.5t-88.5 -38.5q-50 0 -84.5 34t-34.5 84t36.5 88.5t88.5 38.5zM184 407q38 0 66 28.5t28 68.5q0 36 -26.5 62t-63.5 26q-38 0 -66 -28.5t-28 -68.5q0 -36 26.5 -62t63.5 -26zM36 0l500 614h32l-500 -614h-32zM415 -8
q-50 0 -84.5 34t-34.5 84t36.5 88.5t88.5 38.5q50 0 84.5 -34t34.5 -84t-36.5 -88.5t-88.5 -38.5zM420 207q-38 0 -66 -28.5t-28 -68.5q0 -36 26.5 -62t63.5 -26q38 0 66 28.5t28 68.5q0 36 -26.5 62t-63.5 26zM695 -8q-50 0 -84.5 34t-34.5 84t36.5 88.5t88.5 38.5
q50 0 84.5 -34t34.5 -84t-36.5 -88.5t-88.5 -38.5zM700 207q-38 0 -66 -28.5t-28 -68.5q0 -36 26.5 -62t63.5 -26q38 0 66 28.5t28 68.5q0 36 -26.5 62t-63.5 26z" />
    <glyph glyph-name="guilsinglleft" unicode="&#x2039;" horiz-adv-x="175" 
d="M133 94h-30l-69 128l114 128h36l-117 -131z" />
    <glyph glyph-name="guilsinglright" unicode="&#x203a;" horiz-adv-x="175" 
d="M52 350h30l69 -128l-114 -128h-36l117 131z" />
    <glyph glyph-name="fraction" unicode="&#x2044;" horiz-adv-x="199" 
d="M374 614l-517 -614h-32l517 614h32z" />
    <glyph glyph-name="Euro" unicode="&#x20ac;" horiz-adv-x="498" 
d="M48 346l4 27h57q30 112 102 180.5t171 68.5q96 0 146 -57l-7 -37q-50 64 -139 64q-85 0 -149.5 -59.5t-91.5 -159.5h238l-11 -27h-234q-9 -45 -10 -83h216l-12 -27h-205v-2q0 -98 43 -155t118 -57q48 0 83.5 12t74.5 43l-7 -38q-60 -47 -151 -47q-88 0 -140 64.5
t-52 177.5v2h-64l5 27h60q1 36 10 83h-55z" />
    <glyph glyph-name="uni2117" unicode="&#x2117;" horiz-adv-x="710" 
d="M689 307q0 -136 -91.5 -225.5t-223.5 -89.5t-223.5 89.5t-91.5 225.5t91.5 225.5t223.5 89.5t223.5 -89.5t91.5 -225.5zM663 307q0 124 -84 206.5t-205 82.5t-205 -82.5t-84 -206.5t84 -206.5t205 -82.5t205 82.5t84 206.5zM407 282h-103v-158h-30v369h133q55 0 86 -27
t31 -78q0 -52 -30.5 -79t-86.5 -27zM495 388q0 36 -23 56.5t-65 20.5h-103v-154h103q43 0 65.5 20t22.5 57z" />
    <glyph glyph-name="trademark" unicode="&#x2122;" horiz-adv-x="551" 
d="M72 590l4 24h206l-4 -24h-89l-41 -230h-28l41 230h-89zM415 422h-4l-62 140l-36 -202h-28l45 254h26l64 -148l117 148h25l-45 -254h-28l36 202z" />
    <glyph glyph-name="uni2153" unicode="&#x2153;" horiz-adv-x="645" 
d="M586 614l-517 -614h-32l517 614h32zM405 301l5 27h193v-2l-116 -130q35 -3 57.5 -26t22.5 -59q0 -48 -36 -82t-87 -34q-52 0 -88 30l6 32q29 -35 82 -35q39 0 67 25t28 64q0 30 -23 48t-61 18h-14v2l109 122h-145zM234 616l-58 -329h-29l52 293l-93 -44l5 31l105 49h18z
" />
    <glyph glyph-name="uni2154" unicode="&#x2154;" horiz-adv-x="694" 
d="M635 614l-517 -614h-32l517 614h32zM116 312h152l-5 -27h-207v2l127 125q3 3 17 16.5t20 19t17.5 19t16.5 23t9.5 22.5t4.5 26q0 52 -58 52q-48 0 -102 -46l6 33q46 41 102 41q39 0 60 -20.5t21 -55.5q0 -27 -15.5 -55t-30.5 -43.5t-47 -46.5zM454 301l5 27h193v-2
l-116 -130q35 -3 57.5 -26t22.5 -59q0 -48 -36 -82t-87 -34q-52 0 -88 30l6 32q29 -35 82 -35q39 0 67 25t28 64q0 30 -23 48t-61 18h-14v2l109 122h-145z" />
    <glyph glyph-name="uni215B" unicode="&#x215b;" horiz-adv-x="638" 
d="M586 614l-517 -614h-32l517 614h32zM234 616l-58 -329h-29l52 293l-93 -44l5 31l105 49h18zM370 84q0 -28 22 -46t53 -18q38 0 64.5 22t26.5 55q0 29 -22 47t-55 18q-37 0 -63 -22.5t-26 -55.5zM445 -5q-42 0 -73 22.5t-31 64.5q0 35 24.5 61.5t59.5 33.5q-42 20 -42 65
q0 38 30 64.5t75 26.5q38 0 65 -21.5t27 -56.5q0 -29 -20 -52t-49 -32q54 -22 54 -75q0 -44 -35.5 -72.5t-84.5 -28.5zM551 253q0 25 -18.5 40t-44.5 15q-33 0 -54.5 -19.5t-21.5 -48.5q0 -24 18.5 -38.5t44.5 -14.5q33 0 54.5 19.5t21.5 46.5z" />
    <glyph glyph-name="uni215C" unicode="&#x215c;" horiz-adv-x="668" 
d="M475 -5q-42 0 -73 22.5t-31 64.5q0 35 24.5 61.5t59.5 33.5q-42 20 -42 65q0 38 30 64.5t75 26.5q38 0 65 -21.5t27 -56.5q0 -29 -20 -52t-49 -32q54 -22 54 -75q0 -44 -35.5 -72.5t-84.5 -28.5zM616 614l-517 -614h-32l517 614h32zM116 587l5 27h193v-2l-116 -130
q35 -3 57.5 -26t22.5 -59q0 -48 -36 -82t-87 -34q-52 0 -88 30l6 32q29 -35 82 -35q39 0 67 25t28 64q0 30 -23 48t-61 18h-14v2l109 122h-145zM400 84q0 -28 22 -46t53 -18q38 0 64.5 22t26.5 55q0 29 -22 47t-55 18q-37 0 -63 -22.5t-26 -55.5zM581 253q0 25 -18.5 40
t-44.5 15q-33 0 -54.5 -19.5t-21.5 -48.5q0 -24 18.5 -38.5t44.5 -14.5q33 0 54.5 19.5t21.5 46.5z" />
    <glyph glyph-name="uni215D" unicode="&#x215d;" horiz-adv-x="668" 
d="M616 614l-517 -614h-32l517 614h32zM400 84q0 -28 22 -46t53 -18q38 0 64.5 22t26.5 55q0 29 -22 47t-55 18q-37 0 -63 -22.5t-26 -55.5zM475 -5q-42 0 -73 22.5t-31 64.5q0 35 24.5 61.5t59.5 33.5q-42 20 -42 65q0 38 30 64.5t75 26.5q38 0 65 -21.5t27 -56.5
q0 -29 -20 -52t-49 -32q54 -22 54 -75q0 -44 -35.5 -72.5t-84.5 -28.5zM581 253q0 25 -18.5 40t-44.5 15q-33 0 -54.5 -19.5t-21.5 -48.5q0 -24 18.5 -38.5t44.5 -14.5q33 0 54.5 19.5t21.5 46.5zM279 400q0 -49 -36.5 -84t-88.5 -35q-54 0 -87 29l6 32q28 -34 81 -34
q40 0 68.5 25.5t28.5 64.5q0 30 -20 47t-53 17q-34 0 -73 -16l30 168h166l-5 -27h-141l-18 -106q26 7 46 7q43 0 69.5 -23.5t26.5 -64.5z" />
    <glyph glyph-name="uni215E" unicode="&#x215e;" horiz-adv-x="618" 
d="M566 614l-517 -614h-32l517 614h32zM329 612l-206 -326h-30l191 301h-175l5 27h216zM350 84q0 -28 22 -46t53 -18q38 0 64.5 22t26.5 55q0 29 -22 47t-55 18q-37 0 -63 -22.5t-26 -55.5zM425 -5q-42 0 -73 22.5t-31 64.5q0 35 24.5 61.5t59.5 33.5q-42 20 -42 65
q0 38 30 64.5t75 26.5q38 0 65 -21.5t27 -56.5q0 -29 -20 -52t-49 -32q54 -22 54 -75q0 -44 -35.5 -72.5t-84.5 -28.5zM531 253q0 25 -18.5 40t-44.5 15q-33 0 -54.5 -19.5t-21.5 -48.5q0 -24 18.5 -38.5t44.5 -14.5q33 0 54.5 19.5t21.5 46.5z" />
    <glyph glyph-name="minus" unicode="&#x2212;" horiz-adv-x="495" 
d="M79 278l5 29h355l-5 -29h-355z" />
    <glyph glyph-name="approxequal" unicode="&#x2248;" 
d="M85 301l6 36q53 46 103 46q32 0 79 -25.5t75 -25.5q49 0 107 52l-6 -36q-52 -46 -106 -46q-31 0 -78 25.5t-76 25.5q-45 0 -104 -52zM67 203l6 36q53 46 104 46q31 0 78 -25.5t76 -25.5q48 0 107 52l-6 -36q-52 -46 -107 -46q-31 0 -78 25.5t-76 25.5q-45 0 -104 -52z
" />
    <glyph glyph-name="notequal" unicode="&#x2260;" 
d="M91 339l5 28h221l86 87h35l-86 -87h100l-5 -28h-123l-90 -91h197l-5 -28h-219l-87 -88h-35l87 88h-102l5 28h124l90 91h-198z" />
    <glyph glyph-name="lessequal" unicode="&#x2264;" horiz-adv-x="379" 
d="M68 309l4 24l279 112l-6 -33l-236 -93l204 -94l-6 -28zM36 126l5 29h259l-5 -29h-259z" />
    <glyph glyph-name="greaterequal" unicode="&#x2265;" horiz-adv-x="379" 
d="M312 155l-5 -29h-259l5 29h259zM343 333l-4 -24l-279 -112l6 33l236 93l-204 94l6 28z" />
    <glyph glyph-name="fi" unicode="&#xfb01;" horiz-adv-x="416" 
d="M330 651l-5 -29q-21 8 -42 8q-40 0 -68.5 -27.5t-37.5 -78.5l-14 -80h107l-5 -28h-107l-73 -416h-30l73 416h-70l5 28h70l15 84q10 58 46.5 94t88.5 36q29 0 47 -7zM380 444l-78 -444h-30l78 444h30zM411 579q0 -10 -6.5 -17t-16.5 -7t-16.5 7t-6.5 17t6.5 17t16.5 7
t16.5 -7t6.5 -17z" />
    <glyph glyph-name="fl" unicode="&#xfb02;" horiz-adv-x="416" 
d="M330 651l-5 -29q-21 8 -42 8q-40 0 -68.5 -27.5t-37.5 -78.5l-14 -80h107l-5 -28h-107l-73 -416h-30l73 416h-70l5 28h70l15 84q10 58 46.5 94t88.5 36q29 0 47 -7zM416 650l-114 -650h-30l114 650h30z" />
    <glyph glyph-name="i.dot" horiz-adv-x="180" 
d="M144 444l-78 -444h-30l78 444h30zM176 579q0 -10 -6.5 -17t-16.5 -7t-16.5 7t-6.5 17t6.5 17t16.5 7t16.5 -7t6.5 -17z" />
    <glyph glyph-name="space_uni0326" 
d="M217 -170l48 71q-19 3 -19 24q0 11 7.5 19t18.5 8t18.5 -8t7.5 -19q0 -13 -11 -29l-45 -66h-25z" />
    <glyph glyph-name="space_uni0326.alt" 
d="M298 650l-48 -71q19 -3 19 -24q0 -11 -7.5 -19t-18.5 -8t-18.5 8t-7.5 19q0 13 11 29l45 66h25z" />
    <glyph glyph-name="space_dotbelowcomb" 
d="M273 -114q0 -10 -6.5 -17t-16.5 -7t-16.5 7t-6.5 17t6.5 17t16.5 7t16.5 -7t6.5 -17z" />
    <glyph glyph-name="caron.Slovak" 
d="M223 493h-28l80 157h28z" />
    <glyph glyph-name="cedilla.alt" 
d="M226 -170h-31l76 124h31z" />
    <glyph glyph-name="grave.cap" 
d="M298 663h-30l-64 117h30z" />
    <glyph glyph-name="acute.cap" 
d="M215 663h-35l106 117h35z" />
    <glyph glyph-name="circumflex.cap" 
d="M284 783l70 -117h-29l-57 92l-89 -92h-33l112 117h26z" />
    <glyph glyph-name="caron.cap" 
d="M216 656l-70 117h29l57 -92l89 92h33l-112 -117h-26z" />
    <glyph glyph-name="tilde.cap" 
d="M351 759h26q-18 -95 -79 -95q-21 0 -38 17.5t-31.5 35t-29.5 17.5q-38 0 -50 -67h-26q8 44 28.5 69.5t50.5 25.5q17 0 31.5 -11t23 -24t20 -24t24.5 -11q38 0 50 67z" />
    <glyph glyph-name="macron.cap" 
d="M151 670l4 27h193l-4 -27h-193z" />
    <glyph glyph-name="breve.cap" 
d="M234 663q-39 0 -62 30.5t-13 83.5h27q-8 -42 6.5 -65.5t43.5 -23.5t51.5 23.5t30.5 65.5h27q-10 -54 -40 -84t-71 -30z" />
    <glyph glyph-name="dotaccent.cap" 
d="M273 709q0 -10 -6.5 -17t-16.5 -7t-16.5 7t-6.5 17t6.5 17t16.5 7t16.5 -7t6.5 -17z" />
    <glyph glyph-name="dieresis.cap" 
d="M170 710q0 10 6.5 16.5t16.5 6.5t16.5 -6.5t6.5 -16.5t-6.5 -16.5t-16.5 -6.5t-16.5 6.5t-6.5 16.5zM284 710q0 10 6.5 16.5t16.5 6.5t16.5 -6.5t6.5 -16.5t-6.5 -16.5t-16.5 -6.5t-16.5 6.5t-6.5 16.5z" />
    <glyph glyph-name="ring.cap" 
d="M247 672q22 0 38 15.5t16 38.5q0 21 -14.5 35.5t-35.5 14.5q-22 0 -38 -15.5t-16 -38.5q0 -21 14.5 -35.5t35.5 -14.5zM246 647q-31 0 -52.5 21t-21.5 52q0 33 23 57t57 24q31 0 52.5 -21t21.5 -52q0 -33 -23 -57t-57 -24z" />
    <glyph glyph-name="hungarumlaut.cap" 
d="M166 663h-33l100 117h33zM269 663h-33l100 117h33z" />
    <glyph glyph-name="exclamdown.cap" horiz-adv-x="208" 
d="M159 422l-71 -422h-32l79 422h24zM205 589q0 -11 -7.5 -19t-18.5 -8t-18.5 8t-7.5 19t7.5 19t18.5 8t18.5 -8t7.5 -19z" />
    <glyph glyph-name="questiondown.cap" horiz-adv-x="415" 
d="M181 315q-6 -6 -27 -25.5t-30.5 -28.5t-26 -28.5t-24 -33.5t-14 -34.5t-6.5 -40.5q0 -48 30.5 -75.5t86.5 -27.5q97 0 196 95l-7 -40q-37 -36 -87.5 -60t-101.5 -24q-70 0 -108.5 35t-38.5 97q0 28 7.5 52.5t25 47.5t30.5 37t40 39t38 36q25 25 37 42t19 43h29
q-12 -52 -68 -106zM296 589q0 -11 -7.5 -19t-18.5 -8t-18.5 8t-7.5 19t7.5 19t18.5 8t18.5 -8t7.5 -19z" />
    <glyph glyph-name="guilsinglleft.cap" horiz-adv-x="175" 
d="M153 184h-30l-69 128l114 128h36l-117 -131z" />
    <glyph glyph-name="guilsinglright.cap" horiz-adv-x="175" 
d="M72 440h30l69 -128l-114 -128h-36l117 131z" />
    <glyph glyph-name="guillemotleft.cap" horiz-adv-x="283" 
d="M153 184h-30l-69 128l114 128h36l-117 -131zM261 184h-30l-69 128l114 128h36l-117 -131z" />
    <glyph glyph-name="guillemotright.cap" horiz-adv-x="283" 
d="M180 440h30l69 -128l-114 -128h-36l117 131zM72 440h30l69 -128l-114 -128h-36l117 131z" />
    <glyph glyph-name="slash.cap" horiz-adv-x="287" 
d="M-38 -64l376 734h31l-377 -734h-30z" />
    <glyph glyph-name="backslash.cap" horiz-adv-x="287" 
d="M119 670l119 -734h-29l-119 734h29z" />
    <glyph glyph-name="bar.cap" horiz-adv-x="195" 
d="M37 -64l129 734h29l-129 -734h-29z" />
    <glyph glyph-name="periodcentered.cap" horiz-adv-x="132" 
d="M55 300q0 11 7.5 19t18.5 8t18.5 -8t7.5 -19t-7.5 -19t-18.5 -8t-18.5 8t-7.5 19z" />
    <glyph glyph-name="bullet.cap" horiz-adv-x="325" 
d="M299 299q0 -53 -35.5 -87.5t-87.5 -34.5t-87 34.5t-35 87.5t35 87.5t87 34.5t87.5 -34.5t35.5 -87.5z" />
    <glyph glyph-name="hyphen.cap" horiz-adv-x="321" 
d="M54 284l5 29h241l-5 -29h-241z" />
    <glyph glyph-name="endash.cap" horiz-adv-x="475" 
d="M54 285l4 27h395l-4 -27h-395z" />
    <glyph glyph-name="emdash.cap" horiz-adv-x="846" 
d="M54 285l4 27h766l-4 -27h-766z" />
    <glyph glyph-name="parenleft.cap" horiz-adv-x="328" 
d="M41 225q0 161 91.5 278t248.5 162l-5 -29q-144 -50 -224.5 -156t-80.5 -255q0 -104 48 -171.5t138 -94.5l-5 -28q-101 28 -156 105t-55 189z" />
    <glyph glyph-name="parenright.cap" horiz-adv-x="328" 
d="M314 371q0 -161 -91.5 -278t-248.5 -162l5 29q144 50 224.5 156t80.5 255q0 104 -48 171.5t-138 94.5l5 28q101 -28 156 -105t55 -189z" />
    <glyph glyph-name="bracketleft.cap" horiz-adv-x="310" 
d="M186 637l-119 -678h168l-5 -28h-197l129 734h197l-5 -28h-168z" />
    <glyph glyph-name="bracketright.cap" horiz-adv-x="310" 
d="M146 -41l119 678h-168l5 28h197l-129 -734h-197l5 28h168z" />
    <glyph glyph-name="braceleft.cap" horiz-adv-x="330" 
d="M138 233l-39 -223q-9 -51 38 -51h118l-5 -28h-118q-33 0 -50.5 22t-11.5 57l39 223q9 51 -38 51h-39l5 28h39q47 0 56 51l39 223q6 35 31.5 57t58.5 22h118l-5 -28h-118q-47 0 -56 -51l-39 -223q-8 -45 -49 -66q33 -23 26 -64z" />
    <glyph glyph-name="braceright.cap" horiz-adv-x="330" 
d="M214 363l39 223q9 51 -38 51h-118l5 28h118q33 0 50.5 -22t11.5 -57l-39 -223q-9 -51 38 -51h39l-5 -28h-39q-47 0 -56 -51l-39 -223q-6 -35 -31.5 -57t-58.5 -22h-118l5 28h118q47 0 56 51l39 223q8 45 49 66q-33 23 -26 64z" />
    <glyph glyph-name="at.cap" horiz-adv-x="774" 
d="M566 471l-64 -264q-15 -64 49 -64q71 0 121.5 62t50.5 171q0 108 -76.5 177t-201.5 69q-157 0 -260.5 -109.5t-103.5 -264.5q0 -138 93.5 -210.5t229.5 -72.5q116 0 208 44l-3 -29q-95 -42 -206 -42q-70 0 -132 18.5t-111.5 55t-78.5 97t-29 139.5q0 167 112 284.5
t282 117.5q138 0 222 -77.5t84 -196.5q0 -122 -61 -191t-142 -69q-35 0 -57 17t-23 48q-54 -62 -118 -62q-58 0 -88 35.5t-30 94.5q0 88 55 158.5t138 70.5q36 0 61.5 -19t36.5 -45l14 57h28zM478 225l35 149q-10 34 -33 55.5t-55 21.5q-71 0 -117.5 -64t-46.5 -138
q0 -48 25 -75.5t67 -27.5q65 0 125 79z" />
    <glyph glyph-name="Euro.lt" horiz-adv-x="520" 
d="M53 346l4 27h57q30 112 102 180.5t171 68.5q96 0 146 -57l-7 -37q-50 64 -139 64q-85 0 -149.5 -59.5t-91.5 -159.5h238l-11 -27h-234q-9 -45 -10 -83h216l-12 -27h-205v-2q0 -98 43 -155t118 -57q48 0 83.5 12t74.5 43l-7 -38q-60 -47 -151 -47q-88 0 -140 64.5
t-52 177.5v2h-64l5 27h60q1 36 10 83h-55z" />
    <glyph glyph-name="dollar.lt" horiz-adv-x="520" 
d="M59 76l6 37q61 -67 158 -67q76 0 122 37.5t46 99.5q0 33 -20 54.5t-69 45.5l-78 37q-99 46 -99 120q0 76 56.5 116.5t132.5 41.5l17 94h28l-17 -95q76 -8 121 -47l-7 -36q-53 54 -140 54q-68 0 -114.5 -32.5t-46.5 -95.5q0 -32 22.5 -54t67.5 -43l79 -38
q50 -24 73.5 -52.5t23.5 -69.5q0 -70 -51.5 -116t-129.5 -51l-18 -98h-28l17 98q-102 3 -152 60z" />
    <glyph glyph-name="cent.lt" horiz-adv-x="520" 
d="M202 -82l15 86q-64 11 -99 59t-35 123q0 114 62 189.5t153 83.5l16 95h28l-16 -93q72 -2 110 -41l-6 -33q-43 46 -110 46q-81 0 -143.5 -67.5t-62.5 -179.5q0 -70 37.5 -113.5t103.5 -43.5q64 0 118 37l-6 -34q-47 -31 -113 -31h-10l-14 -83h-28z" />
    <glyph glyph-name="sterling.lt" horiz-adv-x="520" 
d="M74 288l5 28h94l16 92q18 102 72 158t142 56q74 0 112 -29l-5 -31q-43 31 -107 31q-152 0 -183 -184l-17 -93h180l-5 -28h-180l-29 -167q-10 -56 -41 -91h305l-5 -30h-404l5 30h68q33 42 42 91l29 167h-94z" />
    <glyph glyph-name="yen.lt" horiz-adv-x="520" 
d="M54 151l5 27h156l15 83h-156l4 27h157l-146 326h32l132 -298l238 298h37l-262 -326h157l-4 -27h-158l-15 -83h158l-5 -27h-157l-26 -151h-31l26 151h-157z" />
    <glyph glyph-name="florin.lt" horiz-adv-x="520" 
d="M179 306l5 26h86l52 169q38 121 130 121q35 0 59 -12l-3 -30q-28 14 -56 14q-71 0 -100 -97l-51 -165h98l-5 -26h-101l-108 -355q-18 -59 -47 -90t-75 -31q-35 0 -59 12l3 30q28 -14 56 -14q36 0 56 22.5t36 74.5l107 351h-83z" />
    <glyph glyph-name="zero.lt" horiz-adv-x="520" 
d="M228 21q100 0 169 107.5t69 254.5q0 97 -41 153.5t-113 56.5q-100 0 -169 -107.5t-69 -254.5q0 -97 41 -153.5t113 -56.5zM229 -8q-86 0 -136 64.5t-50 174.5q0 159 76.5 275t191.5 116q86 0 136 -64.5t50 -174.5q0 -159 -76.5 -275t-191.5 -116z" />
    <glyph glyph-name="one.lt" horiz-adv-x="520" 
d="M34 0l5 30h197l96 547l-206 -98l6 34l218 103h20l-103 -586h169l-5 -30h-397z" />
    <glyph glyph-name="two.lt" horiz-adv-x="520" 
d="M75 30h346l-5 -30h-409v4l254 235q5 5 30.5 27.5t34.5 31.5l30.5 30.5t30.5 36t21.5 35.5t17.5 41.5t5 41.5q0 51 -31 80.5t-94 29.5q-96 0 -193 -86l7 39q87 76 191 76q74 0 112 -37t38 -102q0 -23 -4.5 -43.5t-17 -43t-21 -36.5t-32 -38t-32.5 -33.5t-40 -38t-39 -35.5
z" />
    <glyph glyph-name="three.lt" horiz-adv-x="520" 
d="M123 584l6 30h372v-4l-247 -240q75 -2 125.5 -45t50.5 -112q0 -89 -69 -154.5t-166 -65.5q-103 0 -167 55l7 39q55 -65 160 -65q83 0 144 55.5t61 135.5q0 61 -46.5 96.5t-121.5 35.5q-12 0 -36 -2v4l240 237h-313z" />
    <glyph glyph-name="four.lt" horiz-adv-x="520" 
d="M350 614l-268 -425h245l27 155h31l-27 -155h122l-5 -30h-122l-28 -159h-31l28 159h-290v4l285 451h33z" />
    <glyph glyph-name="five.lt" horiz-adv-x="520" 
d="M435 212q0 -89 -68.5 -154.5t-164.5 -65.5q-98 0 -165 57l6 37q55 -65 159 -65q82 0 142.5 55.5t60.5 135.5q0 60 -42 95t-108 35q-31 0 -59 -5t-41 -10t-40 -16l56 303h306l-6 -30h-279l-41 -231q48 18 104 18q80 0 130 -43t50 -116z" />
    <glyph glyph-name="six.lt" horiz-adv-x="520" 
d="M237 -8q-80 0 -134.5 53t-54.5 135q0 81 64 161l219 273h36l-193 -241q42 26 90 26q83 0 136 -53.5t53 -132.5q0 -92 -64.5 -156.5t-151.5 -64.5zM237 21q74 0 129.5 55.5t55.5 136.5q0 67 -44.5 112t-113.5 45q-74 0 -129.5 -54.5t-55.5 -135.5q0 -67 45 -113t113 -46z
" />
    <glyph glyph-name="seven.lt" horiz-adv-x="520" 
d="M522 610l-385 -610h-35l370 584h-372l6 30h416v-4z" />
    <glyph glyph-name="eight.lt" horiz-adv-x="520" 
d="M72 153q0 -58 47 -95.5t112 -37.5q82 0 137.5 46.5t55.5 113.5q0 61 -47.5 98.5t-117.5 37.5q-78 0 -132.5 -48t-54.5 -115zM231 -8q-78 0 -134 42t-56 119q0 65 46.5 116t118.5 66q-38 17 -60 49t-22 72q0 67 54.5 116.5t136.5 49.5q69 0 117.5 -38t48.5 -104
q0 -52 -37.5 -95.5t-96.5 -59.5q51 -20 79.5 -58t28.5 -88q0 -78 -65.5 -132.5t-158.5 -54.5zM451 480q0 52 -39 83t-97 31q-69 0 -115 -41t-46 -97q0 -51 40 -82t96 -31q69 0 115 41.5t46 95.5z" />
    <glyph glyph-name="nine.lt" horiz-adv-x="520" 
d="M290 622q80 0 134.5 -53t54.5 -135q0 -81 -64 -161l-219 -273h-36l193 241q-42 -26 -90 -26q-83 0 -136 53.5t-53 132.5q0 92 64.5 156.5t151.5 64.5zM290 593q-74 0 -129.5 -55.5t-55.5 -136.5q0 -67 44.5 -112t113.5 -45q74 0 129.5 54.5t55.5 135.5q0 67 -45 113
t-113 46z" />
    <glyph glyph-name="period.tab" horiz-adv-x="260" 
d="M59 25q0 11 7.5 19t18.5 8t18.5 -8t7.5 -19t-7.5 -19t-18.5 -8t-18.5 8t-7.5 19z" />
    <glyph glyph-name="comma.tab" horiz-adv-x="260" 
d="M12 -97l66 98q-19 3 -19 24q0 11 7.5 19t18.5 8t18.5 -8t7.5 -19q0 -12 -11 -29l-63 -93h-25z" />
    <glyph glyph-name="colon.tab" horiz-adv-x="260" 
d="M59 25q0 11 7.5 19t18.5 8t18.5 -8t7.5 -19t-7.5 -19t-18.5 -8t-18.5 8t-7.5 19zM119 365q0 11 7.5 19t18.5 8t18.5 -8t7.5 -19t-7.5 -19t-18.5 -8t-18.5 8t-7.5 19z" />
    <glyph glyph-name="semicolon.tab" horiz-adv-x="260" 
d="M12 -97l66 98q-19 3 -19 24q0 11 7.5 19t18.5 8t18.5 -8t7.5 -19q0 -12 -11 -29l-63 -93h-25zM119 365q0 11 7.5 19t18.5 8t18.5 -8t7.5 -19t-7.5 -19t-18.5 -8t-18.5 8t-7.5 19z" />
    <glyph glyph-name="space.tab" horiz-adv-x="260" 
 />
    <glyph glyph-name="percent.lt" horiz-adv-x="520" 
d="M176 622q50 0 84.5 -34t34.5 -84t-36.5 -88.5t-88.5 -38.5q-50 0 -84.5 34t-34.5 84t36.5 88.5t88.5 38.5zM171 407q38 0 66 28.5t28 68.5q0 36 -26.5 62t-63.5 26q-38 0 -66 -28.5t-28 -68.5q0 -36 26.5 -62t63.5 -26zM352 -8q-50 0 -84.5 34t-34.5 84t36.5 88.5
t88.5 38.5q50 0 84.5 -34t34.5 -84t-36.5 -88.5t-88.5 -38.5zM357 207q-38 0 -66 -28.5t-28 -68.5q0 -36 26.5 -62t63.5 -26q38 0 66 28.5t28 68.5q0 36 -26.5 62t-63.5 26zM506 614l-452 -614h-32l452 614h32z" />
    <glyph glyph-name="perthousand.lt" horiz-adv-x="800" 
d="M186 622q50 0 84.5 -34t34.5 -84t-36.5 -88.5t-88.5 -38.5q-50 0 -84.5 34t-34.5 84t36.5 88.5t88.5 38.5zM181 407q38 0 66 28.5t28 68.5q0 36 -26.5 62t-63.5 26q-38 0 -66 -28.5t-28 -68.5q0 -36 26.5 -62t63.5 -26zM362 -8q-50 0 -84.5 34t-34.5 84t36.5 88.5
t88.5 38.5q50 0 84.5 -34t34.5 -84t-36.5 -88.5t-88.5 -38.5zM367 207q-38 0 -66 -28.5t-28 -68.5q0 -36 26.5 -62t63.5 -26q38 0 66 28.5t28 68.5q0 36 -26.5 62t-63.5 26zM516 614l-452 -614h-32l452 614h32zM640 -8q-50 0 -84.5 34t-34.5 84t36.5 88.5t88.5 38.5
q50 0 84.5 -34t34.5 -84t-36.5 -88.5t-88.5 -38.5zM645 207q-38 0 -66 -28.5t-28 -68.5q0 -36 26.5 -62t63.5 -26q38 0 66 28.5t28 68.5q0 36 -26.5 62t-63.5 26z" />
    <glyph glyph-name="plus.lt" horiz-adv-x="520" 
d="M276 470h29l-29 -163h164l-5 -29h-164l-28 -163h-29l28 163h-162l5 29h162z" />
    <glyph glyph-name="minus.lt" horiz-adv-x="520" 
d="M80 278l5 29h355l-5 -29h-355z" />
    <glyph glyph-name="multiply.lt" horiz-adv-x="520" 
d="M242 291l-100 122l21 18l99 -122l141 122l17 -19l-141 -122l98 -122l-21 -18l-99 121l-141 -121l-17 19z" />
    <glyph glyph-name="divide.lt" horiz-adv-x="520" 
d="M80 278l5 29h355l-5 -29h-355zM258 440q0 11 7.5 19t18.5 8t18.5 -8t7.5 -19t-7.5 -19t-18.5 -8t-18.5 8t-7.5 19zM208 146q0 11 7.5 19t18.5 8t18.5 -8t7.5 -19t-7.5 -19t-18.5 -8t-18.5 8t-7.5 19z" />
    <glyph glyph-name="equal.lt" horiz-adv-x="520" 
d="M69 219l5 29h356l-5 -29h-356zM90 339l5 29h356l-5 -29h-356z" />
    <glyph glyph-name="less.lt" horiz-adv-x="520" 
d="M115 279l4 24l285 149l-6 -34l-251 -129l205 -129l-5 -30z" />
    <glyph glyph-name="greater.lt" horiz-adv-x="520" 
d="M404 303l-4 -24l-285 -149l6 34l251 129l-205 129l5 30z" />
    <glyph glyph-name="plusminus.lt" horiz-adv-x="520" 
d="M288 478h29l-22 -123h163l-5 -29h-163l-22 -123h-29l22 123h-163l5 29h163zM61 116l5 29h355l-5 -29h-355z" />
    <glyph glyph-name="lessequal.lt" horiz-adv-x="520" 
d="M134 309l4 24l279 112l-6 -33l-236 -93l204 -94l-6 -28zM102 126l5 29h259l-5 -29h-259z" />
    <glyph glyph-name="greaterequal.lt" horiz-adv-x="520" 
d="M376 155l-5 -29h-259l5 29h259zM407 333l-4 -24l-279 -112l6 33l236 93l-204 94l6 28z" />
    <glyph glyph-name="notequal.lt" horiz-adv-x="520" 
d="M90 339l5 28h221l86 87h35l-86 -87h100l-5 -28h-123l-90 -91h197l-5 -28h-219l-87 -88h-35l87 88h-102l5 28h124l90 91h-198z" />
    <glyph glyph-name="approxequal.lt" horiz-adv-x="520" 
d="M84 301l6 36q53 46 103 46q31 0 78 -25.5t76 -25.5q49 0 107 52l-6 -36q-52 -46 -106 -46q-31 0 -78 25.5t-76 25.5q-45 0 -104 -52zM66 203l6 36q53 46 104 46q31 0 78.5 -25.5t75.5 -25.5q48 0 107 52l-6 -36q-52 -46 -107 -46q-31 0 -78 25.5t-76 25.5q-45 0 -104 -52
z" />
    </font>
</defs>
</svg>
