<?xml version="1.0" encoding="UTF-8"?>
<svg width="69px" height="71px" viewBox="0 0 69 71" version="1.1" xmlns="http://www.w3.org/2000/svg" xmlns:xlink="http://www.w3.org/1999/xlink">
    <!-- Generator: sketchtool 53.2 (72643) - https://sketchapp.com -->
    <title>801C611C-F7EB-4E18-913D-91743EF05FA4</title>
    <desc>Created with sketchtool.</desc>
    <defs>
        <polygon id="path-1" points="0 0.1341 37.0458 0.1341 37.0458 17.9991 0 17.9991"></polygon>
    </defs>
    <g id="Desktop-1" stroke="none" stroke-width="1" fill="none" fill-rule="evenodd">
        <g id="product---sonic-facial-brush---desktop1" transform="translate(-901.000000, -742.000000)">
            <g id="Group-13" transform="translate(903.000000, 744.000000)">
                <path d="M65,12.6282819 C65,5.65361585 59.3675386,0 52.4192803,0 C47.5817507,0 43.3875612,2.74481806 41.2823785,6.76416398 C38.2953762,5.79272225 35.1105652,5.26163058 31.8014306,5.26163058 C28.9304328,5.26163058 26.1551041,5.66513128 23.5188885,6.40350069 C21.3559346,2.58268079 17.2717415,0 12.5807197,0 C5.63246137,0 0,5.65361585 0,12.6282819 C0,16.4495624 1.69801125,19.8668816 4.36935175,22.1824044 C2.25030397,26.3731 1.04820074,31.1096269 1.04820074,36.1308153 C1.04820074,53.1791801 14.8166964,67 31.8014306,67 C48.7857026,67 62.5537361,53.1791801 62.5537361,36.1308153 C62.5537361,31.4237678 61.4995272,26.9649931 59.6226563,22.9728236 C62.8707845,20.6890834 65,16.9111009 65,12.6282819" id="Fill-22" stroke="#FFFFFF" stroke-width="4"></path>
                <g id="Group-6" transform="translate(14.000000, 27.000000)">
                    <g id="Group-3">
                        <mask id="mask-2" fill="white">
                            <use xlink:href="#path-1"></use>
                        </mask>
                        <g id="Clip-2"></g>
                        <path d="M32.0448,14.5821 C32.0448,15.7341 31.2978,16.6731 30.3828,16.6731 L2.5848,16.6731 C1.6668,16.6731 0.9168,15.7341 0.9168,14.5821 L0.9168,3.5541 C0.9168,2.3991 1.6668,1.4601 2.5848,1.4601 L30.3828,1.4601 C31.2978,1.4601 32.0448,2.3991 32.0448,3.5541 L32.0448,14.5821 Z M35.6208,5.9391 L35.6208,4.2591 C35.6208,3.5421 35.0688,2.9691 34.3728,2.9451 C34.3128,2.5821 34.1388,2.2701 33.9138,2.0481 C33.7338,1.4631 33.3258,1.0401 32.8308,0.9711 C32.6328,0.4731 32.2608,0.1341 31.8318,0.1341 L1.1328,0.1341 C0.6048,0.1341 0.1488,0.6531 0.0288,1.3431 C0.0108,1.4571 -0.0012,1.5771 -0.0012,1.7001 L-0.0012,16.4361 C-0.0012,17.2941 0.5088,17.9991 1.1328,17.9991 L31.8318,17.9991 C32.1168,17.9991 32.3778,17.8461 32.5818,17.6001 C32.6838,17.4771 32.7618,17.3331 32.8308,17.1651 C33.3168,17.0931 33.7248,16.6851 33.9048,16.1211 C33.9078,16.1121 33.9108,16.0971 33.9138,16.0881 C34.1388,15.8631 34.3128,15.5481 34.3728,15.1881 C34.3818,15.1851 34.3908,15.1851 34.4028,15.1821 C35.0868,15.1431 35.6208,14.5791 35.6208,13.8741 L35.6208,12.1941 C36.4338,11.9181 37.0458,10.7271 37.0458,9.3141 L37.0458,8.8251 C37.0458,7.4031 36.4338,6.2151 35.6208,5.9391 L35.6208,5.9391 Z" id="Fill-1" fill="#FEFEFE" mask="url(#mask-2)"></path>
                    </g>
                    <path d="M22,14 L3.51740678,14 C3.27340244,14 3,13.6303255 3,13.1325748 L3,3.87033607 C3,3.37258534 3.27340244,3 3.51740678,3 L22,3 L22,14 Z" id="Fill-4" fill="#FEFEFE"></path>
                </g>
            </g>
        </g>
    </g>
</svg>