<?xml version="1.0" encoding="UTF-8"?>
<svg width="69px" height="71px" viewBox="0 0 69 71" version="1.1" xmlns="http://www.w3.org/2000/svg" xmlns:xlink="http://www.w3.org/1999/xlink">
    <!-- Generator: sketchtool 53.2 (72643) - https://sketchapp.com -->
    <title>54EDD392-9431-4FAB-94AC-813E1D1E4DDA</title>
    <desc>Created with sketchtool.</desc>
    <defs>
        <polygon id="path-1" points="0 0.2216 10.543225 0.2216 10.543225 22 0 22"></polygon>
        <polygon id="path-3" points="0.47012 0.2216 11.20532 0.2216 11.20532 22 0.47012 22"></polygon>
    </defs>
    <g id="Desktop-1" stroke="none" stroke-width="1" fill="none" fill-rule="evenodd">
        <g id="product---sonic-facial-brush---desktop1" transform="translate(-602.000000, -742.000000)">
            <g id="Group-11" transform="translate(604.000000, 744.000000)">
                <path d="M65,12.6282819 C65,5.65361585 59.3675386,0 52.4192803,0 C47.5817507,0 43.3875612,2.74481806 41.2823785,6.76416398 C38.2953762,5.79272225 35.1105652,5.26163058 31.8014306,5.26163058 C28.9304328,5.26163058 26.1551041,5.66513128 23.5188885,6.40350069 C21.3559346,2.58268079 17.2717415,0 12.5807197,0 C5.63246137,0 0,5.65361585 0,12.6282819 C0,16.4495624 1.69801125,19.8668816 4.36935175,22.1824044 C2.25030397,26.3731 1.04820074,31.1096269 1.04820074,36.1308153 C1.04820074,53.1791801 14.8166964,67 31.8014306,67 C48.7857026,67 62.5537361,53.1791801 62.5537361,36.1308153 C62.5537361,31.4237678 61.4995272,26.9649931 59.6226563,22.9728236 C62.8707845,20.6890834 65,16.9111009 65,12.6282819" id="Fill-22" stroke="#FFFFFF" stroke-width="4"></path>
                <g id="Group-9" transform="translate(13.000000, 23.000000)">
                    <g id="Group-3">
                        <mask id="mask-2" fill="white">
                            <use xlink:href="#path-1"></use>
                        </mask>
                        <g id="Clip-2"></g>
                        <path d="M5.554725,5.02426667 C8.235975,5.57093333 10.543225,6.04293333 10.543225,7.92026667 C10.543225,9.7976 8.235975,10.2696 5.554725,10.8162667 C5.172475,10.8936 4.693975,10.9922667 4.218225,11.0989333 C4.693975,11.2056 5.172475,11.3042667 5.554725,11.3842667 C8.235975,11.9309333 10.543225,12.4056 10.543225,14.2829333 C10.543225,16.1602667 8.235975,16.6322667 5.560225,17.1842667 C5.166975,17.2642667 4.674725,17.3629333 4.196225,17.4749333 C4.674725,17.5869333 5.166975,17.6856 5.560225,17.7656 C8.235975,18.3149333 10.543225,18.7896 10.543225,20.6669333 C10.543225,21.4056 9.932725,22.0002667 9.168225,22.0002667 C8.579725,22.0002667 8.068225,21.6322667 7.881225,21.1229333 C7.347725,20.8562667 5.892975,20.5602667 4.990975,20.3762667 C2.315225,19.8269333 -0.000275,19.3522667 -0.000275,17.4749333 C-0.000275,15.5976 2.315225,15.1229333 4.990975,14.5736 C5.381475,14.4936 5.870975,14.3949333 6.343975,14.2856 C5.870975,14.1762667 5.381475,14.0749333 4.990975,13.9922667 C2.315225,13.4456 -0.000275,12.9762667 -0.000275,11.0962667 C-0.000275,9.2216 2.315225,8.7496 4.990975,8.2056 C5.381475,8.12826667 5.859975,8.02693333 6.332975,7.92026667 C5.859975,7.81093333 5.381475,7.71226667 4.990975,7.63226667 C2.315225,7.0856 -0.000275,6.6136 -0.000275,4.73893333 C-0.000275,2.85893333 2.315225,2.3896 4.990975,1.84293333 C5.892975,1.65893333 7.347725,1.36293333 7.881225,1.09626667 C8.073725,0.586933333 8.579725,0.2216 9.168225,0.2216 C9.932725,0.2216 10.543225,0.8216 10.543225,1.55493333 C10.543225,3.43226667 8.235975,3.90426667 5.554725,4.45093333 C5.172475,4.52826667 4.693975,4.6296 4.218225,4.73893333 C4.688475,4.84826667 5.172475,4.94693333 5.554725,5.02426667" id="Fill-1" fill="#FEFEFE" mask="url(#mask-2)"></path>
                    </g>
                    <path d="M22,13.1195499 C22,14.0562588 21.6978931,14.7707454 21.0852089,15.2630098 C20.4725248,15.7524613 19.5690275,16 18.3718935,16 C17.8100311,16 17.2594624,15.9268636 16.7230108,15.7890295 C16.1865593,15.6483826 15.7404574,15.4599156 15.3790585,15.2348805 C15.1560076,15.0970464 15.0346001,14.9226442 15.0063658,14.7088608 C14.980955,14.4978903 15.0317767,14.2925457 15.1560076,14.1040788 C15.2830619,13.9043601 15.4383505,13.7805907 15.6218734,13.7355837 C15.8025729,13.6877637 16.0002129,13.7243319 16.2119701,13.8424754 C16.5310176,14.0281294 16.8839463,14.1687764 17.2651092,14.2728551 C17.6490956,14.3797468 18.0471991,14.4275668 18.4537729,14.4275668 C19.0890445,14.4275668 19.5407932,14.3178622 19.8259595,14.0956399 C20.1083024,13.8734177 20.2522973,13.5921238 20.2522973,13.257384 L20.2522973,13.161744 C20.2522973,12.7791842 20.1026556,12.4838256 19.8061955,12.2700422 C19.506912,12.0534459 19.0353993,11.8846695 18.3718935,11.7580872 C17.7987373,11.6483826 17.3018138,11.5218003 16.8839463,11.3727145 C16.4632553,11.2292546 16.1103267,11.0436006 15.8336306,10.8241913 C15.5541111,10.5991561 15.3508242,10.3291139 15.218123,10.0168776 C15.0854219,9.70182841 15.020483,9.31926864 15.020483,8.86638537 L15.020483,8.76793249 C15.020483,8.38818565 15.0967156,8.0281294 15.2435339,7.69338959 C15.3931756,7.35583685 15.6218734,7.0604782 15.9239803,6.81293952 C16.2260873,6.55977496 16.5959565,6.3628692 17.033588,6.21940928 C17.4712195,6.07032349 17.9766134,6 18.5554164,6 C19.5351463,6 20.3624111,6.17158931 21.0315638,6.50632911 C21.2292038,6.604782 21.3590816,6.75668073 21.4155502,6.95639944 C21.4720187,7.1533052 21.4437844,7.35583685 21.3336707,7.55555556 C21.223557,7.76371308 21.0795621,7.89592124 20.9101563,7.94374121 C20.7322803,7.99437412 20.5515808,7.97749648 20.3567642,7.89592124 C20.0631276,7.76933896 19.7892549,7.68213783 19.5238526,7.63150492 C19.2612737,7.58368495 18.9450496,7.55555556 18.5808272,7.55555556 C18.2787203,7.55555556 18.013318,7.58649789 17.7930905,7.65963432 C17.5672161,7.72433193 17.3808698,7.81715893 17.2255812,7.92967651 C17.0702926,8.04500703 16.954532,8.16877637 16.8782994,8.31223629 C16.79642,8.45288326 16.756892,8.59634318 16.756892,8.74261603 L16.756892,8.82419128 C16.756892,8.99578059 16.7907731,9.14767932 16.8500651,9.2742616 C16.9065337,9.40084388 17.0081772,9.5161744 17.1634658,9.62025316 C17.3131075,9.72433193 17.5220413,9.82278481 17.7874436,9.907173 C18.052846,9.99437412 18.3944809,10.0787623 18.8123484,10.1603376 C19.9530138,10.3966245 20.7689849,10.7482419 21.263085,11.2123769 C21.7571851,11.676512 22,12.2700422 22,12.9985935 L22,13.1195499 Z" id="Fill-4" fill="#FEFEFE"></path>
                    <g id="Group-8" transform="translate(27.000000, 0.000000)">
                        <mask id="mask-4" fill="white">
                            <use xlink:href="#path-3"></use>
                        </mask>
                        <g id="Clip-7"></g>
                        <path d="M6.12612,14.5762667 C8.85052,15.1256 11.20532,15.5976 11.20532,17.4776 C11.20532,19.3576 8.85052,19.8296 6.12612,20.3789333 C5.20772,20.5602667 3.72932,20.8562667 3.18332,21.1229333 C2.98732,21.6349333 2.47212,22.0002667 1.87012,22.0002667 C1.09452,22.0002667 0.47012,21.4056 0.47012,20.6669333 C0.47012,18.7896 2.82212,18.3149333 5.54652,17.7682667 C5.94972,17.6882667 6.44252,17.5869333 6.92972,17.4776 C6.44252,17.3682667 5.94972,17.2669333 5.54652,17.1869333 C2.82212,16.6376 0.47012,16.1656 0.47012,14.2909333 C0.47012,12.4109333 2.82212,11.9389333 5.54652,11.3922667 C5.94412,11.3096 6.43692,11.2109333 6.91852,11.1016 C6.43692,10.9922667 5.94412,10.8936 5.54652,10.8162667 C2.82212,10.2696 0.47012,9.7976 0.47012,7.92026667 C0.47012,6.04293333 2.82212,5.57093333 5.55212,5.02426667 C5.94412,4.94693333 6.43692,4.84826667 6.91292,4.73893333 C6.43132,4.6296 5.94412,4.52826667 5.55212,4.45093333 C2.82212,3.90426667 0.47012,3.43226667 0.47012,1.55493333 C0.47012,0.8216 1.09452,0.2216 1.87012,0.2216 C2.47212,0.2216 2.98732,0.586933333 3.18332,1.09626667 C3.72932,1.36293333 5.20772,1.65893333 6.12612,1.84293333 C8.85052,2.3896 11.20532,2.85893333 11.20532,4.73893333 C11.20532,6.6136 8.85052,7.0856 6.12612,7.63226667 C5.73132,7.71226667 5.24412,7.81093333 4.75412,7.92026667 C5.23572,8.0296 5.73132,8.12826667 6.12612,8.2056 C8.85052,8.75226667 11.20532,9.22693333 11.20532,11.1016 C11.20532,12.9816 8.85052,13.4536 6.12612,14.0002667 C5.73132,14.0802667 5.23572,14.1816 4.75412,14.2909333 C5.23572,14.4002667 5.73132,14.4989333 6.12612,14.5762667" id="Fill-6" fill="#FEFEFE" mask="url(#mask-4)"></path>
                    </g>
                </g>
            </g>
        </g>
    </g>
</svg>