<?xml version="1.0" encoding="UTF-8"?>
<svg width="69px" height="71px" viewBox="0 0 69 71" version="1.1" xmlns="http://www.w3.org/2000/svg" xmlns:xlink="http://www.w3.org/1999/xlink">
    <!-- Generator: sketchtool 54.1 (76490) - https://sketchapp.com -->
    <title>BF536F34-113A-4B0C-A600-1A46C2BD37A6</title>
    <desc>Created with sketchtool.</desc>
    <g id="Mobile-1" stroke="none" stroke-width="1" fill="none" fill-rule="evenodd">
        <g id="home---mobile1" transform="translate(-150.000000, -845.000000)">
            <g id="Facts" transform="translate(19.000000, 704.000000)">
                <g id="soy" transform="translate(133.000000, 143.000000)">
                    <path d="M64.7317816,12.5973124 C64.7317816,5.63975096 59.1225622,1.70530257e-13 52.2029754,1.70530257e-13 C47.3854076,1.70530257e-13 43.2085252,2.73808668 41.1120294,6.74757559 C38.1373527,5.77851622 34.9656837,5.248727 31.670204,5.248727 C28.8110532,5.248727 26.0471767,5.65123815 23.4218393,6.38779679 C21.2678107,2.57634704 17.2004708,1.70530257e-13 12.5288062,1.70530257e-13 C5.60921938,1.70530257e-13 -1.84741111e-13,5.63975096 -1.84741111e-13,12.5973124 C-1.84741111e-13,16.4092216 1.69100451,19.8181602 4.3513219,22.1280044 C2.24101823,26.3084227 1.0438754,31.0333339 1.0438754,36.0422083 C1.0438754,53.0487638 14.7555563,66.8356897 31.670204,66.8356897 C48.5843915,66.8356897 62.2956121,53.0487638 62.2956121,36.0422083 C62.2956121,31.3467044 61.2457533,26.8988643 59.3766271,22.9164852 C62.6113522,20.6383456 64.7317816,16.8696282 64.7317816,12.5973124" id="Fill-22" stroke="#FFFFFF" stroke-width="4"></path>
                    <g id="Group" transform="translate(15.000000, 24.000000)" fill="#FFFFFF" fill-rule="nonzero">
                        <path d="M16.999837,0 C15.5050049,0 14.082516,0.25743485 12.7889414,0.719375224 L10.3576885,0.145909798 C6.08878798,-0.346165521 3.44806567,0.872110458 0.601914737,3.26230096 C-0.182911219,3.92127752 -0.203375872,5.11315322 0.558899861,5.79775736 C1.92403559,7.0007083 3.83115876,7.40199244 5.574304,6.85415459 L6.67157437,6.52215507 C6.39992891,7.3144208 6.24637884,8.14918454 6.24637884,9.01472712 C6.24637884,10.7951357 6.88808258,12.5223574 8.05652301,13.9925307 C9.76017278,11.2042756 13.1609549,9.33668166 17.0000977,9.33668166 C20.8427599,9.33668166 24.2466704,11.2074951 25.948756,14 C27.1164144,12.5280238 27.7530345,10.7965523 27.7538166,9.01472712 C27.7538166,8.14918454 27.6003969,7.3144208 27.3286211,6.52215507 L28.4258914,6.85415459 C30.1690367,7.40199244 32.0761598,7.0007083 33.4412956,5.79775736 C34.2033106,5.11315322 34.182846,3.92127752 33.3982807,3.26230096 C30.5521298,0.872110458 27.9114075,-0.346165521 23.6425069,0.145909798 L21.211254,0.719375224 C19.9176794,0.25743485 18.4951905,0 17.0003584,0 L16.999837,0 Z M13.0893938,4.50736356 C13.8092865,4.50736363 14.3928748,5.08393942 14.3928749,5.79518172 C14.3928748,6.50642402 13.8092865,7.08299981 13.0893938,7.08299988 C12.3695011,7.08299981 11.7859128,6.50642402 11.7859127,5.79518172 C11.7859128,5.08393942 12.3695011,4.50736363 13.0893938,4.50736356 Z M20.9102803,4.50736356 C21.6301729,4.50736363 22.2137613,5.08393942 22.2137613,5.79518172 C22.2137613,6.50642402 21.6301729,7.08299981 20.9102803,7.08299988 C20.1903876,7.08299981 19.6067992,6.50642402 19.6067992,5.79518172 C19.6067992,5.08393942 20.1903876,4.50736363 20.9102803,4.50736356 L20.9102803,4.50736356 Z" id="Shape"></path>
                        <path d="M17,11 C12.0294375,11 8.00000041,14.3578643 8,18.5 C8.00000041,22.6421357 12.0294375,26 17,26 C21.9705625,26 25.9999996,22.6421357 26,18.5 C25.9999996,14.3578643 21.9705625,11 17,11 L17,11 Z M12.2665143,17.560125 C12.866174,17.5794049 13.4605102,18.1725479 13.6877429,18.9785 C13.9518418,19.9139964 13.6337183,20.8080574 12.9771286,20.975625 C12.6616905,21.0559403 12.3087926,20.954439 11.9960802,20.6934535 C11.6833679,20.4324681 11.4364614,20.0333808 11.3096857,19.584 C11.0456464,18.6484981 11.3638259,17.7544975 12.0204286,17.587 C12.0998376,17.5663815 12.1822787,17.5571688 12.2665143,17.5595 L12.2665143,17.560125 Z M21.7334857,17.560125 C21.8168727,17.558017 21.8984875,17.5672288 21.9771286,17.587625 C22.6339785,17.75379 22.9532219,18.6466441 22.6903143,19.58225 C22.5635203,20.0316132 22.3166061,20.430674 22.0038958,20.6916344 C21.6911854,20.9525947 21.3382975,21.0540756 21.0228714,20.97375 C20.3660215,20.807585 20.0467781,19.9147309 20.3096857,18.979125 C20.537306,18.1718991 21.1331018,17.5783735 21.7334857,17.56075 L21.7334857,17.560125 Z" id="Shape"></path>
                    </g>
                    <polygon id="Rectangle" fill="#FFFFFF" fill-rule="nonzero" transform="translate(52.599501, 11.965511) rotate(-315.000000) translate(-52.599501, -11.965511) " points="51.4788112 0.390798159 53.7201906 0.390798159 53.7201906 23.5402234 51.4788112 23.5402234"></polygon>
                    <polygon id="Rectangle" fill="#FFFFFF" fill-rule="nonzero" transform="translate(14.115011, 50.450001) rotate(-315.000000) translate(-14.115011, -50.450001) " points="12.9943215 43.2316098 15.2357008 43.2316098 15.2357008 57.6683914 12.9943215 57.6683914"></polygon>
                </g>
            </g>
        </g>
    </g>
</svg>