<?xml version="1.0" encoding="UTF-8"?>
<svg width="69px" height="71px" viewBox="0 0 69 71" version="1.1" xmlns="http://www.w3.org/2000/svg" xmlns:xlink="http://www.w3.org/1999/xlink">
    <!-- Generator: sketchtool 54.1 (76490) - https://sketchapp.com -->
    <title>9CF421F8-F281-489A-86AE-A91E2CF1A1D5</title>
    <desc>Created with sketchtool.</desc>
    <g id="Mobile-1" stroke="none" stroke-width="1" fill="none" fill-rule="evenodd">
        <g id="home---mobile1" transform="translate(-29.000000, -844.000000)">
            <g id="Facts" transform="translate(19.000000, 704.000000)">
                <g id="Vegan" transform="translate(12.000000, 142.000000)">
                    <path d="M64.7317816,12.5973124 C64.7317816,5.63975096 59.1225622,2.27373675e-13 52.2029754,2.27373675e-13 C47.3854076,2.27373675e-13 43.2085252,2.73808668 41.1120294,6.74757559 C38.1373527,5.77851622 34.9656837,5.248727 31.670204,5.248727 C28.8110532,5.248727 26.0471767,5.65123815 23.4218393,6.38779679 C21.2678107,2.57634704 17.2004708,2.27373675e-13 12.5288062,2.27373675e-13 C5.60921938,2.27373675e-13 -1.84741111e-13,5.63975096 -1.84741111e-13,12.5973124 C-1.84741111e-13,16.4092216 1.69100451,19.8181602 4.3513219,22.1280044 C2.24101823,26.3084227 1.0438754,31.0333339 1.0438754,36.0422083 C1.0438754,53.0487638 14.7555563,66.8356897 31.670204,66.8356897 C48.5843915,66.8356897 62.2956121,53.0487638 62.2956121,36.0422083 C62.2956121,31.3467044 61.2457533,26.8988643 59.3766271,22.9164852 C62.6113522,20.6383456 64.7317816,16.8696282 64.7317816,12.5973124" id="Fill-22" stroke="#FFFFFF" stroke-width="4"></path>
                    <polygon id="Rectangle" fill="#FFFFFF" fill-rule="nonzero" transform="translate(52.259637, 12.623452) rotate(-315.000000) translate(-52.259637, -12.623452) " points="51.1389469 1.54873902 53.3803262 1.54873902 53.3803262 23.6981643 51.1389469 23.6981643"></polygon>
                    <polygon id="Rectangle" fill="#FFFFFF" fill-rule="nonzero" transform="translate(13.179252, 51.543067) rotate(-315.000000) translate(-13.179252, -51.543067) " points="12.0585622 43.8246761 14.2999415 43.8246761 14.2999415 59.2614578 12.0585622 59.2614578"></polygon>
                    <g id="noun_Peanut_1048444" transform="translate(20.000000, 21.000000)" fill="#FFFFFF" fill-rule="nonzero">
                        <path d="M12.8008901,2.95045728 C11.6167734,4.11644997 10.7317647,5.55118539 10.2211323,7.13264246 C9.76127561,8.60729303 8.60655252,9.76205681 7.13195392,10.2219297 C5.55055258,10.7325801 4.11586771,11.6176199 2.9499161,12.8017784 C-0.350432331,16.1131286 -0.981765474,20.8787733 1.56533721,23.4237886 C2.59724034,24.4557281 4.00794337,25 5.61022334,25 C5.95765783,24.9992227 6.30462533,24.9744904 6.64865751,24.925979 C8.63191439,24.651666 10.5977552,23.6197265 12.1869731,22.0369838 C13.3707936,20.8716098 14.2557828,19.4376528 14.7667309,17.8569757 C15.2265876,16.3823252 16.3813107,15.2275614 17.8559093,14.7676885 C19.437526,14.2564097 20.8722304,13.3706109 22.0379471,12.1856627 C23.624988,10.5985658 24.6503601,8.6304787 24.9268405,6.64715194 C25.2076749,4.61810634 24.6743072,2.81330076 23.424703,1.56365251 C20.8776003,-0.981362842 16.1121236,-0.350007452 12.8008901,2.95045728 Z" id="Shape"></path>
                    </g>
                </g>
            </g>
        </g>
    </g>
</svg>