<?xml version="1.0" encoding="UTF-8"?>
<svg width="69px" height="71px" viewBox="0 0 69 71" version="1.1" xmlns="http://www.w3.org/2000/svg" xmlns:xlink="http://www.w3.org/1999/xlink">
    <!-- Generator: sketchtool 54.1 (76490) - https://sketchapp.com -->
    <title>0F32B5EF-7D49-4E71-A282-9D8659E5D365</title>
    <desc>Created with sketchtool.</desc>
    <g id="Mobile-1" stroke="none" stroke-width="1" fill="none" fill-rule="evenodd">
        <g id="home---mobile1" transform="translate(-29.000000, -702.000000)">
            <g id="Facts" transform="translate(19.000000, 704.000000)">
                <g id="vegetarian" transform="translate(12.000000, 0.000000)">
                    <path d="M64.7317816,12.5973124 C64.7317816,5.63975096 59.1225622,1.70530257e-13 52.2029754,1.70530257e-13 C47.3854076,1.70530257e-13 43.2085252,2.73808668 41.1120294,6.74757559 C38.1373527,5.77851622 34.9656837,5.248727 31.670204,5.248727 C28.8110532,5.248727 26.0471767,5.65123815 23.4218393,6.38779679 C21.2678107,2.57634704 17.2004708,1.70530257e-13 12.5288062,1.70530257e-13 C5.60921938,1.70530257e-13 -1.84741111e-13,5.63975096 -1.84741111e-13,12.5973124 C-1.84741111e-13,16.4092216 1.69100451,19.8181602 4.3513219,22.1280044 C2.24101823,26.3084227 1.0438754,31.0333339 1.0438754,36.0422083 C1.0438754,53.0487638 14.7555563,66.8356897 31.670204,66.8356897 C48.5843915,66.8356897 62.2956121,53.0487638 62.2956121,36.0422083 C62.2956121,31.3467044 61.2457533,26.8988643 59.3766271,22.9164852 C62.6113522,20.6383456 64.7317816,16.8696282 64.7317816,12.5973124" id="Fill-22" stroke="#FFFFFF" stroke-width="4"></path>
                    <g id="vegetarian-mark" transform="translate(17.000000, 19.000000)" fill="#FFFFFF">
                        <g id="Group" transform="translate(15.000000, 16.500000) scale(-1, 1) rotate(-180.000000) translate(-15.000000, -16.500000) translate(0.000000, 0.000000)">
                            <path d="M28.3238721,32.6470588 C27.6068121,32.4520124 26.0920227,32.0990712 24.9626531,31.8668731 C22.0854497,31.2817337 21.6283239,31.1052632 20.346579,30.120743 C18.5270391,28.7182663 17.2542575,26.006192 17.2632208,23.5448916 C17.272184,22.6068111 17.4066328,21.9380805 17.5590081,22.1145511 C17.5948611,22.1609907 17.7203466,22.4303406 17.8279056,22.7089783 C18.3746639,24.0743034 19.9611592,26.1547988 21.3146101,27.2786378 C22.0047804,27.8544892 23.3940843,28.4210526 23.3940843,28.123839 C23.3940843,28.0216718 22.919032,27.4086687 22.3543472,26.7956656 C21.8255154,26.2105263 21.6462504,25.9690402 20.6513295,24.4736842 C19.6205557,22.9040248 18.2760681,20.0990712 17.3707798,17.6006192 C16.4923812,15.1764706 15.8470272,13.244582 15.4167912,11.7956656 C14.6907679,9.31578947 14.0364506,7.35603715 13.9199283,7.31888545 C13.7765163,7.26315789 13.3821333,8.59133127 12.5575142,11.8885449 C11.2757693,17.0526316 10.7290111,18.8266254 9.42037646,22.0588235 C8.52405139,24.2600619 7.3409023,26.0247678 4.93875112,28.7275542 C3.62115327,30.2229102 1.74783388,31.6532508 0.618464296,32.0433437 C-0.116522259,32.3034056 -0.179265013,32.1733746 0.376456528,31.5325077 C2.99372572,28.4767802 4.50851509,26.2105263 6.11293696,22.9876161 C7.46638781,20.247678 8.39856588,17.5263158 10.0926203,11.2848297 C10.5228563,9.6873065 11.4729609,5.61919505 11.7777114,4.04024768 C12.1183149,2.28482972 12.4947714,0.566563467 12.5933672,0.297213622 C12.6292202,0.213622291 12.763669,0.102167183 12.8981177,0.0650154799 C13.2028682,-0.0185758514 14.6728414,-0.0185758514 14.9865551,0.0650154799 C15.4526442,0.204334365 15.5422767,0.585139319 16.1876307,4.96904025 C16.6178667,7.93188854 16.98536,9.70588235 17.7203466,12.3529412 C18.9662384,16.8668731 20.2927995,20.1733746 21.0994921,20.7120743 C21.2160143,20.7863777 21.7896624,20.9349845 22.3902002,21.0371517 C24.7206454,21.4365325 26.5939647,22.504644 27.9205258,24.2043344 C28.8078877,25.3374613 29.0409322,26.1733746 29.2650134,28.9597523 C29.3815357,30.4365325 29.4532417,30.8544892 29.7221392,31.7368421 C29.892441,32.3126935 30.0089633,32.8328173 29.9910367,32.8978328 C29.928294,33.0650155 29.784882,33.0464396 28.3238721,32.6470588 Z" id="Path"></path>
                        </g>
                    </g>
                </g>
            </g>
        </g>
    </g>
</svg>